<svg xmlns="http://www.w3.org/2000/svg" xmlns:xlink="http://www.w3.org/1999/xlink" viewBox="0 0 12.563 12.375" height="16.512" width="16.704" xmlns:v="https://vecta.io/nano"><defs><symbol id="A" overflow="visible"><path d="M2.609-14.75v.547c2.469.047 4.188 2.234 4.031 5.156h-.453c-1.406 0-2.422-.328-3.312-1.062-1.016-.875-1.406-1.719-1.406-3H.875v9.094h.594c.016-2.359 2.156-4.141 4.828-4.031h.344v.344C6.734-5 5-2.953 2.609-2.953v.578h9.063v-.578c-2.375-.047-4.047-2-4.047-4.734v-.359c1.641 0 2.359.141 3.297.719 1.203.719 1.938 1.922 1.938 3.188v.125h.578v-9.094h-.578c-.094 2.422-2.156 4.141-4.875 4.047l-.359.016c-.172-2.953 1.594-5.172 4.047-5.156v-.547zm0 0" stroke="none"/></symbol><clipPath ><path d="M.684.984h8.582V9H.684zm0 0"/></clipPath><clipPath ><path d="M6 4h3.266v4H6zm0 0"/></clipPath><clipPath ><path d="M4 6h4v3.57H4zm0 0"/></clipPath><clipPath ><path d="M0 0h10v10H0z"/></clipPath><clipPath ><path d="M.684.914h8.582V9H.684zm0 0"/></clipPath><clipPath ><path d="M6 4h3.266v4H6zm0 0"/></clipPath><clipPath ><path d="M4 6h4v3.504H4zm0 0"/></clipPath><clipPath ><path d="M0 0h10v10H0z"/></clipPath></defs><use xlink:href="#A" x="-.875" y="14.75" fill="red"/></svg>