<svg xmlns="http://www.w3.org/2000/svg" viewBox="0 0 7.484 22.344" height="29.76" width="9.984" xmlns:v="https://vecta.io/nano"><defs><clipPath ><path d="M.684.984h8.582V9H.684zm0 0"/></clipPath><clipPath ><path d="M6 4h3.266v4H6zm0 0"/></clipPath><clipPath ><path d="M4 6h4v3.57H4zm0 0"/></clipPath><clipPath ><path d="M0 0h10v10H0z"/></clipPath><clipPath ><path d="M.684.914h8.582V9H.684zm0 0"/></clipPath><clipPath ><path d="M6 4h3.266v4H6zm0 0"/></clipPath><clipPath ><path d="M4 6h4v3.504H4zm0 0"/></clipPath><clipPath ><path d="M0 0h10v10H0z"/></clipPath><clipPath id="I"><path d="M45 392.551h8V416h-8zm0 0"/></clipPath></defs><g transform="translate(-45.18 -392.762)" clip-path="url(#I)"><path d="M47.977 400.809c-1.312 1.703-2.797 3.375-2.797 5.531 0 2.281 1.828 4.172 4.109 4.172.297 0 .578-.047.859-.094a6.76 6.76 0 0 1 .016.563l-.062 1.328c-.094 1.188-.797 2.297-1.906 2.297-.641 0-1.203-.312-1.531-.797.125.047.234.078.359.078.609 0 1.109-.5 1.109-1.125 0-.656-.484-1.219-1.109-1.219-.687 0-1.312.547-1.312 1.219 0 1.328 1.141 2.344 2.484 2.344 1.359 0 2.281-1.297 2.406-2.734l.063-1.391-.016-.687c.328-.109.641-.266.906-.5.766-.641 1.109-1.5 1.109-2.344 0-1.562-1.187-3.094-3.047-3.109l-.797-2.578c1.094-1.391 2.078-2.828 2.078-4.609 0-1.359-.844-3.375-1.812-4.344-.031-.031-.062-.047-.109-.047s-.094.016-.125.047a4.93 4.93 0 0 0-1.672 3.703c0 1.688.375 2.969.797 4.297zm2.641 8.984c-.094-1.406-.359-2.891-.672-4.172 1.203.172 1.953 1.203 1.953 2.25 0 .797-.516 1.641-1.281 1.922zm-.484.141a4.99 4.99 0 0 1-.844.063c-1.594 0-3.266-1.219-3.266-2.734 0-1.953 1.203-3.5 2.422-5.031l.656 2.141c-1.281.219-2.016 1.266-2.016 2.328 0 .875.484 1.766 1.547 2.219.031.016.063.031.094.031.141 0 .25-.141.25-.266 0-.062-.031-.125-.094-.187-.703-.359-1.031-.922-1.031-1.469 0-.719.563-1.375 1.578-1.422.328 1.313.609 2.844.703 4.328zm-.531-15.469c.375.672.453.984.453 1.75 0 1.563-.766 2.875-1.703 4.109l-.469-1.656c-.047-.297-.094-.594-.094-.891 0-1.328.688-2.594 1.813-3.312zm0 0"/></g></svg>