<svg xmlns="http://www.w3.org/2000/svg" xmlns:xlink="http://www.w3.org/1999/xlink" viewBox="0 0 8.578 8.586" height="11.424" width="11.424" xmlns:v="https://vecta.io/nano"><defs><clipPath ><path d="M.684.984h8.582V9H.684zm0 0"/></clipPath><clipPath ><path d="M6 4h3.266v4H6zm0 0"/></clipPath><clipPath ><path d="M4 6h4v3.57H4zm0 0"/></clipPath><clipPath ><path d="M0 0h10v10H0z"/></clipPath><clipPath id="E"><path d="M.684.914h8.582V9H.684zm0 0"/></clipPath><clipPath id="F"><path d="M6 4h3.266v4H6zm0 0"/></clipPath><clipPath id="G"><path d="M4 6h4v3.504H4zm0 0"/></clipPath><clipPath id="H"><path d="M0 0h10v10H0z"/></clipPath><g clip-path="url(#H)" id="I"><g clip-path="url(#E)"><path d="M.684 7.781v-.227l.555-.004.559-.004.004-3.078-.016-3.102c-.016-.016-.121-.02-.559-.02H.684V.914l2.254.004L5.672 1c.613.117 1.121.336 1.484.637.234.195.414.449.504.715.047.137.055.18.059.363a.88.88 0 0 1-.027.344c-.137.555-.621.98-1.398 1.238l-.238.074c-.031 0-.059.039-.047.059.008.012.051.035.094.051.316.125.605.324.773.535.184.234.258.434.313.855l.23 1.289c.086.23.211.379.383.457.129.059.34.066.496.02.27-.082.445-.309.48-.617.008-.062.02-.125.027-.141.016-.039.098-.066.211-.066.168.004.223.066.203.234-.027.277-.184.555-.395.711-.203.148-.434.223-.758.238a7.52 7.52 0 0 1-.984-.047c-.609-.098-1.047-.371-1.187-.75-.082-.207-.094-.328-.105-1.004-.016-.699-.023-.77-.117-.969-.066-.137-.227-.34-.348-.434a1.27 1.27 0 0 0-.457-.215c-.137-.035-.172-.039-.867-.039l-.742.023c-.02.035-.02 2.922.004 2.961.016.031.039.031.566.031h.551l-.004.219-.004.223-3.687.008zm4.34-3.59c.434-.09.711-.23.875-.449.168-.23.227-.469.227-.953 0-.605-.086-.871-.359-1.102-.172-.148-.426-.246-.766-.301-.133-.023-.316-.027-.934-.035-.703-.008-.773-.004-.797.02s-.027.137-.027 1.418l.012 1.414c.008.023.074.027.828.02l.941-.031zm0 0" fill="red" fill-opacity="1" fill-rule="nonzero" stroke="none"/></g><g clip-path="url(#F)"><path d="M8.598 4.117c-.059.004-.113.004-.176.027a.71.71 0 0 0-.273.172c-.117.121-.203.32-.199.477.004.313.277.59.598.602.074 0 .09.02.074.047-.016.039-.148.215-.352.402s-1.246.625-1.387.695c-.23.105-.098.328.219.496 1.18-.574 1.621-1.129 1.871-1.492.348-.504.383-.891.102-1.199-.145-.156-.301-.23-.477-.227zm0 0" fill="red" fill-opacity="1" fill-rule="nonzero" stroke="none"/></g><g clip-path="url(#G)"><path d="M5.281 9.5a.56.56 0 0 0 .176-.023c.102-.031.203-.102.273-.176.117-.121.203-.316.199-.473-.004-.316-.277-.594-.598-.602-.074 0-.09-.02-.074-.051.016-.039.148-.211.352-.398s1.246-.625 1.387-.699c.23-.105.098-.324-.219-.492-1.18.574-1.621 1.129-1.871 1.492-.348.504-.383.891-.102 1.199.145.156.301.23.477.223zm0 0" fill="red" fill-opacity="1" fill-rule="nonzero" stroke="none"/></g></g></defs><use xlink:href="#I" x="-.684" y="-.914"/></svg>