<?xml version="1.0" standalone="no"?>
<!DOCTYPE svg PUBLIC "-//W3C//DTD SVG 20010904//EN"
 "http://www.w3.org/TR/2001/REC-SVG-20010904/DTD/svg10.dtd">
<svg version="1.0" xmlns="http://www.w3.org/2000/svg"
 width="926.000000pt" height="180.000000pt" viewBox="0 0 926.000000 180.000000"
 preserveAspectRatio="xMidYMid meet">

<g transform="translate(0.000000,180.000000) scale(0.100000,-0.100000)"
fill="#000000" stroke="none">
<path d="M1401 1733 c-6 -21 -11 -44 -11 -51 0 -10 -7 -9 -30 3 -53 28 -96 13
-129 -45 -55 -97 7 -204 92 -159 16 9 22 9 25 0 3 -9 52 -17 52 -8 0 1 14 65
30 142 17 77 30 143 30 147 0 5 -11 8 -25 8 -19 0 -26 -7 -34 -37z m-40 -94
c25 -48 -11 -129 -57 -129 -45 0 -56 71 -19 127 20 30 60 30 76 2z"/>
<path d="M3568 1760 c-9 -6 -19 -23 -23 -39 -3 -17 -14 -31 -26 -34 -22 -6
-26 -37 -4 -37 18 0 18 2 0 -80 -20 -91 -19 -100 9 -100 25 0 33 21 52 140 5
33 11 40 29 40 14 0 25 7 28 20 4 16 0 20 -18 20 -18 0 -22 4 -18 20 4 14 14
20 34 20 18 0 29 5 29 14 0 25 -59 35 -92 16z"/>
<path d="M5885 1748 c-7 -31 -55 -270 -55 -275 0 -2 12 -3 27 -1 27 3 28 7 55
138 33 166 33 160 3 160 -17 0 -26 -7 -30 -22z"/>
<path d="M7781 1733 c-6 -21 -11 -44 -11 -51 0 -10 -7 -9 -30 3 -53 28 -96 13
-129 -45 -55 -97 7 -204 92 -159 16 9 22 9 25 0 3 -9 52 -17 52 -8 0 1 14 65
30 142 17 77 30 143 30 147 0 5 -11 8 -25 8 -19 0 -26 -7 -34 -37z m-40 -94
c25 -48 -11 -129 -57 -129 -45 0 -56 71 -19 127 20 30 60 30 76 2z"/>
<path d="M1543 1684 c-61 -31 -83 -129 -40 -179 26 -31 89 -42 127 -23 65 35
91 133 47 183 -28 34 -89 42 -134 19z m92 -41 c19 -18 14 -72 -11 -110 -32
-51 -104 -7 -89 54 16 68 63 94 100 56z"/>
<path d="M3710 1689 c-24 -10 -40 -26 -40 -41 0 -12 48 -10 55 2 10 16 55 12
62 -5 8 -22 0 -27 -58 -36 -61 -10 -89 -32 -89 -71 0 -53 53 -83 103 -57 16 9
22 9 25 0 2 -6 14 -11 27 -11 20 0 23 6 29 50 3 28 9 72 12 98 5 37 2 51 -10
61 -21 17 -85 23 -116 10z m58 -139 c-11 -32 -51 -51 -70 -32 -23 23 16 60 64
61 15 1 15 -3 6 -29z"/>
<path d="M5402 1690 c-12 -5 -27 -21 -34 -35 -17 -38 2 -70 54 -87 31 -11 43
-20 43 -34 0 -25 -54 -33 -71 -9 -8 11 -20 14 -38 9 -62 -15 31 -72 98 -60 35
7 63 30 66 56 6 41 -2 52 -56 76 -32 14 -54 30 -51 37 5 16 55 22 71 8 16 -13
56 -3 50 14 -12 30 -84 44 -132 25z"/>
<path d="M5663 1684 c-61 -31 -83 -129 -40 -179 26 -31 89 -42 127 -23 65 35
91 133 47 183 -28 34 -89 42 -134 19z m92 -41 c19 -18 14 -72 -11 -110 -32
-51 -104 -7 -89 54 16 68 63 94 100 56z"/>
<path d="M7923 1684 c-61 -31 -83 -129 -40 -179 26 -31 89 -42 127 -23 65 35
91 133 47 183 -28 34 -89 42 -134 19z m92 -41 c19 -18 14 -72 -11 -110 -32
-51 -104 -7 -89 54 16 68 63 94 100 56z"/>
<path d="M276 1639 c-48 -38 -79 -115 -80 -196 l-1 -73 -97 0 -98 0 0 -360 0
-360 175 0 175 0 0 -56 c0 -62 -21 -117 -54 -139 -29 -21 -89 -19 -117 5 l-24
19 27 1 c36 0 58 25 58 64 0 64 -69 88 -116 40 -22 -21 -25 -31 -19 -61 14
-75 61 -113 138 -113 82 0 136 73 137 183 l0 57 450 0 450 0 0 -23 c0 -26 23
-51 57 -61 36 -11 98 12 134 49 l34 35 333 0 332 0 0 -23 c0 -26 23 -51 57
-61 36 -11 97 11 134 49 l35 35 455 0 c250 0 948 0 1552 0 l1098 0 -35 -31
c-44 -38 -57 -90 -31 -119 14 -15 31 -20 68 -20 83 0 147 58 147 134 l0 36
918 2 c504 2 956 2 1005 0 83 -3 87 -4 87 -26 0 -25 23 -50 57 -60 36 -11 98
12 134 49 l34 35 283 0 282 0 0 -23 c0 -26 23 -51 57 -61 36 -11 98 12 134 49
l34 35 293 0 292 0 0 360 0 360 -1118 0 c-1101 0 -1236 3 -1554 35 -54 6 -58
4 -58 -15 l0 -20 -1785 0 c-1580 0 -1785 2 -1785 15 0 19 -14 19 -76 0 -42
-13 -217 -15 -1265 -15 l-1216 0 -5 64 c-4 43 -16 88 -38 135 -42 90 -50 97
-84 70z m68 -105 c9 -24 7 -110 -4 -138 -8 -23 -15 -26 -60 -26 -47 0 -50 2
-50 25 0 39 26 94 61 126 36 33 44 35 53 13z m-132 -249 c22 -90 17 -95 -99
-95 l-83 0 0 85 0 86 82 -3 82 -3 18 -70z m108 67 c0 -5 -14 -30 -32 -56 -35
-53 -42 -50 -54 22 l-7 42 47 0 c25 0 46 -4 46 -8z m316 -23 c-28 -33 -32 -50
-16 -80 16 -29 67 -26 81 5 9 18 8 29 -5 48 -14 22 -15 27 -2 37 52 43 100
-80 54 -136 -8 -10 -65 -13 -224 -13 -118 0 -214 3 -214 6 0 3 11 20 25 38 13
18 34 53 45 79 l21 47 130 0 131 0 -26 -31z m2134 22 c-8 -4 -99 -34 -202 -66
-143 -45 -188 -63 -191 -77 -5 -17 -26 -18 -436 -18 l-431 0 0 44 c0 61 -18
68 -22 9 l-3 -48 -325 0 c-284 0 -324 2 -321 15 17 61 13 80 -22 115 l-35 35
1002 0 c550 0 994 -4 986 -9z m510 -76 l0 -85 -160 0 -160 0 0 85 0 85 160 0
160 0 0 -85z m488 3 l-3 -83 -227 -3 -228 -2 0 85 0 85 230 0 231 0 -3 -82z
m870 0 l-3 -83 -420 0 -420 0 -3 83 -3 82 426 0 426 0 -3 -82z m662 -3 l0 -85
-317 2 -318 3 -3 69 c-2 38 -1 75 2 83 4 10 65 13 321 13 l315 0 0 -85z m1230
0 l0 -85 -597 2 -598 3 -3 83 -3 82 601 0 600 0 0 -85z m925 0 l0 -80 -165 0
-165 0 -3 83 -3 82 168 -2 168 -3 0 -80z m1780 0 l0 -80 -277 -3 -278 -2 0 44
c0 61 -18 68 -22 9 l-3 -48 -380 0 -380 0 -3 35 c-5 60 -16 68 -21 15 l-6 -50
-190 0 -190 0 -3 69 c-2 38 -1 75 2 83 5 11 151 13 878 11 l873 -3 0 -80z
m-2430 25 c138 -11 260 -20 273 -20 21 0 23 -4 20 -42 l-3 -43 -270 0 -270 0
-3 63 c-2 34 -2 62 0 62 2 0 116 -9 253 -20z m-3875 -50 l0 -60 -177 0 c-97 0
-173 3 -169 8 7 6 318 109 339 111 4 1 7 -26 7 -59z m-2760 -97 c-11 -16 -37
-52 -57 -80 -26 -39 -42 -53 -59 -53 -23 0 -24 3 -24 80 l0 80 81 0 81 0 -22
-27z m525 -6 c-67 -54 -85 -75 -85 -102 l0 -25 -148 0 -148 0 -17 71 c-9 39
-15 75 -11 80 3 5 103 9 227 9 l222 -1 -40 -32z m795 -47 l0 -80 -342 0 -342
0 27 28 c33 34 38 65 6 37 -18 -17 -24 -17 -52 -6 -18 7 -47 19 -66 26 l-33
12 63 31 64 30 338 1 337 1 0 -80z m884 43 c3 -21 6 -57 6 -80 l0 -43 -435 0
-435 0 0 80 0 80 429 0 428 0 7 -37z m556 -43 l0 -80 -265 0 -265 0 0 64 0 63
53 15 c39 12 106 16 265 17 l212 1 0 -80z m350 0 l0 -80 -160 0 -160 0 0 80 0
80 160 0 160 0 0 -80z m490 0 l0 -80 -230 0 -230 0 0 80 0 80 230 0 230 0 0
-80z m870 0 l0 -80 -425 0 -425 0 0 80 0 80 425 0 425 0 0 -80z m660 0 l0 -80
-320 0 -320 0 0 80 0 80 320 0 320 0 0 -80z m330 0 l0 -80 -150 0 -150 0 0 80
0 80 150 0 150 0 0 -80z m900 0 l0 -80 -440 0 -440 0 0 80 0 80 440 0 440 0 0
-80z m570 0 l0 -80 -275 0 -275 0 0 80 0 80 275 0 275 0 0 -80z m360 0 l0 -80
-170 0 -170 0 0 80 0 80 170 0 170 0 0 -80z m410 0 l0 -80 -195 0 -195 0 0 80
0 80 195 0 195 0 0 -80z m790 0 l0 -80 -385 0 -385 0 0 80 0 80 385 0 385 0 0
-80z m580 0 l0 -80 -280 0 -280 0 0 80 0 80 280 0 280 0 0 -80z m-8961 -62 c1
-15 -8 -18 -54 -18 -30 0 -55 3 -55 8 0 4 19 29 42 56 l43 50 12 -40 c6 -21
12 -47 12 -56z m422 2 l24 -19 -52 -1 c-54 0 -63 6 -41 28 17 17 43 15 69 -8z
m-635 -115 c-1 -74 -3 -85 -18 -85 -16 0 -18 11 -18 85 0 76 2 85 18 85 17 0
18 -9 18 -85z m170 70 c-35 -26 -56 -69 -56 -112 0 -42 -1 -43 -35 -43 -32 0
-35 3 -35 29 0 32 24 107 41 128 7 7 31 13 58 13 42 -1 44 -2 27 -15z m446 10
c8 -8 -12 -106 -28 -137 -14 -27 -18 -28 -83 -28 l-68 0 -7 40 c-4 28 -19 55
-47 85 l-42 45 135 0 c74 0 137 -2 140 -5z m803 -80 l0 -80 -337 -3 -338 -2 0
55 c0 30 -4 55 -8 55 -4 0 -16 -13 -25 -30 -10 -16 -22 -30 -28 -30 -5 0 -14
-11 -19 -25 -6 -16 -17 -25 -31 -25 -28 0 -25 6 51 94 l65 76 335 -2 335 -3 0
-80z m890 0 l0 -80 -432 -3 -433 -2 0 85 0 85 433 -2 432 -3 0 -80z m555 42
l0 -42 -45 3 c-57 5 -97 -11 -135 -54 l-29 -34 -161 0 -160 0 0 85 0 85 265 0
265 0 0 -43z m350 -42 l0 -85 -166 0 -166 0 6 23 c3 12 6 50 6 85 l0 62 160 0
160 0 0 -85z m485 0 l0 -80 -227 -3 -228 -4 0 86 0 86 228 -2 227 -3 0 -80z
m875 1 l0 -84 -422 2 -423 1 -3 69 c-2 38 -1 75 2 83 4 11 82 13 426 13 l420
0 0 -84z m660 -1 l0 -85 -317 2 -318 3 -3 69 c-2 38 -1 75 2 83 4 10 65 13
321 13 l315 0 0 -85z m325 0 l0 -80 -147 -3 -148 -3 0 86 0 86 148 -3 147 -3
0 -80z m905 42 l0 -42 -45 3 c-57 5 -97 -11 -135 -54 l-29 -34 -336 0 -335 0
0 85 0 85 440 0 440 0 0 -43z m565 -42 l0 -80 -272 -3 -273 -4 0 79 c0 44 3
83 7 86 4 4 126 6 272 5 l266 -3 0 -80z m360 0 l0 -80 -167 -3 -168 -2 0 85 0
85 168 -2 167 -3 0 -80z m410 0 l0 -80 -190 0 -190 0 -3 69 c-2 38 -1 75 2 83
5 11 42 13 193 11 l188 -3 0 -80z m790 0 l0 -80 -382 -3 -383 -2 0 85 0 85
383 -2 382 -3 0 -80z m580 0 l0 -80 -277 -3 -278 -2 0 85 0 85 278 -2 277 -3
0 -80z m-8931 7 c3 -5 8 -28 12 -50 l7 -42 -52 0 c-48 0 -51 1 -51 25 0 43 66
95 84 67z m108 -32 c22 -21 37 -44 33 -50 -7 -12 -82 -14 -89 -2 -3 5 -8 28
-12 50 -6 36 -4 42 11 42 9 0 35 -18 57 -40z m-323 -107 c20 -39 70 -92 106
-111 16 -9 0 -11 -72 -12 l-93 0 0 80 c0 73 2 80 20 80 13 0 26 -13 39 -37z
m130 -5 c31 -31 45 -38 53 -30 9 9 5 17 -15 32 -39 31 -34 40 22 40 l49 0 9
-62 c5 -35 8 -66 6 -70 -8 -15 -88 -8 -128 11 -46 21 -79 54 -94 94 -10 26 -9
27 23 27 26 0 43 -9 75 -42z m231 13 c0 -31 -43 -91 -65 -91 -7 0 -15 19 -19
46 -10 75 -10 74 39 74 43 0 45 -1 45 -29z m161 0 c-33 -46 -28 -51 49 -51 39
0 70 -2 70 -5 0 -18 -26 -55 -47 -64 -14 -6 -83 -11 -166 -11 l-142 0 35 19
c39 20 79 72 87 114 5 26 8 27 70 27 l64 0 -20 -29z m117 2 c-3 -26 -7 -28
-55 -31 -29 -2 -53 0 -53 3 0 3 8 17 18 30 13 18 27 24 55 25 36 0 38 -2 35
-27z m762 -13 l0 -40 -51 0 c-57 0 -81 -10 -125 -52 l-31 -29 -216 3 c-195 3
-217 5 -236 22 -32 29 -28 56 9 56 17 0 30 5 30 10 0 6 -13 10 -30 10 -27 0
-30 3 -30 30 l0 30 340 0 340 0 0 -40z m890 0 l0 -40 -50 0 c-57 0 -93 -15
-129 -54 l-24 -26 -334 0 -333 0 0 80 0 80 435 0 435 0 0 -40z m343 21 c-7
-27 38 -71 72 -71 39 0 87 24 120 59 l30 31 167 0 168 0 0 -80 0 -80 -440 0
-440 0 0 80 0 80 164 0 c158 0 164 -1 159 -19z m883 -12 c-39 -34 -57 -89 -36
-114 11 -13 -4 -15 -124 -15 l-136 0 0 80 0 80 165 0 166 0 -35 -31z m870 0
c-39 -34 -57 -89 -36 -114 11 -13 -31 -15 -356 -15 -350 1 -368 2 -349 18 37
30 55 66 55 104 l0 38 360 0 361 0 -35 -31z m824 -49 l0 -80 -357 0 c-340 1
-357 2 -338 18 37 30 55 66 55 104 l0 38 320 0 320 0 0 -80z m330 0 l0 -80
-150 0 -150 0 0 80 0 80 150 0 150 0 0 -80z m690 60 c0 -29 44 -70 75 -70 39
0 87 24 120 59 l30 31 213 0 213 0 -35 -31 c-39 -34 -57 -89 -36 -114 11 -13
-61 -15 -619 -15 l-631 0 0 80 0 80 335 0 c331 0 335 0 335 -20z m1140 -60 l0
-80 -207 0 c-198 1 -207 2 -188 18 37 30 55 66 55 104 l0 38 170 0 170 0 0
-80z m410 37 l0 -42 -45 3 c-55 5 -93 -10 -131 -49 -27 -28 -31 -29 -121 -29
l-93 0 0 80 0 80 195 0 195 0 0 -43z m790 3 l0 -40 -50 0 c-57 0 -93 -15 -129
-54 l-24 -26 -284 0 -283 0 0 80 0 80 385 0 385 0 0 -40z m580 -40 l0 -80
-280 0 -280 0 0 80 0 80 280 0 280 0 0 -80z"/>
<path d="M2225 395 c-19 -9 -24 -14 -12 -14 13 -1 17 -10 17 -43 0 -33 -3 -39
-12 -30 -33 33 -96 -11 -105 -73 -8 -67 48 -117 97 -85 8 5 17 5 20 1 3 -5 16
-4 30 1 16 6 20 12 13 16 -8 5 -13 48 -15 124 l-3 116 -30 -13z m-6 -109 c7
-8 11 -37 9 -68 -3 -47 -6 -53 -26 -56 -31 -5 -50 13 -58 54 -11 60 42 110 75
70z"/>
<path d="M2564 399 c-10 -17 13 -36 27 -22 12 12 4 33 -11 33 -5 0 -12 -5 -16
-11z"/>
<path d="M2880 392 c-45 -37 -22 -95 52 -133 63 -32 61 -99 -2 -99 -19 0 -37
10 -54 31 l-26 31 0 -42 c0 -36 2 -41 14 -31 11 9 20 9 35 2 33 -18 70 -13 96
14 46 45 25 89 -67 144 -57 34 -50 81 12 81 10 0 30 -14 44 -31 21 -24 26 -27
26 -12 0 34 -12 65 -20 53 -6 -9 -13 -9 -28 -1 -30 16 -57 14 -82 -7z"/>
<path d="M3064 399 c-10 -17 13 -36 27 -22 12 12 4 33 -11 33 -5 0 -12 -5 -16
-11z"/>
<path d="M6504 399 c-10 -17 13 -36 27 -22 12 12 4 33 -11 33 -5 0 -12 -5 -16
-11z"/>
<path d="M7904 399 c-10 -17 13 -36 27 -22 12 12 4 33 -11 33 -5 0 -12 -5 -16
-11z"/>
<path d="M1193 389 c14 -9 17 -26 17 -119 0 -93 -3 -110 -17 -119 -13 -8 11
-10 88 -11 102 0 107 1 113 23 11 41 6 46 -19 22 -19 -20 -34 -25 -75 -25
l-50 0 0 110 c0 105 1 111 23 120 17 7 8 9 -38 9 -45 0 -56 -2 -42 -10z"/>
<path d="M2652 391 c-11 -7 -11 -9 2 -14 23 -9 23 -198 0 -221 -14 -15 -11
-16 33 -15 26 1 40 3 31 6 -16 4 -18 19 -18 129 0 111 -2 124 -17 124 -10 0
-24 -4 -31 -9z"/>
<path d="M8674 387 c-5 -14 12 -146 20 -155 3 -3 6 6 6 20 0 14 3 53 6 87 6
53 5 61 -10 61 -9 0 -19 -6 -22 -13z"/>
<path d="M1464 308 c-50 -24 -57 -96 -15 -139 38 -38 74 -38 112 0 72 73 -6
184 -97 139z m69 -23 c25 -24 31 -73 13 -100 -29 -44 -75 -24 -90 39 -13 55
41 98 77 61z"/>
<path d="M2328 309 c-22 -12 -24 -49 -4 -49 8 0 16 10 18 23 5 34 52 31 56 -4
2 -21 -2 -28 -21 -33 -35 -8 -77 -45 -77 -66 0 -31 27 -45 62 -32 22 8 35 8
47 0 13 -8 23 -8 37 0 17 10 17 11 2 12 -15 0 -18 10 -18 64 0 45 -5 69 -16
80 -17 18 -60 20 -86 5z m72 -103 c0 -26 -5 -36 -20 -41 -20 -6 -50 9 -50 26
0 13 42 49 57 49 8 0 13 -13 13 -34z"/>
<path d="M2565 305 c-19 -9 -24 -14 -12 -14 14 -1 17 -11 17 -66 0 -50 -4 -66
-17 -74 -14 -8 -7 -10 31 -11 42 0 47 2 33 12 -12 10 -17 32 -19 90 l-3 76
-30 -13z"/>
<path d="M3065 305 c-19 -9 -24 -14 -12 -14 14 -1 17 -11 17 -66 0 -50 -4 -66
-17 -74 -14 -8 -7 -10 31 -11 42 0 47 2 33 12 -12 10 -17 32 -19 90 l-3 76
-30 -13z"/>
<path d="M3429 297 c-24 -26 -24 -52 -1 -75 18 -18 18 -19 0 -42 -13 -16 -15
-26 -8 -35 7 -9 6 -16 -5 -25 -21 -17 -19 -47 4 -60 51 -27 141 8 141 55 0 30
-26 45 -78 45 -21 0 -42 3 -45 7 -12 12 15 33 43 33 33 0 60 28 60 62 0 18 7
27 22 31 12 3 25 4 30 1 13 -8 10 -128 -4 -142 -9 -9 -2 -12 33 -12 35 1 40 3
27 11 -14 8 -18 23 -18 68 0 62 14 86 47 79 15 -3 19 -15 21 -66 2 -39 -2 -69
-9 -78 -9 -12 -5 -14 27 -14 30 0 35 3 26 12 -7 7 -12 40 -12 78 0 38 -5 71
-12 78 -16 16 -51 15 -66 0 -8 -8 -15 -9 -20 -3 -4 6 -47 11 -95 12 -78 1 -90
-1 -108 -20z m69 -9 c15 -15 16 -64 2 -73 -19 -12 -48 5 -54 31 -11 42 24 70
52 42z m49 -174 c9 -23 -23 -44 -68 -44 -40 0 -63 18 -53 44 9 23 112 23 121
0z"/>
<path d="M3814 308 c-25 -12 -44 -48 -44 -84 0 -34 51 -84 85 -84 34 0 85 50
85 84 0 73 -63 115 -126 84z m69 -23 c25 -24 31 -73 13 -100 -29 -44 -75 -24
-90 39 -13 55 41 98 77 61z"/>
<path d="M4400 309 c-14 -4 -19 -7 -12 -8 8 -1 12 -22 12 -71 0 -55 -3 -71
-17 -79 -14 -8 -5 -10 37 -10 43 0 50 2 33 9 -20 8 -23 17 -23 68 0 65 13 85
48 75 16 -4 22 -1 22 11 0 21 -34 21 -51 0 -11 -13 -14 -14 -19 -2 -3 10 -13
12 -30 7z"/>
<path d="M4562 313 c-19 -7 -42 -58 -42 -93 0 -36 38 -80 70 -80 29 0 57 16
71 42 11 20 10 20 -12 4 -33 -22 -65 -20 -83 6 -32 45 -22 58 44 58 52 0 59 2
53 18 -16 44 -57 63 -101 45z m58 -28 c11 -13 7 -15 -29 -15 -39 0 -55 13 -28
23 23 10 45 7 57 -8z"/>
<path d="M5478 309 c-22 -12 -24 -49 -4 -49 8 0 16 10 18 23 5 34 52 31 56 -4
2 -21 -2 -28 -21 -33 -35 -8 -77 -45 -77 -66 0 -31 27 -45 62 -32 22 8 35 8
47 0 13 -8 23 -8 37 0 17 10 17 11 2 12 -15 0 -18 10 -18 64 0 45 -5 69 -16
80 -17 18 -60 20 -86 5z m72 -103 c0 -26 -5 -36 -20 -41 -20 -6 -50 9 -50 26
0 13 42 49 57 49 8 0 13 -13 13 -34z"/>
<path d="M6306 311 c-18 -7 -18 -8 -3 -14 13 -5 17 -20 17 -70 0 -36 -5 -68
-12 -75 -9 -9 -2 -12 33 -12 35 1 40 3 27 11 -14 8 -18 23 -18 68 0 62 14 86
47 79 15 -3 19 -15 21 -66 2 -39 -2 -69 -9 -78 -10 -12 2 -14 77 -14 65 1 84
3 72 11 -15 8 -18 24 -18 89 l0 79 -32 -12 c-24 -8 -28 -12 -15 -15 15 -3 17
-13 15 -70 -3 -64 -4 -67 -28 -67 -24 0 -25 3 -28 70 -2 38 -8 75 -14 82 -13
17 -50 17 -67 1 -11 -10 -14 -10 -18 0 -5 13 -18 14 -47 3z"/>
<path d="M6795 310 c-11 -5 -14 -9 -7 -9 8 -1 12 -23 12 -75 0 -63 -3 -75 -17
-79 -10 -3 4 -5 31 -6 43 -1 47 1 32 12 -23 17 -19 125 5 140 35 22 49 2 49
-72 0 -46 -4 -71 -12 -74 -7 -3 7 -6 32 -6 27 0 40 3 32 8 -9 5 -12 28 -10 77
3 64 5 69 27 72 32 5 41 -12 41 -80 0 -44 -4 -59 -17 -67 -14 -8 -7 -10 32
-10 39 0 46 2 33 10 -14 8 -18 23 -18 70 0 33 -5 69 -10 80 -13 22 -48 25 -76
5 -17 -13 -21 -12 -37 2 -15 13 -23 14 -50 4 -21 -8 -33 -9 -35 -2 -4 12 -10
12 -37 0z"/>
<path d="M7108 309 c-22 -12 -24 -49 -4 -49 8 0 16 10 18 23 5 34 52 31 56 -4
2 -21 -2 -28 -21 -33 -35 -8 -77 -45 -77 -66 0 -31 27 -45 62 -32 22 8 35 8
47 0 13 -8 23 -8 37 0 17 10 17 11 2 12 -15 0 -18 10 -18 64 0 45 -5 69 -16
80 -17 18 -60 20 -86 5z m72 -103 c0 -26 -5 -36 -20 -41 -20 -6 -50 9 -50 26
0 13 42 49 57 49 8 0 13 -13 13 -34z"/>
<path d="M7595 310 c-11 -5 -14 -9 -7 -9 8 -1 12 -23 12 -75 0 -63 -3 -75 -17
-79 -10 -3 4 -5 31 -6 43 -1 47 1 32 12 -23 17 -19 125 5 140 35 22 49 2 49
-72 0 -46 -4 -71 -12 -74 -7 -3 7 -6 32 -6 27 0 40 3 32 8 -9 5 -12 28 -10 77
3 64 5 69 27 72 32 5 41 -12 41 -80 0 -44 -4 -59 -17 -67 -14 -8 -7 -10 32
-10 39 0 46 2 33 10 -14 8 -18 23 -18 70 0 33 -5 69 -10 80 -13 22 -48 25 -76
5 -17 -13 -21 -12 -37 2 -15 13 -23 14 -50 4 -21 -8 -33 -9 -35 -2 -4 12 -10
12 -37 0z"/>
<path d="M7905 305 c-19 -9 -24 -14 -12 -14 14 -1 17 -11 17 -66 0 -50 -4 -66
-17 -74 -14 -8 -7 -10 31 -11 42 0 47 2 33 12 -12 10 -17 32 -19 90 l-3 76
-30 -13z"/>
<path d="M8498 309 c-22 -12 -24 -49 -4 -49 8 0 16 10 18 23 5 34 52 31 56 -4
2 -21 -2 -28 -21 -33 -35 -8 -77 -45 -77 -66 0 -31 27 -45 62 -32 22 8 35 8
47 0 13 -8 23 -8 37 0 17 10 17 11 2 12 -15 0 -18 10 -18 64 0 45 -5 69 -16
80 -17 18 -60 20 -86 5z m72 -103 c0 -26 -5 -36 -20 -41 -20 -6 -50 9 -50 26
0 13 42 49 57 49 8 0 13 -13 13 -34z"/>
<path d="M1780 250 c0 -6 30 -10 70 -10 40 0 70 4 70 10 0 6 -30 10 -70 10
-40 0 -70 -4 -70 -10z"/>
<path d="M3200 250 c0 -6 30 -10 70 -10 40 0 70 4 70 10 0 6 -30 10 -70 10
-40 0 -70 -4 -70 -10z"/>
<path d="M4100 250 c0 -6 30 -10 70 -10 40 0 70 4 70 10 0 6 -30 10 -70 10
-40 0 -70 -4 -70 -10z"/>
<path d="M5880 250 c0 -6 30 -10 70 -10 40 0 70 4 70 10 0 6 -30 10 -70 10
-40 0 -70 -4 -70 -10z"/>
<path d="M6610 250 c0 -6 30 -10 70 -10 40 0 70 4 70 10 0 6 -30 10 -70 10
-40 0 -70 -4 -70 -10z"/>
<path d="M8150 250 c0 -6 30 -10 70 -10 40 0 70 4 70 10 0 6 -30 10 -70 10
-40 0 -70 -4 -70 -10z"/>
<path d="M4710 161 c0 -12 6 -21 15 -21 19 0 19 -9 -2 -32 -9 -10 -11 -18 -5
-18 21 0 47 50 35 69 -16 25 -43 26 -43 2z"/>
<path d="M8675 171 c-8 -15 3 -31 21 -31 9 0 14 7 12 17 -4 20 -24 28 -33 14z"/>
</g>
</svg>
