<?xml version="1.0" encoding="utf-8"?>
<!-- Generator: Adobe Illustrator 16.0.0, SVG Export Plug-In . SVG Version: 6.00 Build 0)  -->
<!DOCTYPE svg PUBLIC "-//W3C//DTD SVG 1.1//EN" "http://www.w3.org/Graphics/SVG/1.1/DTD/svg11.dtd">
<svg version="1.1" id="Layer_1" xmlns="http://www.w3.org/2000/svg" xmlns:xlink="http://www.w3.org/1999/xlink" x="0px" y="0px"
	 width="416.693px" height="73.701px" viewBox="0 0 416.693 73.701" enable-background="new 0 0 416.693 73.701"
	 xml:space="preserve">
<g>
	
		<path fill="none" stroke="#000000" stroke-width="0.12" stroke-linecap="round" stroke-linejoin="round" stroke-miterlimit="10" d="
		M1.678,25.494h413.641 M1.678,25.596h413.641 M1.678,25.697h413.641 M1.678,25.799h413.641 M1.678,29.76h413.641 M1.678,29.861
		h413.641 M1.678,29.964h413.641 M1.678,30.065h413.641 M1.678,34.028h413.641 M1.678,34.13h413.641 M1.678,34.232h413.641
		 M1.678,34.333h413.641 M1.678,38.301h413.641 M1.678,38.401h413.641 M1.678,38.504h413.641 M1.678,38.604h413.641 M1.678,42.566
		h413.641 M1.678,42.669h413.641 M1.678,42.77h413.641 M1.678,42.872h413.641"/>
	<g>
		<path d="M49.175,65.436v-0.19c0.263-0.029,0.461-0.129,0.593-0.298c0.131-0.168,0.357-0.63,0.677-1.385l2.133-5.035h0.204
			l2.552,5.816c0.17,0.385,0.306,0.624,0.408,0.715c0.102,0.091,0.272,0.153,0.512,0.187v0.19h-2.604v-0.19
			c0.299-0.026,0.492-0.06,0.579-0.098s0.13-0.132,0.13-0.281c0-0.05-0.017-0.139-0.05-0.264c-0.033-0.127-0.08-0.26-0.14-0.399
			l-0.41-0.986h-2.699c-0.266,0.671-0.425,1.08-0.477,1.229c-0.052,0.147-0.077,0.265-0.077,0.352c0,0.172,0.07,0.292,0.209,0.358
			c0.087,0.04,0.25,0.07,0.489,0.09v0.19H49.175z M53.585,62.8l-1.173-2.825L51.233,62.8H53.585z"/>
		<path d="M73.167,60.816v0.36h-1.02l-0.01,2.887c0,0.253,0.021,0.445,0.065,0.575c0.08,0.23,0.236,0.346,0.47,0.346
			c0.12,0,0.224-0.028,0.312-0.085c0.088-0.057,0.189-0.146,0.302-0.271l0.13,0.11l-0.11,0.15c-0.173,0.233-0.357,0.398-0.55,0.496
			c-0.193,0.096-0.38,0.145-0.56,0.145c-0.394,0-0.66-0.175-0.8-0.525c-0.076-0.191-0.115-0.454-0.115-0.791v-3.037h-0.545
			c-0.017-0.01-0.029-0.02-0.037-0.03c-0.009-0.01-0.013-0.023-0.013-0.039c0-0.033,0.008-0.06,0.022-0.078
			c0.015-0.019,0.062-0.062,0.143-0.127c0.23-0.19,0.396-0.346,0.498-0.464s0.341-0.432,0.717-0.939c0.043,0,0.07,0.003,0.078,0.01
			c0.008,0.007,0.012,0.032,0.012,0.075v1.232H73.167z"/>
	</g>
	<g>
		<path d="M76.981,61.225c0.353,0.325,0.53,0.787,0.53,1.386h-3.175c0.033,0.773,0.208,1.335,0.525,1.689
			c0.316,0.353,0.692,0.529,1.125,0.529c0.35,0,0.645-0.092,0.885-0.275c0.24-0.183,0.462-0.442,0.665-0.779l0.175,0.061
			c-0.137,0.425-0.393,0.817-0.768,1.179s-0.834,0.542-1.377,0.542c-0.627,0-1.111-0.237-1.453-0.711
			c-0.342-0.474-0.513-1.021-0.513-1.638c0-0.672,0.199-1.252,0.595-1.739c0.396-0.488,0.913-0.731,1.55-0.731
			C76.216,60.736,76.628,60.898,76.981,61.225z M74.586,61.608c-0.107,0.18-0.184,0.407-0.23,0.681h2.11
			c-0.037-0.334-0.1-0.582-0.19-0.745c-0.163-0.295-0.437-0.442-0.82-0.442C75.076,61.102,74.786,61.271,74.586,61.608z"/>
		<path d="M80.112,66.272c-0.244,0.291-0.505,0.499-0.786,0.626l-0.094-0.2c0.32-0.181,0.541-0.377,0.662-0.587
			s0.183-0.385,0.183-0.525c0-0.047-0.015-0.077-0.045-0.091s-0.062-0.02-0.095-0.02l-0.335,0.035c-0.14,0-0.269-0.046-0.385-0.138
			s-0.175-0.226-0.175-0.398c0-0.134,0.048-0.264,0.145-0.391s0.255-0.19,0.475-0.19c0.21,0,0.398,0.083,0.565,0.248
			c0.167,0.166,0.25,0.396,0.25,0.688C80.477,65.667,80.355,65.981,80.112,66.272z"/>
	</g>
	<g>
		<path d="M92.85,63.372c0.173,0.461,0.376,0.828,0.609,1.102c0.406,0.478,0.91,0.716,1.513,0.716c0.326,0,0.608-0.103,0.847-0.31
			c0.238-0.207,0.356-0.496,0.356-0.867c0-0.334-0.12-0.624-0.359-0.872c-0.156-0.157-0.485-0.392-0.988-0.706l-0.873-0.546
			c-0.263-0.167-0.473-0.335-0.63-0.506c-0.29-0.324-0.435-0.681-0.435-1.073c0-0.517,0.171-0.947,0.515-1.292
			c0.343-0.344,0.798-0.516,1.365-0.516c0.233,0,0.514,0.058,0.842,0.173c0.329,0.116,0.516,0.173,0.562,0.173
			c0.127,0,0.214-0.03,0.263-0.09s0.086-0.146,0.113-0.256h0.21l0.225,2.185H96.74c-0.167-0.657-0.434-1.117-0.802-1.378
			c-0.368-0.26-0.732-0.391-1.092-0.391c-0.28,0-0.524,0.083-0.733,0.248S93.8,59.562,93.8,59.854c0,0.264,0.08,0.489,0.24,0.677
			c0.16,0.19,0.408,0.389,0.744,0.596l0.899,0.557c0.562,0.348,0.959,0.666,1.191,0.956c0.227,0.294,0.341,0.642,0.341,1.042
			c0,0.538-0.203,0.987-0.608,1.348c-0.405,0.361-0.922,0.542-1.552,0.542c-0.317,0-0.648-0.061-0.993-0.181s-0.542-0.18-0.593-0.18
			c-0.12,0-0.201,0.036-0.242,0.108c-0.042,0.075-0.069,0.152-0.083,0.236H92.92l-0.305-2.184H92.85z"/>
		<path d="M98.075,65.295c0.356-0.033,0.581-0.095,0.675-0.183c0.093-0.089,0.14-0.328,0.14-0.719v-2.39
			c0-0.218-0.015-0.368-0.045-0.45c-0.05-0.138-0.155-0.206-0.314-0.206c-0.037,0-0.073,0.003-0.108,0.01
			c-0.035,0.008-0.136,0.034-0.302,0.08v-0.155l0.215-0.069c0.583-0.191,0.99-0.334,1.22-0.432c0.093-0.04,0.153-0.06,0.18-0.06
			c0.007,0.023,0.01,0.048,0.01,0.074v3.598c0,0.381,0.046,0.619,0.138,0.716c0.092,0.098,0.299,0.159,0.623,0.186v0.141h-2.43
			V65.295z M98.869,58.597c0.1-0.104,0.224-0.155,0.371-0.155c0.143,0,0.266,0.052,0.367,0.152c0.102,0.102,0.153,0.225,0.153,0.372
			c0,0.143-0.051,0.265-0.153,0.366c-0.102,0.102-0.224,0.151-0.367,0.151c-0.147,0-0.271-0.05-0.371-0.151s-0.15-0.224-0.15-0.366
			C98.719,58.822,98.769,58.7,98.869,58.597z"/>
	</g>
	<g>
		<path d="M105.127,63.217c-0.168-0.258-0.253-0.547-0.253-0.867c0-0.392,0.156-0.762,0.466-1.112s0.748-0.525,1.314-0.525
			c0.244,0,0.512,0.057,0.805,0.172s0.575,0.174,0.845,0.174c0.07,0,0.175-0.004,0.317-0.009c0.142-0.005,0.244-0.006,0.308-0.006
			h0.06v0.404h-0.865c0.06,0.141,0.107,0.263,0.14,0.365c0.056,0.194,0.085,0.378,0.085,0.552c0,0.381-0.158,0.73-0.473,1.05
			c-0.315,0.318-0.739,0.479-1.272,0.479c-0.083,0-0.233-0.015-0.45-0.045c-0.097,0-0.225,0.082-0.385,0.245
			c-0.16,0.164-0.24,0.298-0.24,0.4c0,0.107,0.117,0.186,0.351,0.236c0.154,0.033,0.324,0.05,0.511,0.05
			c0.858,0,1.44,0.049,1.748,0.146c0.504,0.157,0.757,0.494,0.757,1.012c0,0.527-0.294,0.949-0.883,1.262
			c-0.588,0.314-1.183,0.472-1.782,0.472c-0.547,0-0.98-0.111-1.3-0.333c-0.32-0.223-0.48-0.455-0.48-0.699
			c0-0.12,0.042-0.238,0.127-0.354c0.085-0.114,0.252-0.287,0.5-0.513l0.329-0.296l0.06-0.06c-0.152-0.061-0.266-0.119-0.342-0.176
			c-0.132-0.104-0.199-0.223-0.199-0.355c0-0.124,0.058-0.26,0.173-0.408c0.115-0.148,0.361-0.391,0.737-0.725
			C105.531,63.651,105.296,63.473,105.127,63.217z M105.657,66.943c0.315,0.107,0.676,0.16,1.083,0.16
			c0.553,0,1.003-0.096,1.35-0.287c0.347-0.193,0.52-0.429,0.52-0.71c0-0.223-0.14-0.372-0.42-0.446
			c-0.174-0.043-0.503-0.067-0.987-0.074c-0.124-0.003-0.254-0.009-0.391-0.014c-0.137-0.005-0.262-0.01-0.375-0.017
			c-0.074-0.003-0.192-0.017-0.355-0.04c-0.164-0.024-0.286-0.044-0.366-0.061c-0.04,0-0.138,0.106-0.292,0.316
			c-0.158,0.213-0.237,0.41-0.237,0.591C105.185,66.643,105.343,66.836,105.657,66.943z M107.245,63.502
			c0.2-0.16,0.3-0.439,0.3-0.837c0-0.317-0.081-0.675-0.242-1.072c-0.162-0.396-0.431-0.596-0.808-0.596
			c-0.327,0-0.552,0.154-0.675,0.466c-0.063,0.163-0.095,0.366-0.095,0.606c0,0.406,0.098,0.772,0.295,1.097
			c0.196,0.323,0.452,0.485,0.765,0.485C106.968,63.651,107.121,63.602,107.245,63.502z"/>
		<path d="M109.547,65.295c0.236-0.03,0.402-0.089,0.497-0.178s0.143-0.286,0.143-0.594v-2.545c0-0.212-0.02-0.36-0.06-0.446
			c-0.063-0.127-0.193-0.189-0.39-0.189c-0.03,0-0.061,0.002-0.093,0.005c-0.031,0.003-0.07,0.008-0.117,0.015v-0.175
			c0.137-0.041,0.46-0.144,0.97-0.311l0.47-0.155c0.023,0,0.038,0.009,0.043,0.024c0.005,0.017,0.007,0.04,0.007,0.07v0.737
			c0.306-0.288,0.545-0.484,0.719-0.592c0.26-0.164,0.529-0.245,0.809-0.245c0.226,0,0.432,0.064,0.619,0.195
			c0.359,0.254,0.539,0.706,0.539,1.357v2.339c0,0.241,0.048,0.414,0.144,0.521c0.096,0.107,0.256,0.162,0.481,0.165v0.141h-2.135
			v-0.141c0.244-0.033,0.414-0.101,0.51-0.202c0.097-0.103,0.145-0.323,0.145-0.664v-2.14c0-0.287-0.053-0.524-0.159-0.713
			c-0.106-0.189-0.302-0.284-0.587-0.284c-0.195,0-0.394,0.067-0.596,0.201c-0.113,0.077-0.259,0.204-0.438,0.381v2.805
			c0,0.241,0.053,0.402,0.16,0.484c0.106,0.081,0.275,0.125,0.505,0.132v0.141h-2.185V65.295z"/>
		<path d="M115.435,61.425c0.421-0.458,0.964-0.688,1.627-0.688c0.66,0,1.207,0.217,1.64,0.651s0.65,1.012,0.65,1.733
			c0,0.664-0.21,1.242-0.63,1.733s-0.963,0.736-1.63,0.736c-0.64,0-1.182-0.235-1.625-0.706c-0.444-0.471-0.665-1.063-0.665-1.774
			C114.803,62.446,115.013,61.884,115.435,61.425z M116.234,61.297c-0.334,0.305-0.501,0.828-0.501,1.574
			c0,0.594,0.134,1.148,0.404,1.662c0.269,0.516,0.642,0.771,1.119,0.771c0.374,0,0.662-0.172,0.864-0.516s0.303-0.795,0.303-1.353
			c0-0.578-0.128-1.123-0.385-1.634c-0.257-0.511-0.63-0.766-1.117-0.766C116.656,61.037,116.427,61.123,116.234,61.297z"/>
	</g>
	<g>
		<path d="M101.121,62.8h2.53v0.642h-2.53V62.8z"/>
		<path d="M123.213,65.271c0.307-0.027,0.51-0.081,0.61-0.163s0.15-0.257,0.15-0.523v-2.26c0-0.33-0.031-0.566-0.092-0.709
			c-0.062-0.142-0.174-0.212-0.338-0.212c-0.033,0-0.077,0.004-0.132,0.012c-0.055,0.009-0.112,0.02-0.172,0.032v-0.165
			c0.189-0.066,0.384-0.136,0.583-0.205c0.2-0.07,0.337-0.121,0.414-0.15c0.167-0.062,0.337-0.136,0.514-0.215
			c0.023,0,0.037,0.008,0.042,0.024c0.005,0.017,0.007,0.052,0.007,0.105v0.821c0.214-0.297,0.42-0.529,0.619-0.696
			c0.199-0.167,0.405-0.25,0.619-0.25c0.17,0,0.309,0.051,0.417,0.152c0.106,0.103,0.16,0.229,0.16,0.384
			c0,0.137-0.041,0.252-0.122,0.345c-0.082,0.094-0.185,0.141-0.308,0.141c-0.127,0-0.255-0.059-0.383-0.175
			c-0.128-0.117-0.229-0.176-0.303-0.176c-0.116,0-0.26,0.095-0.43,0.283s-0.255,0.384-0.255,0.584v2.259
			c0,0.287,0.066,0.487,0.2,0.599s0.355,0.164,0.665,0.158v0.165h-2.465V65.271z"/>
	</g>
	<g>
		<path d="M130.213,61.225c0.353,0.325,0.53,0.787,0.53,1.386h-3.175c0.033,0.773,0.208,1.335,0.525,1.689
			c0.316,0.353,0.692,0.529,1.125,0.529c0.35,0,0.646-0.092,0.885-0.275c0.24-0.183,0.461-0.442,0.665-0.779l0.175,0.061
			c-0.137,0.425-0.393,0.817-0.768,1.179c-0.375,0.361-0.834,0.542-1.377,0.542c-0.626,0-1.111-0.237-1.453-0.711
			s-0.512-1.021-0.512-1.638c0-0.672,0.198-1.252,0.595-1.739c0.397-0.488,0.914-0.731,1.55-0.731
			C129.448,60.736,129.859,60.898,130.213,61.225z M127.817,61.608c-0.106,0.18-0.184,0.407-0.23,0.681h2.11
			c-0.037-0.334-0.1-0.582-0.19-0.745c-0.163-0.295-0.437-0.442-0.82-0.442C128.307,61.102,128.017,61.271,127.817,61.608z"/>
		<path d="M133.343,66.272c-0.244,0.291-0.505,0.499-0.785,0.626l-0.095-0.2c0.32-0.181,0.541-0.377,0.662-0.587
			c0.122-0.21,0.183-0.385,0.183-0.525c0-0.047-0.015-0.077-0.045-0.091c-0.03-0.014-0.062-0.02-0.095-0.02l-0.335,0.035
			c-0.14,0-0.269-0.046-0.385-0.138c-0.117-0.092-0.175-0.226-0.175-0.398c0-0.134,0.048-0.264,0.145-0.391
			c0.097-0.127,0.255-0.19,0.475-0.19c0.21,0,0.398,0.083,0.565,0.248c0.167,0.166,0.25,0.396,0.25,0.688
			C133.708,65.667,133.586,65.981,133.343,66.272z"/>
	</g>
	<g>
		<path d="M120.121,62.8h2.53v0.642h-2.53V62.8z"/>
		<path d="M140.239,65.295c0.356-0.033,0.582-0.095,0.675-0.183c0.093-0.089,0.14-0.328,0.14-0.719v-2.39
			c0-0.218-0.015-0.368-0.045-0.45c-0.05-0.138-0.155-0.206-0.315-0.206c-0.037,0-0.073,0.003-0.108,0.01
			c-0.035,0.008-0.136,0.034-0.302,0.08v-0.155l0.215-0.069c0.583-0.191,0.99-0.334,1.22-0.432c0.093-0.04,0.153-0.06,0.18-0.06
			c0.007,0.023,0.01,0.048,0.01,0.074v3.598c0,0.381,0.046,0.619,0.138,0.716c0.092,0.098,0.299,0.159,0.623,0.186v0.141h-2.43
			V65.295z M141.033,58.597c0.1-0.104,0.224-0.155,0.371-0.155c0.143,0,0.266,0.052,0.367,0.152
			c0.102,0.102,0.153,0.225,0.153,0.372c0,0.143-0.051,0.265-0.153,0.366c-0.102,0.102-0.224,0.151-0.367,0.151
			c-0.147,0-0.271-0.05-0.371-0.151c-0.1-0.102-0.15-0.224-0.15-0.366C140.883,58.822,140.933,58.7,141.033,58.597z"/>
	</g>
	<g>
		<path d="M143.066,65.295c0.237-0.03,0.402-0.089,0.498-0.178c0.095-0.089,0.143-0.286,0.143-0.594v-2.545
			c0-0.212-0.02-0.36-0.06-0.446c-0.063-0.127-0.193-0.189-0.39-0.189c-0.03,0-0.061,0.002-0.093,0.005
			c-0.031,0.003-0.07,0.008-0.117,0.015v-0.175c0.137-0.041,0.46-0.144,0.97-0.311l0.47-0.155c0.023,0,0.038,0.009,0.042,0.024
			c0.005,0.017,0.008,0.04,0.008,0.07v0.737c0.306-0.288,0.545-0.484,0.719-0.592c0.259-0.164,0.529-0.245,0.808-0.245
			c0.227,0,0.433,0.064,0.619,0.195c0.359,0.254,0.539,0.706,0.539,1.357v2.339c0,0.241,0.048,0.414,0.144,0.521
			s0.256,0.162,0.481,0.165v0.141h-2.135v-0.141c0.244-0.033,0.414-0.101,0.51-0.202c0.097-0.103,0.145-0.323,0.145-0.664v-2.14
			c0-0.287-0.053-0.524-0.159-0.713c-0.106-0.189-0.302-0.284-0.587-0.284c-0.195,0-0.395,0.067-0.596,0.201
			c-0.113,0.077-0.259,0.204-0.438,0.381v2.805c0,0.241,0.053,0.402,0.16,0.484c0.106,0.081,0.275,0.125,0.505,0.132v0.141h-2.185
			V65.295z"/>
		<path d="M160.741,65.295c0.236-0.03,0.402-0.089,0.497-0.178c0.095-0.089,0.143-0.286,0.143-0.594v-2.545
			c0-0.212-0.02-0.36-0.06-0.446c-0.063-0.127-0.193-0.189-0.39-0.189c-0.03,0-0.061,0.002-0.093,0.005
			c-0.031,0.003-0.071,0.008-0.117,0.015v-0.175c0.137-0.041,0.46-0.144,0.97-0.311l0.47-0.155c0.023,0,0.038,0.009,0.042,0.024
			c0.005,0.017,0.007,0.04,0.007,0.07v0.737c0.307-0.288,0.546-0.484,0.719-0.592c0.26-0.164,0.529-0.245,0.809-0.245
			c0.226,0,0.433,0.064,0.619,0.195c0.36,0.254,0.539,0.706,0.539,1.357v2.339c0,0.241,0.048,0.414,0.144,0.521
			c0.096,0.107,0.256,0.162,0.481,0.165v0.141h-2.135v-0.141c0.244-0.033,0.414-0.101,0.51-0.202
			c0.097-0.103,0.145-0.323,0.145-0.664v-2.14c0-0.287-0.053-0.524-0.159-0.713c-0.106-0.189-0.302-0.284-0.587-0.284
			c-0.196,0-0.395,0.067-0.597,0.201c-0.113,0.077-0.259,0.204-0.438,0.381v2.805c0,0.241,0.053,0.402,0.16,0.484
			c0.107,0.081,0.275,0.125,0.505,0.132v0.141h-2.185V65.295z"/>
	</g>
	<g>
		<path d="M166.837,63.227c0.307-0.201,0.918-0.473,1.835-0.816v-0.427c0-0.341-0.034-0.577-0.1-0.711
			c-0.113-0.224-0.348-0.336-0.705-0.336c-0.17,0-0.332,0.043-0.485,0.131c-0.153,0.09-0.23,0.213-0.23,0.37
			c0,0.04,0.008,0.107,0.025,0.203c0.017,0.095,0.025,0.156,0.025,0.183c0,0.188-0.062,0.317-0.185,0.392
			c-0.07,0.043-0.153,0.064-0.25,0.064c-0.15,0-0.265-0.05-0.345-0.147c-0.08-0.099-0.12-0.208-0.12-0.329
			c0-0.232,0.145-0.478,0.433-0.733c0.288-0.255,0.711-0.383,1.268-0.383c0.646,0,1.085,0.211,1.315,0.631
			c0.124,0.231,0.185,0.566,0.185,1.007v2.009c0,0.194,0.013,0.328,0.04,0.401c0.043,0.13,0.133,0.195,0.27,0.195
			c0.077,0,0.14-0.012,0.19-0.035c0.05-0.022,0.136-0.081,0.26-0.17v0.26c-0.107,0.13-0.222,0.237-0.345,0.32
			c-0.187,0.128-0.376,0.19-0.57,0.19c-0.226,0-0.391-0.073-0.492-0.22c-0.102-0.147-0.158-0.322-0.167-0.526
			c-0.253,0.22-0.47,0.384-0.65,0.491c-0.304,0.181-0.592,0.271-0.865,0.271c-0.287,0-0.535-0.101-0.745-0.304
			c-0.21-0.201-0.315-0.458-0.315-0.769C166.112,63.954,166.354,63.551,166.837,63.227z M168.672,62.66
			c-0.384,0.127-0.7,0.268-0.95,0.421c-0.48,0.298-0.72,0.635-0.72,1.012c0,0.305,0.1,0.527,0.3,0.672
			c0.13,0.093,0.275,0.14,0.435,0.14c0.22,0,0.431-0.062,0.632-0.185c0.202-0.124,0.303-0.281,0.303-0.472V62.66z"/>
		<path d="M170.513,65.295c0.31-0.03,0.52-0.093,0.63-0.188c0.11-0.096,0.165-0.281,0.165-0.559v-4.895
			c0-0.221-0.019-0.373-0.055-0.455c-0.066-0.141-0.202-0.211-0.405-0.211c-0.047,0-0.098,0.005-0.152,0.015
			c-0.055,0.01-0.125,0.025-0.208,0.046v-0.166c0.45-0.12,0.991-0.28,1.625-0.48c0.023,0,0.038,0.01,0.043,0.029
			c0.005,0.021,0.007,0.063,0.007,0.131v6.007c0,0.29,0.05,0.478,0.15,0.563c0.1,0.084,0.307,0.139,0.62,0.162v0.141h-2.42V65.295z"
			/>
	</g>
	<g>
		<path d="M152.93,62.8h2.53v0.642h-2.53V62.8z"/>
		<path d="M180.751,60.832v0.119l-2.775,4.169h1.415c0.491,0,0.8-0.063,0.931-0.188c0.13-0.124,0.258-0.432,0.385-0.919l0.175,0.035
			l-0.14,1.388h-3.875v-0.116l2.734-4.183h-1.339c-0.36,0-0.595,0.062-0.706,0.186c-0.109,0.124-0.186,0.364-0.23,0.722h-0.174
			l0.015-1.212H180.751z"/>
	</g>
	<g>
		<path d="M182.078,61.425c0.421-0.458,0.964-0.688,1.627-0.688c0.661,0,1.206,0.217,1.64,0.651c0.433,0.435,0.65,1.012,0.65,1.733
			c0,0.664-0.21,1.242-0.63,1.733s-0.963,0.736-1.629,0.736c-0.641,0-1.182-0.235-1.625-0.706c-0.444-0.471-0.666-1.063-0.666-1.774
			C181.446,62.446,181.656,61.884,182.078,61.425z M182.877,61.297c-0.334,0.305-0.501,0.828-0.501,1.574
			c0,0.594,0.134,1.148,0.403,1.662c0.269,0.516,0.642,0.771,1.12,0.771c0.374,0,0.662-0.172,0.865-0.516
			c0.202-0.344,0.302-0.795,0.302-1.353c0-0.578-0.129-1.123-0.385-1.634c-0.258-0.511-0.63-0.766-1.117-0.766
			C183.299,61.037,183.07,61.123,182.877,61.297z"/>
	</g>
	<g>
		<path d="M173.551,62.8h2.53v0.642h-2.53V62.8z"/>
		<path d="M208.106,65.295c0.31-0.03,0.52-0.093,0.63-0.188c0.11-0.096,0.165-0.281,0.165-0.559v-4.895
			c0-0.221-0.019-0.373-0.055-0.455c-0.066-0.141-0.202-0.211-0.405-0.211c-0.046,0-0.097,0.005-0.152,0.015
			s-0.124,0.025-0.208,0.046v-0.166c0.45-0.12,0.991-0.28,1.625-0.48c0.023,0,0.038,0.01,0.043,0.029
			c0.005,0.021,0.008,0.063,0.008,0.131v6.007c0,0.29,0.05,0.478,0.149,0.563c0.101,0.084,0.308,0.139,0.62,0.162v0.141h-2.42
			V65.295z"/>
	</g>
	<g>
		<path d="M211.933,58.63c0.049,0.085,0.073,0.201,0.073,0.348c0,0.023-0.001,0.048-0.003,0.071
			c-0.002,0.022-0.01,0.091-0.023,0.205l-0.249,2.203h-0.176l-0.259-2.038c-0.011-0.084-0.021-0.165-0.028-0.245
			c-0.009-0.081-0.012-0.162-0.012-0.246c0-0.104,0.021-0.2,0.066-0.291c0.046-0.089,0.146-0.135,0.303-0.135
			S211.885,58.544,211.933,58.63z"/>
		<path d="M213.573,63.227c0.308-0.201,0.919-0.473,1.835-0.816v-0.427c0-0.341-0.033-0.577-0.099-0.711
			c-0.114-0.224-0.35-0.336-0.706-0.336c-0.17,0-0.331,0.043-0.484,0.131c-0.154,0.09-0.23,0.213-0.23,0.37
			c0,0.04,0.009,0.107,0.025,0.203c0.017,0.095,0.024,0.156,0.024,0.183c0,0.188-0.062,0.317-0.186,0.392
			c-0.069,0.043-0.152,0.064-0.249,0.064c-0.15,0-0.265-0.05-0.346-0.147c-0.079-0.099-0.119-0.208-0.119-0.329
			c0-0.232,0.144-0.478,0.432-0.733c0.289-0.255,0.711-0.383,1.268-0.383c0.646,0,1.085,0.211,1.315,0.631
			c0.123,0.231,0.185,0.566,0.185,1.007v2.009c0,0.194,0.014,0.328,0.04,0.401c0.044,0.13,0.134,0.195,0.271,0.195
			c0.076,0,0.14-0.012,0.19-0.035c0.05-0.022,0.136-0.081,0.26-0.17v0.26c-0.106,0.13-0.222,0.237-0.346,0.32
			c-0.187,0.128-0.376,0.19-0.569,0.19c-0.227,0-0.392-0.073-0.492-0.22c-0.103-0.147-0.159-0.322-0.169-0.526
			c-0.253,0.22-0.469,0.384-0.649,0.491c-0.303,0.181-0.592,0.271-0.864,0.271c-0.287,0-0.536-0.101-0.746-0.304
			c-0.21-0.201-0.314-0.458-0.314-0.769C212.848,63.954,213.091,63.551,213.573,63.227z M215.408,62.66
			c-0.384,0.127-0.699,0.268-0.949,0.421c-0.48,0.298-0.721,0.635-0.721,1.012c0,0.305,0.101,0.527,0.3,0.672
			c0.13,0.093,0.275,0.14,0.437,0.14c0.22,0,0.43-0.062,0.631-0.185c0.202-0.124,0.303-0.281,0.303-0.472V62.66z"/>
	</g>
	<g>
		<path d="M223.419,65.295c0.236-0.03,0.402-0.089,0.497-0.178c0.096-0.089,0.143-0.286,0.143-0.594v-2.545
			c0-0.212-0.02-0.36-0.06-0.446c-0.062-0.127-0.193-0.189-0.39-0.189c-0.03,0-0.062,0.002-0.093,0.005s-0.071,0.008-0.117,0.015
			v-0.175c0.137-0.041,0.459-0.144,0.97-0.311l0.47-0.155c0.023,0,0.038,0.009,0.043,0.024c0.005,0.017,0.007,0.04,0.007,0.07v0.737
			c0.307-0.288,0.546-0.484,0.719-0.592c0.26-0.164,0.529-0.245,0.809-0.245c0.227,0,0.433,0.064,0.618,0.195
			c0.361,0.254,0.539,0.706,0.539,1.357v2.339c0,0.241,0.049,0.414,0.145,0.521s0.256,0.162,0.48,0.165v0.141h-2.134v-0.141
			c0.243-0.033,0.413-0.101,0.51-0.202c0.097-0.103,0.145-0.323,0.145-0.664v-2.14c0-0.287-0.053-0.524-0.158-0.713
			c-0.106-0.189-0.302-0.284-0.587-0.284c-0.195,0-0.395,0.067-0.598,0.201c-0.112,0.077-0.258,0.204-0.437,0.381v2.805
			c0,0.241,0.054,0.402,0.159,0.484c0.107,0.081,0.276,0.125,0.506,0.132v0.141h-2.186V65.295z"/>
		<path d="M228.615,65.295c0.357-0.033,0.582-0.095,0.676-0.183c0.093-0.089,0.14-0.328,0.14-0.719v-2.39
			c0-0.218-0.016-0.368-0.045-0.45c-0.05-0.138-0.155-0.206-0.315-0.206c-0.037,0-0.072,0.003-0.107,0.01
			c-0.035,0.008-0.136,0.034-0.302,0.08v-0.155l0.215-0.069c0.582-0.191,0.989-0.334,1.22-0.432c0.094-0.04,0.153-0.06,0.18-0.06
			c0.007,0.023,0.01,0.048,0.01,0.074v3.598c0,0.381,0.046,0.619,0.138,0.716c0.092,0.098,0.299,0.159,0.623,0.186v0.141h-2.431
			V65.295z M229.41,58.597c0.101-0.104,0.224-0.155,0.371-0.155c0.143,0,0.266,0.052,0.366,0.152
			c0.103,0.102,0.153,0.225,0.153,0.372c0,0.143-0.051,0.265-0.153,0.366c-0.101,0.102-0.224,0.151-0.366,0.151
			c-0.147,0-0.271-0.05-0.371-0.151c-0.1-0.102-0.15-0.224-0.15-0.366C229.26,58.822,229.31,58.7,229.41,58.597z"/>
	</g>
	<g>
		<path d="M218.753,62.8h2.53v0.642h-2.53V62.8z"/>
		<path d="M234.873,65.305c0.26-0.023,0.434-0.066,0.52-0.13c0.134-0.097,0.2-0.29,0.2-0.581v-2.59c0-0.247-0.033-0.409-0.098-0.486
			c-0.064-0.076-0.172-0.114-0.322-0.114c-0.07,0-0.123,0.003-0.157,0.01c-0.035,0.007-0.076,0.018-0.123,0.034v-0.175l0.359-0.121
			c0.131-0.043,0.344-0.12,0.642-0.234c0.296-0.114,0.453-0.171,0.47-0.171c0.016,0,0.026,0.009,0.029,0.025
			s0.005,0.049,0.005,0.096v0.677c0.331-0.302,0.615-0.51,0.854-0.625c0.24-0.114,0.486-0.173,0.741-0.173
			c0.342,0,0.616,0.118,0.82,0.351c0.105,0.128,0.194,0.3,0.264,0.517c0.247-0.251,0.462-0.437,0.646-0.556
			c0.317-0.208,0.64-0.312,0.971-0.312c0.535,0,0.894,0.219,1.074,0.657c0.103,0.246,0.155,0.638,0.155,1.172v2.078
			c0,0.238,0.053,0.398,0.157,0.484c0.105,0.084,0.294,0.141,0.567,0.167v0.131h-2.256v-0.141c0.291-0.026,0.481-0.084,0.574-0.175
			c0.091-0.091,0.137-0.274,0.137-0.551V62.41c0-0.324-0.034-0.563-0.105-0.717c-0.122-0.273-0.363-0.411-0.724-0.411
			c-0.217,0-0.432,0.072-0.646,0.216c-0.124,0.083-0.275,0.218-0.456,0.401v2.563c0,0.271,0.048,0.477,0.144,0.617
			c0.095,0.141,0.296,0.215,0.603,0.225v0.131h-2.295v-0.131c0.315-0.04,0.518-0.116,0.604-0.229
			c0.086-0.114,0.129-0.395,0.129-0.842v-1.4c0-0.513-0.033-0.866-0.099-1.06c-0.111-0.327-0.344-0.491-0.699-0.491
			c-0.204,0-0.404,0.057-0.601,0.169c-0.196,0.11-0.37,0.258-0.521,0.438v2.74c0,0.254,0.044,0.43,0.132,0.525
			c0.09,0.098,0.281,0.147,0.579,0.15v0.131h-2.275V65.305z"/>
	</g>
	<g>
		<path d="M243.738,63.227c0.306-0.201,0.918-0.473,1.834-0.816v-0.427c0-0.341-0.033-0.577-0.1-0.711
			c-0.114-0.224-0.349-0.336-0.704-0.336c-0.171,0-0.332,0.043-0.486,0.131c-0.153,0.09-0.229,0.213-0.229,0.37
			c0,0.04,0.008,0.107,0.024,0.203c0.017,0.095,0.025,0.156,0.025,0.183c0,0.188-0.062,0.317-0.186,0.392
			c-0.069,0.043-0.152,0.064-0.25,0.064c-0.148,0-0.265-0.05-0.344-0.147c-0.081-0.099-0.12-0.208-0.12-0.329
			c0-0.232,0.144-0.478,0.433-0.733c0.288-0.255,0.711-0.383,1.267-0.383c0.646,0,1.086,0.211,1.316,0.631
			c0.122,0.231,0.185,0.566,0.185,1.007v2.009c0,0.194,0.014,0.328,0.04,0.401c0.043,0.13,0.132,0.195,0.27,0.195
			c0.076,0,0.141-0.012,0.19-0.035c0.049-0.022,0.137-0.081,0.259-0.17v0.26c-0.105,0.13-0.222,0.237-0.344,0.32
			c-0.187,0.128-0.377,0.19-0.57,0.19c-0.227,0-0.392-0.073-0.492-0.22c-0.103-0.147-0.157-0.322-0.167-0.526
			c-0.255,0.22-0.472,0.384-0.651,0.491c-0.303,0.181-0.591,0.271-0.865,0.271c-0.286,0-0.534-0.101-0.744-0.304
			c-0.21-0.201-0.315-0.458-0.315-0.769C243.012,63.954,243.254,63.551,243.738,63.227z M245.572,62.66
			c-0.382,0.127-0.699,0.268-0.949,0.421c-0.479,0.298-0.721,0.635-0.721,1.012c0,0.305,0.101,0.527,0.301,0.672
			c0.129,0.093,0.274,0.14,0.435,0.14c0.22,0,0.432-0.062,0.634-0.185c0.199-0.124,0.301-0.281,0.301-0.472V62.66z"/>
	</g>
	<g>
		<path d="M231.655,62.8h2.53v0.642h-2.53V62.8z"/>
		<path d="M256.11,65.305c0.26-0.023,0.434-0.066,0.521-0.13c0.133-0.097,0.2-0.29,0.2-0.581v-2.59c0-0.247-0.033-0.409-0.098-0.486
			c-0.065-0.076-0.173-0.114-0.322-0.114c-0.071,0-0.124,0.003-0.158,0.01c-0.035,0.007-0.076,0.018-0.123,0.034v-0.175l0.36-0.121
			c0.131-0.043,0.345-0.12,0.641-0.234s0.452-0.171,0.469-0.171s0.027,0.009,0.03,0.025s0.005,0.049,0.005,0.096v0.677
			c0.331-0.302,0.615-0.51,0.856-0.625c0.239-0.114,0.486-0.173,0.739-0.173c0.344,0,0.616,0.118,0.819,0.351
			c0.108,0.128,0.195,0.3,0.265,0.517c0.248-0.251,0.463-0.437,0.646-0.556c0.316-0.208,0.641-0.312,0.969-0.312
			c0.538,0,0.896,0.219,1.077,0.657c0.103,0.246,0.153,0.638,0.153,1.172v2.078c0,0.238,0.053,0.398,0.159,0.484
			c0.104,0.084,0.292,0.141,0.566,0.167v0.131h-2.255v-0.141c0.289-0.026,0.481-0.084,0.572-0.175
			c0.093-0.091,0.137-0.274,0.137-0.551V62.41c0-0.324-0.034-0.563-0.104-0.717c-0.124-0.273-0.365-0.411-0.727-0.411
			c-0.216,0-0.431,0.072-0.645,0.216c-0.122,0.083-0.274,0.218-0.454,0.401v2.563c0,0.271,0.048,0.477,0.142,0.617
			c0.096,0.141,0.296,0.215,0.604,0.225v0.131h-2.296v-0.131c0.317-0.04,0.519-0.116,0.604-0.229
			c0.088-0.114,0.131-0.395,0.131-0.842v-1.4c0-0.513-0.033-0.866-0.101-1.06c-0.109-0.327-0.343-0.491-0.699-0.491
			c-0.204,0-0.404,0.057-0.601,0.169c-0.197,0.11-0.37,0.258-0.52,0.438v2.74c0,0.254,0.043,0.43,0.133,0.525
			c0.087,0.098,0.281,0.147,0.577,0.15v0.131h-2.275V65.305z"/>
	</g>
	<g>
		<path d="M264.066,65.295c0.357-0.033,0.582-0.095,0.675-0.183c0.094-0.089,0.141-0.328,0.141-0.719v-2.39
			c0-0.218-0.016-0.368-0.045-0.45c-0.05-0.138-0.155-0.206-0.316-0.206c-0.036,0-0.07,0.003-0.107,0.01
			c-0.034,0.008-0.135,0.034-0.302,0.08v-0.155l0.215-0.069c0.583-0.191,0.99-0.334,1.22-0.432c0.095-0.04,0.154-0.06,0.181-0.06
			c0.006,0.023,0.01,0.048,0.01,0.074v3.598c0,0.381,0.046,0.619,0.137,0.716c0.093,0.098,0.3,0.159,0.624,0.186v0.141h-2.431
			V65.295z M264.861,58.597c0.101-0.104,0.224-0.155,0.37-0.155c0.145,0,0.267,0.052,0.367,0.152
			c0.103,0.102,0.152,0.225,0.152,0.372c0,0.143-0.05,0.265-0.152,0.366c-0.101,0.102-0.223,0.151-0.367,0.151
			c-0.146,0-0.27-0.05-0.37-0.151c-0.099-0.102-0.15-0.224-0.15-0.366C264.711,58.822,264.762,58.7,264.861,58.597z"/>
		<path d="M275.431,63.227c0.306-0.201,0.917-0.473,1.833-0.816v-0.427c0-0.341-0.033-0.577-0.099-0.711
			c-0.114-0.224-0.35-0.336-0.705-0.336c-0.17,0-0.332,0.043-0.485,0.131c-0.154,0.09-0.23,0.213-0.23,0.37
			c0,0.04,0.009,0.107,0.025,0.203c0.017,0.095,0.024,0.156,0.024,0.183c0,0.188-0.061,0.317-0.185,0.392
			c-0.07,0.043-0.152,0.064-0.25,0.064c-0.148,0-0.265-0.05-0.344-0.147c-0.081-0.099-0.121-0.208-0.121-0.329
			c0-0.232,0.144-0.478,0.434-0.733c0.287-0.255,0.711-0.383,1.267-0.383c0.646,0,1.086,0.211,1.315,0.631
			c0.123,0.231,0.186,0.566,0.186,1.007v2.009c0,0.194,0.013,0.328,0.039,0.401c0.044,0.13,0.133,0.195,0.27,0.195
			c0.076,0,0.141-0.012,0.19-0.035c0.05-0.022,0.138-0.081,0.26-0.17v0.26c-0.105,0.13-0.222,0.237-0.344,0.32
			c-0.187,0.128-0.377,0.19-0.57,0.19c-0.227,0-0.393-0.073-0.493-0.22c-0.103-0.147-0.157-0.322-0.167-0.526
			c-0.255,0.22-0.471,0.384-0.651,0.491c-0.303,0.181-0.59,0.271-0.864,0.271c-0.286,0-0.534-0.101-0.744-0.304
			c-0.21-0.201-0.316-0.458-0.316-0.769C274.705,63.954,274.947,63.551,275.431,63.227z M277.264,62.66
			c-0.382,0.127-0.699,0.268-0.949,0.421c-0.479,0.298-0.721,0.635-0.721,1.012c0,0.305,0.102,0.527,0.301,0.672
			c0.129,0.093,0.275,0.14,0.436,0.14c0.22,0,0.432-0.062,0.633-0.185c0.2-0.124,0.301-0.281,0.301-0.472V62.66z"/>
	</g>
	<g>
		<path d="M269.14,62.8h2.529v0.642h-2.529V62.8z"/>
		<path d="M300.429,65.295c0.355-0.033,0.582-0.095,0.675-0.183c0.093-0.089,0.141-0.328,0.141-0.719v-2.39
			c0-0.218-0.015-0.368-0.046-0.45c-0.05-0.138-0.154-0.206-0.314-0.206c-0.036,0-0.073,0.003-0.107,0.01
			c-0.035,0.008-0.136,0.034-0.303,0.08v-0.155l0.215-0.069c0.584-0.191,0.99-0.334,1.221-0.432c0.092-0.04,0.153-0.06,0.18-0.06
			c0.007,0.023,0.01,0.048,0.01,0.074v3.598c0,0.381,0.047,0.619,0.138,0.716c0.091,0.098,0.299,0.159,0.623,0.186v0.141h-2.431
			V65.295z M301.225,58.597c0.099-0.104,0.223-0.155,0.368-0.155c0.144,0,0.267,0.052,0.369,0.152
			c0.101,0.102,0.151,0.225,0.151,0.372c0,0.143-0.051,0.265-0.151,0.366c-0.103,0.102-0.226,0.151-0.369,0.151
			c-0.146,0-0.27-0.05-0.368-0.151c-0.102-0.102-0.15-0.224-0.15-0.366C301.075,58.822,301.124,58.7,301.225,58.597z"/>
	</g>
	<g>
		<path d="M303.261,65.295c0.237-0.03,0.403-0.089,0.498-0.178c0.096-0.089,0.143-0.286,0.143-0.594v-2.545
			c0-0.212-0.021-0.36-0.06-0.446c-0.063-0.127-0.193-0.189-0.391-0.189c-0.029,0-0.062,0.002-0.093,0.005s-0.071,0.008-0.117,0.015
			v-0.175c0.138-0.041,0.46-0.144,0.971-0.311l0.47-0.155c0.022,0,0.038,0.009,0.043,0.024c0.005,0.017,0.007,0.04,0.007,0.07v0.737
			c0.306-0.288,0.545-0.484,0.719-0.592c0.26-0.164,0.529-0.245,0.809-0.245c0.227,0,0.433,0.064,0.618,0.195
			c0.36,0.254,0.539,0.706,0.539,1.357v2.339c0,0.241,0.048,0.414,0.144,0.521s0.257,0.162,0.481,0.165v0.141h-2.135v-0.141
			c0.243-0.033,0.414-0.101,0.51-0.202c0.098-0.103,0.146-0.323,0.146-0.664v-2.14c0-0.287-0.053-0.524-0.159-0.713
			c-0.105-0.189-0.303-0.284-0.587-0.284c-0.195,0-0.396,0.067-0.597,0.201c-0.112,0.077-0.258,0.204-0.437,0.381v2.805
			c0,0.241,0.053,0.402,0.159,0.484c0.107,0.081,0.275,0.125,0.506,0.132v0.141h-2.187V65.295z"/>
		<path d="M314.314,60.816v0.36h-1.02l-0.01,2.887c0,0.253,0.021,0.445,0.065,0.575c0.08,0.23,0.236,0.346,0.47,0.346
			c0.121,0,0.225-0.028,0.312-0.085s0.188-0.146,0.303-0.271l0.131,0.11l-0.111,0.15c-0.174,0.233-0.356,0.398-0.551,0.496
			c-0.193,0.096-0.378,0.145-0.559,0.145c-0.394,0-0.661-0.175-0.8-0.525c-0.078-0.191-0.116-0.454-0.116-0.791v-3.037h-0.544
			c-0.018-0.01-0.029-0.02-0.038-0.03c-0.008-0.01-0.013-0.023-0.013-0.039c0-0.033,0.008-0.06,0.022-0.078
			c0.016-0.019,0.063-0.062,0.143-0.127c0.229-0.19,0.396-0.346,0.498-0.464c0.103-0.118,0.34-0.432,0.717-0.939
			c0.043,0,0.07,0.003,0.078,0.01s0.012,0.032,0.012,0.075v1.232H314.314z"/>
	</g>
	<g>
		<path d="M318.132,61.225c0.353,0.325,0.529,0.787,0.529,1.386h-3.174c0.033,0.773,0.208,1.335,0.523,1.689
			c0.317,0.353,0.693,0.529,1.126,0.529c0.349,0,0.646-0.092,0.885-0.275c0.24-0.183,0.461-0.442,0.665-0.779l0.175,0.061
			c-0.137,0.425-0.392,0.817-0.767,1.179c-0.376,0.361-0.835,0.542-1.378,0.542c-0.626,0-1.11-0.237-1.453-0.711
			c-0.341-0.474-0.513-1.021-0.513-1.638c0-0.672,0.198-1.252,0.596-1.739c0.396-0.488,0.914-0.731,1.551-0.731
			C317.367,60.736,317.778,60.898,318.132,61.225z M315.736,61.608c-0.107,0.18-0.184,0.407-0.229,0.681h2.109
			c-0.036-0.334-0.099-0.582-0.189-0.745c-0.164-0.295-0.437-0.442-0.82-0.442C316.225,61.102,315.936,61.271,315.736,61.608z"/>
		<path d="M326.2,61.033c0.303,0.214,0.453,0.451,0.453,0.707c0,0.109-0.038,0.212-0.115,0.307
			c-0.076,0.095-0.193,0.143-0.354,0.143c-0.118,0-0.221-0.041-0.308-0.12c-0.09-0.081-0.152-0.197-0.193-0.351l-0.06-0.241
			c-0.043-0.177-0.119-0.302-0.226-0.376c-0.11-0.069-0.254-0.104-0.435-0.104c-0.38,0-0.701,0.166-0.962,0.498
			c-0.263,0.334-0.394,0.775-0.394,1.328c0,0.504,0.144,0.957,0.433,1.359c0.288,0.401,0.679,0.602,1.168,0.602
			c0.347,0,0.654-0.114,0.926-0.341c0.151-0.131,0.325-0.339,0.519-0.623l0.141,0.086c-0.189,0.4-0.39,0.718-0.6,0.952
			c-0.403,0.448-0.87,0.672-1.4,0.672c-0.521,0-0.98-0.206-1.381-0.615c-0.4-0.411-0.601-0.97-0.601-1.674
			c0-0.69,0.219-1.286,0.657-1.784c0.437-0.497,0.986-0.745,1.654-0.745C325.541,60.712,325.899,60.819,326.2,61.033z"/>
	</g>
	<g>
		<path d="M328.042,61.425c0.422-0.458,0.965-0.688,1.627-0.688s1.207,0.217,1.641,0.651c0.435,0.435,0.651,1.012,0.651,1.733
			c0,0.664-0.21,1.242-0.63,1.733s-0.964,0.736-1.63,0.736c-0.641,0-1.183-0.235-1.626-0.706c-0.442-0.471-0.664-1.063-0.664-1.774
			C327.411,62.446,327.621,61.884,328.042,61.425z M328.841,61.297c-0.334,0.305-0.501,0.828-0.501,1.574
			c0,0.594,0.134,1.148,0.403,1.662c0.27,0.516,0.642,0.771,1.119,0.771c0.374,0,0.663-0.172,0.865-0.516
			c0.201-0.344,0.303-0.795,0.303-1.353c0-0.578-0.129-1.123-0.386-1.634c-0.258-0.511-0.63-0.766-1.117-0.766
			C329.264,61.037,329.034,61.123,328.841,61.297z"/>
		<path d="M332.516,65.295c0.236-0.03,0.403-0.089,0.497-0.178c0.097-0.089,0.143-0.286,0.143-0.594v-2.545
			c0-0.212-0.02-0.36-0.06-0.446c-0.062-0.127-0.193-0.189-0.391-0.189c-0.029,0-0.061,0.002-0.092,0.005s-0.071,0.008-0.117,0.015
			v-0.175c0.137-0.041,0.459-0.144,0.97-0.311l0.47-0.155c0.023,0,0.038,0.009,0.043,0.024c0.005,0.017,0.007,0.04,0.007,0.07v0.737
			c0.306-0.288,0.546-0.484,0.719-0.592c0.26-0.164,0.529-0.245,0.809-0.245c0.227,0,0.434,0.064,0.618,0.195
			c0.361,0.254,0.539,0.706,0.539,1.357v2.339c0,0.241,0.048,0.414,0.145,0.521c0.096,0.107,0.256,0.162,0.48,0.165v0.141h-2.134
			v-0.141c0.243-0.033,0.413-0.101,0.509-0.202c0.098-0.103,0.146-0.323,0.146-0.664v-2.14c0-0.287-0.053-0.524-0.158-0.713
			c-0.106-0.189-0.303-0.284-0.587-0.284c-0.195,0-0.396,0.067-0.598,0.201c-0.112,0.077-0.258,0.204-0.437,0.381v2.805
			c0,0.241,0.054,0.402,0.159,0.484c0.107,0.081,0.276,0.125,0.506,0.132v0.141h-2.186V65.295z"/>
	</g>
	<g>
		<path d="M348.784,65.295c0.354-0.017,0.586-0.083,0.697-0.197c0.112-0.115,0.167-0.358,0.167-0.729v-3.217h-0.854v-0.335h0.854
			c0-0.528,0.072-0.974,0.217-1.338c0.272-0.698,0.775-1.047,1.508-1.047c0.292,0,0.556,0.059,0.788,0.176
			c0.231,0.117,0.348,0.274,0.348,0.471c0,0.11-0.04,0.209-0.119,0.296c-0.079,0.086-0.175,0.13-0.288,0.13
			c-0.097,0-0.18-0.028-0.249-0.088c-0.069-0.059-0.152-0.161-0.248-0.308l-0.086-0.131c-0.047-0.069-0.102-0.129-0.164-0.177
			c-0.062-0.049-0.15-0.073-0.263-0.073c-0.253,0-0.423,0.125-0.513,0.376c-0.05,0.134-0.074,0.309-0.074,0.525v1.188h1.245v0.335
			h-1.245v3.217c0,0.378,0.05,0.619,0.152,0.725c0.101,0.104,0.367,0.172,0.797,0.202v0.141h-2.67V65.295z"/>
		<path d="M352.134,65.295c0.355-0.033,0.582-0.095,0.674-0.183c0.093-0.089,0.141-0.328,0.141-0.719v-2.39
			c0-0.218-0.015-0.368-0.046-0.45c-0.05-0.138-0.154-0.206-0.314-0.206c-0.036,0-0.072,0.003-0.107,0.01
			c-0.034,0.008-0.136,0.034-0.303,0.08v-0.155l0.215-0.069c0.584-0.191,0.991-0.334,1.221-0.432c0.093-0.04,0.153-0.06,0.18-0.06
			c0.007,0.023,0.011,0.048,0.011,0.074v3.598c0,0.381,0.046,0.619,0.137,0.716c0.091,0.098,0.299,0.159,0.623,0.186v0.141h-2.43
			V65.295z M352.928,58.597c0.1-0.104,0.223-0.155,0.368-0.155c0.145,0,0.267,0.052,0.369,0.152
			c0.101,0.102,0.152,0.225,0.152,0.372c0,0.143-0.052,0.265-0.152,0.366c-0.103,0.102-0.225,0.151-0.369,0.151
			c-0.146,0-0.269-0.05-0.368-0.151c-0.101-0.102-0.15-0.224-0.15-0.366C352.778,58.822,352.828,58.7,352.928,58.597z"/>
	</g>
	<g>
		<path d="M341.676,62.8h2.53v0.642h-2.53V62.8z"/>
	</g>
	<g>
		<path d="M379.408,60.861c0.135,0.07,0.264,0.168,0.386,0.29V59.56c0-0.204-0.021-0.344-0.068-0.422
			c-0.044-0.076-0.151-0.115-0.322-0.115c-0.039,0-0.074,0.003-0.104,0.006c-0.03,0.004-0.098,0.011-0.2,0.021v-0.166l0.41-0.105
			c0.148-0.04,0.299-0.081,0.449-0.125s0.281-0.085,0.396-0.125c0.053-0.017,0.142-0.049,0.265-0.096l0.029,0.01l-0.01,0.526
			c-0.003,0.19-0.007,0.387-0.01,0.588c-0.004,0.203-0.005,0.402-0.005,0.6l-0.01,4.093c0,0.217,0.026,0.369,0.081,0.456
			c0.053,0.087,0.193,0.13,0.425,0.13c0.036,0,0.072,0,0.108-0.002c0.037-0.002,0.073-0.006,0.111-0.014v0.166
			c-0.02,0.006-0.263,0.091-0.726,0.251l-0.786,0.295l-0.034-0.045v-0.616c-0.187,0.204-0.349,0.35-0.484,0.436
			c-0.243,0.15-0.526,0.226-0.845,0.226c-0.567,0-1.027-0.219-1.378-0.658c-0.352-0.439-0.528-0.948-0.528-1.525
			c0-0.726,0.211-1.347,0.633-1.866c0.422-0.519,0.938-0.778,1.548-0.778C378.982,60.702,379.205,60.755,379.408,60.861z
			 M379.553,64.759c0.161-0.153,0.24-0.299,0.24-0.437v-2.148c0-0.434-0.116-0.74-0.348-0.919s-0.458-0.269-0.678-0.269
			c-0.42,0-0.745,0.187-0.98,0.559c-0.232,0.373-0.349,0.832-0.349,1.376c0,0.537,0.124,1.017,0.372,1.438s0.62,0.631,1.112,0.631
			C379.183,64.989,379.393,64.913,379.553,64.759z"/>
		<path d="M382.387,61.425c0.422-0.458,0.964-0.688,1.627-0.688c0.661,0,1.207,0.217,1.641,0.651
			c0.435,0.435,0.651,1.012,0.651,1.733c0,0.664-0.21,1.242-0.63,1.733s-0.964,0.736-1.631,0.736c-0.64,0-1.182-0.235-1.625-0.706
			s-0.664-1.063-0.664-1.774C381.757,62.446,381.966,61.884,382.387,61.425z M383.186,61.297c-0.334,0.305-0.501,0.828-0.501,1.574
			c0,0.594,0.134,1.148,0.403,1.662c0.27,0.516,0.642,0.771,1.119,0.771c0.374,0,0.663-0.172,0.865-0.516
			c0.201-0.344,0.303-0.795,0.303-1.353c0-0.578-0.13-1.123-0.386-1.634c-0.258-0.511-0.63-0.766-1.117-0.766
			C383.609,61.037,383.38,61.123,383.186,61.297z"/>
		<path d="M387.941,65.388c-0.109-0.111-0.163-0.246-0.163-0.403c0-0.156,0.054-0.29,0.166-0.4c0.111-0.11,0.247-0.165,0.402-0.165
			c0.157,0,0.291,0.055,0.4,0.165c0.11,0.11,0.165,0.244,0.165,0.4c0,0.157-0.055,0.292-0.162,0.403
			c-0.109,0.112-0.243,0.168-0.403,0.168C388.187,65.556,388.052,65.5,387.941,65.388z"/>
	</g>
	<g>
		<path d="M364.22,62.8h2.53v0.642h-2.53V62.8z"/>
	</g>
	<path d="M13.224,36.559c0.447,0.235,0.809,0.556,1.064,0.961c0.17,0.234,0.298,0.448,0.383,0.683
		c0.064,0.213,0.107,0.47,0.107,0.726c0,0.619-0.17,1.195-0.511,1.707c-0.319,0.512-0.766,0.897-1.299,1.174l-1.277-5.593
		C12.266,36.217,12.778,36.324,13.224,36.559L13.224,36.559z M12.245,29.512c0.234-0.363,0.426-0.725,0.618-1.089
		c0.128-0.298,0.276-0.683,0.426-1.131c0.149-0.448,0.255-0.853,0.319-1.194c0.064-0.32,0.107-0.683,0.107-1.089
		c0-0.319-0.042-0.64-0.107-0.96c-0.063-0.32-0.148-0.704-0.255-1.131c-0.234-0.79-0.532-1.494-0.873-2.091
		c-0.149-0.277-0.319-0.469-0.511-0.576c-0.149-0.063-0.298-0.106-0.447-0.106c-0.319,0.085-0.575,0.214-0.745,0.341
		c-0.213,0.149-0.426,0.384-0.618,0.683c-0.383,0.662-0.681,1.344-0.873,2.092c-0.17,0.768-0.277,1.451-0.277,2.027
		s0.042,1.195,0.127,1.835c0.107,0.64,0.255,1.301,0.426,1.963l-2.107,1.985c-0.383,0.384-0.788,0.875-1.235,1.451
		c-0.49,0.598-0.873,1.239-1.149,1.944c-0.298,0.663-0.447,1.369-0.447,2.116l0.064,0.983c0,0.362,0.042,0.704,0.149,1.004
		c0.064,0.234,0.319,0.703,0.766,1.386c0.575,0.876,1.299,1.559,2.214,2.049c0.894,0.512,1.874,0.768,2.917,0.768
		c0.575,0,1.15-0.063,1.724-0.213l0.639,2.731c0.085,0.362,0.149,0.769,0.149,1.238c0,0.362-0.064,0.704-0.17,0.981
		c-0.128,0.276-0.298,0.533-0.532,0.768c-0.426,0.448-1.064,0.704-1.916,0.811c-0.404,0-0.788-0.063-1.107-0.192
		c-0.362-0.127-0.532-0.319-0.553-0.554c0.298,0,0.575-0.064,0.873-0.192c0.298-0.106,0.554-0.277,0.745-0.512
		c0.17-0.257,0.255-0.577,0.255-0.939c0-0.148-0.021-0.277-0.063-0.427c-0.043-0.107-0.107-0.256-0.192-0.384
		c-0.17-0.256-0.383-0.448-0.681-0.598c-0.277-0.149-0.617-0.214-0.979-0.214c-0.319,0.043-0.617,0.149-0.873,0.342
		c-0.149,0.106-0.255,0.234-0.362,0.362c-0.106,0.129-0.213,0.278-0.276,0.448C7.264,46.548,7.2,46.91,7.2,47.272
		c0.042,0.448,0.234,0.854,0.574,1.216c0.32,0.363,0.724,0.641,1.235,0.833c0.298,0.128,0.553,0.213,0.809,0.234
		c0.277,0.042,0.575,0.063,0.873,0.063c1-0.085,1.767-0.404,2.342-0.938c0.553-0.533,0.83-1.216,0.83-2.112
		c0-0.32-0.021-0.598-0.043-0.79L13.054,42.3c0.916-0.404,1.66-0.959,2.193-1.621c0.532-0.683,0.787-1.472,0.787-2.347
		c0-0.726-0.17-1.409-0.511-2.051c-0.362-0.642-0.852-1.133-1.448-1.519c-0.596-0.384-1.277-0.576-2.043-0.576
		c-0.255,0-0.511,0.021-0.745,0.065l-0.639-2.884C11.287,30.792,11.819,30.173,12.245,29.512L12.245,29.512z M11.671,42.13
		c-0.17,0.021-0.362,0.043-0.575,0.043c-0.702,0-1.362-0.107-1.979-0.299c-0.618-0.192-1.171-0.47-1.66-0.854
		c-0.49-0.363-0.852-0.811-1.107-1.322c-0.234-0.513-0.362-1.089-0.362-1.708c0-0.811,0.192-1.581,0.596-2.329
		c0.383-0.726,0.873-1.389,1.447-1.966c0.277-0.278,0.596-0.577,0.979-0.918c0.362-0.342,0.745-0.683,1.128-0.981l0.574,2.583
		c-0.702,0.236-1.298,0.684-1.809,1.326c-0.532,0.642-0.788,1.304-0.788,1.967c0,0.703,0.234,1.365,0.703,1.941
		c0.447,0.576,1.021,0.981,1.724,1.195c0.17,0,0.255-0.043,0.255-0.15c0-0.106-0.042-0.171-0.128-0.192
		c-1-0.427-1.49-1.045-1.49-1.834c0-0.533,0.192-1.003,0.596-1.452c0.383-0.449,0.831-0.749,1.341-0.898l1.235,5.7
		C12.074,42.045,11.862,42.087,11.671,42.13L11.671,42.13z M12.628,24.987c-0.106,0.406-0.276,0.812-0.532,1.217
		c-0.32,0.534-0.639,0.982-0.916,1.323c-0.34,0.427-0.724,0.79-1.106,1.109c-0.213-0.832-0.319-1.558-0.319-2.176
		c0-0.235,0.021-0.47,0.063-0.748c0.064-0.277,0.128-0.575,0.192-0.853c0.17-0.576,0.404-1.109,0.702-1.557
		c0.362-0.491,0.533-0.748,0.554-0.769c0.127-0.149,0.277-0.235,0.426-0.256c0.192,0,0.362,0.086,0.532,0.278
		c0.213,0.278,0.341,0.513,0.404,0.748l0.106,0.383C12.735,24.22,12.692,24.646,12.628,24.987L12.628,24.987z"/>
	<path d="M20.797,26.978v-2.305l1.17-0.256v2.305L20.797,26.978z M22.499,26.593v-2.304l0.83-0.192v-1.621l-0.83,0.192v-3.009
		h-0.532v3.136l-1.17,0.256v-2.945h-0.49l-0.021,3.072l-0.83,0.214v1.621l0.83-0.213v2.305c0,0.15-0.277,0.213-0.83,0.213v1.665
		l0.83-0.192v2.88h0.511v-3.009l1.17-0.277v2.902h0.532v-3.009l0.83-0.192v-1.687L22.499,26.593z"/>
	<path d="M27.067,32.246h2.853v1.772h1.575v-1.772h0.724V31.05h-0.724v-5.057h-0.703l-3.725,5.057V32.246z M29.92,27.957v3.094
		h-2.299L29.92,27.957z"/>
	<path d="M27.067,40.786h2.853v1.771h1.575v-1.771h0.724v-1.195h-0.724v-5.062h-0.703l-3.725,5.062V40.786z M29.92,36.495v3.096
		h-2.299L29.92,36.495z"/>
	<path d="M42.85,38.825l2.107-7.582h-0.298c-0.255,0.383-0.489,0.704-0.724,0.939c-0.234,0.255-0.532,0.448-0.852,0.554
		c-0.042,0.021-0.106,0.043-0.213,0.043c-0.148,0-0.234-0.064-0.234-0.17l0.064-0.192c0.064-0.086,0.085-0.235,0.085-0.47
		c0-0.321-0.127-0.599-0.383-0.854c-0.255-0.235-0.574-0.341-0.958-0.341c-0.319,0.064-0.575,0.235-0.766,0.47
		c-0.192,0.235-0.298,0.533-0.298,0.875c0,0.405,0.17,0.726,0.49,1.003c0.319,0.277,0.703,0.406,1.128,0.406
		c0.447,0,1.085-0.213,1.895-0.62l-1.639,5.939H42.85z"/>
	
		<path fill="none" stroke="#000000" stroke-width="0.12" stroke-linecap="round" stroke-linejoin="round" stroke-miterlimit="10" d="
		M48.812,46.834h7.822 M48.812,46.935h7.822 M48.812,47.037h7.822 M48.812,47.138h7.822"/>
	<path d="M53.432,47.078c-0.341,0-0.681,0.063-1.022,0.192c-0.532,0.191-0.873,0.361-1.085,0.533
		c-0.766,0.555-1.171,1.173-1.213,1.877c0,0.556,0.17,0.982,0.49,1.26c0.319,0.298,0.745,0.448,1.235,0.469
		c0.426,0,0.83-0.063,1.213-0.171c0.383-0.105,0.724-0.298,1.064-0.554c0.788-0.556,1.192-1.217,1.213-1.943
		c0-0.532-0.149-0.938-0.468-1.194c-0.362-0.319-0.809-0.469-1.341-0.469C53.475,47.078,53.454,47.078,53.432,47.078L53.432,47.078z
		"/>
	
		<path fill="none" stroke="#000000" stroke-width="0.12" stroke-linecap="round" stroke-linejoin="round" stroke-miterlimit="10" d="
		M54.907,49.17V34.232 M55.009,49.17V34.232 M55.111,49.17V34.232 M55.212,49.17V34.232"/>
	<path d="M55.813,38.033c0.085,0.021,0.213,0.128,0.405,0.277c0.191,0.171,0.319,0.277,0.404,0.32
		c0.149,0.085,0.298,0.191,0.404,0.319c0.128,0.129,0.255,0.3,0.404,0.513c0.128,0.192,0.234,0.362,0.32,0.448
		c0.148,0.17,0.298,0.427,0.447,0.746c0.149,0.32,0.255,0.576,0.298,0.747c0.021,0.086,0.064,0.149,0.085,0.213
		c0.043,0.064,0.064,0.107,0.064,0.129c0,0.042,0,0.149,0,0.319v0.448c0.021,0.214,0.021,0.363,0.021,0.47
		c0,0.043,0.021,0.064,0.021,0.107c0,0.021,0,0.063,0,0.127c0,0.021,0,0.064-0.021,0.107c-0.021,0.042-0.021,0.063-0.021,0.085
		c-0.043,0.149-0.085,0.32-0.149,0.469c-0.042,0.171-0.085,0.343-0.128,0.513c-0.063,0.191-0.148,0.405-0.213,0.64l-0.021,0.15
		l-0.362,0.789h0.277c0.468-0.769,0.852-1.515,1.107-2.262c0.127-0.32,0.234-0.597,0.255-0.854c0.042-0.256,0.063-0.577,0.063-0.981
		c0-0.171-0.042-0.448-0.148-0.854c-0.085-0.277-0.192-0.576-0.32-0.896c-0.255-0.619-0.532-1.109-0.83-1.493
		c-0.106-0.106-0.191-0.193-0.255-0.277c-0.106-0.129-0.213-0.256-0.319-0.363l-0.852-0.811c-0.106-0.107-0.234-0.235-0.319-0.407
		c-0.107-0.171-0.213-0.298-0.277-0.384c-0.213-0.257-0.383-0.513-0.511-0.769c-0.127-0.278-0.213-0.513-0.276-0.748
		c-0.042-0.108-0.107-0.278-0.17-0.535l-0.085-0.256v3.825C55.344,37.904,55.579,37.948,55.813,38.033L55.813,38.033z"/>
	
		<path fill="none" stroke="#000000" stroke-width="0.12" stroke-linecap="round" stroke-linejoin="round" stroke-miterlimit="10" d="
		M64.862,25.697V42.77 M64.964,25.697V42.77 M65.065,25.697V42.77 M65.167,25.697V42.77"/>
	<g>
		<path d="M72.663,18.511c0.284-0.036,0.489-0.143,0.615-0.322c0.125-0.178,0.295-0.634,0.508-1.369l1.126-4.122
			c0.041-0.14,0.074-0.264,0.099-0.37c0.024-0.107,0.037-0.199,0.037-0.279c0-0.154-0.055-0.253-0.165-0.294
			c-0.11-0.042-0.321-0.067-0.634-0.078V11.39h2.526l0.633,5.22l3.375-5.22h2.349v0.287c-0.251,0.032-0.428,0.083-0.529,0.151
			c-0.158,0.108-0.28,0.317-0.367,0.627l-1.361,4.98c-0.033,0.108-0.061,0.218-0.084,0.33c-0.023,0.111-0.035,0.206-0.035,0.281
			c0,0.183,0.053,0.299,0.159,0.348c0.106,0.048,0.323,0.087,0.65,0.116v0.287h-3.454v-0.287c0.37-0.036,0.625-0.096,0.764-0.181
			c0.138-0.084,0.25-0.289,0.337-0.613l1.392-5.094l-4.149,6.32h-0.308L75.404,12.8l-1.115,4.02
			c-0.058,0.206-0.101,0.376-0.13,0.513c-0.05,0.223-0.076,0.401-0.076,0.535c0,0.259,0.103,0.438,0.308,0.535
			c0.115,0.058,0.308,0.094,0.577,0.108v0.287h-2.306V18.511z"/>
		<path d="M82.601,18.511c0.263-0.032,0.457-0.097,0.583-0.193c0.126-0.097,0.23-0.295,0.313-0.596l1.357-4.968
			c0.04-0.141,0.069-0.259,0.089-0.354c0.02-0.096,0.03-0.18,0.03-0.251c0-0.188-0.052-0.306-0.157-0.354
			c-0.104-0.048-0.322-0.087-0.653-0.116V11.39h3.292v0.287c-0.27,0.036-0.465,0.101-0.586,0.194
			c-0.121,0.094-0.222,0.293-0.304,0.6l-1.363,4.968l-0.086,0.382c-0.007,0.036-0.014,0.073-0.019,0.11s-0.008,0.072-0.008,0.104
			c0,0.187,0.05,0.305,0.151,0.355c0.101,0.05,0.318,0.089,0.653,0.118v0.287h-3.291V18.511z"/>
	</g>
	<g>
		<path d="M87.302,18.797l0.966-3.543c0.058-0.208,0.096-0.354,0.115-0.438c0.018-0.084,0.027-0.166,0.027-0.244
			c0-0.118-0.037-0.191-0.111-0.22c-0.075-0.028-0.237-0.05-0.489-0.064v-0.292c0.466-0.029,0.862-0.066,1.189-0.113
			c0.211-0.029,0.558-0.09,1.041-0.184l-0.666,2.049l0.038,0.027c0.482-0.731,0.845-1.222,1.09-1.47
			c0.399-0.404,0.82-0.605,1.262-0.605c0.205,0,0.376,0.064,0.513,0.192c0.137,0.128,0.206,0.304,0.206,0.528
			c0,0.169-0.033,0.37-0.097,0.602c-0.036,0.128-0.084,0.289-0.145,0.482c0.46-0.58,0.833-0.987,1.118-1.221
			c0.474-0.389,0.965-0.583,1.473-0.583c0.342,0,0.595,0.081,0.759,0.244c0.164,0.163,0.246,0.394,0.246,0.691
			c0,0.169-0.034,0.394-0.103,0.677c-0.007,0.039-0.045,0.18-0.113,0.423l-0.586,1.757c-0.043,0.098-0.083,0.199-0.122,0.305
			c-0.038,0.105-0.057,0.18-0.057,0.223c0,0.041,0.021,0.072,0.062,0.095c0.042,0.023,0.08,0.035,0.116,0.035
			c0.104,0,0.25-0.121,0.438-0.362c0.101-0.13,0.211-0.292,0.33-0.486l0.243,0.157c-0.274,0.443-0.506,0.762-0.697,0.957
			c-0.331,0.335-0.68,0.503-1.047,0.503c-0.187,0-0.361-0.05-0.523-0.151c-0.162-0.101-0.243-0.267-0.243-0.498
			c0-0.191,0.048-0.46,0.146-0.806c0.061-0.211,0.142-0.454,0.243-0.729l0.455-1.691c0.007-0.034,0.014-0.069,0.019-0.105
			s0.008-0.071,0.008-0.105c0-0.092-0.023-0.169-0.067-0.232c-0.054-0.062-0.133-0.094-0.236-0.094
			c-0.288,0-0.612,0.193-0.975,0.579c-0.361,0.386-0.664,0.784-0.906,1.195c-0.09,0.147-0.179,0.328-0.267,0.541
			c-0.088,0.212-0.309,0.872-0.663,1.979h-1.328l0.979-3.628c0.029-0.085,0.052-0.162,0.07-0.231
			c0.019-0.07,0.027-0.136,0.027-0.201c0-0.101-0.021-0.166-0.063-0.192c-0.042-0.027-0.089-0.041-0.14-0.041
			c-0.161,0-0.373,0.165-0.638,0.495c-0.264,0.33-0.516,0.758-0.753,1.285c-0.127,0.281-0.266,0.675-0.417,1.18
			c-0.101,0.306-0.233,0.75-0.398,1.333H87.302z"/>
	</g>
	<path d="M76.288,36.411c-0.341,0-0.681,0.064-1.022,0.192c-0.532,0.192-0.873,0.364-1.085,0.535
		c-0.766,0.554-1.171,1.173-1.213,1.877c0,0.555,0.17,0.981,0.49,1.259c0.319,0.3,0.745,0.448,1.234,0.47
		c0.426,0,0.83-0.064,1.213-0.17c0.383-0.107,0.724-0.3,1.064-0.556c0.788-0.555,1.192-1.216,1.213-1.941
		c0-0.533-0.149-0.939-0.468-1.196c-0.362-0.321-0.809-0.47-1.341-0.47C76.331,36.411,76.31,36.411,76.288,36.411L76.288,36.411z"/>
	
		<path fill="none" stroke="#000000" stroke-width="0.12" stroke-linecap="round" stroke-linejoin="round" stroke-miterlimit="10" d="
		M77.763,38.504v-14.94 M77.865,38.504v-14.94 M77.967,38.504v-14.94 M78.068,38.504v-14.94"/>
	<path d="M79.686,38.149c0.192,0.192,0.405,0.299,0.681,0.299c0.277,0,0.511-0.106,0.703-0.299c0.191-0.192,0.298-0.428,0.298-0.683
		c0-0.236-0.106-0.471-0.298-0.706c-0.192-0.192-0.447-0.299-0.703-0.299c-0.341,0-0.575,0.085-0.724,0.256
		c-0.17,0.236-0.255,0.491-0.255,0.749C79.388,37.743,79.495,37.957,79.686,38.149L79.686,38.149z"/>
	<path d="M97.214,38.546c-0.34,0-0.681,0.063-1.022,0.191c-0.532,0.191-0.873,0.362-1.085,0.533
		c-0.767,0.555-1.171,1.173-1.213,1.877c0,0.556,0.17,0.982,0.489,1.26c0.32,0.299,0.746,0.448,1.235,0.47
		c0.426,0,0.831-0.064,1.213-0.171c0.383-0.106,0.724-0.299,1.064-0.555c0.788-0.556,1.192-1.217,1.213-1.942
		c0-0.532-0.149-0.938-0.468-1.194c-0.362-0.32-0.809-0.469-1.341-0.469C97.257,38.546,97.235,38.546,97.214,38.546L97.214,38.546z"
		/>
	
		<path fill="none" stroke="#000000" stroke-width="0.12" stroke-linecap="round" stroke-linejoin="round" stroke-miterlimit="10" d="
		M98.689,40.637v-14.94 M98.791,40.637v-14.94 M98.892,40.637v-14.94 M98.993,40.637v-14.94"/>
	<path d="M99.594,29.492c0.085,0.021,0.213,0.128,0.404,0.277c0.192,0.172,0.319,0.278,0.405,0.321
		c0.149,0.085,0.298,0.192,0.404,0.32c0.127,0.128,0.255,0.298,0.404,0.512c0.128,0.192,0.234,0.363,0.319,0.448
		c0.149,0.171,0.298,0.427,0.447,0.748c0.149,0.32,0.255,0.576,0.298,0.747c0.021,0.085,0.064,0.149,0.085,0.213
		c0.042,0.064,0.063,0.106,0.063,0.127c0,0.043,0,0.15,0,0.321v0.449c0.021,0.213,0.021,0.363,0.021,0.47
		c0,0.043,0.021,0.063,0.021,0.106c0,0.021,0,0.064,0,0.129c0,0.021,0,0.063-0.021,0.106c-0.021,0.043-0.021,0.065-0.021,0.086
		c-0.042,0.148-0.085,0.32-0.149,0.47c-0.042,0.17-0.085,0.342-0.127,0.513c-0.064,0.193-0.149,0.406-0.213,0.642l-0.021,0.149
		l-0.362,0.792h0.276c0.468-0.77,0.852-1.519,1.107-2.266c0.128-0.321,0.234-0.6,0.255-0.855c0.042-0.257,0.064-0.577,0.064-0.983
		c0-0.171-0.042-0.448-0.149-0.854c-0.085-0.277-0.191-0.576-0.319-0.896c-0.255-0.619-0.532-1.11-0.83-1.494
		c-0.106-0.106-0.191-0.191-0.255-0.278c-0.106-0.127-0.213-0.256-0.319-0.362l-0.852-0.812c-0.106-0.105-0.234-0.234-0.319-0.405
		c-0.106-0.17-0.213-0.298-0.276-0.384c-0.213-0.256-0.383-0.512-0.511-0.769c-0.127-0.277-0.213-0.512-0.277-0.747
		c-0.042-0.107-0.106-0.277-0.17-0.533l-0.085-0.256v3.819C99.126,29.364,99.36,29.407,99.594,29.492L99.594,29.492z"/>
	<g>
		<path d="M108.3,18.511c0.241-0.033,0.412-0.083,0.512-0.151c0.169-0.111,0.297-0.326,0.383-0.643l1.356-4.964
			c0.04-0.14,0.07-0.258,0.089-0.354c0.02-0.096,0.03-0.18,0.03-0.251c0-0.187-0.052-0.306-0.157-0.354s-0.322-0.087-0.653-0.116
			V11.39h3.208c1.085,0,1.911,0.279,2.478,0.835c0.566,0.557,0.849,1.304,0.849,2.241c0,1.128-0.418,2.108-1.256,2.941
			c-0.932,0.927-2.154,1.39-3.668,1.39H108.3V18.511z M114.495,12.482c-0.288-0.497-0.787-0.746-1.497-0.746
			c-0.237,0-0.398,0.039-0.483,0.116c-0.084,0.078-0.145,0.181-0.181,0.311l-1.522,5.591c-0.014,0.054-0.024,0.103-0.029,0.146
			c-0.006,0.043-0.008,0.081-0.008,0.113c0,0.144,0.044,0.248,0.132,0.313s0.247,0.097,0.478,0.097c1.314,0,2.264-0.677,2.851-2.031
			c0.356-0.821,0.535-1.688,0.535-2.604C114.771,13.242,114.679,12.806,114.495,12.482z"/>
		<path d="M118.355,12.911c0.964-1.132,2.043-1.699,3.237-1.699c0.795,0,1.448,0.24,1.959,0.72c0.511,0.479,0.766,1.129,0.766,1.948
			c0,1.193-0.451,2.328-1.354,3.403c-0.964,1.15-2.072,1.726-3.324,1.726c-0.788,0-1.429-0.24-1.924-0.722
			c-0.495-0.481-0.742-1.125-0.742-1.929C116.974,15.145,117.434,13.996,118.355,12.911z M118.695,17.958
			c0.176,0.444,0.497,0.666,0.96,0.666c0.435,0,0.831-0.161,1.188-0.484c0.356-0.323,0.725-0.939,1.106-1.848
			c0.241-0.574,0.43-1.178,0.567-1.812c0.136-0.635,0.205-1.149,0.205-1.542c0-0.372-0.091-0.689-0.275-0.955
			c-0.184-0.265-0.47-0.397-0.858-0.397c-0.917,0-1.689,0.817-2.315,2.451c-0.475,1.241-0.712,2.274-0.712,3.1
			C118.56,17.457,118.605,17.731,118.695,17.958z"/>
	</g>
	<path d="M112.654,36.411c-0.34,0-0.681,0.064-1.021,0.192c-0.532,0.192-0.873,0.364-1.085,0.535
		c-0.766,0.554-1.171,1.173-1.213,1.877c0,0.555,0.17,0.981,0.49,1.259c0.319,0.3,0.745,0.448,1.234,0.47
		c0.426,0,0.83-0.064,1.213-0.17c0.383-0.107,0.724-0.3,1.064-0.556c0.788-0.555,1.192-1.216,1.213-1.941
		c0-0.533-0.149-0.939-0.468-1.196c-0.362-0.321-0.809-0.47-1.341-0.47C112.697,36.411,112.676,36.411,112.654,36.411
		L112.654,36.411z"/>
	
		<path fill="none" stroke="#000000" stroke-width="0.12" stroke-linecap="round" stroke-linejoin="round" stroke-miterlimit="10" d="
		M114.129,38.504v-14.94 M114.231,38.504v-14.94 M114.332,38.504v-14.94 M114.434,38.504v-14.94"/>
	<path d="M115.035,27.36c0.085,0.021,0.213,0.127,0.404,0.278c0.191,0.17,0.319,0.277,0.404,0.319
		c0.149,0.086,0.298,0.193,0.405,0.321c0.127,0.127,0.255,0.298,0.404,0.512c0.127,0.193,0.234,0.363,0.319,0.449
		c0.149,0.17,0.298,0.427,0.447,0.746c0.149,0.32,0.255,0.577,0.298,0.747c0.021,0.086,0.064,0.15,0.085,0.213
		c0.042,0.064,0.064,0.107,0.064,0.128c0,0.042,0,0.15,0,0.32v0.448c0.021,0.213,0.021,0.363,0.021,0.47
		c0,0.043,0.021,0.064,0.021,0.107c0,0.021,0,0.063,0,0.127c0,0.021,0,0.064-0.021,0.107c-0.021,0.042-0.021,0.062-0.021,0.084
		c-0.042,0.15-0.085,0.321-0.149,0.47c-0.043,0.171-0.085,0.342-0.128,0.513c-0.063,0.192-0.149,0.406-0.213,0.642l-0.021,0.149
		l-0.362,0.791h0.277c0.468-0.77,0.851-1.517,1.106-2.265c0.128-0.321,0.234-0.598,0.256-0.853c0.042-0.256,0.063-0.577,0.063-0.982
		c0-0.17-0.042-0.448-0.149-0.853c-0.085-0.278-0.192-0.577-0.319-0.896c-0.255-0.619-0.532-1.11-0.83-1.495
		c-0.106-0.105-0.192-0.191-0.255-0.277c-0.106-0.128-0.213-0.256-0.319-0.363l-0.852-0.81c-0.106-0.107-0.234-0.235-0.319-0.406
		c-0.106-0.171-0.213-0.298-0.277-0.384c-0.213-0.256-0.383-0.512-0.511-0.768c-0.128-0.277-0.213-0.512-0.277-0.746
		c-0.042-0.108-0.106-0.278-0.17-0.534l-0.085-0.256v3.82C114.566,27.232,114.801,27.274,115.035,27.36L115.035,27.36z"/>
	<path d="M129.212,36.411c-0.341,0-0.681,0.064-1.022,0.192c-0.532,0.192-0.873,0.364-1.085,0.535
		c-0.767,0.554-1.171,1.173-1.213,1.877c0,0.555,0.17,0.981,0.489,1.259c0.32,0.3,0.746,0.448,1.235,0.47
		c0.426,0,0.831-0.064,1.213-0.17c0.383-0.107,0.724-0.3,1.064-0.556c0.788-0.555,1.192-1.216,1.213-1.941
		c0-0.533-0.149-0.939-0.469-1.196c-0.361-0.321-0.809-0.47-1.341-0.47C129.255,36.411,129.233,36.411,129.212,36.411
		L129.212,36.411z"/>
	
		<path fill="none" stroke="#000000" stroke-width="0.12" stroke-linecap="round" stroke-linejoin="round" stroke-miterlimit="10" d="
		M130.687,38.504v-14.94 M130.789,38.504v-14.94 M130.89,38.504v-14.94 M130.991,38.504v-14.94"/>
	<path d="M144.754,36.411c-0.341,0-0.681,0.064-1.022,0.192c-0.532,0.192-0.873,0.364-1.085,0.535
		c-0.766,0.554-1.171,1.173-1.213,1.877c0,0.555,0.17,0.981,0.49,1.259c0.319,0.3,0.745,0.448,1.235,0.47
		c0.425,0,0.83-0.064,1.213-0.17c0.383-0.107,0.724-0.3,1.064-0.556c0.788-0.555,1.192-1.216,1.213-1.941
		c0-0.533-0.149-0.939-0.468-1.196c-0.362-0.321-0.809-0.47-1.341-0.47C144.797,36.411,144.776,36.411,144.754,36.411
		L144.754,36.411z"/>
	
		<path fill="none" stroke="#000000" stroke-width="0.12" stroke-linecap="round" stroke-linejoin="round" stroke-miterlimit="10" d="
		M146.229,38.504v-14.94 M146.33,38.504v-14.94 M146.432,38.504v-14.94 M146.534,38.504v-14.94"/>
	<path d="M147.135,27.36c0.085,0.021,0.213,0.127,0.404,0.278c0.192,0.17,0.32,0.277,0.405,0.319
		c0.149,0.086,0.298,0.193,0.404,0.321c0.128,0.127,0.255,0.298,0.405,0.512c0.127,0.193,0.234,0.363,0.319,0.449
		c0.149,0.17,0.298,0.427,0.447,0.746c0.149,0.32,0.255,0.577,0.298,0.747c0.021,0.086,0.063,0.15,0.085,0.213
		c0.042,0.064,0.063,0.107,0.063,0.128c0,0.042,0,0.15,0,0.32v0.448c0.021,0.213,0.021,0.363,0.021,0.47
		c0,0.043,0.021,0.064,0.021,0.107c0,0.021,0,0.063,0,0.127c0,0.021,0,0.064-0.021,0.107c-0.021,0.042-0.021,0.062-0.021,0.084
		c-0.042,0.15-0.085,0.321-0.148,0.47c-0.043,0.171-0.085,0.342-0.128,0.513c-0.064,0.192-0.149,0.406-0.213,0.642l-0.021,0.149
		l-0.362,0.791h0.277c0.468-0.77,0.852-1.517,1.107-2.265c0.127-0.321,0.234-0.598,0.255-0.853c0.042-0.256,0.064-0.577,0.064-0.982
		c0-0.17-0.042-0.448-0.149-0.853c-0.085-0.278-0.191-0.577-0.319-0.896c-0.255-0.619-0.532-1.11-0.831-1.495
		c-0.106-0.105-0.191-0.191-0.255-0.277c-0.106-0.128-0.213-0.256-0.319-0.363l-0.852-0.81c-0.107-0.107-0.234-0.235-0.32-0.406
		c-0.106-0.171-0.213-0.298-0.276-0.384c-0.213-0.256-0.383-0.512-0.511-0.768c-0.128-0.277-0.213-0.512-0.277-0.746
		c-0.042-0.108-0.106-0.278-0.17-0.534l-0.085-0.256v3.82C146.667,27.232,146.901,27.274,147.135,27.36L147.135,27.36z"/>
	
		<path fill="none" stroke="#000000" stroke-width="0.12" stroke-linecap="round" stroke-linejoin="round" stroke-miterlimit="10" d="
		M156.184,25.697V42.77 M156.286,25.697V42.77 M156.387,25.697V42.77 M156.489,25.697V42.77"/>
	<g>
		<path d="M164.061,18.511c0.263-0.033,0.457-0.097,0.582-0.195c0.125-0.097,0.23-0.297,0.312-0.6l1.356-4.964
			c0.04-0.14,0.069-0.258,0.089-0.354c0.02-0.096,0.03-0.18,0.03-0.251c0-0.187-0.052-0.306-0.156-0.354s-0.322-0.087-0.653-0.116
			V11.39h3.501v0.287c-0.385,0.039-0.644,0.1-0.777,0.181c-0.133,0.081-0.245,0.285-0.334,0.613l-1.438,5.283
			c-0.014,0.058-0.026,0.112-0.035,0.163c-0.009,0.051-0.013,0.111-0.013,0.18c0,0.124,0.054,0.212,0.162,0.264
			c0.108,0.053,0.259,0.079,0.454,0.079c0.76,0,1.416-0.13,1.968-0.389c0.553-0.26,1.04-0.745,1.46-1.455l0.265,0.049l-0.647,2.152
			h-6.125V18.511z"/>
		<path d="M170.533,18.532c0.205-0.061,0.356-0.128,0.454-0.2c0.144-0.104,0.304-0.299,0.48-0.584l4.101-6.509h0.286l1.058,6.331
			c0.072,0.425,0.158,0.686,0.259,0.781c0.1,0.096,0.322,0.156,0.664,0.181v0.265h-3.352v-0.265
			c0.317-0.025,0.541-0.077,0.672-0.154c0.131-0.077,0.197-0.238,0.197-0.483c0-0.083-0.02-0.282-0.059-0.595
			c-0.008-0.065-0.043-0.333-0.107-0.806h-2.384l-0.644,1.125c-0.043,0.076-0.082,0.158-0.116,0.249s-0.051,0.177-0.051,0.26
			c0,0.151,0.046,0.249,0.138,0.292c0.092,0.043,0.283,0.082,0.574,0.114v0.265h-2.169V18.532z M175.107,16.056L174.7,13.36
			l-1.635,2.696H175.107z"/>
	</g>
	<g>
		<path d="M178.719,18.797l0.966-3.543c0.059-0.208,0.097-0.354,0.115-0.438s0.027-0.166,0.027-0.244
			c0-0.118-0.037-0.191-0.111-0.22c-0.074-0.028-0.238-0.05-0.489-0.064v-0.292c0.465-0.029,0.861-0.066,1.188-0.113
			c0.211-0.029,0.558-0.09,1.041-0.184l-0.666,2.049l0.037,0.027c0.482-0.731,0.846-1.222,1.09-1.47
			c0.398-0.404,0.82-0.605,1.262-0.605c0.205,0,0.377,0.064,0.513,0.192c0.137,0.128,0.206,0.304,0.206,0.528
			c0,0.169-0.032,0.37-0.097,0.602c-0.036,0.128-0.084,0.289-0.145,0.482c0.46-0.58,0.833-0.987,1.118-1.221
			c0.474-0.389,0.965-0.583,1.473-0.583c0.342,0,0.595,0.081,0.76,0.244c0.164,0.163,0.246,0.394,0.246,0.691
			c0,0.169-0.034,0.394-0.103,0.677c-0.008,0.039-0.046,0.18-0.113,0.423l-0.587,1.757c-0.043,0.098-0.083,0.199-0.121,0.305
			s-0.057,0.18-0.057,0.223c0,0.041,0.021,0.072,0.062,0.095c0.042,0.023,0.081,0.035,0.116,0.035c0.105,0,0.251-0.121,0.438-0.362
			c0.101-0.13,0.211-0.292,0.33-0.486l0.242,0.157c-0.272,0.443-0.505,0.762-0.696,0.957c-0.331,0.335-0.68,0.503-1.047,0.503
			c-0.188,0-0.361-0.05-0.523-0.151s-0.243-0.267-0.243-0.498c0-0.191,0.048-0.46,0.146-0.806c0.062-0.211,0.143-0.454,0.243-0.729
			l0.455-1.691c0.007-0.034,0.013-0.069,0.019-0.105s0.008-0.071,0.008-0.105c0-0.092-0.022-0.169-0.067-0.232
			c-0.055-0.062-0.133-0.094-0.236-0.094c-0.288,0-0.613,0.193-0.975,0.579c-0.361,0.386-0.664,0.784-0.907,1.195
			c-0.089,0.147-0.178,0.328-0.266,0.541c-0.087,0.212-0.309,0.872-0.663,1.979h-1.328l0.98-3.628
			c0.029-0.085,0.052-0.162,0.07-0.231c0.018-0.07,0.026-0.136,0.026-0.201c0-0.101-0.021-0.166-0.063-0.192
			c-0.043-0.027-0.089-0.041-0.14-0.041c-0.161,0-0.373,0.165-0.637,0.495c-0.265,0.33-0.516,0.758-0.754,1.285
			c-0.127,0.281-0.266,0.675-0.417,1.18c-0.101,0.306-0.233,0.75-0.398,1.333H178.719z"/>
	</g>
	
		<path fill="none" stroke="#000000" stroke-width="0.12" stroke-linecap="round" stroke-linejoin="round" stroke-miterlimit="10" d="
		M164.107,32.097V49.17 M164.209,32.097V49.17 M164.311,32.097V49.17 M164.412,32.097V49.17 M176.399,32.097V49.17 M176.5,32.097
		V49.17 M176.602,32.097V49.17 M176.703,32.097V49.17 M164.311,47.037h12.291 M164.311,47.138h12.291 M164.311,47.24h12.291
		 M164.311,47.341h12.291 M164.311,47.443h12.291 M164.311,47.545h12.291 M164.311,47.646h12.291 M164.311,47.748h12.291
		 M164.311,47.849h12.291 M164.311,47.951h12.291 M164.311,48.052h12.291 M164.311,48.154h12.291 M164.311,48.256h12.291
		 M164.311,48.357h12.291 M164.311,48.459h12.291 M164.311,48.56h12.291 M164.311,48.662h12.291 M164.311,48.763h12.291
		 M164.311,48.865h12.291 M164.311,48.967h12.291 M164.311,49.068h12.291"/>
	<path d="M167.61,30.005c-0.341,0-0.682,0.064-1.022,0.192c-0.532,0.192-0.873,0.363-1.085,0.533
		c-0.767,0.556-1.171,1.174-1.213,1.878c0,0.554,0.17,0.981,0.49,1.259c0.319,0.299,0.745,0.449,1.234,0.471
		c0.426,0,0.83-0.064,1.213-0.171c0.383-0.106,0.724-0.299,1.064-0.556c0.788-0.555,1.192-1.216,1.214-1.942
		c0-0.534-0.149-0.939-0.468-1.195c-0.362-0.32-0.809-0.469-1.341-0.469C167.653,30.005,167.632,30.005,167.61,30.005L167.61,30.005
		z M179.917,30.005c-0.341,0-0.682,0.064-1.022,0.192c-0.532,0.192-0.873,0.363-1.085,0.533c-0.767,0.556-1.171,1.174-1.213,1.878
		c0,0.554,0.17,0.981,0.489,1.259c0.319,0.299,0.746,0.449,1.235,0.471c0.425,0,0.83-0.064,1.214-0.171
		c0.383-0.106,0.723-0.299,1.064-0.556c0.788-0.555,1.192-1.216,1.212-1.942c0-0.534-0.148-0.939-0.468-1.195
		c-0.362-0.32-0.809-0.469-1.341-0.469C179.959,30.005,179.937,30.005,179.917,30.005L179.917,30.005z"/>
	
		<path fill="none" stroke="#000000" stroke-width="0.12" stroke-linecap="round" stroke-linejoin="round" stroke-miterlimit="10" d="
		M186.862,31.082c0,0,0,0,0-0.103c0-2.234-1.219-4.062-2.54-4.062c-1.422,0-2.54,1.828-2.54,4.062c0,0.103,0,0.103,0,0.103
		 M186.862,31.082c0,0,0,0,0-0.103c0-2.336-1.219-4.165-2.54-4.165c-1.422,0-2.54,1.829-2.54,4.165c0,0.103,0,0.103,0,0.103
		 M186.862,31.082c0,0,0,0,0-0.103c0-2.336-1.219-4.266-2.54-4.266c-1.422,0-2.54,1.93-2.54,4.266c0,0.103,0,0.103,0,0.103
		 M186.862,31.082c0,0,0,0,0-0.103c0-2.437-1.219-4.368-2.54-4.368c-1.422,0-2.54,1.931-2.54,4.368c0,0.103,0,0.103,0,0.103
		 M186.862,31.082c0,0,0,0,0-0.103c0-2.54-1.219-4.469-2.54-4.469c-1.422,0-2.54,1.929-2.54,4.469c0,0.103,0,0.103,0,0.103
		 M186.862,31.082c0,0,0,0,0-0.103c0-2.54-1.219-4.571-2.54-4.571c-1.422,0-2.54,2.031-2.54,4.571c0,0.103,0,0.103,0,0.103
		 M186.862,31.082c0,0,0,0,0-0.103c0-2.641-1.219-4.672-2.54-4.672c-1.422,0-2.54,2.032-2.54,4.672c0,0.103,0,0.103,0,0.103
		 M186.862,31.082c0,0,0,0,0-0.103c0-2.641-1.219-4.774-2.54-4.774c-1.422,0-2.54,2.133-2.54,4.774c0,0.103,0,0.103,0,0.103"/>
	<path d="M190.262,30.005c-0.341,0-0.681,0.064-1.022,0.192c-0.532,0.192-0.873,0.363-1.085,0.533
		c-0.766,0.556-1.17,1.174-1.212,1.878c0,0.554,0.17,0.981,0.489,1.259c0.319,0.299,0.745,0.449,1.234,0.471
		c0.425,0,0.831-0.064,1.213-0.171c0.383-0.106,0.723-0.299,1.064-0.556c0.788-0.555,1.192-1.216,1.213-1.942
		c0-0.534-0.149-0.939-0.468-1.195c-0.362-0.32-0.81-0.469-1.341-0.469C190.305,30.005,190.284,30.005,190.262,30.005
		L190.262,30.005z"/>
	
		<path fill="none" stroke="#000000" stroke-width="0.12" stroke-linecap="round" stroke-linejoin="round" stroke-miterlimit="10" d="
		M186.862,32.097v14.94 M186.963,32.097v14.94 M187.065,32.097v14.94 M187.166,32.097v14.94"/>
	<path d="M193.661,31.743c0.192,0.192,0.404,0.299,0.681,0.299s0.511-0.107,0.703-0.299c0.191-0.192,0.298-0.427,0.298-0.683
		c0-0.235-0.107-0.47-0.298-0.705c-0.192-0.191-0.447-0.299-0.703-0.299c-0.341,0-0.575,0.086-0.724,0.256
		c-0.17,0.235-0.256,0.491-0.256,0.748C193.363,31.337,193.47,31.55,193.661,31.743L193.661,31.743z"/>
	<path d="M213.22,34.275c-0.341,0-0.681,0.063-1.021,0.191c-0.532,0.192-0.873,0.363-1.086,0.534
		c-0.767,0.556-1.171,1.175-1.214,1.88c0,0.557,0.17,0.983,0.489,1.261c0.32,0.299,0.746,0.448,1.235,0.47
		c0.426,0,0.83-0.064,1.213-0.171c0.384-0.106,0.725-0.299,1.065-0.555c0.787-0.556,1.191-1.218,1.213-1.944
		c0-0.534-0.149-0.941-0.469-1.198c-0.361-0.321-0.809-0.469-1.341-0.469C213.262,34.275,213.241,34.275,213.22,34.275
		L213.22,34.275z"/>
	
		<path fill="none" stroke="#000000" stroke-width="0.12" stroke-linecap="round" stroke-linejoin="round" stroke-miterlimit="10" d="
		M214.695,36.368V21.431 M214.797,36.368V21.431 M214.898,36.368V21.431 M215,36.368V21.431"/>
	<path d="M215.6,25.226c0.086,0.021,0.213,0.128,0.404,0.277c0.192,0.172,0.319,0.278,0.405,0.321
		c0.148,0.085,0.298,0.192,0.403,0.32c0.128,0.128,0.257,0.298,0.405,0.512c0.127,0.192,0.234,0.363,0.319,0.448
		c0.148,0.171,0.297,0.427,0.447,0.748c0.148,0.32,0.255,0.576,0.298,0.747c0.021,0.085,0.063,0.149,0.085,0.213
		c0.043,0.063,0.064,0.106,0.064,0.127c0,0.043,0,0.15,0,0.32v0.448c0.021,0.213,0.021,0.362,0.021,0.47
		c0,0.043,0.021,0.063,0.021,0.105c0,0.021,0,0.065,0,0.129c0,0.021,0,0.063-0.021,0.105c-0.021,0.043-0.021,0.064-0.021,0.086
		c-0.043,0.149-0.086,0.32-0.149,0.47c-0.043,0.17-0.086,0.341-0.128,0.513c-0.063,0.192-0.149,0.405-0.212,0.64l-0.022,0.149
		l-0.361,0.79h0.275c0.469-0.769,0.852-1.516,1.108-2.262c0.127-0.321,0.233-0.599,0.255-0.854c0.043-0.256,0.064-0.576,0.064-0.981
		c0-0.171-0.043-0.448-0.149-0.854c-0.086-0.277-0.191-0.576-0.319-0.896c-0.256-0.619-0.532-1.11-0.83-1.494
		c-0.107-0.106-0.191-0.191-0.256-0.278c-0.105-0.127-0.213-0.256-0.319-0.362l-0.852-0.812c-0.106-0.105-0.234-0.235-0.318-0.405
		c-0.106-0.17-0.214-0.298-0.277-0.384c-0.212-0.256-0.383-0.513-0.511-0.769c-0.128-0.277-0.213-0.512-0.277-0.747
		c-0.043-0.107-0.105-0.277-0.17-0.533l-0.085-0.256v3.819C215.132,25.098,215.367,25.141,215.6,25.226L215.6,25.226z"/>
	
		<path fill="none" stroke="#000000" stroke-width="0.12" stroke-linecap="round" stroke-linejoin="round" stroke-miterlimit="10" d="
		M224.447,34.232v17.071 M224.548,34.232v17.071 M224.65,34.232v17.071 M224.751,34.232v17.071 M238.16,32.097v16.972
		 M238.262,32.097v16.972 M238.363,32.097v16.972 M238.466,32.097v16.972 M224.65,49.17l13.713-2.235 M224.65,49.271l13.713-2.234
		 M224.65,49.373l13.713-2.235 M224.65,49.474l13.713-2.233 M224.65,49.576l13.713-2.235 M224.65,49.678l13.713-2.234 M224.65,49.78
		l13.713-2.235 M224.65,49.881l13.713-2.235 M224.65,49.982l13.713-2.234 M224.65,50.084l13.713-2.235 M224.65,50.185l13.713-2.233
		 M224.65,50.287l13.713-2.235 M224.65,50.389l13.713-2.234 M224.65,50.491l13.713-2.235 M224.65,50.592l13.713-2.234
		 M224.65,50.693l13.713-2.234 M224.65,50.795l13.713-2.235 M224.65,50.896l13.713-2.234 M224.65,50.998l13.713-2.235 M224.65,51.1
		l13.713-2.234 M224.65,51.202l13.713-2.235"/>
	<path d="M227.95,32.138c-0.341,0-0.682,0.064-1.022,0.191c-0.532,0.192-0.873,0.363-1.085,0.534
		c-0.768,0.554-1.171,1.175-1.214,1.879c0,0.557,0.171,0.983,0.489,1.262c0.319,0.299,0.746,0.449,1.235,0.47
		c0.425,0,0.83-0.064,1.214-0.171c0.383-0.108,0.723-0.299,1.063-0.557c0.788-0.556,1.192-1.218,1.213-1.944
		c0-0.535-0.148-0.94-0.468-1.197c-0.362-0.321-0.809-0.469-1.341-0.469C227.992,32.138,227.97,32.138,227.95,32.138L227.95,32.138z
		"/>
	<path d="M241.663,30.005c-0.34,0-0.681,0.063-1.021,0.191c-0.532,0.192-0.873,0.362-1.086,0.533
		c-0.766,0.555-1.171,1.173-1.214,1.877c0,0.556,0.17,0.982,0.489,1.261c0.321,0.298,0.746,0.449,1.235,0.471
		c0.427,0,0.83-0.064,1.214-0.172c0.383-0.106,0.724-0.298,1.064-0.556c0.787-0.556,1.192-1.217,1.214-1.942
		c0-0.533-0.149-0.939-0.47-1.195c-0.36-0.321-0.809-0.469-1.341-0.469C241.706,30.005,241.684,30.005,241.663,30.005
		L241.663,30.005z"/>
	
		<path fill="none" stroke="#000000" stroke-width="0.12" stroke-linecap="round" stroke-linejoin="round" stroke-miterlimit="10" d="
		M250.654,25.697V42.77 M250.757,25.697V42.77 M250.857,25.697V42.77 M250.96,25.697V42.77"/>
	<g>
		<path d="M258.853,19.002l0.399-2.481l0.318,0.022c0.021,0.353,0.053,0.611,0.092,0.773c0.068,0.27,0.192,0.51,0.372,0.719
			c0.166,0.191,0.354,0.336,0.564,0.435s0.439,0.148,0.688,0.148c0.443,0,0.785-0.142,1.028-0.424s0.363-0.612,0.363-0.987
			c0-0.465-0.451-1.052-1.354-1.763c-0.903-0.742-1.354-1.429-1.354-2.06c0-0.595,0.198-1.101,0.596-1.52
			c0.398-0.417,0.952-0.627,1.665-0.627c0.198,0,0.401,0.02,0.609,0.06c0.138,0.025,0.258,0.056,0.362,0.092l0.279,0.092
			c0.062,0.018,0.126,0.033,0.19,0.046s0.122,0.019,0.172,0.019c0.129,0,0.229-0.027,0.298-0.081c0.067-0.054,0.127-0.121,0.177-0.2
			h0.329l-0.446,2.216l-0.286-0.038l-0.038-0.362c-0.048-0.342-0.154-0.636-0.319-0.881c-0.258-0.386-0.637-0.578-1.133-0.578
			c-0.425,0-0.733,0.155-0.929,0.465c-0.129,0.206-0.193,0.427-0.193,0.665c0,0.252,0.066,0.476,0.198,0.67
			c0.076,0.108,0.188,0.226,0.341,0.352l0.952,0.784c0.337,0.277,0.625,0.594,0.861,0.949c0.238,0.355,0.355,0.76,0.355,1.214
			c0,0.584-0.229,1.111-0.688,1.581c-0.458,0.471-1.09,0.706-1.892,0.706c-0.202,0-0.403-0.019-0.606-0.056
			c-0.204-0.038-0.404-0.092-0.603-0.163l-0.281-0.102c-0.092-0.036-0.156-0.058-0.193-0.067c-0.036-0.009-0.077-0.013-0.124-0.013
			c-0.122,0-0.21,0.029-0.261,0.088c-0.053,0.059-0.111,0.161-0.176,0.307H258.853z"/>
		<path d="M266.669,12.911c0.964-1.132,2.043-1.699,3.237-1.699c0.795,0,1.448,0.24,1.959,0.72c0.511,0.479,0.767,1.129,0.767,1.948
			c0,1.193-0.452,2.328-1.355,3.403c-0.964,1.15-2.071,1.726-3.323,1.726c-0.788,0-1.43-0.24-1.925-0.722
			c-0.494-0.481-0.742-1.125-0.742-1.929C265.286,15.145,265.748,13.996,266.669,12.911z M267.009,17.958
			c0.176,0.444,0.496,0.666,0.961,0.666c0.435,0,0.83-0.161,1.188-0.484c0.355-0.323,0.724-0.939,1.105-1.848
			c0.24-0.574,0.43-1.178,0.565-1.812c0.138-0.635,0.205-1.149,0.205-1.542c0-0.372-0.091-0.689-0.274-0.955
			c-0.184-0.265-0.47-0.397-0.857-0.397c-0.918,0-1.69,0.817-2.315,2.451c-0.475,1.241-0.712,2.274-0.712,3.1
			C266.874,17.457,266.918,17.731,267.009,17.958z"/>
	</g>
	<g>
		<path d="M272.76,18.511c0.261-0.033,0.456-0.097,0.582-0.195c0.125-0.097,0.229-0.297,0.312-0.6l1.355-4.964
			c0.04-0.14,0.069-0.258,0.089-0.354c0.021-0.096,0.03-0.18,0.03-0.251c0-0.187-0.053-0.306-0.157-0.354s-0.32-0.087-0.653-0.116
			V11.39h3.502v0.287c-0.385,0.039-0.643,0.1-0.777,0.181c-0.132,0.081-0.244,0.285-0.334,0.613l-1.438,5.283
			c-0.015,0.058-0.026,0.112-0.034,0.163c-0.01,0.051-0.014,0.111-0.014,0.18c0,0.124,0.054,0.212,0.162,0.264
			c0.107,0.053,0.258,0.079,0.453,0.079c0.759,0,1.415-0.13,1.968-0.389c0.554-0.26,1.04-0.745,1.462-1.455l0.264,0.049
			l-0.647,2.152h-6.124V18.511z"/>
	</g>
	<path d="M262.081,30.005c-0.341,0-0.682,0.064-1.022,0.192c-0.532,0.192-0.873,0.363-1.084,0.533
		c-0.768,0.556-1.171,1.174-1.214,1.878c0,0.554,0.17,0.981,0.489,1.259c0.319,0.299,0.746,0.449,1.235,0.471
		c0.425,0,0.83-0.064,1.213-0.171c0.383-0.106,0.723-0.299,1.063-0.556c0.789-0.555,1.192-1.216,1.214-1.942
		c0-0.534-0.149-0.939-0.468-1.195c-0.362-0.32-0.809-0.469-1.341-0.469C262.124,30.005,262.102,30.005,262.081,30.005
		L262.081,30.005z"/>
	
		<path fill="none" stroke="#000000" stroke-width="0.12" stroke-linecap="round" stroke-linejoin="round" stroke-miterlimit="10" d="
		M258.679,32.097v14.94 M258.782,32.097v14.94 M258.883,32.097v14.94 M258.983,32.097v14.94"/>
	<path d="M277.624,32.138c-0.341,0-0.682,0.064-1.022,0.191c-0.532,0.192-0.873,0.363-1.086,0.534
		c-0.767,0.554-1.171,1.175-1.214,1.879c0,0.557,0.171,0.983,0.49,1.262c0.318,0.299,0.745,0.449,1.234,0.47
		c0.425,0,0.83-0.064,1.214-0.171c0.384-0.108,0.724-0.299,1.064-0.557c0.787-0.556,1.192-1.218,1.212-1.944
		c0-0.535-0.148-0.94-0.468-1.197c-0.362-0.321-0.809-0.469-1.341-0.469C277.665,32.138,277.643,32.138,277.624,32.138
		L277.624,32.138z"/>
	
		<path fill="none" stroke="#000000" stroke-width="0.12" stroke-linecap="round" stroke-linejoin="round" stroke-miterlimit="10" d="
		M274.22,34.232V49.17 M274.323,34.232V49.17 M274.425,34.232V49.17 M274.527,34.232V49.17 M289.764,33.214c0,0,0,0,0-0.102
		c0-2.235-2.337-4.063-5.182-4.063c-2.844,0-5.079,1.829-5.079,4.063c0,0.102,0,0.102,0,0.102 M289.764,33.214c0,0,0,0,0-0.102
		c0-2.337-2.337-4.165-5.182-4.165c-2.844,0-5.079,1.828-5.079,4.165c0,0.102,0,0.102,0,0.102 M289.764,33.214c0,0,0,0,0-0.102
		c0-2.337-2.337-4.267-5.182-4.267c-2.844,0-5.079,1.93-5.079,4.267c0,0.102,0,0.102,0,0.102 M289.764,33.214c0,0,0,0,0-0.102
		c0-2.438-2.337-4.368-5.182-4.368c-2.844,0-5.079,1.93-5.079,4.368c0,0.102,0,0.102,0,0.102 M289.764,33.214c0,0,0,0,0-0.102
		c0-2.54-2.337-4.47-5.182-4.47c-2.844,0-5.079,1.93-5.079,4.47c0,0.102,0,0.102,0,0.102 M289.764,33.214c0,0,0,0,0-0.102
		c0-2.54-2.337-4.571-5.182-4.571c-2.844,0-5.079,2.031-5.079,4.571c0,0.102,0,0.102,0,0.102 M289.764,33.214c0,0,0,0,0-0.102
		c0-2.642-2.337-4.673-5.182-4.673c-2.844,0-5.079,2.032-5.079,4.673c0,0.102,0,0.102,0,0.102 M289.764,33.214c0,0,0,0,0-0.102
		c0-2.642-2.337-4.774-5.182-4.774c-2.844,0-5.079,2.133-5.079,4.774c0,0.102,0,0.102,0,0.102 M289.662,34.232v17.071
		 M289.764,34.232v17.071 M289.865,34.232v17.071 M289.968,34.232v17.071 M301.445,34.232v17.071 M301.548,34.232v17.071
		 M301.648,34.232v17.071 M301.751,34.232v17.071 M289.865,49.17h11.783 M289.865,49.271h11.783 M289.865,49.373h11.783
		 M289.865,49.474h11.783 M289.865,49.576h11.783 M289.865,49.678h11.783 M289.865,49.78h11.783 M289.865,49.881h11.783
		 M289.865,49.982h11.783 M289.865,50.084h11.783 M289.865,50.185h11.783 M289.865,50.287h11.783 M289.865,50.389h11.783
		 M289.865,50.491h11.783 M289.865,50.592h11.783 M289.865,50.693h11.783 M289.865,50.795h11.783 M289.865,50.896h11.783
		 M289.865,50.998h11.783 M289.865,51.1h11.783 M289.865,51.202h11.783"/>
	<path d="M293.165,32.138c-0.341,0-0.681,0.064-1.021,0.191c-0.532,0.192-0.873,0.363-1.086,0.534
		c-0.766,0.554-1.171,1.175-1.214,1.879c0,0.557,0.17,0.983,0.491,1.262c0.318,0.299,0.744,0.449,1.233,0.47
		c0.426,0,0.83-0.064,1.213-0.171c0.384-0.108,0.725-0.299,1.065-0.557c0.787-0.556,1.191-1.218,1.213-1.944
		c0-0.535-0.148-0.94-0.468-1.197c-0.362-0.321-0.81-0.469-1.343-0.469C293.208,32.138,293.186,32.138,293.165,32.138
		L293.165,32.138z M304.96,32.138c-0.341,0-0.681,0.064-1.021,0.191c-0.532,0.192-0.873,0.363-1.085,0.534
		c-0.767,0.554-1.172,1.175-1.213,1.879c0,0.557,0.17,0.983,0.489,1.262c0.318,0.299,0.744,0.449,1.234,0.47
		c0.426,0,0.83-0.064,1.212-0.171c0.384-0.108,0.725-0.299,1.065-0.557c0.788-0.556,1.191-1.218,1.213-1.944
		c0-0.535-0.148-0.94-0.468-1.197c-0.362-0.321-0.809-0.469-1.341-0.469C305.003,32.138,304.981,32.138,304.96,32.138L304.96,32.138
		z"/>
	
		<path fill="none" stroke="#000000" stroke-width="0.12" stroke-linecap="round" stroke-linejoin="round" stroke-miterlimit="10" d="
		M317.699,36.368v-17.07 M317.8,36.368v-17.07 M317.902,36.368v-17.07 M318.003,36.368v-17.07 M332.326,38.504V21.329
		 M332.428,38.504V21.329 M332.529,38.504V21.329 M332.631,38.504V21.329 M317.902,21.431l14.627,2.032 M317.902,21.329
		l14.627,2.031 M317.902,21.228l14.627,2.032 M317.902,21.126l14.627,2.031 M317.902,21.024l14.627,2.032 M317.902,20.923
		l14.627,2.031 M317.902,20.821l14.627,2.032 M317.902,20.72l14.627,2.031 M317.902,20.618l14.627,2.032 M317.902,20.517
		l14.627,2.032 M317.902,20.415l14.627,2.031 M317.902,20.313l14.627,2.032 M317.902,20.211l14.627,2.031 M317.902,20.11
		l14.627,2.032 M317.902,20.009l14.627,2.031 M317.902,19.907l14.627,2.032 M317.902,19.806l14.627,2.032 M317.902,19.703
		l14.627,2.032 M317.902,19.603l14.627,2.032 M317.902,19.5l14.627,2.031 M317.902,19.399l14.627,2.032"/>
	<path d="M316.122,34.275c-0.341,0-0.682,0.063-1.022,0.191c-0.532,0.192-0.872,0.363-1.084,0.534
		c-0.768,0.556-1.171,1.175-1.214,1.88c0,0.557,0.171,0.983,0.489,1.261c0.319,0.299,0.746,0.448,1.235,0.47
		c0.425,0,0.83-0.064,1.214-0.171c0.382-0.106,0.723-0.299,1.062-0.555c0.789-0.556,1.192-1.218,1.214-1.944
		c0-0.534-0.148-0.941-0.468-1.198c-0.362-0.321-0.809-0.469-1.341-0.469C316.165,34.275,316.143,34.275,316.122,34.275
		L316.122,34.275z"/>
	<path d="M330.751,36.411c-0.341,0-0.682,0.064-1.022,0.192c-0.532,0.192-0.873,0.364-1.086,0.535
		c-0.766,0.554-1.171,1.173-1.214,1.877c0,0.555,0.171,0.981,0.49,1.259c0.318,0.3,0.745,0.448,1.234,0.47
		c0.427,0,0.83-0.064,1.214-0.17c0.384-0.107,0.724-0.3,1.064-0.556c0.787-0.555,1.192-1.216,1.214-1.941
		c0-0.533-0.15-0.939-0.47-1.196c-0.362-0.321-0.809-0.47-1.341-0.47C330.792,36.411,330.772,36.411,330.751,36.411L330.751,36.411z
		"/>
	
		<path fill="none" stroke="#000000" stroke-width="0.12" stroke-linecap="round" stroke-linejoin="round" stroke-miterlimit="10" d="
		M340.962,25.697V42.77 M341.062,25.697V42.77 M341.163,25.697V42.77 M341.265,25.697V42.77"/>
	<g>
		<path d="M349.152,19.002l0.4-2.481l0.317,0.022c0.021,0.353,0.053,0.611,0.093,0.773c0.067,0.27,0.191,0.51,0.372,0.719
			c0.165,0.191,0.354,0.336,0.563,0.435s0.439,0.148,0.688,0.148c0.443,0,0.785-0.142,1.028-0.424s0.364-0.612,0.364-0.987
			c0-0.465-0.452-1.052-1.354-1.763c-0.902-0.742-1.354-1.429-1.354-2.06c0-0.595,0.198-1.101,0.595-1.52
			c0.398-0.417,0.952-0.627,1.665-0.627c0.198,0,0.401,0.02,0.61,0.06c0.137,0.025,0.258,0.056,0.361,0.092l0.28,0.092
			c0.061,0.018,0.125,0.033,0.189,0.046s0.123,0.019,0.172,0.019c0.129,0,0.229-0.027,0.298-0.081
			c0.067-0.054,0.127-0.121,0.177-0.2h0.329l-0.446,2.216l-0.286-0.038l-0.038-0.362c-0.048-0.342-0.153-0.636-0.319-0.881
			c-0.258-0.386-0.636-0.578-1.132-0.578c-0.425,0-0.734,0.155-0.93,0.465c-0.129,0.206-0.193,0.427-0.193,0.665
			c0,0.252,0.066,0.476,0.198,0.67c0.076,0.108,0.188,0.226,0.341,0.352l0.952,0.784c0.338,0.277,0.625,0.594,0.861,0.949
			c0.238,0.355,0.355,0.76,0.355,1.214c0,0.584-0.228,1.111-0.688,1.581c-0.458,0.471-1.09,0.706-1.892,0.706
			c-0.201,0-0.403-0.019-0.606-0.056c-0.203-0.038-0.403-0.092-0.602-0.163l-0.281-0.102c-0.093-0.036-0.157-0.058-0.193-0.067
			c-0.037-0.009-0.078-0.013-0.124-0.013c-0.123,0-0.21,0.029-0.262,0.088c-0.053,0.059-0.11,0.161-0.175,0.307H349.152z"/>
		<path d="M355.038,18.511c0.263-0.032,0.456-0.097,0.584-0.193c0.125-0.097,0.229-0.295,0.312-0.596l1.357-4.968
			c0.039-0.141,0.069-0.259,0.089-0.354c0.021-0.096,0.03-0.18,0.03-0.251c0-0.188-0.053-0.306-0.157-0.354
			c-0.104-0.048-0.322-0.087-0.653-0.116V11.39h3.292v0.287c-0.27,0.036-0.465,0.101-0.585,0.194
			c-0.121,0.094-0.224,0.293-0.307,0.6l-1.362,4.968l-0.086,0.382c-0.008,0.036-0.013,0.073-0.02,0.11
			c-0.005,0.038-0.008,0.072-0.008,0.104c0,0.187,0.051,0.305,0.151,0.355c0.102,0.05,0.317,0.089,0.653,0.118v0.287h-3.292V18.511z
			"/>
	</g>
	<path d="M349.088,41.276c0,0.298,0.043,0.576,0.105,0.811c0.064,0.256,0.214,0.491,0.468,0.683
		c0.257,0.171,0.662,0.257,1.192,0.278c0.235,0,0.491-0.021,0.746-0.064c0.256-0.064,0.511-0.171,0.787-0.277
		c0.511-0.234,0.959-0.576,1.342-1.024c0.36-0.427,0.553-0.874,0.574-1.344c0-0.769-0.192-1.323-0.596-1.622
		c-0.256-0.191-0.64-0.3-1.15-0.3c-0.062,0-0.105,0-0.17,0c-0.19,0-0.403,0.021-0.596,0.065c-0.276,0.064-0.532,0.17-0.787,0.277
		c-0.532,0.256-0.98,0.575-1.343,0.981c-0.36,0.427-0.552,0.874-0.573,1.365C349.088,41.169,349.088,41.212,349.088,41.276
		L349.088,41.276z M352.005,39.634c0.361-0.129,0.702-0.192,1.021-0.192c0.021,0,0.062,0,0.084,0c0.086,0,0.171,0.042,0.278,0.149
		c0.062,0.064,0.127,0.149,0.148,0.234c0,0.234-0.129,0.491-0.362,0.769c-0.191,0.214-0.319,0.362-0.384,0.448
		c-0.064,0.042-0.213,0.17-0.468,0.362c-0.191,0.128-0.34,0.234-0.489,0.299c-0.256,0.149-0.427,0.235-0.489,0.257
		c-0.17,0.063-0.362,0.105-0.554,0.127c-0.192,0.021-0.362,0.043-0.489,0.043c-0.129-0.021-0.235-0.086-0.341-0.17
		c-0.086-0.064-0.129-0.172-0.129-0.257c0-0.021,0-0.043,0-0.064c0-0.191,0.064-0.384,0.17-0.575
		c0.15-0.256,0.384-0.491,0.682-0.704C351.194,40.017,351.621,39.761,352.005,39.634L352.005,39.634z"/>
	
		<path fill="none" stroke="#000000" stroke-width="0.12" stroke-linecap="round" stroke-linejoin="round" stroke-miterlimit="10" d="
		M353.861,40.637v-14.94 M353.964,40.637v-14.94 M354.064,40.637v-14.94 M354.167,40.637v-14.94"/>
	<g>
		<path d="M379.842,18.511c0.284-0.036,0.489-0.143,0.615-0.322c0.125-0.178,0.296-0.634,0.508-1.369l1.126-4.122
			c0.041-0.14,0.074-0.264,0.099-0.37c0.024-0.107,0.036-0.199,0.036-0.279c0-0.154-0.055-0.253-0.163-0.294
			c-0.111-0.042-0.322-0.067-0.635-0.078V11.39h2.526l0.633,5.22l3.374-5.22h2.35v0.287c-0.251,0.032-0.428,0.083-0.529,0.151
			c-0.158,0.108-0.28,0.317-0.366,0.627l-1.361,4.98c-0.031,0.108-0.06,0.218-0.082,0.33c-0.025,0.111-0.037,0.206-0.037,0.281
			c0,0.183,0.053,0.299,0.161,0.348c0.105,0.048,0.322,0.087,0.649,0.116v0.287h-3.454v-0.287c0.37-0.036,0.625-0.096,0.764-0.181
			c0.14-0.084,0.252-0.289,0.338-0.613l1.392-5.094l-4.149,6.32h-0.308l-0.744-6.143l-1.114,4.02
			c-0.058,0.206-0.101,0.376-0.131,0.513c-0.05,0.223-0.076,0.401-0.076,0.535c0,0.259,0.103,0.438,0.31,0.535
			c0.114,0.058,0.308,0.094,0.577,0.108v0.287h-2.307V18.511z"/>
		<path d="M389.78,18.511c0.261-0.032,0.456-0.097,0.582-0.193c0.125-0.097,0.229-0.295,0.312-0.596l1.357-4.968
			c0.039-0.141,0.069-0.259,0.089-0.354c0.02-0.096,0.03-0.18,0.03-0.251c0-0.188-0.052-0.306-0.156-0.354
			c-0.105-0.048-0.322-0.087-0.652-0.116V11.39h3.29v0.287c-0.27,0.036-0.465,0.101-0.586,0.194c-0.12,0.094-0.221,0.293-0.304,0.6
			l-1.364,4.968l-0.086,0.382c-0.007,0.036-0.013,0.073-0.018,0.11c-0.006,0.038-0.009,0.072-0.009,0.104
			c0,0.187,0.05,0.305,0.15,0.355c0.101,0.05,0.319,0.089,0.653,0.118v0.287h-3.29V18.511z"/>
	</g>
	<g>
		<path d="M394.473,18.797l0.966-3.543c0.058-0.208,0.096-0.354,0.114-0.438c0.018-0.084,0.028-0.166,0.028-0.244
			c0-0.118-0.037-0.191-0.111-0.22c-0.074-0.028-0.238-0.05-0.489-0.064v-0.292c0.465-0.029,0.861-0.066,1.188-0.113
			c0.21-0.029,0.558-0.09,1.042-0.184l-0.666,2.049l0.036,0.027c0.482-0.731,0.847-1.222,1.091-1.47
			c0.398-0.404,0.82-0.605,1.262-0.605c0.205,0,0.377,0.064,0.513,0.192c0.137,0.128,0.205,0.304,0.205,0.528
			c0,0.169-0.031,0.37-0.096,0.602c-0.037,0.128-0.085,0.289-0.146,0.482c0.461-0.58,0.833-0.987,1.119-1.221
			c0.473-0.389,0.964-0.583,1.473-0.583c0.341,0,0.594,0.081,0.759,0.244c0.164,0.163,0.245,0.394,0.245,0.691
			c0,0.169-0.033,0.394-0.103,0.677c-0.007,0.039-0.045,0.18-0.112,0.423l-0.587,1.757c-0.043,0.098-0.083,0.199-0.121,0.305
			s-0.056,0.18-0.056,0.223c0,0.041,0.02,0.072,0.061,0.095c0.042,0.023,0.08,0.035,0.116,0.035c0.104,0,0.251-0.121,0.438-0.362
			c0.101-0.13,0.211-0.292,0.328-0.486l0.243,0.157c-0.272,0.443-0.506,0.762-0.696,0.957c-0.33,0.335-0.679,0.503-1.048,0.503
			c-0.187,0-0.36-0.05-0.522-0.151s-0.243-0.267-0.243-0.498c0-0.191,0.048-0.46,0.146-0.806c0.062-0.211,0.143-0.454,0.243-0.729
			l0.455-1.691c0.006-0.034,0.013-0.069,0.02-0.105c0.005-0.036,0.007-0.071,0.007-0.105c0-0.092-0.021-0.169-0.066-0.232
			c-0.055-0.062-0.134-0.094-0.236-0.094c-0.288,0-0.613,0.193-0.974,0.579c-0.362,0.386-0.665,0.784-0.908,1.195
			c-0.089,0.147-0.179,0.328-0.266,0.541c-0.088,0.212-0.31,0.872-0.663,1.979h-1.328l0.979-3.628
			c0.029-0.085,0.053-0.162,0.07-0.231c0.019-0.07,0.026-0.136,0.026-0.201c0-0.101-0.021-0.166-0.062-0.192
			c-0.043-0.027-0.089-0.041-0.139-0.041c-0.162,0-0.374,0.165-0.639,0.495c-0.264,0.33-0.516,0.758-0.754,1.285
			c-0.127,0.281-0.266,0.675-0.416,1.18c-0.102,0.306-0.233,0.75-0.398,1.333H394.473z"/>
	</g>
	<path d="M380.171,43.41c0,0.299,0.043,0.576,0.107,0.812c0.062,0.256,0.213,0.49,0.468,0.683c0.256,0.17,0.66,0.256,1.192,0.277
		c0.234,0,0.489-0.021,0.745-0.064c0.255-0.064,0.511-0.17,0.787-0.277c0.511-0.235,0.957-0.575,1.341-1.023
		c0.362-0.428,0.554-0.876,0.575-1.345c0-0.769-0.191-1.324-0.597-1.621c-0.255-0.193-0.638-0.3-1.148-0.3c-0.064,0-0.106,0-0.171,0
		c-0.191,0-0.405,0.021-0.595,0.064c-0.278,0.063-0.532,0.171-0.789,0.277c-0.532,0.255-0.979,0.576-1.341,0.981
		c-0.362,0.426-0.554,0.874-0.575,1.365C380.171,43.304,380.171,43.347,380.171,43.41L380.171,43.41z M383.087,41.768
		c0.362-0.129,0.703-0.192,1.022-0.192c0.021,0,0.064,0,0.086,0c0.084,0,0.17,0.042,0.275,0.149
		c0.064,0.063,0.128,0.149,0.149,0.235c0,0.234-0.128,0.49-0.362,0.768c-0.19,0.213-0.319,0.363-0.382,0.448
		c-0.064,0.042-0.213,0.171-0.47,0.362c-0.19,0.128-0.341,0.235-0.489,0.299c-0.255,0.149-0.425,0.234-0.489,0.256
		c-0.171,0.064-0.362,0.107-0.554,0.129c-0.19,0.021-0.36,0.043-0.489,0.043c-0.128-0.021-0.233-0.086-0.341-0.172
		c-0.085-0.063-0.128-0.171-0.128-0.256c0-0.021,0-0.042,0-0.063c0-0.192,0.064-0.385,0.171-0.577
		c0.148-0.256,0.384-0.49,0.681-0.703C382.278,42.151,382.705,41.896,383.087,41.768L383.087,41.768z"/>
	
		<path fill="none" stroke="#000000" stroke-width="0.12" stroke-linecap="round" stroke-linejoin="round" stroke-miterlimit="10" d="
		M384.945,42.77V27.83 M385.048,42.77V27.83 M385.149,42.77V27.83 M385.25,42.77V27.83 M411.255,25.697V42.77 M411.357,25.697V42.77
		 M411.459,25.697V42.77 M411.559,25.697V42.77 M412.473,25.697V42.77 M412.576,25.697V42.77 M412.677,25.697V42.77 M412.779,25.697
		V42.77 M412.881,25.697V42.77 M412.983,25.697V42.77 M413.084,25.697V42.77 M413.184,25.697V42.77 M413.287,25.697V42.77
		 M413.387,25.697V42.77 M413.49,25.697V42.77 M413.592,25.697V42.77 M413.694,25.697V42.77 M413.795,25.697V42.77 M413.897,25.697
		V42.77 M413.998,25.697V42.77 M414.098,25.697V42.77 M414.201,25.697V42.77 M414.302,25.697V42.77 M414.405,25.697V42.77
		 M414.506,25.697V42.77 M414.608,25.697V42.77 M414.709,25.697V42.77 M414.809,25.697V42.77 M414.912,25.697V42.77 M415.013,25.697
		V42.77 M415.116,25.697V42.77 M415.217,25.697V42.77"/>
</g>
</svg>
