<?xml version="1.0" encoding="utf-8"?>
<!-- Generator: Adobe Illustrator 16.0.0, SVG Export Plug-In . SVG Version: 6.00 Build 0)  -->
<!DOCTYPE svg PUBLIC "-//W3C//DTD SVG 1.1//EN" "http://www.w3.org/Graphics/SVG/1.1/DTD/svg11.dtd">
<svg version="1.1" id="Layer_1" xmlns="http://www.w3.org/2000/svg" xmlns:xlink="http://www.w3.org/1999/xlink" x="0px" y="0px"
	 width="411.023px" height="73.701px" viewBox="2.835 0 411.023 73.701" enable-background="new 2.835 0 411.023 73.701"
	 xml:space="preserve">
<g>
	
		<path fill="none" stroke="#000000" stroke-width="0.12" stroke-linecap="round" stroke-linejoin="round" stroke-miterlimit="10" d="
		M8.858,16.781h399.391 M8.858,16.88h399.391 M8.858,16.981h399.391 M8.858,17.081h399.391 M8.858,21.399h399.391 M8.858,21.499
		h399.391 M8.858,21.6h399.391 M8.858,21.699h399.391 M8.858,26.017h399.391 M8.858,26.118h399.391 M8.858,26.217h399.391
		 M8.858,26.318h399.391 M8.858,30.636h399.391 M8.858,30.736h399.391 M8.858,30.836h399.391 M8.858,30.937h399.391 M8.858,35.254
		h399.391 M8.858,35.354h399.391 M8.858,35.455h399.391 M8.858,35.555h399.391"/>
	<g>
		<path d="M35.218,61.568c0.439,0.126,0.691,0.188,0.756,0.188c0.168,0,0.288-0.03,0.358-0.096s0.131-0.159,0.181-0.282h0.258
			l0.091,2.473h-0.269c-0.241-0.571-0.489-0.995-0.744-1.274c-0.462-0.489-1.063-0.734-1.804-0.734
			c-0.751,0-1.413,0.285-1.983,0.857c-0.571,0.572-0.855,1.515-0.855,2.827c0,1.081,0.284,1.926,0.853,2.533
			c0.569,0.608,1.271,0.913,2.107,0.913c0.141,0,0.308-0.014,0.498-0.04c0.191-0.027,0.372-0.068,0.544-0.126
			c0.278-0.091,0.453-0.171,0.521-0.239c0.068-0.067,0.103-0.165,0.103-0.293v-1.871c0-0.454-0.064-0.737-0.192-0.849
			c-0.127-0.111-0.407-0.182-0.838-0.208v-0.218h2.988v0.218c-0.29,0.019-0.483,0.067-0.578,0.146c-0.16,0.12-0.24,0.374-0.24,0.756
			v2.31c0,0.139-0.336,0.323-1.011,0.552c-0.674,0.23-1.322,0.345-1.943,0.345c-1.145,0-2.111-0.334-2.896-1.003
			c-0.867-0.739-1.3-1.729-1.3-2.974c0-1.093,0.345-2.028,1.036-2.809c0.759-0.86,1.767-1.291,3.022-1.291
			C34.333,61.378,34.779,61.44,35.218,61.568z"/>
		<path d="M38.046,69.098c0.352-0.029,0.584-0.092,0.698-0.187c0.115-0.093,0.172-0.292,0.172-0.599v-2.587
			c0-0.379-0.036-0.649-0.106-0.812c-0.071-0.163-0.2-0.243-0.386-0.243c-0.039,0-0.089,0.006-0.152,0.014
			c-0.063,0.009-0.129,0.023-0.198,0.037v-0.19c0.217-0.075,0.439-0.152,0.667-0.234c0.229-0.079,0.387-0.137,0.474-0.172
			c0.19-0.071,0.386-0.154,0.588-0.247c0.026,0,0.042,0.011,0.049,0.03c0.005,0.017,0.008,0.059,0.008,0.119v0.941
			c0.245-0.341,0.481-0.606,0.709-0.798c0.228-0.19,0.463-0.287,0.708-0.287c0.195,0,0.354,0.058,0.477,0.176
			c0.123,0.117,0.184,0.264,0.184,0.438c0,0.157-0.047,0.29-0.14,0.396c-0.093,0.108-0.211,0.161-0.352,0.161
			c-0.146,0-0.291-0.067-0.438-0.2c-0.147-0.135-0.263-0.202-0.347-0.202c-0.133,0-0.298,0.108-0.493,0.324
			c-0.194,0.218-0.292,0.439-0.292,0.669v2.585c0,0.331,0.077,0.559,0.229,0.688c0.152,0.128,0.407,0.188,0.762,0.18v0.19h-2.823
			V69.098z"/>
		<path d="M43.146,66.759c0.351-0.229,1.051-0.542,2.101-0.937v-0.485c0-0.391-0.039-0.661-0.115-0.816
			c-0.13-0.255-0.398-0.384-0.807-0.384c-0.195,0-0.38,0.05-0.556,0.148c-0.176,0.104-0.264,0.244-0.264,0.425
			c0,0.047,0.01,0.124,0.029,0.232c0.019,0.109,0.029,0.18,0.029,0.209c0,0.214-0.07,0.365-0.212,0.448
			c-0.08,0.05-0.175,0.074-0.286,0.074c-0.172,0-0.303-0.058-0.395-0.17c-0.091-0.111-0.138-0.236-0.138-0.375
			c0-0.266,0.165-0.548,0.495-0.84c0.331-0.292,0.814-0.438,1.452-0.438c0.74,0,1.242,0.24,1.505,0.723
			c0.142,0.263,0.212,0.649,0.212,1.152v2.3c0,0.223,0.015,0.375,0.046,0.459c0.05,0.149,0.153,0.225,0.309,0.225
			c0.087,0,0.16-0.015,0.217-0.041c0.057-0.025,0.156-0.091,0.298-0.193v0.296c-0.122,0.149-0.254,0.271-0.395,0.367
			c-0.214,0.146-0.431,0.22-0.653,0.22c-0.26,0-0.447-0.085-0.564-0.253c-0.117-0.169-0.18-0.369-0.191-0.604
			c-0.29,0.254-0.538,0.44-0.745,0.563c-0.347,0.207-0.677,0.311-0.99,0.311c-0.329,0-0.613-0.115-0.854-0.348
			c-0.24-0.231-0.361-0.526-0.361-0.879C42.316,67.593,42.593,67.128,43.146,66.759z M45.247,66.111
			c-0.439,0.145-0.801,0.305-1.088,0.479c-0.55,0.341-0.824,0.727-0.824,1.158c0,0.349,0.114,0.604,0.343,0.771
			c0.149,0.105,0.315,0.16,0.499,0.16c0.251,0,0.493-0.07,0.724-0.213c0.231-0.14,0.347-0.319,0.347-0.539V66.111z"/>
		<path d="M47.29,69.128c0.271-0.034,0.462-0.104,0.57-0.204c0.108-0.103,0.163-0.327,0.163-0.68V65.33
			c0-0.242-0.023-0.414-0.068-0.512c-0.073-0.143-0.222-0.218-0.447-0.218c-0.035,0-0.07,0.003-0.106,0.008
			c-0.036,0.003-0.082,0.01-0.135,0.016v-0.2c0.156-0.045,0.527-0.165,1.111-0.355l0.537-0.178c0.027,0,0.043,0.01,0.049,0.028
			c0.006,0.021,0.009,0.047,0.009,0.08v0.843c0.351-0.328,0.625-0.553,0.823-0.675c0.297-0.188,0.605-0.283,0.926-0.283
			c0.259,0,0.495,0.074,0.708,0.226c0.411,0.288,0.617,0.809,0.617,1.555v2.678c0,0.273,0.055,0.474,0.165,0.596
			c0.109,0.123,0.293,0.187,0.551,0.19v0.16h-2.444v-0.16c0.278-0.039,0.473-0.117,0.584-0.232c0.11-0.118,0.166-0.371,0.166-0.76
			v-2.45c0-0.328-0.06-0.601-0.182-0.816c-0.122-0.218-0.345-0.324-0.672-0.324c-0.224,0-0.451,0.075-0.683,0.229
			c-0.129,0.09-0.296,0.234-0.501,0.437v3.211c0,0.275,0.061,0.462,0.183,0.554c0.122,0.094,0.314,0.146,0.578,0.153v0.16H47.29
			V69.128z"/>
	</g>
	<g>
		<path d="M89.106,64.05c0.153,0.081,0.299,0.193,0.44,0.333V62.56c0-0.234-0.025-0.393-0.077-0.481
			c-0.051-0.09-0.175-0.132-0.37-0.132c-0.046,0-0.086,0.002-0.12,0.006c-0.034,0.003-0.111,0.012-0.229,0.022v-0.19l0.47-0.12
			c0.172-0.045,0.343-0.093,0.515-0.142c0.172-0.051,0.322-0.098,0.453-0.145c0.061-0.019,0.162-0.055,0.303-0.109l0.035,0.011
			l-0.012,0.604c-0.003,0.219-0.007,0.442-0.011,0.674c-0.004,0.232-0.006,0.461-0.006,0.687l-0.012,4.685
			c0,0.249,0.03,0.424,0.092,0.523c0.061,0.099,0.223,0.147,0.487,0.147c0.042,0,0.084-0.001,0.125-0.002
			c0.042-0.002,0.084-0.007,0.126-0.015v0.188c-0.023,0.009-0.3,0.104-0.831,0.288l-0.898,0.339l-0.041-0.054v-0.705
			c-0.213,0.233-0.398,0.4-0.555,0.499c-0.279,0.172-0.601,0.26-0.968,0.26c-0.649,0-1.174-0.253-1.578-0.755
			c-0.402-0.502-0.603-1.085-0.603-1.747c0-0.829,0.241-1.541,0.724-2.137c0.482-0.595,1.073-0.892,1.771-0.892
			C88.617,63.867,88.874,63.93,89.106,64.05z M89.272,68.514c0.184-0.176,0.274-0.342,0.274-0.499v-2.462
			c0-0.495-0.133-0.848-0.397-1.052c-0.266-0.204-0.524-0.308-0.776-0.308c-0.48,0-0.854,0.214-1.121,0.641
			c-0.268,0.428-0.401,0.952-0.401,1.574c0,0.616,0.142,1.165,0.426,1.646c0.284,0.481,0.709,0.724,1.274,0.724
			C88.849,68.777,89.089,68.688,89.272,68.514z"/>
		<path d="M91.713,69.128c0.408-0.039,0.666-0.108,0.772-0.21c0.107-0.101,0.161-0.376,0.161-0.824v-2.734
			c0-0.25-0.018-0.422-0.052-0.518c-0.057-0.156-0.178-0.233-0.36-0.233c-0.042,0-0.083,0.003-0.124,0.011
			c-0.04,0.008-0.155,0.037-0.346,0.091v-0.179l0.246-0.079c0.668-0.217,1.133-0.382,1.396-0.494
			c0.107-0.045,0.176-0.067,0.207-0.067c0.008,0.026,0.012,0.055,0.012,0.086v4.117c0,0.438,0.052,0.709,0.157,0.822
			c0.104,0.11,0.342,0.181,0.713,0.212v0.16h-2.782V69.128z M92.623,61.457c0.114-0.118,0.255-0.178,0.424-0.178
			c0.163,0,0.304,0.06,0.42,0.177c0.116,0.115,0.174,0.257,0.174,0.425c0,0.163-0.058,0.303-0.174,0.418
			c-0.116,0.117-0.257,0.175-0.42,0.175c-0.168,0-0.31-0.058-0.424-0.175c-0.115-0.115-0.172-0.255-0.172-0.418
			C92.451,61.717,92.508,61.576,92.623,61.457z"/>
	</g>
	<g>
		<path d="M67.751,66.271h2.897v0.733h-2.897V66.271z"/>
		<path d="M102.968,64.248c0.345,0.245,0.518,0.515,0.518,0.81c0,0.124-0.044,0.24-0.132,0.351
			c-0.087,0.108-0.223,0.163-0.405,0.163c-0.134,0-0.251-0.045-0.352-0.139c-0.102-0.092-0.175-0.226-0.221-0.4l-0.069-0.275
			c-0.049-0.203-0.135-0.347-0.258-0.432c-0.125-0.079-0.292-0.12-0.498-0.12c-0.436,0-0.802,0.191-1.102,0.572
			c-0.3,0.381-0.449,0.888-0.449,1.52c0,0.576,0.165,1.097,0.495,1.557c0.331,0.459,0.776,0.688,1.337,0.688
			c0.396,0,0.75-0.131,1.058-0.391c0.175-0.149,0.375-0.387,0.596-0.713l0.16,0.098c-0.217,0.458-0.446,0.823-0.687,1.091
			c-0.462,0.513-0.997,0.771-1.603,0.771c-0.595,0-1.123-0.235-1.581-0.707c-0.458-0.47-0.687-1.107-0.687-1.915
			c0-0.792,0.25-1.472,0.75-2.042c0.5-0.569,1.132-0.855,1.896-0.855C102.211,63.878,102.622,64.001,102.968,64.248z"/>
	</g>
	<g>
		<path d="M105.056,64.695c0.483-0.524,1.104-0.787,1.864-0.787c0.755,0,1.38,0.248,1.877,0.744
			c0.497,0.498,0.745,1.159,0.745,1.985c0,0.76-0.241,1.422-0.722,1.984c-0.48,0.563-1.103,0.843-1.866,0.843
			c-0.732,0-1.354-0.27-1.861-0.809c-0.508-0.539-0.762-1.216-0.762-2.03C104.332,65.866,104.573,65.223,105.056,64.695z
			 M105.97,64.551c-0.382,0.347-0.574,0.947-0.574,1.8c0,0.682,0.154,1.316,0.461,1.904c0.308,0.589,0.736,0.883,1.283,0.883
			c0.428,0,0.757-0.197,0.989-0.59c0.231-0.395,0.347-0.911,0.347-1.549c0-0.661-0.147-1.285-0.441-1.87
			c-0.295-0.584-0.721-0.878-1.279-0.878C106.454,64.251,106.193,64.351,105.97,64.551z"/>
		<path d="M137.58,67.479h0.189c0.087,0.438,0.206,0.772,0.354,1.005c0.267,0.43,0.657,0.644,1.171,0.644
			c0.286,0,0.511-0.081,0.677-0.239c0.166-0.159,0.248-0.364,0.248-0.616c0-0.16-0.047-0.315-0.143-0.464
			c-0.095-0.149-0.263-0.297-0.503-0.437l-0.641-0.368c-0.47-0.251-0.815-0.506-1.037-0.762c-0.222-0.256-0.332-0.559-0.332-0.905
			c0-0.43,0.153-0.782,0.458-1.056c0.306-0.276,0.689-0.414,1.151-0.414c0.203,0,0.424,0.04,0.667,0.114
			c0.242,0.076,0.378,0.116,0.409,0.116c0.069,0,0.118-0.01,0.149-0.029c0.031-0.021,0.057-0.049,0.08-0.092h0.138l0.04,1.599
			h-0.178c-0.077-0.369-0.179-0.657-0.31-0.865c-0.236-0.383-0.578-0.573-1.024-0.573c-0.267,0-0.477,0.082-0.629,0.246
			c-0.153,0.166-0.229,0.359-0.229,0.58c0,0.351,0.264,0.666,0.791,0.94l0.756,0.407c0.812,0.444,1.218,0.961,1.218,1.549
			c0,0.452-0.168,0.82-0.505,1.107c-0.337,0.286-0.778,0.431-1.323,0.431c-0.229,0-0.488-0.039-0.777-0.115
			c-0.29-0.077-0.461-0.115-0.515-0.115c-0.045,0-0.086,0.016-0.12,0.048c-0.035,0.033-0.061,0.073-0.08,0.118h-0.149V67.479z"/>
	</g>
	<g>
		<path d="M145.685,64.466c0.404,0.373,0.606,0.903,0.606,1.586h-3.635c0.038,0.886,0.238,1.531,0.602,1.935
			c0.362,0.406,0.791,0.606,1.288,0.606c0.4,0,0.738-0.104,1.013-0.313c0.275-0.211,0.529-0.508,0.761-0.895l0.2,0.069
			c-0.156,0.487-0.449,0.938-0.878,1.351c-0.429,0.415-0.955,0.62-1.577,0.62c-0.718,0-1.272-0.271-1.663-0.813
			c-0.392-0.543-0.586-1.169-0.586-1.877c0-0.767,0.227-1.431,0.681-1.989c0.454-0.559,1.045-0.837,1.774-0.837
			C144.809,63.908,145.281,64.095,145.685,64.466z M142.943,64.904c-0.122,0.207-0.209,0.467-0.263,0.781h2.416
			c-0.042-0.382-0.115-0.666-0.217-0.854c-0.188-0.336-0.5-0.506-0.939-0.506C143.504,64.325,143.172,64.52,142.943,64.904z"/>
		<path d="M149.894,69.128c0.313-0.043,0.518-0.121,0.615-0.232c0.098-0.112,0.146-0.38,0.146-0.802v-5.507
			c0-0.214-0.028-0.37-0.083-0.472c-0.056-0.102-0.19-0.151-0.404-0.151c-0.042,0-0.083,0.003-0.123,0.008
			c-0.04,0.007-0.085,0.013-0.135,0.019v-0.206c0.168-0.049,0.375-0.107,0.622-0.181c0.246-0.07,0.417-0.122,0.512-0.151
			l0.549-0.173l0.012,0.042v3.521c0.24-0.275,0.454-0.478,0.642-0.606c0.335-0.23,0.698-0.345,1.087-0.345
			c0.619,0,1.04,0.26,1.265,0.78c0.123,0.275,0.184,0.635,0.184,1.083v2.34c0,0.405,0.046,0.671,0.141,0.791
			c0.093,0.122,0.285,0.204,0.575,0.243v0.16h-2.479v-0.16c0.333-0.048,0.545-0.125,0.642-0.236c0.095-0.11,0.144-0.376,0.144-0.798
			v-2.323c0-0.368-0.062-0.67-0.186-0.899c-0.125-0.229-0.358-0.344-0.702-0.344c-0.297,0-0.585,0.106-0.864,0.32
			c-0.278,0.214-0.417,0.354-0.417,0.42v2.826c0,0.43,0.049,0.697,0.148,0.804c0.099,0.107,0.312,0.183,0.636,0.23v0.16h-2.525
			V69.128z"/>
		<path d="M156.948,66.759c0.352-0.229,1.052-0.542,2.102-0.937v-0.485c0-0.391-0.038-0.661-0.115-0.816
			c-0.13-0.255-0.398-0.384-0.806-0.384c-0.195,0-0.38,0.05-0.556,0.148c-0.175,0.104-0.263,0.244-0.263,0.425
			c0,0.047,0.01,0.124,0.029,0.232c0.019,0.109,0.029,0.18,0.029,0.209c0,0.214-0.071,0.365-0.212,0.448
			c-0.081,0.05-0.176,0.074-0.286,0.074c-0.172,0-0.304-0.058-0.395-0.17c-0.091-0.111-0.138-0.236-0.138-0.375
			c0-0.266,0.166-0.548,0.496-0.84c0.33-0.292,0.813-0.438,1.451-0.438c0.74,0,1.242,0.24,1.505,0.723
			c0.142,0.263,0.212,0.649,0.212,1.152v2.3c0,0.223,0.015,0.375,0.046,0.459c0.049,0.149,0.152,0.225,0.309,0.225
			c0.088,0,0.16-0.015,0.217-0.041c0.057-0.025,0.157-0.091,0.298-0.193v0.296c-0.123,0.149-0.254,0.271-0.395,0.367
			c-0.214,0.146-0.432,0.22-0.653,0.22c-0.259,0-0.447-0.085-0.564-0.253c-0.116-0.169-0.18-0.369-0.192-0.604
			c-0.29,0.254-0.538,0.44-0.744,0.563c-0.347,0.207-0.678,0.311-0.99,0.311c-0.329,0-0.613-0.115-0.854-0.348
			c-0.241-0.231-0.36-0.526-0.36-0.879C156.118,67.593,156.394,67.128,156.948,66.759z M159.05,66.111
			c-0.439,0.145-0.802,0.305-1.088,0.479c-0.549,0.341-0.824,0.727-0.824,1.158c0,0.349,0.115,0.604,0.344,0.771
			c0.148,0.105,0.315,0.16,0.498,0.16c0.252,0,0.493-0.07,0.724-0.213c0.231-0.14,0.347-0.319,0.347-0.539V66.111z"/>
	</g>
	<g>
		<path d="M121.958,66.271h2.896v0.733h-2.896V66.271z"/>
		<path d="M165.003,69.128c0.405-0.021,0.671-0.096,0.798-0.228c0.128-0.132,0.192-0.41,0.192-0.835v-3.683h-0.979v-0.384h0.979
			c0-0.604,0.082-1.113,0.247-1.529c0.313-0.801,0.889-1.201,1.726-1.201c0.336,0,0.637,0.066,0.903,0.201
			c0.266,0.134,0.398,0.313,0.398,0.54c0,0.126-0.045,0.238-0.136,0.338c-0.091,0.099-0.201,0.147-0.33,0.147
			c-0.11,0-0.205-0.032-0.285-0.099c-0.08-0.066-0.174-0.185-0.285-0.353l-0.097-0.148c-0.054-0.08-0.116-0.149-0.188-0.204
			c-0.073-0.056-0.173-0.085-0.302-0.085c-0.289,0-0.485,0.145-0.587,0.431c-0.056,0.153-0.085,0.354-0.085,0.604v1.358h1.425v0.384
			h-1.425v3.683c0,0.433,0.058,0.709,0.174,0.83c0.117,0.119,0.421,0.198,0.913,0.232v0.16h-3.057V69.128z"/>
	</g>
	<g>
		<path d="M169.952,66.759c0.351-0.229,1.052-0.542,2.102-0.937v-0.485c0-0.391-0.039-0.661-0.115-0.816
			c-0.13-0.255-0.399-0.384-0.807-0.384c-0.195,0-0.38,0.05-0.555,0.148c-0.176,0.104-0.263,0.244-0.263,0.425
			c0,0.047,0.009,0.124,0.028,0.232c0.019,0.109,0.028,0.18,0.028,0.209c0,0.214-0.071,0.365-0.212,0.448
			c-0.08,0.05-0.175,0.074-0.286,0.074c-0.171,0-0.303-0.058-0.395-0.17c-0.092-0.111-0.138-0.236-0.138-0.375
			c0-0.266,0.165-0.548,0.496-0.84c0.33-0.292,0.813-0.438,1.45-0.438c0.741,0,1.243,0.24,1.506,0.723
			c0.142,0.263,0.212,0.649,0.212,1.152v2.3c0,0.223,0.016,0.375,0.046,0.459c0.049,0.149,0.152,0.225,0.31,0.225
			c0.088,0,0.16-0.015,0.217-0.041c0.057-0.025,0.157-0.091,0.297-0.193v0.296c-0.122,0.149-0.253,0.271-0.395,0.367
			c-0.214,0.146-0.432,0.22-0.653,0.22c-0.26,0-0.448-0.085-0.564-0.253c-0.116-0.169-0.18-0.369-0.191-0.604
			c-0.29,0.254-0.538,0.44-0.744,0.563c-0.348,0.207-0.678,0.311-0.991,0.311c-0.328,0-0.613-0.115-0.853-0.348
			c-0.241-0.231-0.36-0.526-0.36-0.879C169.122,67.593,169.398,67.128,169.952,66.759z M172.053,66.111
			c-0.439,0.145-0.802,0.305-1.088,0.479c-0.55,0.341-0.825,0.727-0.825,1.158c0,0.349,0.115,0.604,0.344,0.771
			c0.148,0.105,0.314,0.16,0.498,0.16c0.251,0,0.493-0.07,0.724-0.213c0.231-0.14,0.347-0.319,0.347-0.539V66.111z"/>
		<path d="M176.891,63.999v0.415h-1.168l-0.011,3.301c0,0.292,0.024,0.512,0.074,0.662c0.092,0.262,0.271,0.394,0.539,0.394
			c0.137,0,0.256-0.033,0.357-0.097c0.102-0.064,0.216-0.166,0.346-0.311l0.149,0.127l-0.126,0.173
			c-0.198,0.267-0.409,0.457-0.63,0.567s-0.435,0.167-0.641,0.167c-0.45,0-0.755-0.202-0.916-0.604
			c-0.088-0.217-0.131-0.52-0.131-0.906v-3.474h-0.625c-0.018-0.014-0.033-0.024-0.043-0.035c-0.009-0.013-0.015-0.028-0.015-0.048
			c0-0.038,0.009-0.067,0.026-0.088c0.017-0.021,0.072-0.07,0.164-0.146c0.263-0.22,0.453-0.395,0.569-0.531
			c0.116-0.136,0.39-0.495,0.822-1.075c0.05,0,0.079,0.003,0.088,0.011c0.009,0.009,0.014,0.037,0.014,0.085v1.412H176.891z"/>
	</g>
	<g>
		<path d="M184.12,63.999v0.415h-1.168l-0.011,3.301c0,0.292,0.025,0.512,0.074,0.662c0.092,0.262,0.271,0.394,0.539,0.394
			c0.137,0,0.257-0.033,0.357-0.097c0.102-0.064,0.216-0.166,0.346-0.311l0.149,0.127l-0.126,0.173
			c-0.198,0.267-0.408,0.457-0.629,0.567c-0.222,0.11-0.436,0.167-0.642,0.167c-0.451,0-0.756-0.202-0.916-0.604
			c-0.088-0.217-0.132-0.52-0.132-0.906v-3.474h-0.624c-0.019-0.014-0.033-0.024-0.043-0.035c-0.009-0.013-0.014-0.028-0.014-0.048
			c0-0.038,0.008-0.067,0.025-0.088c0.017-0.021,0.072-0.07,0.164-0.146c0.264-0.22,0.454-0.395,0.57-0.531
			c0.116-0.136,0.39-0.495,0.821-1.075c0.049,0,0.08,0.003,0.088,0.011c0.01,0.009,0.015,0.037,0.015,0.085v1.412H184.12z"/>
		<path d="M185.475,64.695c0.483-0.524,1.104-0.787,1.864-0.787c0.756,0,1.382,0.248,1.878,0.744
			c0.496,0.498,0.744,1.159,0.744,1.985c0,0.76-0.24,1.422-0.721,1.984c-0.481,0.563-1.103,0.843-1.867,0.843
			c-0.732,0-1.353-0.27-1.861-0.809c-0.507-0.539-0.76-1.216-0.76-2.03C184.752,65.866,184.993,65.223,185.475,64.695z
			 M186.39,64.551c-0.382,0.347-0.574,0.947-0.574,1.8c0,0.682,0.154,1.316,0.462,1.904c0.308,0.589,0.735,0.883,1.281,0.883
			c0.428,0,0.758-0.197,0.99-0.59c0.23-0.395,0.346-0.911,0.346-1.549c0-0.661-0.147-1.285-0.441-1.87
			c-0.294-0.584-0.721-0.878-1.28-0.878C186.874,64.251,186.612,64.351,186.39,64.551z"/>
	</g>
	<g>
		<path d="M177.681,66.271h2.896v0.733h-2.896V66.271z"/>
		<path d="M220.225,69.128c0.408-0.039,0.666-0.108,0.771-0.21c0.107-0.101,0.161-0.376,0.161-0.824v-2.734
			c0-0.25-0.017-0.422-0.051-0.518c-0.06-0.156-0.179-0.233-0.361-0.233c-0.043,0-0.084,0.003-0.123,0.011
			c-0.04,0.008-0.156,0.037-0.347,0.091v-0.179l0.245-0.079c0.669-0.217,1.135-0.382,1.397-0.494
			c0.107-0.045,0.175-0.067,0.206-0.067c0.008,0.026,0.012,0.055,0.012,0.086v4.117c0,0.438,0.052,0.709,0.157,0.822
			c0.105,0.11,0.343,0.181,0.713,0.212v0.16h-2.781V69.128z M221.135,61.457c0.113-0.118,0.255-0.178,0.424-0.178
			c0.164,0,0.305,0.06,0.422,0.177c0.115,0.115,0.174,0.257,0.174,0.425c0,0.163-0.059,0.303-0.174,0.418
			c-0.117,0.117-0.258,0.175-0.422,0.175c-0.169,0-0.311-0.058-0.424-0.175c-0.114-0.115-0.172-0.255-0.172-0.418
			C220.963,61.717,221.02,61.576,221.135,61.457z"/>
	</g>
	<g>
		<path d="M223.554,69.128c0.355-0.034,0.595-0.105,0.722-0.217c0.125-0.108,0.189-0.321,0.189-0.639v-5.604
			c0-0.253-0.023-0.427-0.064-0.522c-0.076-0.16-0.23-0.24-0.464-0.24c-0.052,0-0.111,0.005-0.175,0.016
			c-0.062,0.012-0.142,0.03-0.237,0.053v-0.19c0.516-0.137,1.137-0.32,1.861-0.549c0.026,0,0.044,0.01,0.049,0.033
			c0.005,0.024,0.009,0.073,0.009,0.148v6.878c0,0.332,0.058,0.548,0.172,0.646c0.113,0.098,0.351,0.161,0.708,0.188v0.16h-2.77
			V69.128z"/>
		<path d="M268.045,66.924c0.198,0.528,0.432,0.948,0.698,1.263c0.464,0.547,1.042,0.819,1.732,0.819
			c0.372,0,0.696-0.117,0.969-0.354c0.272-0.239,0.408-0.569,0.408-0.993c0-0.384-0.137-0.715-0.411-0.998
			c-0.179-0.18-0.557-0.449-1.131-0.809l-1.001-0.626c-0.3-0.191-0.542-0.385-0.721-0.578c-0.332-0.372-0.497-0.781-0.497-1.229
			c0-0.591,0.196-1.084,0.59-1.479c0.393-0.395,0.914-0.592,1.562-0.592c0.268,0,0.59,0.066,0.966,0.197
			c0.376,0.133,0.591,0.198,0.644,0.198c0.146,0,0.246-0.034,0.3-0.103c0.056-0.069,0.099-0.166,0.129-0.293h0.241l0.258,2.502
			h-0.28c-0.191-0.753-0.497-1.28-0.919-1.577c-0.423-0.299-0.839-0.447-1.25-0.447c-0.322,0-0.601,0.095-0.84,0.283
			c-0.238,0.188-0.357,0.451-0.357,0.788c0,0.303,0.091,0.562,0.273,0.774c0.183,0.219,0.467,0.445,0.852,0.685l1.03,0.635
			c0.645,0.399,1.099,0.763,1.363,1.097c0.261,0.336,0.391,0.734,0.391,1.193c0,0.613-0.23,1.129-0.696,1.542
			c-0.463,0.413-1.055,0.619-1.776,0.619c-0.362,0-0.741-0.068-1.136-0.206c-0.395-0.139-0.621-0.206-0.679-0.206
			c-0.137,0-0.23,0.041-0.277,0.125c-0.05,0.085-0.08,0.175-0.096,0.27h-0.258l-0.348-2.501H268.045z"/>
	</g>
	<g>
		<path d="M274.042,69.128c0.409-0.039,0.667-0.108,0.774-0.21c0.106-0.101,0.159-0.376,0.159-0.824v-2.734
			c0-0.25-0.016-0.422-0.051-0.518c-0.058-0.156-0.178-0.233-0.361-0.233c-0.041,0-0.082,0.003-0.122,0.011
			c-0.041,0.008-0.156,0.037-0.348,0.091v-0.179l0.247-0.079c0.667-0.217,1.133-0.382,1.397-0.494
			c0.105-0.045,0.175-0.067,0.206-0.067c0.008,0.026,0.01,0.055,0.01,0.086v4.117c0,0.438,0.054,0.709,0.158,0.822
			c0.105,0.11,0.343,0.181,0.712,0.212v0.16h-2.782V69.128z M274.954,61.457c0.113-0.118,0.254-0.178,0.423-0.178
			c0.165,0,0.304,0.06,0.421,0.177c0.115,0.115,0.175,0.257,0.175,0.425c0,0.163-0.06,0.303-0.175,0.418
			c-0.117,0.117-0.256,0.175-0.421,0.175c-0.169,0-0.31-0.058-0.423-0.175c-0.115-0.115-0.172-0.255-0.172-0.418
			C274.782,61.717,274.839,61.576,274.954,61.457z"/>
	</g>
	<g>
		<path d="M282.129,66.747c-0.193-0.295-0.29-0.625-0.29-0.993c0-0.448,0.178-0.872,0.534-1.272
			c0.354-0.402,0.855-0.604,1.505-0.604c0.277,0,0.585,0.067,0.921,0.198c0.335,0.133,0.657,0.198,0.968,0.198
			c0.08,0,0.201-0.002,0.362-0.009c0.163-0.006,0.28-0.008,0.354-0.008h0.068v0.464h-0.989c0.067,0.16,0.122,0.301,0.158,0.419
			c0.065,0.222,0.099,0.433,0.099,0.63c0,0.437-0.18,0.837-0.542,1.202c-0.359,0.366-0.847,0.547-1.456,0.547
			c-0.097,0-0.268-0.016-0.515-0.05c-0.112,0-0.26,0.094-0.441,0.279c-0.184,0.188-0.275,0.342-0.275,0.46
			c0,0.122,0.134,0.212,0.402,0.27c0.176,0.039,0.37,0.057,0.584,0.057c0.982,0,1.648,0.056,2.002,0.168
			c0.576,0.18,0.863,0.564,0.863,1.157c0,0.605-0.335,1.088-1.008,1.447c-0.675,0.359-1.354,0.539-2.041,0.539
			c-0.627,0-1.124-0.128-1.489-0.382s-0.55-0.522-0.55-0.8c0-0.139,0.05-0.272,0.146-0.405c0.098-0.134,0.288-0.329,0.574-0.589
			l0.376-0.338l0.067-0.068c-0.174-0.069-0.305-0.136-0.393-0.201c-0.151-0.118-0.228-0.254-0.228-0.407
			c0-0.141,0.066-0.297,0.198-0.467c0.131-0.171,0.413-0.446,0.844-0.828C282.591,67.246,282.321,67.04,282.129,66.747z
			 M282.734,71.015c0.361,0.121,0.773,0.183,1.239,0.183c0.635,0,1.15-0.108,1.546-0.329c0.397-0.219,0.597-0.49,0.597-0.813
			c0-0.255-0.161-0.424-0.481-0.509c-0.199-0.049-0.576-0.079-1.132-0.087c-0.142-0.004-0.29-0.009-0.447-0.013
			c-0.156-0.007-0.3-0.014-0.429-0.021c-0.084-0.003-0.222-0.019-0.409-0.046c-0.186-0.026-0.326-0.049-0.418-0.069
			c-0.045,0-0.158,0.122-0.335,0.361c-0.181,0.245-0.271,0.472-0.271,0.677C282.194,70.67,282.375,70.893,282.734,71.015z
			 M284.552,67.073c0.229-0.183,0.343-0.502,0.343-0.958c0-0.362-0.093-0.772-0.276-1.227c-0.187-0.455-0.494-0.684-0.925-0.684
			c-0.375,0-0.632,0.178-0.772,0.535c-0.073,0.187-0.11,0.418-0.11,0.692c0,0.469,0.114,0.886,0.339,1.257s0.518,0.557,0.875,0.557
			C284.234,67.246,284.411,67.188,284.552,67.073z"/>
		<path d="M287.175,69.128c0.271-0.034,0.462-0.104,0.569-0.204c0.11-0.103,0.164-0.327,0.164-0.68V65.33
			c0-0.242-0.023-0.414-0.067-0.512c-0.073-0.143-0.224-0.218-0.447-0.218c-0.035,0-0.069,0.003-0.107,0.008
			c-0.036,0.003-0.079,0.01-0.135,0.016v-0.2c0.158-0.045,0.527-0.165,1.111-0.355l0.539-0.178c0.027,0,0.043,0.01,0.049,0.028
			c0.005,0.021,0.008,0.047,0.008,0.08v0.843c0.351-0.328,0.625-0.553,0.822-0.675c0.299-0.188,0.606-0.283,0.926-0.283
			c0.259,0,0.496,0.074,0.708,0.226c0.413,0.288,0.619,0.809,0.619,1.555v2.678c0,0.273,0.055,0.474,0.163,0.596
			c0.111,0.123,0.295,0.187,0.553,0.19v0.16h-2.446v-0.16c0.28-0.039,0.474-0.117,0.585-0.232c0.11-0.118,0.167-0.371,0.167-0.76
			v-2.45c0-0.328-0.062-0.601-0.184-0.816c-0.12-0.218-0.345-0.324-0.671-0.324c-0.225,0-0.452,0.075-0.684,0.229
			c-0.13,0.09-0.296,0.234-0.502,0.437v3.211c0,0.275,0.062,0.462,0.184,0.554c0.122,0.094,0.315,0.146,0.578,0.153v0.16h-2.502
			V69.128z"/>
		<path d="M293.907,64.695c0.482-0.524,1.104-0.787,1.863-0.787c0.755,0,1.381,0.248,1.877,0.744
			c0.497,0.498,0.745,1.159,0.745,1.985c0,0.76-0.241,1.422-0.721,1.984c-0.482,0.563-1.104,0.843-1.867,0.843
			c-0.732,0-1.354-0.27-1.86-0.809s-0.763-1.216-0.763-2.03C293.181,65.866,293.425,65.223,293.907,64.695z M294.822,64.551
			c-0.384,0.347-0.574,0.947-0.574,1.8c0,0.682,0.153,1.316,0.461,1.904c0.307,0.589,0.735,0.883,1.282,0.883
			c0.429,0,0.757-0.197,0.988-0.59c0.232-0.395,0.348-0.911,0.348-1.549c0-0.661-0.147-1.285-0.441-1.87
			c-0.295-0.584-0.722-0.878-1.279-0.878C295.304,64.251,295.043,64.351,294.822,64.551z"/>
	</g>
	<g>
		<path d="M277.58,66.271h2.896v0.733h-2.896V66.271z"/>
		<path d="M321.444,69.098c0.351-0.029,0.584-0.092,0.697-0.187c0.115-0.093,0.172-0.292,0.172-0.599v-2.587
			c0-0.379-0.034-0.649-0.106-0.812c-0.069-0.163-0.198-0.243-0.386-0.243c-0.036,0-0.088,0.006-0.151,0.014
			c-0.063,0.009-0.129,0.023-0.198,0.037v-0.19c0.217-0.075,0.44-0.152,0.668-0.234c0.229-0.079,0.386-0.137,0.475-0.172
			c0.19-0.071,0.386-0.154,0.588-0.247c0.026,0,0.043,0.011,0.049,0.03c0.006,0.017,0.009,0.059,0.009,0.119v0.941
			c0.244-0.341,0.479-0.606,0.708-0.798c0.228-0.19,0.465-0.287,0.709-0.287c0.194,0,0.354,0.058,0.477,0.176
			c0.123,0.117,0.184,0.264,0.184,0.438c0,0.157-0.047,0.29-0.141,0.396c-0.094,0.108-0.211,0.161-0.352,0.161
			c-0.145,0-0.29-0.067-0.438-0.2c-0.146-0.135-0.264-0.202-0.347-0.202c-0.133,0-0.298,0.108-0.493,0.324
			c-0.194,0.218-0.291,0.439-0.291,0.669v2.585c0,0.331,0.077,0.559,0.228,0.688c0.154,0.128,0.407,0.188,0.763,0.18v0.19h-2.822
			V69.098z"/>
	</g>
	<g>
		<path d="M329.426,64.466c0.405,0.373,0.607,0.903,0.607,1.586h-3.635c0.037,0.886,0.238,1.531,0.601,1.935
			c0.363,0.406,0.792,0.606,1.287,0.606c0.402,0,0.739-0.104,1.016-0.313c0.273-0.211,0.527-0.508,0.76-0.895l0.201,0.069
			c-0.156,0.487-0.45,0.938-0.879,1.351c-0.43,0.415-0.955,0.62-1.577,0.62c-0.717,0-1.272-0.271-1.663-0.813
			s-0.587-1.169-0.587-1.877c0-0.767,0.228-1.431,0.681-1.989c0.454-0.559,1.047-0.837,1.775-0.837
			C328.551,63.908,329.021,64.095,329.426,64.466z M326.684,64.904c-0.123,0.207-0.21,0.467-0.264,0.781h2.416
			c-0.042-0.382-0.114-0.666-0.218-0.854c-0.187-0.336-0.501-0.506-0.938-0.506C327.245,64.325,326.914,64.52,326.684,64.904z"/>
	</g>
	<g>
		<path d="M308.607,66.271h2.897v0.733h-2.897V66.271z"/>
		<path d="M334.516,71.656c0.354-0.021,0.582-0.101,0.68-0.229c0.097-0.129,0.144-0.334,0.144-0.613v-5.508
			c0-0.289-0.035-0.476-0.105-0.557c-0.07-0.082-0.203-0.125-0.397-0.125c-0.043,0-0.082,0.003-0.117,0.006
			c-0.037,0.004-0.089,0.013-0.159,0.022v-0.189l0.546-0.178c0.019-0.002,0.402-0.135,1.15-0.395c0.019,0,0.032,0.009,0.043,0.025
			c0.009,0.018,0.014,0.038,0.014,0.061v0.774c0.251-0.254,0.474-0.439,0.665-0.562c0.343-0.214,0.695-0.321,1.059-0.321
			c0.526,0,0.979,0.226,1.359,0.674s0.57,1.063,0.57,1.842c0,0.764-0.229,1.456-0.686,2.079c-0.455,0.623-1.029,0.936-1.719,0.936
			c-0.216,0-0.4-0.028-0.557-0.081c-0.244-0.08-0.469-0.227-0.675-0.441v1.881c0,0.386,0.062,0.623,0.189,0.711
			s0.4,0.146,0.822,0.179v0.201h-2.826V71.656z M336.775,68.809c0.196,0.129,0.427,0.192,0.694,0.192
			c0.413,0,0.765-0.206,1.056-0.615c0.293-0.41,0.438-0.981,0.438-1.717c0-0.701-0.15-1.227-0.454-1.575
			c-0.304-0.347-0.656-0.521-1.057-0.521c-0.282,0-0.54,0.086-0.772,0.259c-0.232,0.176-0.35,0.345-0.35,0.514v2.881
			C336.429,68.486,336.579,68.681,336.775,68.809z"/>
	</g>
	<g>
		<path d="M344.474,64.466c0.404,0.373,0.604,0.903,0.604,1.586h-3.635c0.039,0.886,0.239,1.531,0.602,1.935
			c0.363,0.406,0.792,0.606,1.288,0.606c0.401,0,0.738-0.104,1.014-0.313c0.274-0.211,0.527-0.508,0.761-0.895l0.201,0.069
			c-0.157,0.487-0.449,0.938-0.88,1.351c-0.428,0.415-0.954,0.62-1.576,0.62c-0.718,0-1.272-0.271-1.664-0.813
			c-0.391-0.543-0.587-1.169-0.587-1.877c0-0.767,0.228-1.431,0.683-1.989c0.454-0.559,1.045-0.837,1.773-0.837
			C343.597,63.908,344.07,64.095,344.474,64.466z M341.731,64.904c-0.123,0.207-0.209,0.467-0.264,0.781h2.416
			c-0.042-0.382-0.114-0.666-0.217-0.854c-0.188-0.336-0.5-0.506-0.939-0.506C342.292,64.325,341.959,64.52,341.731,64.904z"/>
		<path d="M345.64,69.098c0.351-0.029,0.584-0.092,0.699-0.187c0.113-0.093,0.171-0.292,0.171-0.599v-2.587
			c0-0.379-0.034-0.649-0.105-0.812c-0.07-0.163-0.198-0.243-0.387-0.243c-0.037,0-0.088,0.006-0.151,0.014
			c-0.063,0.009-0.129,0.023-0.198,0.037v-0.19c0.217-0.075,0.44-0.152,0.669-0.234c0.228-0.079,0.386-0.137,0.473-0.172
			c0.19-0.071,0.387-0.154,0.589-0.247c0.026,0,0.043,0.011,0.049,0.03c0.005,0.017,0.009,0.059,0.009,0.119v0.941
			c0.245-0.341,0.479-0.606,0.708-0.798c0.227-0.19,0.464-0.287,0.709-0.287c0.194,0,0.354,0.058,0.476,0.176
			c0.123,0.117,0.185,0.264,0.185,0.438c0,0.157-0.048,0.29-0.14,0.396c-0.095,0.108-0.213,0.161-0.354,0.161
			c-0.145,0-0.289-0.067-0.437-0.2c-0.147-0.135-0.264-0.202-0.348-0.202c-0.133,0-0.297,0.108-0.491,0.324
			c-0.194,0.218-0.293,0.439-0.293,0.669v2.585c0,0.331,0.077,0.559,0.229,0.688c0.152,0.128,0.406,0.188,0.761,0.18v0.19h-2.822
			V69.098z"/>
	</g>
	<g>
		<path d="M353.645,69.128c0.271-0.034,0.462-0.104,0.57-0.204c0.109-0.103,0.163-0.327,0.163-0.68V65.33
			c0-0.242-0.022-0.414-0.069-0.512c-0.071-0.143-0.221-0.218-0.447-0.218c-0.033,0-0.069,0.003-0.104,0.008
			c-0.037,0.003-0.081,0.01-0.135,0.016v-0.2c0.157-0.045,0.527-0.165,1.11-0.355l0.538-0.178c0.026,0,0.043,0.01,0.049,0.028
			c0.007,0.021,0.009,0.047,0.009,0.08v0.843c0.351-0.328,0.625-0.553,0.823-0.675c0.297-0.188,0.606-0.283,0.925-0.283
			c0.26,0,0.495,0.074,0.709,0.226c0.411,0.288,0.616,0.809,0.616,1.555v2.678c0,0.273,0.056,0.474,0.166,0.596
			c0.109,0.123,0.292,0.187,0.551,0.19v0.16h-2.444v-0.16c0.278-0.039,0.473-0.117,0.584-0.232c0.11-0.118,0.165-0.371,0.165-0.76
			v-2.45c0-0.328-0.061-0.601-0.182-0.816c-0.122-0.218-0.345-0.324-0.672-0.324c-0.224,0-0.451,0.075-0.684,0.229
			c-0.129,0.09-0.296,0.234-0.501,0.437v3.211c0,0.275,0.062,0.462,0.185,0.554c0.122,0.094,0.313,0.146,0.578,0.153v0.16h-2.503
			V69.128z"/>
		<path d="M360.376,64.695c0.484-0.524,1.105-0.787,1.862-0.787s1.384,0.248,1.879,0.744c0.497,0.498,0.745,1.159,0.745,1.985
			c0,0.76-0.241,1.422-0.723,1.984c-0.48,0.563-1.102,0.843-1.866,0.843c-0.73,0-1.352-0.27-1.86-0.809
			c-0.507-0.539-0.762-1.216-0.762-2.03C359.651,65.866,359.893,65.223,360.376,64.695z M361.291,64.551
			c-0.382,0.347-0.573,0.947-0.573,1.8c0,0.682,0.152,1.316,0.461,1.904c0.308,0.589,0.735,0.883,1.283,0.883
			c0.427,0,0.756-0.197,0.988-0.59c0.23-0.395,0.347-0.911,0.347-1.549c0-0.661-0.146-1.285-0.441-1.87
			c-0.295-0.584-0.722-0.878-1.279-0.878C361.773,64.251,361.511,64.351,361.291,64.551z"/>
		<path d="M365.505,69.128c0.409-0.039,0.666-0.108,0.771-0.21c0.108-0.101,0.161-0.376,0.161-0.824v-2.734
			c0-0.25-0.017-0.422-0.052-0.518c-0.058-0.156-0.178-0.233-0.359-0.233c-0.043,0-0.084,0.003-0.124,0.011
			s-0.155,0.037-0.347,0.091v-0.179l0.247-0.079c0.667-0.217,1.134-0.382,1.396-0.494c0.107-0.045,0.175-0.067,0.206-0.067
			c0.008,0.026,0.012,0.055,0.012,0.086v4.117c0,0.438,0.054,0.709,0.157,0.822c0.105,0.11,0.343,0.181,0.713,0.212v0.16h-2.782
			V69.128z M366.413,61.457c0.115-0.118,0.257-0.178,0.426-0.178c0.164,0,0.305,0.06,0.42,0.177
			c0.117,0.115,0.175,0.257,0.175,0.425c0,0.163-0.058,0.303-0.175,0.418c-0.115,0.117-0.256,0.175-0.42,0.175
			c-0.169,0-0.311-0.058-0.426-0.175c-0.113-0.115-0.171-0.255-0.171-0.418C366.242,61.717,366.3,61.576,366.413,61.457z"/>
	</g>
	<g>
		<path d="M370.04,69.234c-0.125-0.13-0.188-0.284-0.188-0.464s0.063-0.33,0.192-0.458c0.127-0.126,0.282-0.188,0.459-0.188
			c0.18,0,0.334,0.062,0.46,0.188c0.124,0.128,0.188,0.278,0.188,0.458s-0.062,0.334-0.185,0.464
			c-0.125,0.127-0.279,0.19-0.463,0.19C370.322,69.425,370.166,69.361,370.04,69.234z"/>
	</g>
	<path d="M21.379,28.733c0.484,0.254,0.876,0.601,1.153,1.04c0.184,0.254,0.322,0.484,0.415,0.739
		c0.069,0.23,0.116,0.508,0.116,0.785c0,0.67-0.185,1.294-0.554,1.848c-0.345,0.554-0.83,0.97-1.405,1.27l-1.383-6.051
		C20.343,28.363,20.896,28.479,21.379,28.733L21.379,28.733z M20.32,21.113c0.253-0.394,0.46-0.786,0.668-1.179
		c0.138-0.323,0.299-0.738,0.461-1.224c0.161-0.485,0.277-0.924,0.346-1.293c0.069-0.346,0.116-0.739,0.116-1.177
		c0-0.347-0.047-0.693-0.116-1.04c-0.069-0.346-0.162-0.763-0.277-1.224c-0.253-0.854-0.576-1.617-0.945-2.263
		c-0.162-0.3-0.346-0.508-0.553-0.624c-0.161-0.069-0.322-0.116-0.483-0.116c-0.346,0.093-0.623,0.232-0.807,0.37
		c-0.23,0.162-0.46,0.416-0.668,0.74c-0.415,0.716-0.738,1.454-0.945,2.263c-0.185,0.831-0.299,1.571-0.299,2.193
		c0,0.625,0.046,1.294,0.138,1.987c0.115,0.693,0.277,1.409,0.461,2.125l-2.282,2.147c-0.415,0.417-0.852,0.948-1.336,1.57
		c-0.53,0.647-0.945,1.34-1.244,2.103c-0.323,0.715-0.484,1.478-0.484,2.287l0.07,1.062c0,0.393,0.045,0.761,0.161,1.085
		c0.069,0.254,0.346,0.762,0.83,1.501c0.623,0.948,1.406,1.686,2.396,2.217c0.968,0.554,2.028,0.832,3.157,0.832
		c0.622,0,1.245-0.069,1.867-0.23l0.691,2.954c0.093,0.392,0.162,0.831,0.162,1.34c0,0.392-0.069,0.761-0.185,1.062
		c-0.138,0.299-0.323,0.576-0.576,0.829c-0.461,0.486-1.152,0.764-2.074,0.88c-0.438,0-0.853-0.071-1.198-0.21
		c-0.392-0.137-0.576-0.345-0.6-0.598c0.323,0,0.623-0.072,0.945-0.209c0.323-0.116,0.6-0.3,0.807-0.554
		c0.185-0.277,0.277-0.625,0.277-1.018c0-0.161-0.023-0.3-0.069-0.461c-0.046-0.116-0.115-0.278-0.208-0.415
		c-0.184-0.277-0.415-0.486-0.737-0.646c-0.299-0.162-0.668-0.23-1.06-0.23c-0.346,0.046-0.668,0.161-0.945,0.369
		c-0.161,0.114-0.276,0.253-0.392,0.392s-0.23,0.301-0.299,0.485c-0.161,0.346-0.23,0.738-0.23,1.13
		c0.046,0.486,0.253,0.926,0.622,1.317c0.346,0.393,0.784,0.693,1.336,0.901c0.323,0.139,0.599,0.23,0.875,0.253
		c0.3,0.048,0.623,0.069,0.945,0.069c1.083-0.092,1.913-0.439,2.535-1.017c0.599-0.576,0.898-1.315,0.898-2.286
		c0-0.345-0.023-0.646-0.046-0.854l-0.829-3.761c0.991-0.438,1.797-1.04,2.374-1.755c0.575-0.739,0.853-1.593,0.853-2.541
		c0-0.785-0.185-1.523-0.553-2.216c-0.392-0.693-0.922-1.224-1.566-1.641c-0.646-0.416-1.383-0.623-2.212-0.623
		c-0.277,0-0.553,0.022-0.807,0.068l-0.692-3.118C19.283,22.499,19.859,21.828,20.32,21.113L20.32,21.113z M19.698,34.761
		c-0.184,0.023-0.392,0.046-0.622,0.046c-0.76,0-1.475-0.115-2.144-0.324c-0.667-0.208-1.267-0.507-1.797-0.924
		c-0.529-0.392-0.921-0.877-1.198-1.431c-0.253-0.554-0.392-1.178-0.392-1.848c0-0.878,0.208-1.709,0.646-2.517
		c0.415-0.787,0.944-1.502,1.567-2.125c0.3-0.301,0.646-0.625,1.06-0.994c0.392-0.369,0.807-0.738,1.221-1.062l0.622,2.794
		c-0.76,0.253-1.406,0.739-1.958,1.432c-0.576,0.693-0.853,1.409-0.853,2.124c0,0.764,0.253,1.479,0.76,2.103
		c0.484,0.624,1.106,1.062,1.867,1.293c0.184,0,0.276-0.046,0.276-0.162c0-0.116-0.046-0.185-0.138-0.208
		c-1.083-0.463-1.613-1.132-1.613-1.988c0-0.576,0.207-1.084,0.645-1.57c0.415-0.485,0.898-0.808,1.452-0.969l1.337,6.165
		C20.135,34.669,19.905,34.715,19.698,34.761L19.698,34.761z M20.734,16.216c-0.115,0.439-0.299,0.877-0.576,1.316
		c-0.346,0.577-0.691,1.062-0.991,1.432c-0.368,0.462-0.783,0.854-1.198,1.201c-0.23-0.901-0.345-1.686-0.345-2.355
		c0-0.254,0.023-0.508,0.069-0.809c0.069-0.3,0.138-0.623,0.208-0.923c0.184-0.624,0.438-1.201,0.76-1.686
		c0.392-0.531,0.576-0.809,0.599-0.832c0.138-0.162,0.299-0.253,0.461-0.277c0.208,0,0.392,0.092,0.576,0.299
		c0.23,0.301,0.369,0.555,0.438,0.809l0.116,0.415C20.85,15.385,20.803,15.846,20.734,16.216L20.734,16.216z"/>
	<path d="M28.657,24.07h3.088v1.917h1.706V24.07h0.783v-1.294h-0.783v-5.473H32.69l-4.032,5.473V24.07z M31.745,19.428v3.348h-2.488
		L31.745,19.428z"/>
	<path d="M28.657,33.306h3.088v1.917h1.706v-1.917h0.783v-1.294h-0.783V26.54H32.69l-4.032,5.473V33.306z M31.745,28.664v3.349
		h-2.488L31.745,28.664z"/>
	<g>
		<path d="M38.094,9.146c0.256-0.034,0.438-0.088,0.544-0.16c0.18-0.119,0.315-0.347,0.407-0.682l1.439-5.268
			c0.042-0.149,0.073-0.274,0.095-0.375C40.6,2.56,40.61,2.471,40.61,2.395c0-0.199-0.056-0.324-0.166-0.375
			c-0.111-0.052-0.343-0.093-0.693-0.124V1.592h3.403c1.151,0,2.028,0.296,2.628,0.886c0.601,0.591,0.901,1.383,0.901,2.377
			c0,1.197-0.445,2.237-1.333,3.121C44.363,8.958,43.065,9.45,41.46,9.45h-3.365V9.146z M44.668,2.75
			c-0.306-0.527-0.834-0.791-1.587-0.791c-0.252,0-0.423,0.041-0.513,0.123c-0.09,0.083-0.154,0.192-0.192,0.33l-1.614,5.932
			c-0.016,0.057-0.026,0.108-0.031,0.155c-0.006,0.045-0.009,0.085-0.009,0.119c0,0.153,0.047,0.264,0.141,0.333
			c0.093,0.069,0.263,0.103,0.506,0.103c1.394,0,2.403-0.719,3.025-2.155c0.378-0.872,0.567-1.792,0.567-2.762
			C44.961,3.556,44.863,3.093,44.668,2.75z"/>
		<path d="M48.68,3.205c1.023-1.201,2.167-1.802,3.435-1.802c0.844,0,1.536,0.254,2.078,0.763c0.541,0.509,0.813,1.197,0.813,2.066
			c0,1.266-0.479,2.47-1.437,3.61c-1.023,1.22-2.199,1.831-3.526,1.831c-0.836,0-1.517-0.256-2.041-0.767
			c-0.525-0.511-0.787-1.192-0.787-2.045C47.215,5.576,47.703,4.356,48.68,3.205z M49.041,8.561
			c0.187,0.471,0.527,0.707,1.019,0.707c0.462,0,0.882-0.172,1.259-0.515c0.378-0.342,0.769-0.996,1.173-1.959
			c0.256-0.608,0.456-1.25,0.602-1.923c0.145-0.673,0.218-1.219,0.218-1.636c0-0.395-0.097-0.732-0.292-1.013
			c-0.194-0.282-0.498-0.422-0.91-0.422c-0.974,0-1.792,0.866-2.457,2.6c-0.503,1.316-0.755,2.413-0.755,3.29
			C48.898,8.028,48.946,8.319,49.041,8.561z"/>
	</g>
	
		<path fill="none" stroke="#000000" stroke-width="0.12" stroke-linecap="round" stroke-linejoin="round" stroke-miterlimit="10" d="
		M36.969,39.869h8.735 M36.969,39.97h8.735 M36.969,40.069h8.735 M36.969,40.17h8.735"/>
	<path d="M38.475,40.762c0,0.325,0.046,0.625,0.115,0.878c0.069,0.279,0.231,0.531,0.507,0.739c0.277,0.185,0.714,0.277,1.291,0.301
		c0.253,0,0.53-0.023,0.807-0.069c0.276-0.069,0.553-0.184,0.852-0.3c0.553-0.255,1.037-0.625,1.452-1.11
		c0.392-0.461,0.599-0.945,0.623-1.453c0-0.833-0.208-1.432-0.646-1.755c-0.276-0.207-0.691-0.323-1.244-0.323
		c-0.069,0-0.116,0-0.185,0c-0.207,0-0.438,0.022-0.645,0.07c-0.3,0.068-0.576,0.185-0.853,0.299
		c-0.576,0.277-1.061,0.622-1.452,1.061c-0.392,0.462-0.599,0.948-0.622,1.479C38.475,40.646,38.475,40.694,38.475,40.762
		L38.475,40.762z M41.632,38.984c0.392-0.139,0.761-0.208,1.106-0.208c0.023,0,0.069,0,0.092,0c0.092,0,0.184,0.047,0.299,0.162
		c0.069,0.069,0.139,0.16,0.162,0.254c0,0.254-0.138,0.531-0.392,0.832c-0.207,0.23-0.345,0.392-0.414,0.484
		c-0.069,0.047-0.231,0.186-0.507,0.393c-0.207,0.139-0.369,0.253-0.53,0.324c-0.276,0.161-0.461,0.254-0.53,0.275
		c-0.184,0.069-0.392,0.117-0.599,0.139c-0.207,0.023-0.392,0.046-0.53,0.046c-0.139-0.022-0.253-0.091-0.369-0.185
		c-0.092-0.069-0.138-0.185-0.138-0.275c0-0.025,0-0.048,0-0.071c0-0.206,0.069-0.415,0.185-0.622
		c0.161-0.277,0.414-0.531,0.737-0.764C40.756,39.399,41.218,39.124,41.632,38.984L41.632,38.984z"/>
	
		<path fill="none" stroke="#000000" stroke-width="0.12" stroke-linecap="round" stroke-linejoin="round" stroke-miterlimit="10" d="
		M43.796,40.069V23.909 M43.897,40.069V23.909 M43.997,40.069V23.909 M44.097,40.069V23.909"/>
	<path d="M45.926,39.682c0.208,0.206,0.438,0.322,0.737,0.322c0.299,0,0.553-0.116,0.76-0.322c0.208-0.209,0.323-0.462,0.323-0.739
		c0-0.254-0.115-0.509-0.323-0.762c-0.207-0.208-0.483-0.322-0.76-0.322c-0.368,0-0.622,0.092-0.783,0.275
		c-0.185,0.255-0.277,0.531-0.277,0.809C45.603,39.242,45.719,39.473,45.926,39.682L45.926,39.682z"/>
	
		<path fill="none" stroke="#000000" stroke-width="0.12" stroke-linecap="round" stroke-linejoin="round" stroke-miterlimit="10" d="
		M92.791,35.455V16.981 M92.891,35.455V16.981 M92.992,35.455V16.981 M93.093,35.455V16.981 M104.237,30.836V12.262 M104.337,30.836
		V12.262 M104.437,30.836V12.262 M104.538,30.836V12.262 M92.992,19.291l11.445-4.72 M92.992,19.189l11.445-4.718 M92.992,19.09
		l11.445-4.72 M92.992,18.989l11.445-4.719 M92.992,18.889l11.445-4.719 M92.992,18.788l11.445-4.718 M92.992,18.688l11.445-4.718
		 M92.992,18.588l11.445-4.719 M92.992,18.486l11.445-4.718 M92.992,18.387l11.445-4.719 M92.992,18.286l11.445-4.718
		 M92.992,18.186l11.445-4.719 M92.992,18.086l11.445-4.719 M92.992,17.985l11.445-4.719 M92.992,17.886l11.445-4.72 M92.992,17.784
		l11.445-4.719 M92.992,17.685l11.445-4.72 M92.992,17.583l11.445-4.718 M92.992,17.483l11.445-4.719 M92.992,17.383l11.445-4.718
		 M92.992,17.282l11.445-4.719 M92.992,17.182l11.445-4.718 M92.992,17.081l11.445-4.718"/>
	<path d="M90.941,33.19c-0.368,0-0.737,0.069-1.105,0.207c-0.576,0.208-0.945,0.394-1.175,0.579
		c-0.83,0.599-1.268,1.269-1.313,2.031c0,0.601,0.184,1.062,0.53,1.363c0.345,0.321,0.806,0.483,1.336,0.507
		c0.461,0,0.899-0.069,1.313-0.186c0.414-0.115,0.784-0.321,1.152-0.599c0.853-0.6,1.291-1.315,1.313-2.1
		c0-0.578-0.161-1.016-0.507-1.294c-0.392-0.346-0.875-0.508-1.452-0.508C90.988,33.19,90.965,33.19,90.941,33.19L90.941,33.19z"/>
	<path d="M102.387,28.572c-0.369,0-0.737,0.069-1.107,0.208c-0.576,0.207-0.943,0.392-1.174,0.577
		c-0.83,0.601-1.268,1.271-1.313,2.032c0,0.601,0.184,1.062,0.53,1.363c0.346,0.324,0.806,0.486,1.336,0.508
		c0.461,0,0.899-0.069,1.314-0.185c0.415-0.116,0.783-0.324,1.152-0.601c0.852-0.6,1.291-1.316,1.313-2.102
		c0-0.577-0.161-1.016-0.507-1.292c-0.392-0.347-0.875-0.508-1.452-0.508C102.433,28.572,102.41,28.572,102.387,28.572
		L102.387,28.572z"/>
	
		<path fill="none" stroke="#000000" stroke-width="0.12" stroke-linecap="round" stroke-linejoin="round" stroke-miterlimit="10" d="
		M104.538,31.94c0,2.41,4.016,4.417,9.036,4.417c5.02,0,9.036-2.007,9.136-4.417 M104.538,31.94c0,2.41,4.016,4.518,9.036,4.518
		c5.02,0,9.036-2.108,9.136-4.518 M104.538,31.94c0,2.509,4.016,4.618,9.036,4.618c5.02,0,9.036-2.109,9.136-4.618 M104.538,31.94
		c0,2.61,4.016,4.718,9.036,4.718c5.02,0,9.036-2.108,9.136-4.718 M104.538,31.94c0,2.61,4.016,4.818,9.036,4.818
		c5.02,0,9.036-2.208,9.136-4.818 M104.538,31.94c0,2.711,4.016,4.919,9.036,4.919c5.02,0,9.036-2.208,9.136-4.919 M104.538,31.94
		c0,2.711,4.016,5.019,9.036,5.019c5.02,0,9.036-2.308,9.136-5.019 M104.538,31.94c0,2.811,4.016,5.12,9.036,5.12
		c5.02,0,9.036-2.309,9.136-5.12 M113.875,16.981v18.474 M113.975,16.981v18.474 M114.075,16.981v18.474 M114.176,16.981v18.474"/>
	<g>
		<path d="M122.87,9.668l0.424-2.633l0.337,0.022c0.023,0.375,0.056,0.648,0.098,0.821c0.072,0.287,0.205,0.542,0.395,0.763
			c0.176,0.203,0.375,0.356,0.599,0.462c0.224,0.105,0.466,0.157,0.73,0.157c0.469,0,0.833-0.15,1.091-0.449
			c0.257-0.301,0.387-0.65,0.387-1.048c0-0.494-0.48-1.116-1.438-1.869c-0.958-0.788-1.437-1.517-1.437-2.186
			c0-0.631,0.211-1.168,0.633-1.612s1.01-0.666,1.766-0.666c0.21,0,0.425,0.021,0.647,0.063c0.145,0.027,0.272,0.06,0.383,0.097
			l0.297,0.098c0.065,0.02,0.132,0.036,0.201,0.049c0.069,0.013,0.129,0.02,0.184,0.02c0.137,0,0.242-0.029,0.314-0.086
			c0.073-0.058,0.136-0.128,0.189-0.213h0.349l-0.475,2.353l-0.303-0.042l-0.04-0.383c-0.05-0.363-0.163-0.675-0.338-0.935
			c-0.274-0.41-0.675-0.614-1.202-0.614c-0.451,0-0.779,0.165-0.984,0.493c-0.138,0.218-0.206,0.454-0.206,0.706
			c0,0.268,0.07,0.505,0.211,0.711c0.08,0.114,0.2,0.239,0.36,0.373l1.011,0.832c0.358,0.294,0.663,0.63,0.915,1.006
			c0.251,0.377,0.377,0.806,0.377,1.288c0,0.619-0.243,1.179-0.73,1.678c-0.487,0.499-1.155,0.749-2.007,0.749
			c-0.214,0-0.428-0.021-0.644-0.06c-0.216-0.04-0.429-0.098-0.639-0.172l-0.297-0.108c-0.1-0.038-0.168-0.06-0.207-0.071
			c-0.038-0.009-0.082-0.014-0.131-0.014c-0.13,0-0.222,0.031-0.278,0.093c-0.055,0.062-0.117,0.171-0.186,0.326H122.87z"/>
		<path d="M131.114,3.205c1.023-1.201,2.168-1.802,3.435-1.802c0.844,0,1.536,0.254,2.079,0.763
			c0.542,0.509,0.813,1.197,0.813,2.066c0,1.266-0.479,2.47-1.437,3.61c-1.023,1.22-2.199,1.831-3.527,1.831
			c-0.835,0-1.516-0.256-2.041-0.767c-0.525-0.511-0.788-1.192-0.788-2.045C129.648,5.576,130.136,4.356,131.114,3.205z
			 M131.474,8.561c0.188,0.471,0.527,0.707,1.02,0.707c0.461,0,0.881-0.172,1.259-0.515c0.377-0.342,0.769-0.996,1.173-1.959
			c0.256-0.608,0.456-1.25,0.601-1.923s0.218-1.219,0.218-1.636c0-0.395-0.098-0.732-0.292-1.013
			c-0.194-0.282-0.498-0.422-0.91-0.422c-0.973,0-1.792,0.866-2.456,2.6c-0.504,1.316-0.756,2.413-0.756,3.29
			C131.331,8.028,131.379,8.319,131.474,8.561z"/>
	</g>
	<g>
		<path d="M137.5,9.146c0.278-0.034,0.484-0.103,0.617-0.206c0.133-0.104,0.244-0.315,0.332-0.637l1.439-5.268
			c0.042-0.149,0.073-0.274,0.094-0.375c0.021-0.102,0.031-0.19,0.031-0.267c0-0.199-0.055-0.324-0.165-0.375
			c-0.11-0.052-0.341-0.093-0.692-0.124V1.592h3.714v0.304c-0.409,0.042-0.684,0.106-0.824,0.192
			c-0.142,0.086-0.259,0.303-0.355,0.651l-1.525,5.604c-0.016,0.062-0.027,0.119-0.037,0.173c-0.01,0.054-0.015,0.118-0.015,0.191
			c0,0.131,0.058,0.225,0.172,0.28c0.115,0.055,0.275,0.083,0.481,0.083c0.806,0,1.502-0.138,2.088-0.413
			c0.586-0.276,1.103-0.79,1.549-1.543l0.281,0.052l-0.687,2.282H137.5V9.146z"/>
	</g>
	<path d="M126.382,28.572c-0.369,0-0.737,0.07-1.106,0.208c-0.576,0.208-0.944,0.393-1.175,0.578c-0.83,0.6-1.267,1.27-1.314,2.032
		c0,0.601,0.185,1.063,0.531,1.363c0.346,0.323,0.806,0.485,1.337,0.507c0.46,0,0.898-0.068,1.313-0.185
		c0.415-0.114,0.783-0.323,1.152-0.6c0.853-0.601,1.29-1.317,1.313-2.102c0-0.578-0.161-1.016-0.506-1.294
		c-0.393-0.347-0.876-0.508-1.452-0.508C126.428,28.572,126.406,28.572,126.382,28.572L126.382,28.572z"/>
	
		<path fill="none" stroke="#000000" stroke-width="0.12" stroke-linecap="round" stroke-linejoin="round" stroke-miterlimit="10" d="
		M128.132,30.836V14.672 M128.233,30.836V14.672 M128.332,30.836V14.672 M128.433,30.836V14.672"/>
	<path d="M130.261,30.448c0.208,0.208,0.438,0.323,0.738,0.323c0.3,0,0.553-0.115,0.761-0.323c0.208-0.208,0.322-0.462,0.322-0.739
		c0-0.254-0.115-0.508-0.322-0.763c-0.208-0.207-0.484-0.323-0.761-0.323c-0.368,0-0.622,0.093-0.783,0.278
		c-0.185,0.253-0.277,0.531-0.277,0.808C129.939,30.009,130.054,30.24,130.261,30.448L130.261,30.448z"/>
	<path d="M149.675,28.572c-0.369,0-0.737,0.07-1.106,0.208c-0.576,0.208-0.945,0.393-1.175,0.578c-0.83,0.6-1.268,1.27-1.314,2.032
		c0,0.601,0.185,1.063,0.53,1.363c0.346,0.323,0.807,0.485,1.336,0.507c0.461,0,0.899-0.068,1.314-0.185
		c0.415-0.114,0.784-0.323,1.152-0.6c0.853-0.601,1.291-1.317,1.313-2.102c0-0.578-0.162-1.016-0.507-1.294
		c-0.392-0.347-0.875-0.508-1.452-0.508C149.721,28.572,149.698,28.572,149.675,28.572L149.675,28.572z"/>
	
		<path fill="none" stroke="#000000" stroke-width="0.12" stroke-linecap="round" stroke-linejoin="round" stroke-miterlimit="10" d="
		M151.424,30.836V14.672 M151.525,30.836V14.672 M151.625,30.836V14.672 M151.725,30.836V14.672"/>
	<path d="M152.385,18.782c0.092,0.023,0.23,0.138,0.438,0.299c0.207,0.185,0.346,0.301,0.438,0.347
		c0.161,0.093,0.323,0.208,0.437,0.347c0.139,0.139,0.277,0.323,0.438,0.555c0.138,0.208,0.253,0.393,0.346,0.484
		c0.161,0.185,0.323,0.463,0.484,0.809c0.161,0.346,0.276,0.624,0.322,0.808c0.023,0.092,0.069,0.161,0.093,0.231
		c0.045,0.069,0.069,0.115,0.069,0.139c0,0.045,0,0.161,0,0.347v0.484c0.023,0.231,0.023,0.393,0.023,0.507
		c0,0.048,0.023,0.071,0.023,0.116c0,0.023,0,0.069,0,0.139c0,0.023,0,0.069-0.023,0.115c-0.023,0.047-0.023,0.07-0.023,0.093
		c-0.046,0.161-0.093,0.346-0.162,0.508c-0.046,0.185-0.092,0.369-0.138,0.554c-0.069,0.208-0.162,0.439-0.23,0.692l-0.023,0.162
		l-0.392,0.855h0.3c0.506-0.832,0.921-1.64,1.198-2.448c0.138-0.346,0.253-0.647,0.277-0.924c0.045-0.277,0.069-0.623,0.069-1.062
		c0-0.186-0.047-0.485-0.162-0.924c-0.092-0.3-0.208-0.624-0.346-0.97c-0.277-0.669-0.576-1.201-0.898-1.617
		c-0.116-0.115-0.208-0.208-0.277-0.3c-0.115-0.138-0.23-0.277-0.345-0.393l-0.921-0.878c-0.116-0.115-0.254-0.253-0.346-0.438
		c-0.115-0.185-0.23-0.324-0.299-0.416c-0.231-0.277-0.416-0.554-0.554-0.832c-0.138-0.3-0.23-0.555-0.299-0.808
		c-0.045-0.116-0.115-0.301-0.185-0.578l-0.092-0.277v4.134C151.878,18.643,152.132,18.689,152.385,18.782L152.385,18.782z"/>
	
		<path fill="none" stroke="#000000" stroke-width="0.12" stroke-linecap="round" stroke-linejoin="round" stroke-miterlimit="10" d="
		M173.613,30.836V12.363 M173.713,30.836V12.363 M173.814,30.836V12.363 M173.913,30.836V12.363 M188.371,35.455V16.88
		 M188.472,35.455V16.88 M188.572,35.455V16.88 M188.672,35.455V16.88 M173.814,14.672l14.758,4.518 M173.814,14.571l14.758,4.519
		 M173.814,14.472l14.758,4.518 M173.814,14.37l14.758,4.519 M173.814,14.271l14.758,4.518 M173.814,14.169l14.758,4.518
		 M173.814,14.07l14.758,4.518 M173.814,13.969l14.758,4.517 M173.814,13.869l14.758,4.518 M173.814,13.768l14.758,4.518
		 M173.814,13.667l14.758,4.518 M173.814,13.568l14.758,4.518 M173.814,13.467l14.758,4.519 M173.814,13.367l14.758,4.519
		 M173.814,13.267l14.758,4.518 M173.814,13.166l14.758,4.519 M173.814,13.065l14.758,4.518 M173.814,12.965l14.758,4.518
		 M173.814,12.865l14.758,4.518 M173.814,12.764l14.758,4.518 M173.814,12.665l14.758,4.517 M173.814,12.563l14.758,4.518
		 M173.814,12.463l14.758,4.518"/>
	<path d="M171.763,28.572c-0.369,0-0.738,0.07-1.106,0.208c-0.577,0.208-0.944,0.393-1.175,0.578c-0.83,0.6-1.268,1.27-1.313,2.032
		c0,0.601,0.183,1.063,0.529,1.363c0.345,0.323,0.806,0.485,1.337,0.507c0.46,0,0.898-0.068,1.313-0.185
		c0.415-0.114,0.783-0.323,1.152-0.6c0.852-0.601,1.29-1.317,1.313-2.102c0-0.578-0.162-1.016-0.507-1.294
		c-0.392-0.347-0.875-0.508-1.452-0.508C171.808,28.572,171.786,28.572,171.763,28.572L171.763,28.572z"/>
	<path d="M186.521,33.192c-0.369,0-0.738,0.068-1.106,0.208c-0.576,0.208-0.945,0.392-1.175,0.577
		c-0.83,0.6-1.267,1.271-1.313,2.032c0,0.6,0.185,1.062,0.53,1.362c0.346,0.322,0.807,0.483,1.336,0.507
		c0.46,0,0.899-0.07,1.313-0.185c0.415-0.116,0.784-0.322,1.152-0.6c0.853-0.6,1.292-1.315,1.313-2.101
		c0-0.576-0.162-1.016-0.506-1.293c-0.392-0.346-0.876-0.507-1.453-0.507C186.568,33.192,186.544,33.192,186.521,33.192
		L186.521,33.192z"/>
	<path d="M197.874,33.077c0.3,0.069,0.438,0.092,0.438,0.115c-0.322-0.438-0.507-0.646-0.552-0.646
		c-0.277-0.161-0.531-0.416-0.784-0.785c-0.254-0.347-0.369-0.693-0.369-1.039c0-0.324,0.115-0.624,0.346-0.901
		c0.3-0.369,0.691-0.554,1.175-0.554c0.438,0,0.968,0.138,1.637,0.438l0.345-0.392c-0.438-0.438-0.829-0.832-1.152-1.178
		c-0.139-0.162-0.277-0.324-0.415-0.531c-0.116-0.185-0.231-0.37-0.347-0.577c-0.114-0.185-0.183-0.369-0.23-0.578
		c-0.045-0.208-0.069-0.416-0.069-0.601c0-0.392,0.046-0.715,0.138-0.97c0.069-0.162,0.116-0.3,0.161-0.439
		c0.047-0.116,0.116-0.254,0.185-0.392c0.116-0.324,0.299-0.579,0.553-0.809c0.138-0.115,0.276-0.324,0.415-0.554
		c0.115-0.255,0.208-0.416,0.3-0.508l-3.065-3.534h-0.968c0.783,0.831,1.221,1.524,1.313,2.079c0,0.646-0.092,1.086-0.277,1.386
		c-0.069,0.138-0.23,0.299-0.438,0.484c-0.23,0.161-0.392,0.3-0.484,0.393c-0.022,0.024-0.276,0.185-0.737,0.508l-0.323,0.555
		l0.115,0.46l3.457,3.833v0.048c-0.668-0.278-1.245-0.44-1.728-0.44c-0.623,0-1.129,0.139-1.521,0.417
		c-0.392,0.277-0.6,0.669-0.6,1.155c0,0.323,0.07,0.624,0.231,0.923c0.161,0.3,0.369,0.578,0.645,0.831
		c0.507,0.508,1.221,1.062,2.189,1.664C197.46,32.984,197.598,33.03,197.874,33.077L197.874,33.077z"/>
	
		<path fill="none" stroke="#000000" stroke-width="0.12" stroke-linecap="round" stroke-linejoin="round" stroke-miterlimit="10" d="
		M211.566,16.981v18.474 M211.667,16.981v18.474 M211.766,16.981v18.474 M211.868,16.981v18.474"/>
	<g>
		<path d="M220.151,9.146c0.278-0.034,0.484-0.103,0.617-0.206c0.135-0.102,0.245-0.312,0.333-0.632l1.439-5.269
			c0.03-0.108,0.054-0.203,0.072-0.283c0.035-0.165,0.053-0.293,0.053-0.385c0-0.187-0.054-0.306-0.16-0.356
			c-0.107-0.049-0.339-0.089-0.693-0.12V1.592h3.224c0.721,0,1.278,0.071,1.674,0.212c0.729,0.26,1.092,0.757,1.092,1.492
			c0,0.245-0.06,0.505-0.183,0.783c-0.122,0.278-0.327,0.529-0.612,0.754c-0.203,0.161-0.44,0.291-0.711,0.39
			c-0.162,0.058-0.41,0.126-0.751,0.207c0.04,0.121,0.064,0.196,0.078,0.226l0.903,2.653c0.121,0.354,0.252,0.579,0.392,0.676
			c0.14,0.096,0.353,0.15,0.638,0.162V9.45h-2.358l-1.265-3.882h-0.328l-0.695,2.443l-0.098,0.405
			c-0.007,0.03-0.013,0.063-0.017,0.1c-0.003,0.036-0.006,0.074-0.006,0.111c0,0.209,0.051,0.341,0.152,0.394
			c0.101,0.054,0.333,0.096,0.701,0.125V9.45h-3.491V9.146z M224.646,5.103c0.363-0.076,0.642-0.226,0.837-0.447
			c0.135-0.154,0.259-0.369,0.375-0.646c0.117-0.278,0.176-0.577,0.176-0.898c0-0.329-0.081-0.601-0.245-0.817
			c-0.162-0.216-0.439-0.324-0.827-0.324c-0.163,0-0.279,0.035-0.352,0.106c-0.071,0.071-0.135,0.209-0.188,0.416l-0.708,2.69
			C224.132,5.175,224.441,5.148,224.646,5.103z"/>
		<path d="M228.011,9.146c0.279-0.034,0.484-0.103,0.618-0.206c0.134-0.102,0.244-0.312,0.332-0.632l1.439-5.271
			c0.035-0.134,0.063-0.255,0.086-0.364c0.022-0.11,0.035-0.202,0.035-0.279c0-0.199-0.054-0.324-0.157-0.375
			c-0.105-0.052-0.338-0.093-0.694-0.124V1.592h6.312l-0.499,2.232l-0.313-0.053c-0.008-0.569-0.1-0.972-0.275-1.209
			c-0.298-0.402-0.903-0.603-1.814-0.603c-0.31,0-0.51,0.038-0.601,0.112c-0.089,0.074-0.162,0.215-0.22,0.421l-0.697,2.61
			c0.822-0.019,1.353-0.085,1.596-0.201c0.241-0.115,0.508-0.46,0.803-1.039l0.327,0.041l-0.87,3.212l-0.32-0.058
			c0.014-0.11,0.025-0.207,0.03-0.289c0.007-0.082,0.01-0.15,0.01-0.204c0-0.416-0.117-0.702-0.345-0.854
			c-0.23-0.153-0.678-0.23-1.345-0.23l-0.772,2.868c-0.018,0.069-0.033,0.136-0.042,0.201c-0.008,0.066-0.015,0.116-0.015,0.155
			c0,0.107,0.043,0.195,0.126,0.263c0.085,0.069,0.26,0.104,0.528,0.104c0.71,0,1.315-0.1,1.814-0.298
			c0.78-0.305,1.388-0.858,1.824-1.657l0.286,0.052l-0.692,2.282h-6.495V9.146z"/>
		<path d="M236.356,9.45l1.025-3.758c0.061-0.221,0.102-0.375,0.12-0.465c0.021-0.089,0.029-0.175,0.029-0.259
			c0-0.125-0.04-0.203-0.118-0.233c-0.078-0.031-0.253-0.053-0.519-0.068V4.356c0.494-0.03,0.914-0.07,1.261-0.12
			c0.223-0.031,0.592-0.096,1.104-0.196l-0.705,2.174l0.039,0.029c0.512-0.776,0.896-1.296,1.157-1.561
			c0.423-0.429,0.868-0.643,1.339-0.643c0.218,0,0.398,0.069,0.544,0.204c0.145,0.136,0.218,0.323,0.218,0.561
			c0,0.18-0.034,0.393-0.103,0.638c-0.038,0.137-0.09,0.307-0.155,0.511c0.49-0.614,0.885-1.046,1.188-1.294
			c0.502-0.414,1.022-0.62,1.562-0.62c0.363,0,0.631,0.086,0.805,0.259c0.175,0.172,0.262,0.417,0.262,0.733
			c0,0.18-0.037,0.418-0.109,0.719c-0.008,0.042-0.047,0.191-0.12,0.45l-0.621,1.863c-0.047,0.104-0.089,0.212-0.13,0.323
			c-0.039,0.112-0.06,0.19-0.06,0.237c0,0.042,0.022,0.076,0.066,0.1c0.044,0.025,0.084,0.038,0.123,0.038
			c0.111,0,0.265-0.128,0.464-0.384c0.106-0.138,0.223-0.31,0.35-0.516l0.257,0.166c-0.289,0.47-0.536,0.809-0.737,1.016
			c-0.353,0.355-0.723,0.533-1.112,0.533c-0.198,0-0.383-0.053-0.555-0.161c-0.173-0.106-0.259-0.283-0.259-0.528
			c0-0.202,0.052-0.488,0.155-0.854c0.065-0.224,0.151-0.482,0.258-0.775l0.483-1.794c0.006-0.036,0.013-0.074,0.02-0.111
			c0.006-0.04,0.01-0.076,0.01-0.111c0-0.098-0.025-0.18-0.072-0.247c-0.058-0.066-0.141-0.1-0.251-0.1
			c-0.306,0-0.649,0.204-1.033,0.614c-0.384,0.409-0.705,0.831-0.962,1.267c-0.096,0.157-0.19,0.348-0.283,0.573
			c-0.094,0.226-0.327,0.927-0.704,2.1h-1.408l1.039-3.848c0.032-0.09,0.056-0.172,0.075-0.245c0.019-0.073,0.029-0.146,0.029-0.213
			c0-0.107-0.023-0.176-0.067-0.205c-0.046-0.028-0.096-0.043-0.149-0.043c-0.17,0-0.396,0.174-0.677,0.525
			c-0.279,0.35-0.547,0.805-0.798,1.363c-0.135,0.298-0.283,0.716-0.443,1.252c-0.106,0.324-0.248,0.796-0.423,1.413H236.356z"/>
	</g>
	<path d="M220.503,29.219c0,0.323,0.046,0.625,0.115,0.877c0.069,0.278,0.229,0.531,0.506,0.739c0.278,0.186,0.715,0.278,1.291,0.3
		c0.253,0,0.528-0.022,0.807-0.068c0.276-0.069,0.552-0.185,0.853-0.301c0.553-0.253,1.037-0.623,1.451-1.107
		c0.392-0.462,0.599-0.948,0.622-1.456c0-0.831-0.207-1.432-0.644-1.755c-0.278-0.208-0.693-0.323-1.246-0.323
		c-0.068,0-0.114,0-0.184,0c-0.208,0-0.438,0.022-0.646,0.069c-0.301,0.069-0.576,0.185-0.853,0.3
		c-0.577,0.277-1.061,0.624-1.452,1.062c-0.392,0.461-0.599,0.946-0.621,1.478C220.503,29.104,220.503,29.15,220.503,29.219
		L220.503,29.219z M223.658,27.441c0.393-0.139,0.761-0.208,1.106-0.208c0.024,0,0.069,0,0.094,0c0.09,0,0.184,0.046,0.298,0.162
		c0.069,0.068,0.14,0.161,0.161,0.253c0,0.255-0.139,0.531-0.392,0.831c-0.206,0.231-0.344,0.393-0.413,0.486
		c-0.071,0.045-0.23,0.184-0.508,0.392c-0.209,0.139-0.368,0.254-0.529,0.323c-0.278,0.162-0.463,0.253-0.532,0.277
		c-0.183,0.069-0.39,0.115-0.598,0.138c-0.207,0.024-0.393,0.047-0.53,0.047c-0.138-0.023-0.253-0.092-0.369-0.185
		c-0.092-0.069-0.139-0.185-0.139-0.277c0-0.022,0-0.045,0-0.069c0-0.208,0.069-0.416,0.185-0.624
		c0.163-0.277,0.416-0.531,0.736-0.762C222.784,27.857,223.244,27.58,223.658,27.441L223.658,27.441z"/>
	
		<path fill="none" stroke="#000000" stroke-width="0.12" stroke-linecap="round" stroke-linejoin="round" stroke-miterlimit="10" d="
		M225.823,28.526V12.363 M225.924,28.526V12.363 M226.024,28.526V12.363 M226.124,28.526V12.363"/>
	<path d="M227.952,28.138c0.208,0.209,0.438,0.324,0.739,0.324c0.299,0,0.552-0.115,0.759-0.324
		c0.208-0.208,0.323-0.461,0.323-0.739c0-0.253-0.115-0.508-0.323-0.761c-0.207-0.208-0.482-0.324-0.759-0.324
		c-0.369,0-0.623,0.092-0.784,0.278c-0.185,0.253-0.278,0.531-0.278,0.807C227.629,27.7,227.746,27.93,227.952,28.138
		L227.952,28.138z"/>
	
		<path fill="none" stroke="#000000" stroke-width="0.12" stroke-linecap="round" stroke-linejoin="round" stroke-miterlimit="10" d="
		M269.195,26.217v18.47 M269.295,26.217v18.47 M269.396,26.217v18.47 M269.498,26.217v18.47 M280.842,23.909v18.371 M280.942,23.909
		v18.371 M281.042,23.909v18.371 M281.142,23.909v18.371 M269.396,42.379l11.646-2.409 M269.396,42.479l11.646-2.41 M269.396,42.58
		l11.646-2.41 M269.396,42.68l11.646-2.409 M269.396,42.78l11.646-2.41 M269.396,42.88l11.646-2.408 M269.396,42.982l11.646-2.41
		 M269.396,43.081l11.646-2.409 M269.396,43.183l11.646-2.41 M269.396,43.283l11.646-2.409 M269.396,43.384l11.646-2.41
		 M269.396,43.483l11.646-2.41 M269.396,43.583l11.646-2.408 M269.396,43.686l11.646-2.41 M269.396,43.784l11.646-2.409
		 M269.396,43.886l11.646-2.411 M269.396,43.984l11.646-2.407 M269.396,44.086l11.646-2.41 M269.396,44.185l11.646-2.41
		 M269.396,44.285l11.646-2.408 M269.396,44.388l11.646-2.411 M269.396,44.486l11.646-2.409 M269.396,44.588l11.646-2.41"/>
	<path d="M272.968,23.954c-0.369,0-0.736,0.07-1.104,0.208c-0.576,0.208-0.946,0.393-1.177,0.579
		c-0.829,0.599-1.267,1.27-1.313,2.031c0,0.602,0.184,1.063,0.531,1.363c0.345,0.324,0.807,0.485,1.335,0.508
		c0.461,0,0.899-0.068,1.314-0.185c0.414-0.117,0.784-0.324,1.151-0.601c0.854-0.601,1.291-1.316,1.313-2.102
		c0-0.578-0.161-1.015-0.506-1.293c-0.393-0.347-0.877-0.509-1.453-0.509C273.015,23.954,272.991,23.954,272.968,23.954
		L272.968,23.954z"/>
	<path d="M284.615,21.645c-0.37,0-0.737,0.07-1.107,0.208c-0.576,0.208-0.943,0.393-1.175,0.578c-0.829,0.6-1.268,1.271-1.312,2.032
		c0,0.601,0.184,1.062,0.529,1.362c0.346,0.324,0.806,0.486,1.337,0.509c0.46,0,0.897-0.069,1.313-0.185
		c0.415-0.116,0.783-0.324,1.151-0.6c0.854-0.601,1.289-1.317,1.314-2.103c0-0.577-0.162-1.016-0.508-1.293
		c-0.391-0.346-0.876-0.508-1.451-0.508C284.66,21.645,284.636,21.645,284.615,21.645L284.615,21.645z"/>
	
		<path fill="none" stroke="#000000" stroke-width="0.12" stroke-linecap="round" stroke-linejoin="round" stroke-miterlimit="10" d="
		M311.463,22.804c0.102,0,0.102,0,0.102-0.1c0-2.51-5.622-4.418-12.449-4.418c-6.828,0-12.35,1.908-12.35,4.418c0,0.1,0,0.1,0,0.1
		 M311.463,22.804c0.102,0,0.102,0,0.102-0.1c0-2.51-5.622-4.519-12.449-4.519c-6.828,0-12.35,2.009-12.35,4.519c0,0.1,0,0.1,0,0.1
		 M311.463,22.804c0.102,0,0.102,0,0.102-0.1c0-2.611-5.622-4.618-12.449-4.618c-6.828,0-12.35,2.007-12.35,4.618c0,0.1,0,0.1,0,0.1
		 M311.463,22.804c0.102,0,0.102,0,0.102-0.1c0-2.611-5.622-4.719-12.449-4.719c-6.828,0-12.35,2.108-12.35,4.719c0,0.1,0,0.1,0,0.1
		 M311.564,22.804c0,0,0,0,0-0.1c0-2.71-5.622-4.818-12.449-4.818c-6.828,0-12.35,2.108-12.35,4.818c0,0.1,0,0.1,0,0.1
		 M311.564,22.804c0,0,0,0,0-0.1c0-2.71-5.622-4.92-12.449-4.92c-6.828,0-12.35,2.209-12.35,4.92c0,0.1,0,0.1,0,0.1 M311.564,22.804
		c0,0,0,0,0-0.1c0-2.812-5.622-5.02-12.449-5.02c-6.828,0-12.35,2.208-12.35,5.02c0,0.1,0,0.1,0,0.1 M311.564,22.804c0,0,0,0,0-0.1
		c0-2.812-5.622-5.121-12.449-5.121c-6.828,0-12.35,2.31-12.35,5.121c0,0.1,0,0.1,0,0.1 M302.729,16.981v18.474 M302.829,16.981
		v18.474 M302.929,16.981v18.474 M303.03,16.981v18.474"/>
	<g>
		<path d="M311.397,9.146c0.278-0.034,0.485-0.103,0.618-0.206c0.132-0.104,0.243-0.315,0.33-0.637l1.44-5.268
			c0.041-0.149,0.073-0.274,0.094-0.375c0.021-0.102,0.03-0.19,0.03-0.267c0-0.199-0.055-0.324-0.165-0.375
			c-0.11-0.052-0.341-0.093-0.692-0.124V1.592h3.714v0.304c-0.407,0.042-0.684,0.106-0.824,0.192s-0.259,0.303-0.354,0.651
			l-1.526,5.604c-0.015,0.062-0.026,0.119-0.036,0.173c-0.01,0.054-0.016,0.118-0.016,0.191c0,0.131,0.058,0.225,0.172,0.28
			c0.115,0.055,0.276,0.083,0.482,0.083c0.805,0,1.501-0.138,2.087-0.413c0.588-0.276,1.104-0.79,1.551-1.543l0.28,0.052
			l-0.687,2.282h-6.498V9.146z"/>
		<path d="M318.169,9.169c0.218-0.066,0.378-0.136,0.48-0.213c0.153-0.111,0.323-0.317,0.51-0.619l4.35-6.906h0.304l1.122,6.716
			c0.078,0.451,0.169,0.728,0.276,0.83c0.105,0.101,0.341,0.166,0.703,0.192v0.28h-3.555v-0.28c0.336-0.026,0.573-0.082,0.713-0.164
			c0.14-0.082,0.209-0.253,0.209-0.513c0-0.088-0.021-0.299-0.062-0.631c-0.008-0.069-0.047-0.355-0.114-0.855h-2.529L319.891,8.2
			c-0.046,0.08-0.087,0.168-0.123,0.263c-0.037,0.097-0.054,0.188-0.054,0.276c0,0.161,0.049,0.263,0.146,0.31
			c0.099,0.046,0.301,0.086,0.61,0.121v0.28h-2.302V9.169z M323.02,6.542l-0.432-2.861l-1.733,2.861H323.02z"/>
	</g>
	<g>
		<path d="M326.817,9.45l1.025-3.758c0.062-0.221,0.103-0.375,0.121-0.465c0.019-0.089,0.028-0.175,0.028-0.259
			c0-0.125-0.039-0.203-0.118-0.233c-0.078-0.031-0.251-0.053-0.519-0.068V4.356c0.493-0.03,0.915-0.07,1.262-0.12
			c0.223-0.031,0.591-0.096,1.104-0.196l-0.707,2.174l0.041,0.029c0.511-0.776,0.896-1.296,1.156-1.561
			c0.424-0.429,0.87-0.643,1.34-0.643c0.216,0,0.397,0.069,0.544,0.204c0.145,0.136,0.218,0.323,0.218,0.561
			c0,0.18-0.035,0.393-0.104,0.638c-0.037,0.137-0.088,0.307-0.153,0.511c0.488-0.614,0.886-1.046,1.187-1.294
			c0.503-0.414,1.024-0.62,1.562-0.62c0.364,0,0.632,0.086,0.806,0.259c0.173,0.172,0.262,0.417,0.262,0.733
			c0,0.18-0.037,0.418-0.108,0.719c-0.009,0.042-0.05,0.191-0.121,0.45l-0.623,1.863c-0.044,0.104-0.088,0.212-0.128,0.323
			c-0.04,0.112-0.06,0.19-0.06,0.237c0,0.042,0.022,0.076,0.065,0.1c0.044,0.025,0.085,0.038,0.122,0.038
			c0.112,0,0.267-0.128,0.467-0.384c0.105-0.138,0.222-0.31,0.349-0.516l0.257,0.166c-0.289,0.47-0.536,0.809-0.737,1.016
			c-0.354,0.355-0.723,0.533-1.112,0.533c-0.199,0-0.383-0.053-0.555-0.161c-0.174-0.106-0.259-0.283-0.259-0.528
			c0-0.202,0.051-0.488,0.154-0.854c0.065-0.224,0.152-0.482,0.258-0.775l0.483-1.794c0.008-0.036,0.014-0.074,0.02-0.111
			c0.006-0.04,0.009-0.076,0.009-0.111c0-0.098-0.024-0.18-0.072-0.247c-0.058-0.066-0.14-0.1-0.249-0.1
			c-0.306,0-0.65,0.204-1.034,0.614c-0.384,0.409-0.704,0.831-0.961,1.267c-0.097,0.157-0.19,0.348-0.285,0.573
			c-0.091,0.226-0.326,0.927-0.702,2.1h-1.409l1.04-3.848c0.03-0.09,0.055-0.172,0.074-0.245s0.028-0.146,0.028-0.213
			c0-0.107-0.021-0.176-0.066-0.205c-0.044-0.028-0.096-0.043-0.148-0.043c-0.17,0-0.396,0.174-0.676,0.525
			c-0.282,0.35-0.549,0.805-0.8,1.363c-0.136,0.298-0.282,0.716-0.443,1.252c-0.105,0.324-0.246,0.796-0.423,1.413H326.817z"/>
	</g>
	
		<path fill="none" stroke="#000000" stroke-width="0.12" stroke-linecap="round" stroke-linejoin="round" stroke-miterlimit="10" d="
		M311.463,23.909v23.087 M311.564,23.909v23.087 M311.665,23.909v23.087 M311.764,23.909v23.087 M322.909,26.217v20.779
		 M323.01,26.217v20.779 M323.11,26.217v20.779 M323.211,26.217v20.779 M311.665,44.688h11.445 M311.665,44.789h11.445
		 M311.665,44.888h11.445 M311.665,44.99h11.445 M311.665,45.09h11.445 M311.665,45.189h11.445 M311.665,45.29h11.445
		 M311.665,45.391h11.445 M311.665,45.492h11.445 M311.665,45.591h11.445 M311.665,45.693h11.445 M311.665,45.793h11.445
		 M311.665,45.894h11.445 M311.665,45.993h11.445 M311.665,46.094h11.445 M311.665,46.194h11.445 M311.665,46.294h11.445
		 M311.665,46.396h11.445 M311.665,46.495h11.445 M311.665,46.595h11.445 M311.665,46.695h11.445 M311.665,46.796h11.445
		 M311.665,46.896h11.445 M338.972,23.909v23.087 M339.073,23.909v23.087 M339.173,23.909v23.087 M339.274,23.909v23.087
		 M323.11,44.688h16.062 M323.11,44.789h16.062 M323.11,44.888h16.062 M323.11,44.99h16.062 M323.11,45.09h16.062 M323.11,45.189
		h16.062 M323.11,45.29h16.062 M323.11,45.391h16.062 M323.11,45.492h16.062 M323.11,45.591h16.062 M323.11,45.693h16.062
		 M323.11,45.793h16.062 M323.11,45.894h16.062 M323.11,45.993h16.062 M323.11,46.094h16.062 M323.11,46.194h16.062 M323.11,46.294
		h16.062 M323.11,46.396h16.062 M323.11,46.495h16.062 M323.11,46.595h16.062 M323.11,46.695h16.062 M323.11,46.796h16.062
		 M323.11,46.896h16.062 M353.23,28.526v18.47 M353.331,28.526v18.47 M353.431,28.526v18.47 M353.531,28.526v18.47 M339.173,44.688
		h14.259 M339.173,44.789h14.259 M339.173,44.888h14.259 M339.173,44.99h14.259 M339.173,45.09h14.259 M339.173,45.189h14.259
		 M339.173,45.29h14.259 M339.173,45.391h14.259 M339.173,45.492h14.259 M339.173,45.591h14.259 M339.173,45.693h14.259
		 M339.173,45.793h14.259 M339.173,45.894h14.259 M339.173,45.993h14.259 M339.173,46.094h14.259 M339.173,46.194h14.259
		 M339.173,46.294h14.259 M339.173,46.396h14.259 M339.173,46.495h14.259 M339.173,46.595h14.259 M339.173,46.695h14.259
		 M339.173,46.796h14.259 M339.173,46.896h14.259"/>
	<path d="M315.236,21.645c-0.367,0-0.737,0.07-1.106,0.208c-0.576,0.208-0.944,0.393-1.176,0.578
		c-0.829,0.6-1.266,1.271-1.312,2.032c0,0.601,0.185,1.062,0.53,1.362c0.345,0.324,0.806,0.486,1.337,0.509
		c0.461,0,0.897-0.069,1.312-0.185c0.415-0.116,0.783-0.324,1.152-0.6c0.853-0.601,1.29-1.317,1.313-2.103
		c0-0.577-0.162-1.016-0.507-1.293c-0.392-0.346-0.877-0.508-1.452-0.508C315.282,21.645,315.259,21.645,315.236,21.645
		L315.236,21.645z"/>
	<path d="M326.68,23.954c-0.367,0-0.736,0.07-1.105,0.208c-0.576,0.208-0.945,0.393-1.175,0.579c-0.83,0.599-1.268,1.27-1.312,2.031
		c0,0.602,0.184,1.063,0.529,1.363c0.345,0.324,0.806,0.485,1.336,0.508c0.462,0,0.899-0.068,1.314-0.185
		c0.413-0.117,0.783-0.324,1.152-0.601c0.853-0.601,1.289-1.316,1.312-2.102c0-0.578-0.16-1.015-0.507-1.293
		c-0.39-0.347-0.874-0.509-1.45-0.509C326.727,23.954,326.706,23.954,326.68,23.954L326.68,23.954z"/>
	<path d="M342.746,21.645c-0.369,0-0.737,0.07-1.107,0.208c-0.576,0.208-0.943,0.393-1.175,0.578
		c-0.828,0.6-1.267,1.271-1.312,2.032c0,0.601,0.184,1.062,0.528,1.362c0.347,0.324,0.808,0.486,1.339,0.509
		c0.459,0,0.898-0.069,1.312-0.185c0.416-0.116,0.784-0.324,1.153-0.6c0.853-0.601,1.29-1.317,1.313-2.103
		c0-0.577-0.162-1.016-0.507-1.293c-0.392-0.346-0.876-0.508-1.452-0.508C342.792,21.645,342.768,21.645,342.746,21.645
		L342.746,21.645z"/>
	<path d="M357.002,26.264c-0.368,0-0.737,0.07-1.105,0.208c-0.576,0.208-0.945,0.393-1.175,0.578c-0.83,0.6-1.269,1.27-1.315,2.032
		c0,0.601,0.186,1.062,0.532,1.362c0.345,0.323,0.806,0.485,1.335,0.508c0.462,0,0.899-0.069,1.313-0.185
		c0.415-0.114,0.784-0.323,1.153-0.599c0.853-0.602,1.29-1.317,1.312-2.102c0-0.579-0.159-1.017-0.506-1.294
		c-0.393-0.347-0.875-0.508-1.451-0.508C357.048,26.264,357.025,26.264,357.002,26.264L357.002,26.264z"/>
	
		<path fill="none" stroke="#000000" stroke-width="0.12" stroke-linecap="round" stroke-linejoin="round" stroke-miterlimit="10" d="
		M369.594,27.422c0,0,0,0,0-0.1c0-2.51-2.409-4.417-5.22-4.417c-2.911,0-5.221,1.907-5.221,4.417c0,0.1,0,0.1,0,0.1 M369.594,27.422
		c0,0,0,0,0-0.1c0-2.51-2.409-4.518-5.22-4.518c-2.911,0-5.221,2.008-5.221,4.518c0,0.1,0,0.1,0,0.1 M369.594,27.422c0,0,0,0,0-0.1
		c0-2.61-2.409-4.618-5.22-4.618c-2.911,0-5.221,2.008-5.221,4.618c0,0.1,0,0.1,0,0.1 M369.594,27.422c0,0,0,0,0-0.1
		c0-2.61-2.409-4.719-5.22-4.719c-2.911,0-5.221,2.109-5.221,4.719c0,0.1,0,0.1,0,0.1 M369.594,27.422c0,0,0,0,0-0.1
		c0-2.711-2.409-4.819-5.22-4.819c-2.911,0-5.221,2.108-5.221,4.819c0,0.1,0,0.1,0,0.1 M369.594,27.422c0,0,0,0,0-0.1
		c0-2.711-2.409-4.919-5.22-4.919c-2.911,0-5.221,2.208-5.221,4.919c0,0.1,0,0.1,0,0.1 M369.594,27.422c0,0,0,0,0-0.1
		c0-2.811-2.409-5.02-5.22-5.02c-2.911,0-5.221,2.209-5.221,5.02c0,0.1,0,0.1,0,0.1 M369.594,27.422c0,0,0,0,0-0.1
		c0-2.811-2.409-5.121-5.22-5.121c-2.911,0-5.221,2.311-5.221,5.121c0,0.1,0,0.1,0,0.1"/>
	<g>
		<path d="M369.455,9.146c0.282-0.034,0.491-0.104,0.624-0.212c0.134-0.106,0.243-0.317,0.326-0.63l1.438-5.268
			c0.026-0.106,0.051-0.2,0.069-0.28c0.035-0.164,0.051-0.292,0.051-0.384c0-0.187-0.053-0.306-0.16-0.355
			c-0.107-0.049-0.338-0.089-0.692-0.12V1.592h6.234l-0.499,2.232l-0.314-0.053c-0.008-0.562-0.098-0.96-0.27-1.198
			c-0.3-0.409-0.894-0.614-1.787-0.614c-0.264,0-0.443,0.035-0.542,0.104c-0.097,0.069-0.175,0.211-0.231,0.43l-0.694,2.604
			c0.782-0.022,1.291-0.092,1.527-0.207c0.236-0.115,0.499-0.458,0.789-1.032l0.327,0.039L374.78,7.11l-0.32-0.057
			c0.014-0.115,0.026-0.214,0.031-0.299c0.006-0.083,0.01-0.148,0.01-0.194c0-0.386-0.103-0.663-0.306-0.831
			c-0.203-0.169-0.638-0.253-1.302-0.253l-0.772,2.869c-0.013,0.049-0.021,0.096-0.028,0.137c-0.008,0.043-0.012,0.084-0.012,0.126
			c0,0.229,0.097,0.384,0.291,0.464c0.119,0.05,0.303,0.075,0.55,0.075V9.45h-3.467V9.146z"/>
		<path d="M376.904,9.169c0.217-0.066,0.379-0.136,0.48-0.213c0.153-0.111,0.323-0.317,0.509-0.619l4.351-6.906h0.305l1.121,6.716
			c0.077,0.451,0.17,0.728,0.275,0.83c0.107,0.101,0.342,0.166,0.704,0.192v0.28h-3.556v-0.28c0.336-0.026,0.574-0.082,0.713-0.164
			c0.139-0.082,0.21-0.253,0.21-0.513c0-0.088-0.021-0.299-0.062-0.631c-0.009-0.069-0.047-0.355-0.114-0.855h-2.528L378.627,8.2
			c-0.045,0.08-0.086,0.168-0.123,0.263c-0.036,0.097-0.055,0.188-0.055,0.276c0,0.161,0.049,0.263,0.147,0.31
			c0.097,0.046,0.301,0.086,0.608,0.121v0.28h-2.301V9.169z M381.757,6.542l-0.432-2.861l-1.734,2.861H381.757z"/>
	</g>
	<path d="M369.694,29.219c0,0.323,0.048,0.625,0.117,0.877c0.069,0.278,0.229,0.531,0.507,0.739c0.275,0.186,0.715,0.278,1.29,0.3
		c0.253,0,0.529-0.022,0.806-0.068c0.277-0.069,0.553-0.185,0.854-0.301c0.552-0.253,1.037-0.623,1.45-1.107
		c0.393-0.462,0.6-0.948,0.623-1.456c0-0.831-0.206-1.432-0.646-1.755c-0.275-0.208-0.691-0.323-1.244-0.323
		c-0.068,0-0.114,0-0.184,0c-0.208,0-0.438,0.022-0.646,0.069c-0.301,0.069-0.576,0.185-0.854,0.3
		c-0.576,0.277-1.059,0.624-1.45,1.062c-0.394,0.461-0.601,0.946-0.624,1.478C369.694,29.104,369.694,29.15,369.694,29.219
		L369.694,29.219z M372.852,27.441c0.392-0.139,0.76-0.208,1.106-0.208c0.023,0,0.068,0,0.093,0c0.09,0,0.184,0.046,0.298,0.162
		c0.07,0.068,0.14,0.161,0.161,0.253c0,0.255-0.139,0.531-0.392,0.831c-0.206,0.231-0.345,0.393-0.414,0.486
		c-0.069,0.045-0.231,0.184-0.507,0.392c-0.208,0.139-0.368,0.254-0.53,0.323c-0.277,0.162-0.461,0.253-0.53,0.277
		c-0.184,0.069-0.393,0.115-0.599,0.138c-0.208,0.024-0.393,0.047-0.53,0.047c-0.139-0.023-0.253-0.092-0.369-0.185
		c-0.092-0.069-0.139-0.185-0.139-0.277c0-0.022,0-0.045,0-0.069c0-0.208,0.069-0.416,0.185-0.624
		c0.161-0.277,0.417-0.531,0.737-0.762C371.975,27.857,372.437,27.58,372.852,27.441L372.852,27.441z"/>
	
		<path fill="none" stroke="#000000" stroke-width="0.12" stroke-linecap="round" stroke-linejoin="round" stroke-miterlimit="10" d="
		M375.016,28.526V12.363 M375.117,28.526V12.363 M375.218,28.526V12.363 M375.317,28.526V12.363 M404.031,16.981v18.474
		 M404.133,16.981v18.474 M404.233,16.981v18.474 M404.334,16.981v18.474 M405.236,16.981v18.474 M405.337,16.981v18.474
		 M405.438,16.981v18.474 M405.537,16.981v18.474 M405.638,16.981v18.474 M405.738,16.981v18.474 M405.839,16.981v18.474
		 M405.938,16.981v18.474 M406.04,16.981v18.474 M406.141,16.981v18.474 M406.241,16.981v18.474 M406.342,16.981v18.474
		 M406.441,16.981v18.474 M406.542,16.981v18.474 M406.641,16.981v18.474 M406.743,16.981v18.474 M406.844,16.981v18.474
		 M406.944,16.981v18.474 M407.044,16.981v18.474 M407.143,16.981v18.474 M407.244,16.981v18.474 M407.344,16.981v18.474
		 M407.445,16.981v18.474 M407.546,16.981v18.474 M407.646,16.981v18.474 M407.746,16.981v18.474 M407.846,16.981v18.474
		 M407.947,16.981v18.474 M408.047,16.981v18.474 M408.147,16.981v18.474"/>
</g>
</svg>
