<?xml version="1.0" encoding="utf-8"?>
<!-- Generator: Adobe Illustrator 16.0.0, SVG Export Plug-In . SVG Version: 6.00 Build 0)  -->
<!DOCTYPE svg PUBLIC "-//W3C//DTD SVG 1.1//EN" "http://www.w3.org/Graphics/SVG/1.1/DTD/svg11.dtd">
<svg version="1.1" id="Layer_1" xmlns="http://www.w3.org/2000/svg" xmlns:xlink="http://www.w3.org/1999/xlink" x="0px" y="0px"
	 width="436.536px" height="73.701px" viewBox="0 0 436.536 73.701" enable-background="new 0 0 436.536 73.701"
	 xml:space="preserve">
<g>
	
		<path fill="none" stroke="#000000" stroke-width="0.12" stroke-linecap="round" stroke-linejoin="round" stroke-miterlimit="10" d="
		M0.765,20.081h435 M0.765,20.201h435 M0.765,20.32h435 M0.765,20.441h435 M0.765,25.121h435 M0.765,25.24h435 M0.765,25.361h435
		 M0.765,25.48h435 M0.765,30.161h435 M0.765,30.281h435 M0.765,30.4h435 M0.765,30.521h435 M0.765,35.201h435 M0.765,35.32h435
		 M0.765,35.441h435 M0.765,35.561h435 M0.765,40.241h435 M0.765,40.362h435 M0.765,40.481h435 M0.765,40.602h435"/>
	<g>
		<path d="M52.804,67.031c0.461-0.043,0.748-0.134,0.862-0.273s0.171-0.458,0.171-0.958v-5.248c0-0.422-0.064-0.701-0.192-0.835
			s-0.409-0.219-0.842-0.255v-0.225h3.19c1.023,0,1.807,0.199,2.351,0.598s0.815,0.924,0.815,1.574c0,0.824-0.301,1.422-0.904,1.793
			s-1.357,0.557-2.262,0.557c-0.13,0-0.296-0.003-0.5-0.009c-0.203-0.006-0.354-0.009-0.452-0.009v2.201
			c0,0.455,0.07,0.742,0.209,0.859c0.14,0.117,0.452,0.194,0.937,0.229v0.226h-3.385V67.031z M56.886,59.912
			c-0.342-0.149-0.776-0.225-1.299-0.225c-0.248,0-0.401,0.024-0.458,0.073c-0.057,0.05-0.085,0.159-0.085,0.329v3.16
			c0.216,0.02,0.358,0.032,0.425,0.035c0.067,0.005,0.132,0.007,0.195,0.007c0.555,0,0.993-0.08,1.312-0.237
			c0.579-0.288,0.868-0.827,0.868-1.616C57.843,60.697,57.524,60.188,56.886,59.912z"/>
		<path d="M59.378,67.061c0.362-0.032,0.603-0.096,0.721-0.193c0.118-0.096,0.177-0.303,0.177-0.617v-2.67
			c0-0.391-0.037-0.67-0.109-0.838c-0.073-0.167-0.206-0.251-0.399-0.251c-0.039,0-0.091,0.005-0.156,0.015
			s-0.133,0.023-0.204,0.039V62.35c0.224-0.079,0.454-0.16,0.689-0.242c0.236-0.084,0.398-0.143,0.489-0.178
			c0.196-0.075,0.398-0.16,0.606-0.255c0.027,0,0.044,0.01,0.05,0.029c0.006,0.021,0.009,0.062,0.009,0.124v0.971
			c0.252-0.351,0.496-0.625,0.731-0.822c0.235-0.197,0.479-0.296,0.731-0.296c0.201,0,0.365,0.06,0.492,0.181
			c0.126,0.12,0.189,0.271,0.189,0.453c0,0.161-0.048,0.297-0.145,0.408c-0.097,0.109-0.218,0.165-0.363,0.165
			c-0.15,0-0.301-0.069-0.452-0.207s-0.271-0.207-0.357-0.207c-0.138,0-0.307,0.111-0.508,0.335
			c-0.201,0.223-0.301,0.452-0.301,0.689v2.668c0,0.34,0.079,0.576,0.236,0.707c0.157,0.133,0.419,0.195,0.786,0.188v0.195h-2.912
			V67.061z"/>
	</g>
	<g>
		<path d="M64.468,62.518c0.498-0.542,1.139-0.813,1.923-0.813c0.78,0,1.425,0.257,1.938,0.77c0.512,0.513,0.768,1.195,0.768,2.048
			c0,0.785-0.248,1.467-0.744,2.047s-1.138,0.871-1.925,0.871c-0.756,0-1.396-0.279-1.92-0.835
			c-0.524-0.556-0.786-1.255-0.786-2.095C63.721,63.725,63.97,63.061,64.468,62.518z M65.412,62.368
			c-0.395,0.359-0.592,0.979-0.592,1.858c0,0.702,0.159,1.356,0.477,1.964c0.317,0.608,0.758,0.912,1.322,0.912
			c0.442,0,0.782-0.203,1.021-0.609s0.358-0.939,0.358-1.598c0-0.684-0.152-1.326-0.456-1.93s-0.744-0.905-1.32-0.905
			C65.911,62.06,65.641,62.163,65.412,62.368z"/>
		<path d="M83.658,61.799v0.426h-1.205l-0.012,3.409c0,0.3,0.025,0.526,0.077,0.681c0.094,0.271,0.279,0.408,0.555,0.408
			c0.142,0,0.265-0.033,0.369-0.101s0.224-0.173,0.357-0.319l0.153,0.13l-0.13,0.178c-0.205,0.276-0.421,0.472-0.649,0.586
			c-0.229,0.114-0.449,0.171-0.662,0.171c-0.465,0-0.78-0.207-0.945-0.621c-0.09-0.225-0.136-0.536-0.136-0.935v-3.587h-0.644
			c-0.02-0.012-0.034-0.023-0.044-0.035c-0.01-0.012-0.015-0.027-0.015-0.047c0-0.039,0.009-0.07,0.027-0.092
			s0.074-0.072,0.168-0.151c0.271-0.225,0.467-0.407,0.587-0.548c0.12-0.139,0.403-0.51,0.848-1.109
			c0.051,0,0.082,0.004,0.092,0.012s0.015,0.038,0.015,0.09v1.455H83.658z"/>
	</g>
	<g>
		<path d="M88.167,62.282c0.417,0.385,0.626,0.93,0.626,1.637h-3.751c0.04,0.913,0.246,1.578,0.62,1.996
			c0.374,0.416,0.817,0.625,1.329,0.625c0.414,0,0.762-0.107,1.045-0.324c0.284-0.217,0.545-0.523,0.786-0.922l0.207,0.071
			c-0.162,0.502-0.464,0.966-0.907,1.394c-0.443,0.426-0.986,0.64-1.627,0.64c-0.74,0-1.312-0.28-1.716-0.841
			c-0.404-0.56-0.605-1.205-0.605-1.935c0-0.793,0.234-1.478,0.703-2.054c0.469-0.576,1.079-0.864,1.832-0.864
			C87.263,61.705,87.75,61.897,88.167,62.282z M85.337,62.735c-0.126,0.213-0.217,0.48-0.271,0.805h2.493
			c-0.043-0.395-0.118-0.688-0.225-0.882c-0.193-0.347-0.516-0.521-0.969-0.521C85.917,62.137,85.574,62.336,85.337,62.735z"/>
		<path d="M90.45,64.634c-0.199-0.304-0.298-0.646-0.298-1.024c0-0.461,0.184-0.898,0.55-1.313c0.366-0.414,0.884-0.621,1.553-0.621
			c0.288,0,0.604,0.067,0.951,0.204c0.346,0.137,0.679,0.204,0.998,0.204c0.083,0,0.208-0.003,0.375-0.009s0.289-0.009,0.363-0.009
			h0.071v0.479h-1.021c0.071,0.166,0.126,0.31,0.165,0.432c0.067,0.229,0.101,0.445,0.101,0.65c0,0.451-0.186,0.863-0.558,1.24
			s-0.874,0.565-1.503,0.565c-0.099,0-0.276-0.018-0.532-0.054c-0.114,0-0.266,0.098-0.455,0.291s-0.284,0.351-0.284,0.473
			c0,0.127,0.138,0.219,0.414,0.278c0.182,0.04,0.383,0.06,0.604,0.06c1.014,0,1.702,0.057,2.064,0.172
			c0.596,0.186,0.894,0.584,0.894,1.195c0,0.623-0.348,1.12-1.043,1.49c-0.695,0.371-1.397,0.557-2.105,0.557
			c-0.646,0-1.158-0.131-1.536-0.393c-0.378-0.264-0.567-0.538-0.567-0.826c0-0.143,0.05-0.281,0.15-0.418
			c0.1-0.135,0.297-0.338,0.591-0.605l0.389-0.35l0.07-0.07c-0.18-0.072-0.314-0.141-0.404-0.208
			c-0.156-0.122-0.235-0.263-0.235-0.42c0-0.146,0.068-0.307,0.204-0.482c0.136-0.175,0.426-0.46,0.871-0.854
			C90.928,65.149,90.649,64.938,90.45,64.634z M91.077,69.038c0.372,0.126,0.798,0.189,1.279,0.189c0.653,0,1.185-0.113,1.595-0.341
			s0.614-0.506,0.614-0.837c0-0.265-0.166-0.44-0.497-0.527c-0.206-0.051-0.594-0.08-1.166-0.088c-0.146-0.005-0.3-0.01-0.462-0.016
			c-0.162-0.006-0.31-0.013-0.444-0.021c-0.087-0.004-0.227-0.021-0.42-0.048s-0.337-0.051-0.432-0.07
			c-0.047,0-0.163,0.124-0.345,0.373c-0.187,0.252-0.28,0.484-0.28,0.697C90.519,68.682,90.705,68.911,91.077,69.038z
			 M92.952,64.971c0.236-0.189,0.354-0.519,0.354-0.988c0-0.375-0.095-0.797-0.286-1.266c-0.191-0.47-0.509-0.705-0.954-0.705
			c-0.386,0-0.652,0.184-0.797,0.551c-0.075,0.193-0.112,0.432-0.112,0.716c0,0.481,0.116,0.913,0.349,1.296
			c0.232,0.383,0.533,0.574,0.904,0.574C92.625,65.149,92.806,65.09,92.952,64.971z"/>
	</g>
	<g>
		<path d="M73.488,64.143h2.989v0.758h-2.989V64.143z"/>
		<path d="M109.18,64.634c-0.199-0.304-0.298-0.646-0.298-1.024c0-0.461,0.184-0.898,0.55-1.313
			c0.366-0.414,0.884-0.621,1.553-0.621c0.288,0,0.604,0.067,0.951,0.204c0.346,0.137,0.679,0.204,0.998,0.204
			c0.083,0,0.208-0.003,0.375-0.009s0.289-0.009,0.363-0.009h0.071v0.479h-1.021c0.071,0.166,0.126,0.31,0.165,0.432
			c0.067,0.229,0.101,0.445,0.101,0.65c0,0.451-0.186,0.863-0.558,1.24s-0.874,0.565-1.503,0.565c-0.099,0-0.276-0.018-0.532-0.054
			c-0.114,0-0.266,0.098-0.455,0.291s-0.284,0.351-0.284,0.473c0,0.127,0.138,0.219,0.414,0.278c0.182,0.04,0.383,0.06,0.604,0.06
			c1.014,0,1.702,0.057,2.064,0.172c0.596,0.186,0.894,0.584,0.894,1.195c0,0.623-0.348,1.12-1.043,1.49
			c-0.695,0.371-1.397,0.557-2.105,0.557c-0.646,0-1.158-0.131-1.536-0.393c-0.378-0.264-0.567-0.538-0.567-0.826
			c0-0.143,0.05-0.281,0.15-0.418c0.1-0.135,0.297-0.338,0.591-0.605l0.389-0.35l0.07-0.07c-0.18-0.072-0.314-0.141-0.404-0.208
			c-0.156-0.122-0.235-0.263-0.235-0.42c0-0.146,0.068-0.307,0.204-0.482c0.136-0.175,0.426-0.46,0.871-0.854
			C109.658,65.149,109.379,64.938,109.18,64.634z M109.807,69.038c0.372,0.126,0.798,0.189,1.279,0.189
			c0.653,0,1.185-0.113,1.595-0.341s0.614-0.506,0.614-0.837c0-0.265-0.166-0.44-0.497-0.527c-0.206-0.051-0.594-0.08-1.166-0.088
			c-0.146-0.005-0.3-0.01-0.462-0.016c-0.162-0.006-0.31-0.013-0.444-0.021c-0.087-0.004-0.227-0.021-0.42-0.048
			s-0.337-0.051-0.432-0.07c-0.047,0-0.163,0.124-0.345,0.373c-0.187,0.252-0.28,0.484-0.28,0.697
			C109.249,68.682,109.435,68.911,109.807,69.038z M111.682,64.971c0.236-0.189,0.354-0.519,0.354-0.988
			c0-0.375-0.095-0.797-0.286-1.266c-0.191-0.47-0.509-0.705-0.954-0.705c-0.386,0-0.652,0.184-0.797,0.551
			c-0.075,0.193-0.112,0.432-0.112,0.716c0,0.481,0.116,0.913,0.349,1.296c0.232,0.383,0.533,0.574,0.904,0.574
			C111.355,65.149,111.536,65.09,111.682,64.971z"/>
	</g>
	<g>
		<path d="M114.408,67.09c0.421-0.039,0.687-0.111,0.797-0.217c0.11-0.104,0.166-0.387,0.166-0.849v-2.823
			c0-0.256-0.018-0.434-0.053-0.532c-0.059-0.161-0.183-0.243-0.372-0.243c-0.043,0-0.086,0.004-0.127,0.012
			c-0.042,0.009-0.161,0.04-0.357,0.096V62.35l0.254-0.083c0.689-0.226,1.169-0.395,1.441-0.509c0.11-0.047,0.181-0.071,0.212-0.071
			c0.008,0.028,0.012,0.058,0.012,0.089v4.249c0,0.45,0.054,0.731,0.163,0.847c0.108,0.114,0.354,0.188,0.735,0.219v0.166h-2.871
			V67.09z M115.347,59.176c0.118-0.121,0.264-0.182,0.438-0.182c0.169,0,0.314,0.06,0.434,0.18c0.12,0.119,0.18,0.266,0.18,0.438
			c0,0.169-0.06,0.313-0.18,0.433c-0.12,0.12-0.265,0.18-0.434,0.18c-0.173,0-0.319-0.06-0.438-0.18
			c-0.118-0.119-0.177-0.264-0.177-0.433S115.229,59.299,115.347,59.176z"/>
	</g>
	<g>
		<path d="M100.129,64.143h2.989v0.758h-2.989V64.143z"/>
		<path d="M123.973,67.102c0.307-0.027,0.512-0.079,0.614-0.154c0.158-0.113,0.236-0.343,0.236-0.686v-3.061
			c0-0.291-0.038-0.482-0.115-0.574c-0.077-0.09-0.204-0.136-0.381-0.136c-0.083,0-0.145,0.005-0.186,0.013s-0.09,0.021-0.145,0.041
			v-0.207l0.425-0.143c0.153-0.051,0.405-0.144,0.756-0.277c0.351-0.135,0.536-0.201,0.555-0.201s0.032,0.01,0.036,0.029
			s0.006,0.057,0.006,0.112v0.799c0.39-0.354,0.727-0.601,1.01-0.737c0.284-0.136,0.575-0.203,0.875-0.203
			c0.405,0,0.729,0.138,0.969,0.414c0.126,0.149,0.23,0.353,0.313,0.609c0.292-0.297,0.545-0.516,0.762-0.657
			c0.374-0.245,0.756-0.366,1.146-0.366c0.634,0,1.058,0.258,1.27,0.774c0.122,0.292,0.183,0.754,0.183,1.385v2.456
			c0,0.28,0.062,0.471,0.186,0.571s0.348,0.167,0.67,0.198v0.154h-2.664V67.09c0.343-0.031,0.568-0.101,0.677-0.207
			c0.108-0.107,0.162-0.324,0.162-0.651v-2.55c0-0.383-0.041-0.666-0.124-0.848c-0.146-0.322-0.431-0.484-0.856-0.484
			c-0.256,0-0.51,0.084-0.762,0.254c-0.146,0.1-0.325,0.257-0.538,0.474v3.03c0,0.319,0.056,0.562,0.168,0.728
			c0.112,0.166,0.35,0.255,0.712,0.267v0.154h-2.711v-0.154c0.374-0.047,0.612-0.139,0.714-0.272
			c0.103-0.134,0.154-0.466,0.154-0.994v-1.653c0-0.606-0.04-1.023-0.118-1.252c-0.13-0.387-0.406-0.58-0.827-0.58
			c-0.24,0-0.477,0.066-0.708,0.198c-0.232,0.132-0.437,0.305-0.614,0.518v3.237c0,0.3,0.052,0.507,0.156,0.621
			c0.104,0.115,0.332,0.174,0.682,0.178v0.154h-2.688V67.102z"/>
	</g>
	<g>
		<path d="M133.361,67.09c0.421-0.039,0.687-0.111,0.797-0.217c0.11-0.104,0.166-0.387,0.166-0.849v-2.823
			c0-0.256-0.018-0.434-0.053-0.532c-0.059-0.161-0.183-0.243-0.372-0.243c-0.043,0-0.086,0.004-0.127,0.012
			c-0.042,0.009-0.161,0.04-0.357,0.096V62.35l0.254-0.083c0.689-0.226,1.169-0.395,1.441-0.509c0.11-0.047,0.181-0.071,0.212-0.071
			c0.008,0.028,0.012,0.058,0.012,0.089v4.249c0,0.45,0.054,0.731,0.163,0.847c0.108,0.114,0.354,0.188,0.735,0.219v0.166h-2.871
			V67.09z M134.3,59.176c0.118-0.121,0.264-0.182,0.438-0.182c0.169,0,0.314,0.06,0.434,0.18c0.12,0.119,0.18,0.266,0.18,0.438
			c0,0.169-0.06,0.313-0.18,0.433c-0.12,0.12-0.265,0.18-0.434,0.18c-0.173,0-0.319-0.06-0.438-0.18
			c-0.118-0.119-0.177-0.264-0.177-0.433S134.182,59.299,134.3,59.176z"/>
	</g>
	<g>
		<path d="M119.082,64.143h2.989v0.758h-2.989V64.143z"/>
		<path d="M152.907,62.518c0.498-0.542,1.139-0.813,1.923-0.813c0.78,0,1.425,0.257,1.938,0.77c0.512,0.513,0.768,1.195,0.768,2.048
			c0,0.785-0.248,1.467-0.744,2.047s-1.138,0.871-1.925,0.871c-0.756,0-1.396-0.279-1.92-0.835
			c-0.524-0.556-0.786-1.255-0.786-2.095C152.16,63.725,152.409,63.061,152.907,62.518z M153.85,62.368
			c-0.395,0.359-0.592,0.979-0.592,1.858c0,0.702,0.159,1.356,0.477,1.964c0.317,0.608,0.758,0.912,1.322,0.912
			c0.442,0,0.782-0.203,1.021-0.609s0.358-0.939,0.358-1.598c0-0.684-0.152-1.326-0.456-1.93s-0.744-0.905-1.32-0.905
			C154.349,62.06,154.079,62.163,153.85,62.368z"/>
	</g>
	<g>
		<path d="M179.046,67.031c0.441-0.047,0.729-0.126,0.862-0.238s0.201-0.396,0.201-0.851v-5.391c0-0.442-0.065-0.727-0.195-0.853
			c-0.13-0.126-0.419-0.205-0.868-0.237v-0.225h3.261c1.099,0,2.028,0.182,2.788,0.545c1.37,0.65,2.055,1.814,2.055,3.491
			c0,0.604-0.123,1.178-0.369,1.722c-0.246,0.545-0.617,1.005-1.113,1.379c-0.315,0.237-0.642,0.417-0.98,0.539
			c-0.618,0.229-1.378,0.344-2.28,0.344h-3.361V67.031z M181.483,66.711c0.097,0.062,0.296,0.095,0.6,0.095
			c0.945,0,1.723-0.188,2.333-0.562c0.938-0.577,1.406-1.562,1.406-2.956c0-1.244-0.386-2.18-1.158-2.807
			c-0.662-0.537-1.538-0.807-2.629-0.807c-0.271,0-0.456,0.03-0.552,0.09c-0.096,0.059-0.145,0.189-0.145,0.391v6.166
			C181.338,66.518,181.387,66.648,181.483,66.711z"/>
		<path d="M187.848,67.09c0.421-0.039,0.687-0.111,0.797-0.217c0.11-0.104,0.166-0.387,0.166-0.849v-2.823
			c0-0.256-0.018-0.434-0.053-0.532c-0.059-0.161-0.183-0.243-0.372-0.243c-0.043,0-0.086,0.004-0.127,0.012
			c-0.042,0.009-0.161,0.04-0.357,0.096V62.35l0.254-0.083c0.689-0.226,1.169-0.395,1.441-0.509c0.11-0.047,0.181-0.071,0.212-0.071
			c0.008,0.028,0.012,0.058,0.012,0.089v4.249c0,0.45,0.054,0.731,0.163,0.847c0.108,0.114,0.354,0.188,0.735,0.219v0.166h-2.871
			V67.09z M188.787,59.176c0.118-0.121,0.264-0.182,0.438-0.182c0.169,0,0.314,0.06,0.434,0.18c0.12,0.119,0.18,0.266,0.18,0.438
			c0,0.169-0.06,0.313-0.18,0.433c-0.12,0.12-0.265,0.18-0.434,0.18c-0.173,0-0.319-0.06-0.438-0.18
			c-0.118-0.119-0.177-0.264-0.177-0.433S188.669,59.299,188.787,59.176z"/>
	</g>
	<g>
		<path d="M222.023,62.518c0.498-0.542,1.14-0.813,1.923-0.813c0.779,0,1.426,0.257,1.938,0.77s0.768,1.195,0.768,2.048
			c0,0.785-0.248,1.467-0.744,2.047s-1.139,0.871-1.926,0.871c-0.756,0-1.396-0.279-1.92-0.835s-0.785-1.255-0.785-2.095
			C221.276,63.725,221.525,63.061,222.023,62.518z M222.966,62.368c-0.395,0.359-0.592,0.979-0.592,1.858
			c0,0.702,0.159,1.356,0.477,1.964c0.317,0.608,0.759,0.912,1.322,0.912c0.442,0,0.782-0.203,1.021-0.609
			c0.239-0.406,0.358-0.939,0.358-1.598c0-0.684-0.151-1.326-0.456-1.93c-0.303-0.604-0.743-0.905-1.319-0.905
			C223.465,62.06,223.196,62.163,222.966,62.368z"/>
		<path d="M229.624,68.245c-0.287,0.343-0.596,0.59-0.928,0.739l-0.111-0.237c0.378-0.213,0.639-0.443,0.782-0.691
			c0.144-0.249,0.216-0.456,0.216-0.621c0-0.057-0.018-0.092-0.053-0.107s-0.073-0.023-0.113-0.023l-0.395,0.041
			c-0.166,0-0.318-0.054-0.455-0.162c-0.139-0.109-0.207-0.266-0.207-0.471c0-0.158,0.057-0.312,0.172-0.461
			c0.113-0.15,0.301-0.226,0.561-0.226c0.248,0,0.471,0.098,0.668,0.293c0.196,0.195,0.295,0.467,0.295,0.813
			C230.055,67.53,229.911,67.901,229.624,68.245z"/>
	</g>
	<g>
		<path d="M204.402,64.143h2.989v0.758h-2.989V64.143z"/>
		<path d="M245.804,67.09c0.421-0.039,0.687-0.111,0.798-0.217c0.109-0.104,0.165-0.387,0.165-0.849v-2.823
			c0-0.256-0.019-0.434-0.054-0.532c-0.059-0.161-0.183-0.243-0.371-0.243c-0.044,0-0.086,0.004-0.127,0.012
			c-0.042,0.009-0.161,0.04-0.357,0.096V62.35l0.254-0.083c0.688-0.226,1.169-0.395,1.441-0.509c0.109-0.047,0.18-0.071,0.212-0.071
			c0.008,0.028,0.012,0.058,0.012,0.089v4.249c0,0.45,0.054,0.731,0.163,0.847c0.107,0.114,0.354,0.188,0.734,0.219v0.166h-2.87
			V67.09z M246.743,59.176c0.119-0.121,0.265-0.182,0.438-0.182c0.17,0,0.314,0.06,0.435,0.18c0.12,0.119,0.181,0.266,0.181,0.438
			c0,0.169-0.061,0.313-0.181,0.433c-0.12,0.12-0.265,0.18-0.435,0.18c-0.173,0-0.318-0.06-0.438-0.18
			c-0.117-0.119-0.177-0.264-0.177-0.433S246.625,59.299,246.743,59.176z"/>
	</g>
	<g>
		<path d="M249.149,67.09c0.279-0.035,0.475-0.105,0.587-0.211c0.112-0.104,0.169-0.338,0.169-0.701v-3.006
			c0-0.25-0.023-0.426-0.071-0.528c-0.075-0.149-0.229-0.224-0.461-0.224c-0.035,0-0.071,0.002-0.109,0.006
			c-0.037,0.004-0.083,0.01-0.139,0.018v-0.207c0.161-0.047,0.544-0.169,1.146-0.366l0.556-0.184c0.027,0,0.044,0.01,0.05,0.03
			c0.006,0.02,0.01,0.047,0.01,0.082v0.87c0.361-0.339,0.645-0.571,0.849-0.698c0.307-0.193,0.625-0.29,0.955-0.29
			c0.267,0,0.511,0.077,0.731,0.231c0.424,0.299,0.637,0.834,0.637,1.604v2.764c0,0.283,0.057,0.488,0.17,0.615
			c0.113,0.126,0.303,0.191,0.568,0.195v0.166h-2.522V67.09c0.288-0.039,0.488-0.119,0.603-0.24c0.114-0.12,0.172-0.381,0.172-0.783
			V63.54c0-0.34-0.063-0.621-0.188-0.844c-0.126-0.223-0.356-0.334-0.693-0.334c-0.231,0-0.466,0.078-0.704,0.236
			c-0.134,0.092-0.307,0.241-0.518,0.45v3.313c0,0.285,0.062,0.475,0.189,0.571c0.125,0.097,0.324,0.149,0.596,0.157v0.166h-2.58
			V67.09z"/>
		<path d="M271.122,59.237h6.84l0.066,2.06h-0.291c-0.141-0.647-0.32-1.067-0.539-1.263s-0.68-0.293-1.379-0.293h-0.674v6.201
			c0,0.467,0.072,0.756,0.219,0.868c0.145,0.112,0.465,0.186,0.957,0.221v0.226h-3.527v-0.226c0.512-0.039,0.83-0.124,0.957-0.253
			c0.127-0.13,0.189-0.455,0.189-0.979v-6.059h-0.68c-0.67,0-1.125,0.096-1.367,0.289s-0.424,0.615-0.547,1.267h-0.295
			L271.122,59.237z"/>
	</g>
	<g>
		<path d="M282.557,62.282c0.418,0.385,0.627,0.93,0.627,1.637h-3.752c0.039,0.913,0.246,1.578,0.621,1.996
			c0.373,0.416,0.816,0.625,1.328,0.625c0.414,0,0.762-0.107,1.047-0.324c0.283-0.217,0.545-0.523,0.785-0.922l0.207,0.071
			c-0.162,0.502-0.465,0.966-0.908,1.394c-0.441,0.426-0.984,0.64-1.627,0.64c-0.74,0-1.312-0.28-1.715-0.841
			c-0.404-0.56-0.605-1.205-0.605-1.935c0-0.793,0.234-1.478,0.703-2.054s1.078-0.864,1.83-0.864
			C281.653,61.705,282.139,61.897,282.557,62.282z M279.729,62.735c-0.127,0.213-0.217,0.48-0.273,0.805h2.494
			c-0.045-0.395-0.119-0.688-0.225-0.882c-0.193-0.347-0.516-0.521-0.969-0.521C280.307,62.137,279.963,62.336,279.729,62.735z"/>
		<path d="M289.446,67.102c0.307-0.027,0.512-0.079,0.613-0.154c0.158-0.113,0.236-0.343,0.236-0.686v-3.061
			c0-0.291-0.039-0.482-0.115-0.574c-0.076-0.09-0.203-0.136-0.381-0.136c-0.082,0-0.145,0.005-0.186,0.013s-0.09,0.021-0.145,0.041
			v-0.207l0.424-0.143c0.154-0.051,0.406-0.144,0.758-0.277c0.35-0.135,0.535-0.201,0.555-0.201s0.031,0.01,0.035,0.029
			s0.006,0.057,0.006,0.112v0.799c0.391-0.354,0.727-0.601,1.01-0.737c0.283-0.136,0.574-0.203,0.875-0.203
			c0.404,0,0.729,0.138,0.969,0.414c0.125,0.149,0.23,0.353,0.312,0.609c0.291-0.297,0.545-0.516,0.762-0.657
			c0.375-0.245,0.756-0.366,1.146-0.366c0.633,0,1.057,0.258,1.27,0.774c0.121,0.292,0.184,0.754,0.184,1.385v2.456
			c0,0.28,0.062,0.471,0.186,0.571c0.125,0.101,0.348,0.167,0.67,0.198v0.154h-2.664V67.09c0.344-0.031,0.568-0.101,0.678-0.207
			c0.107-0.107,0.162-0.324,0.162-0.651v-2.55c0-0.383-0.041-0.666-0.125-0.848c-0.145-0.322-0.43-0.484-0.855-0.484
			c-0.256,0-0.51,0.084-0.762,0.254c-0.146,0.1-0.326,0.257-0.539,0.474v3.03c0,0.319,0.057,0.562,0.17,0.728
			c0.111,0.166,0.35,0.255,0.711,0.267v0.154h-2.711v-0.154c0.373-0.047,0.611-0.139,0.715-0.272
			c0.102-0.134,0.152-0.466,0.152-0.994v-1.653c0-0.606-0.039-1.023-0.117-1.252c-0.131-0.387-0.406-0.58-0.826-0.58
			c-0.24,0-0.477,0.066-0.709,0.198s-0.438,0.305-0.615,0.518v3.237c0,0.3,0.053,0.507,0.156,0.621
			c0.105,0.115,0.332,0.174,0.684,0.178v0.154h-2.688V67.102z"/>
	</g>
	<g>
		<path d="M298.846,67.09c0.42-0.039,0.688-0.111,0.797-0.217c0.109-0.104,0.166-0.387,0.166-0.849v-2.823
			c0-0.256-0.018-0.434-0.055-0.532c-0.059-0.161-0.182-0.243-0.371-0.243c-0.043,0-0.086,0.004-0.127,0.012
			c-0.041,0.009-0.16,0.04-0.357,0.096V62.35l0.254-0.083c0.689-0.226,1.17-0.395,1.441-0.509c0.109-0.047,0.182-0.071,0.213-0.071
			c0.008,0.028,0.012,0.058,0.012,0.089v4.249c0,0.45,0.055,0.731,0.162,0.847c0.107,0.114,0.354,0.188,0.736,0.219v0.166h-2.871
			V67.09z M299.786,59.176c0.117-0.121,0.264-0.182,0.436-0.182c0.17,0,0.314,0.06,0.436,0.18c0.119,0.119,0.18,0.266,0.18,0.438
			c0,0.169-0.061,0.313-0.18,0.433c-0.121,0.12-0.266,0.18-0.436,0.18c-0.172,0-0.318-0.06-0.436-0.18
			c-0.119-0.119-0.178-0.264-0.178-0.433S299.667,59.299,299.786,59.176z"/>
		<path d="M306.1,67.061c0.361-0.032,0.602-0.096,0.721-0.193c0.117-0.096,0.178-0.303,0.178-0.617v-2.67
			c0-0.391-0.037-0.67-0.109-0.838c-0.074-0.167-0.207-0.251-0.398-0.251c-0.041,0-0.092,0.005-0.158,0.015
			c-0.064,0.01-0.133,0.023-0.203,0.039V62.35c0.225-0.079,0.453-0.16,0.689-0.242c0.234-0.084,0.398-0.143,0.488-0.178
			c0.195-0.075,0.398-0.16,0.607-0.255c0.027,0,0.043,0.01,0.049,0.029c0.006,0.021,0.01,0.062,0.01,0.124v0.971
			c0.252-0.351,0.496-0.625,0.73-0.822s0.479-0.296,0.732-0.296c0.201,0,0.365,0.06,0.49,0.181c0.127,0.12,0.189,0.271,0.189,0.453
			c0,0.161-0.047,0.297-0.145,0.408c-0.096,0.109-0.217,0.165-0.363,0.165c-0.148,0-0.299-0.069-0.451-0.207
			s-0.271-0.207-0.357-0.207c-0.139,0-0.307,0.111-0.508,0.335c-0.201,0.223-0.301,0.452-0.301,0.689v2.668
			c0,0.34,0.078,0.576,0.236,0.707c0.156,0.133,0.418,0.195,0.785,0.188v0.195H306.1V67.061z"/>
	</g>
	<g>
		<path d="M310.377,67.09c0.42-0.039,0.688-0.111,0.797-0.217c0.109-0.104,0.166-0.387,0.166-0.849v-2.823
			c0-0.256-0.018-0.434-0.055-0.532c-0.059-0.161-0.182-0.243-0.371-0.243c-0.043,0-0.086,0.004-0.127,0.012
			c-0.041,0.009-0.16,0.04-0.357,0.096V62.35l0.254-0.083c0.689-0.226,1.17-0.395,1.441-0.509c0.109-0.047,0.182-0.071,0.213-0.071
			c0.008,0.028,0.012,0.058,0.012,0.089v4.249c0,0.45,0.055,0.731,0.162,0.847c0.107,0.114,0.354,0.188,0.736,0.219v0.166h-2.871
			V67.09z M311.317,59.176c0.117-0.121,0.264-0.182,0.436-0.182c0.17,0,0.314,0.06,0.436,0.18c0.119,0.119,0.18,0.266,0.18,0.438
			c0,0.169-0.061,0.313-0.18,0.433c-0.121,0.12-0.266,0.18-0.436,0.18c-0.172,0-0.318-0.06-0.436-0.18
			c-0.119-0.119-0.178-0.264-0.178-0.433S311.198,59.299,311.317,59.176z"/>
		<path d="M317.815,67.09c0.416-0.02,0.691-0.098,0.824-0.234c0.131-0.136,0.197-0.423,0.197-0.861v-3.799h-1.01v-0.396h1.01
			c0-0.623,0.084-1.15,0.254-1.58c0.324-0.824,0.918-1.236,1.781-1.236c0.348,0,0.658,0.068,0.932,0.207
			c0.275,0.138,0.412,0.323,0.412,0.557c0,0.129-0.047,0.246-0.141,0.349c-0.096,0.103-0.209,0.153-0.342,0.153
			c-0.113,0-0.211-0.034-0.293-0.104c-0.084-0.068-0.182-0.189-0.295-0.363l-0.1-0.154c-0.055-0.082-0.119-0.152-0.193-0.21
			s-0.18-0.086-0.312-0.086c-0.297,0-0.5,0.147-0.605,0.444c-0.059,0.158-0.088,0.365-0.088,0.621v1.402h1.471v0.396h-1.471v3.799
			c0,0.447,0.061,0.731,0.18,0.855c0.121,0.125,0.436,0.205,0.943,0.24v0.166h-3.154V67.09z"/>
	</g>
	<g>
		<path d="M323.403,61.776v3.787c0,0.269,0.039,0.484,0.113,0.646c0.145,0.3,0.414,0.45,0.803,0.45c0.268,0,0.529-0.09,0.785-0.268
			c0.146-0.098,0.295-0.234,0.443-0.408v-3.242c0-0.305-0.059-0.504-0.176-0.598c-0.119-0.096-0.355-0.152-0.709-0.172v-0.195h1.906
			v4.166c0,0.269,0.049,0.453,0.146,0.554c0.096,0.101,0.299,0.146,0.611,0.133v0.166c-0.217,0.06-0.377,0.104-0.479,0.133
			c-0.104,0.03-0.275,0.084-0.516,0.163c-0.102,0.035-0.326,0.12-0.672,0.254c-0.02,0-0.031-0.008-0.035-0.026
			c-0.004-0.018-0.006-0.038-0.006-0.062v-0.953c-0.27,0.319-0.514,0.557-0.732,0.71c-0.336,0.237-0.689,0.354-1.064,0.354
			c-0.342,0-0.666-0.121-0.969-0.367c-0.307-0.24-0.461-0.646-0.461-1.215v-3.074c0-0.314-0.066-0.523-0.201-0.629
			c-0.086-0.066-0.271-0.113-0.555-0.141v-0.166H323.403z"/>
	</g>
	<g>
		<path d="M313.965,64.143h2.988v0.758h-2.988V64.143z"/>
		<path d="M361.778,64.634c-0.197-0.304-0.297-0.646-0.297-1.024c0-0.461,0.182-0.898,0.549-1.313
			c0.365-0.414,0.883-0.621,1.553-0.621c0.287,0,0.605,0.067,0.951,0.204c0.348,0.137,0.68,0.204,0.998,0.204
			c0.084,0,0.209-0.003,0.375-0.009c0.168-0.006,0.289-0.009,0.363-0.009h0.072v0.479h-1.023c0.072,0.166,0.127,0.31,0.166,0.432
			c0.066,0.229,0.1,0.445,0.1,0.65c0,0.451-0.186,0.863-0.557,1.24c-0.373,0.377-0.873,0.565-1.504,0.565
			c-0.098,0-0.275-0.018-0.531-0.054c-0.115,0-0.266,0.098-0.455,0.291s-0.283,0.351-0.283,0.473c0,0.127,0.137,0.219,0.414,0.278
			c0.182,0.04,0.383,0.06,0.604,0.06c1.014,0,1.701,0.057,2.064,0.172c0.596,0.186,0.893,0.584,0.893,1.195
			c0,0.623-0.348,1.12-1.043,1.49c-0.695,0.371-1.396,0.557-2.105,0.557c-0.645,0-1.158-0.131-1.535-0.393
			c-0.379-0.264-0.566-0.538-0.566-0.826c0-0.143,0.049-0.281,0.148-0.418c0.102-0.135,0.297-0.338,0.592-0.605l0.389-0.35
			l0.07-0.07c-0.18-0.072-0.314-0.141-0.404-0.208c-0.156-0.122-0.234-0.263-0.234-0.42c0-0.146,0.068-0.307,0.203-0.482
			c0.137-0.175,0.426-0.46,0.871-0.854C362.256,65.149,361.977,64.938,361.778,64.634z M362.405,69.038
			c0.371,0.126,0.799,0.189,1.279,0.189c0.652,0,1.186-0.113,1.594-0.341c0.41-0.228,0.615-0.506,0.615-0.837
			c0-0.265-0.166-0.44-0.498-0.527c-0.205-0.051-0.594-0.08-1.166-0.088c-0.146-0.005-0.299-0.01-0.461-0.016
			s-0.311-0.013-0.443-0.021c-0.088-0.004-0.229-0.021-0.422-0.048s-0.336-0.051-0.432-0.07c-0.047,0-0.162,0.124-0.346,0.373
			c-0.186,0.252-0.279,0.484-0.279,0.697C361.846,68.682,362.032,68.911,362.405,69.038z M364.28,64.971
			c0.236-0.189,0.355-0.519,0.355-0.988c0-0.375-0.096-0.797-0.287-1.266c-0.191-0.47-0.51-0.705-0.955-0.705
			c-0.385,0-0.65,0.184-0.797,0.551c-0.074,0.193-0.111,0.432-0.111,0.716c0,0.481,0.115,0.913,0.348,1.296s0.533,0.574,0.904,0.574
			C363.954,65.149,364.135,65.09,364.28,64.971z"/>
	</g>
	<g>
		<path d="M367.01,67.09c0.42-0.039,0.688-0.111,0.797-0.217c0.109-0.104,0.166-0.387,0.166-0.849v-2.823
			c0-0.256-0.018-0.434-0.055-0.532c-0.059-0.161-0.182-0.243-0.371-0.243c-0.043,0-0.086,0.004-0.127,0.012
			c-0.041,0.009-0.16,0.04-0.357,0.096V62.35l0.254-0.083c0.689-0.226,1.17-0.395,1.441-0.509c0.109-0.047,0.182-0.071,0.213-0.071
			c0.008,0.028,0.012,0.058,0.012,0.089v4.249c0,0.45,0.055,0.731,0.162,0.847c0.107,0.114,0.354,0.188,0.736,0.219v0.166h-2.871
			V67.09z M367.95,59.176c0.117-0.121,0.264-0.182,0.436-0.182c0.17,0,0.314,0.06,0.436,0.18c0.119,0.119,0.18,0.266,0.18,0.438
			c0,0.169-0.061,0.313-0.18,0.433c-0.121,0.12-0.266,0.18-0.436,0.18c-0.172,0-0.318-0.06-0.436-0.18
			c-0.119-0.119-0.178-0.264-0.178-0.433S367.831,59.299,367.95,59.176z"/>
		<path d="M371.19,62.518c0.498-0.542,1.139-0.813,1.922-0.813c0.779,0,1.426,0.257,1.938,0.77s0.768,1.195,0.768,2.048
			c0,0.785-0.248,1.467-0.744,2.047s-1.139,0.871-1.926,0.871c-0.756,0-1.396-0.279-1.92-0.835s-0.785-1.255-0.785-2.095
			C370.442,63.725,370.692,63.061,371.19,62.518z M372.133,62.368c-0.395,0.359-0.592,0.979-0.592,1.858
			c0,0.702,0.158,1.356,0.475,1.964c0.318,0.608,0.76,0.912,1.324,0.912c0.441,0,0.781-0.203,1.02-0.609s0.359-0.939,0.359-1.598
			c0-0.684-0.152-1.326-0.457-1.93c-0.303-0.604-0.742-0.905-1.318-0.905C372.631,62.06,372.362,62.163,372.133,62.368z"/>
	</g>
	<g>
		<path d="M377.745,67.2c-0.131-0.133-0.195-0.291-0.195-0.477s0.066-0.344,0.197-0.473c0.133-0.131,0.291-0.195,0.477-0.195
			s0.342,0.064,0.473,0.195c0.129,0.129,0.195,0.287,0.195,0.473s-0.064,0.344-0.193,0.477c-0.127,0.132-0.285,0.198-0.475,0.198
			S377.874,67.332,377.745,67.2z"/>
	</g>
	<g>
		<path d="M342.528,64.143h2.988v0.758h-2.988V64.143z"/>
	</g>
	<path d="M14.404,33.146c0.528,0.277,0.956,0.655,1.257,1.134c0.201,0.277,0.352,0.529,0.453,0.807
		c0.076,0.252,0.126,0.555,0.126,0.857c0,0.73-0.201,1.412-0.604,2.017c-0.377,0.604-0.905,1.06-1.534,1.387l-1.509-6.605
		C13.273,32.742,13.876,32.868,14.404,33.146L14.404,33.146z M13.248,24.827c0.277-0.429,0.503-0.856,0.729-1.286
		c0.151-0.353,0.327-0.807,0.503-1.336c0.176-0.529,0.302-1.008,0.377-1.411c0.076-0.378,0.126-0.807,0.126-1.286
		c0-0.377-0.05-0.756-0.126-1.134c-0.075-0.378-0.176-0.832-0.302-1.336c-0.276-0.933-0.628-1.765-1.031-2.471
		c-0.176-0.327-0.377-0.554-0.604-0.681c-0.176-0.075-0.352-0.126-0.528-0.126c-0.377,0.101-0.679,0.253-0.88,0.403
		c-0.251,0.177-0.503,0.454-0.729,0.807c-0.453,0.781-0.805,1.588-1.031,2.471c-0.201,0.907-0.327,1.714-0.327,2.395
		s0.05,1.412,0.151,2.168c0.126,0.756,0.302,1.537,0.503,2.318L7.59,26.667c-0.453,0.454-0.931,1.034-1.458,1.714
		c-0.579,0.706-1.031,1.463-1.358,2.295c-0.352,0.781-0.528,1.613-0.528,2.495l0.076,1.159c0,0.429,0.05,0.832,0.176,1.186
		c0.076,0.277,0.377,0.831,0.905,1.638c0.679,1.035,1.534,1.841,2.615,2.42c1.056,0.604,2.213,0.907,3.445,0.907
		c0.679,0,1.358-0.075,2.037-0.252l0.754,3.227c0.101,0.429,0.176,0.908,0.176,1.463c0,0.428-0.076,0.832-0.201,1.159
		c-0.151,0.327-0.352,0.63-0.629,0.907c-0.503,0.529-1.257,0.832-2.263,0.958c-0.478,0-0.93-0.075-1.308-0.228
		c-0.427-0.15-0.628-0.377-0.654-0.654c0.352,0,0.679-0.076,1.031-0.228c0.352-0.126,0.654-0.327,0.88-0.604
		c0.201-0.303,0.302-0.682,0.302-1.109c0-0.176-0.025-0.328-0.075-0.504c-0.05-0.127-0.126-0.303-0.227-0.454
		c-0.201-0.302-0.453-0.529-0.805-0.706c-0.327-0.176-0.729-0.252-1.157-0.252c-0.377,0.051-0.729,0.177-1.031,0.403
		c-0.176,0.126-0.302,0.277-0.428,0.429c-0.125,0.151-0.251,0.328-0.327,0.529c-0.176,0.379-0.251,0.807-0.251,1.235
		c0.05,0.529,0.276,1.009,0.679,1.437c0.377,0.429,0.855,0.756,1.458,0.983c0.352,0.151,0.654,0.252,0.956,0.277
		c0.327,0.05,0.679,0.075,1.031,0.075c1.182-0.101,2.087-0.479,2.766-1.109c0.654-0.63,0.98-1.437,0.98-2.495
		c0-0.378-0.025-0.706-0.05-0.933l-0.905-4.109c1.082-0.479,1.961-1.134,2.59-1.915c0.628-0.807,0.93-1.74,0.93-2.773
		c0-0.857-0.201-1.664-0.604-2.42c-0.427-0.757-1.006-1.336-1.71-1.791c-0.704-0.453-1.509-0.68-2.414-0.68
		c-0.302,0-0.604,0.025-0.88,0.076l-0.754-3.404C12.116,26.34,12.745,25.608,13.248,24.827L13.248,24.827z M12.569,39.725
		c-0.201,0.025-0.428,0.051-0.679,0.051c-0.83,0-1.609-0.127-2.338-0.354c-0.729-0.227-1.383-0.555-1.961-1.008
		c-0.579-0.429-1.006-0.958-1.308-1.563c-0.277-0.605-0.428-1.286-0.428-2.018c0-0.957,0.227-1.865,0.704-2.747
		c0.453-0.856,1.031-1.639,1.71-2.319c0.327-0.328,0.704-0.681,1.157-1.084c0.428-0.403,0.88-0.807,1.333-1.159l0.679,3.05
		c-0.83,0.277-1.534,0.807-2.137,1.562c-0.629,0.757-0.931,1.538-0.931,2.32c0,0.831,0.277,1.613,0.83,2.293
		c0.528,0.681,1.207,1.161,2.037,1.413c0.201,0,0.302-0.051,0.302-0.177s-0.05-0.202-0.151-0.228
		c-1.182-0.504-1.76-1.235-1.76-2.167c0-0.63,0.227-1.185,0.704-1.714c0.453-0.529,0.981-0.883,1.584-1.059l1.458,6.731
		C13.046,39.625,12.795,39.674,12.569,39.725L12.569,39.725z M13.7,19.482c-0.125,0.479-0.327,0.959-0.628,1.438
		c-0.377,0.631-0.754,1.16-1.082,1.562c-0.402,0.504-0.855,0.934-1.308,1.311c-0.251-0.982-0.377-1.84-0.377-2.57
		c0-0.277,0.025-0.555,0.075-0.883c0.076-0.328,0.151-0.68,0.227-1.008c0.201-0.681,0.478-1.311,0.83-1.84
		c0.428-0.58,0.629-0.883,0.654-0.908c0.151-0.176,0.327-0.277,0.503-0.303c0.227,0,0.428,0.102,0.629,0.328
		c0.251,0.328,0.402,0.605,0.478,0.883l0.126,0.453C13.826,18.576,13.776,19.08,13.7,19.482L13.7,19.482z"/>
	<path d="M23.35,21.834v-2.723l1.383-0.303v2.723L23.35,21.834z M25.361,21.379v-2.722l0.98-0.228v-1.915l-0.98,0.228v-3.555h-0.629
		v3.705l-1.383,0.303v-3.479h-0.579l-0.025,3.629l-0.981,0.253v1.915l0.981-0.252v2.723c0,0.177-0.327,0.252-0.981,0.252v1.967
		l0.981-0.227v3.402h0.604v-3.555l1.383-0.327v3.429h0.629v-3.555l0.98-0.227v-1.992L25.361,21.379z"/>
	<path d="M30.757,28.057h3.37v2.092h1.861v-2.092h0.855v-1.412h-0.855v-5.974h-0.83l-4.4,5.974V28.057z M34.127,22.99v3.654h-2.716
		L34.127,22.99z"/>
	<path d="M30.757,38.137h3.37v2.092h1.861v-2.092h0.855v-1.413h-0.855v-5.974h-0.83l-4.4,5.974V38.137z M34.127,33.07v3.654h-2.716
		L34.127,33.07z"/>
	<path d="M49.402,35.821l2.489-8.948H51.54c-0.302,0.453-0.578,0.832-0.855,1.109c-0.276,0.302-0.628,0.529-1.006,0.654
		c-0.05,0.025-0.125,0.051-0.251,0.051c-0.176,0-0.276-0.076-0.276-0.201l0.075-0.227c0.076-0.102,0.101-0.277,0.101-0.555
		c0-0.379-0.151-0.707-0.453-1.009c-0.302-0.277-0.679-0.403-1.131-0.403c-0.377,0.076-0.679,0.277-0.905,0.555
		c-0.227,0.277-0.352,0.63-0.352,1.033c0,0.479,0.201,0.857,0.578,1.186c0.377,0.327,0.83,0.479,1.333,0.479
		c0.528,0,1.282-0.252,2.238-0.731l-1.936,7.008H49.402z"/>
	
		<path fill="none" stroke="#000000" stroke-width="0.12" stroke-linecap="round" stroke-linejoin="round" stroke-miterlimit="10" d="
		M56.445,45.282h9.24 M56.445,45.401h9.24 M56.445,45.522h9.24 M56.445,45.641h9.24"/>
	<path d="M61.903,45.571c-0.402,0-0.805,0.074-1.207,0.227c-0.628,0.227-1.031,0.428-1.282,0.63
		c-0.905,0.655-1.383,1.386-1.434,2.218c0,0.656,0.201,1.16,0.579,1.488c0.377,0.352,0.88,0.529,1.458,0.554
		c0.503,0,0.98-0.075,1.433-0.202c0.453-0.125,0.855-0.352,1.257-0.654c0.931-0.656,1.408-1.438,1.434-2.295
		c0-0.629-0.176-1.108-0.553-1.411c-0.428-0.378-0.956-0.554-1.584-0.554C61.953,45.571,61.928,45.571,61.903,45.571L61.903,45.571z
		"/>
	
		<path fill="none" stroke="#000000" stroke-width="0.12" stroke-linecap="round" stroke-linejoin="round" stroke-miterlimit="10" d="
		M63.645,48.042V30.4 M63.765,48.042V30.4 M63.885,48.042V30.4 M64.005,48.042V30.4"/>
	<path d="M64.715,34.885c0.101,0.025,0.251,0.151,0.478,0.328c0.226,0.201,0.377,0.327,0.478,0.378
		c0.176,0.101,0.352,0.227,0.478,0.378c0.151,0.151,0.302,0.354,0.478,0.605c0.151,0.227,0.277,0.428,0.377,0.529
		c0.176,0.201,0.352,0.504,0.528,0.882c0.176,0.378,0.302,0.681,0.352,0.882c0.025,0.102,0.076,0.177,0.101,0.252
		c0.05,0.076,0.076,0.127,0.076,0.152c0,0.05,0,0.176,0,0.377v0.529c0.025,0.253,0.025,0.43,0.025,0.555
		c0,0.051,0.025,0.076,0.025,0.127c0,0.025,0,0.075,0,0.15c0,0.025,0,0.076-0.025,0.127c-0.025,0.05-0.025,0.075-0.025,0.101
		c-0.05,0.177-0.101,0.378-0.176,0.554c-0.05,0.202-0.101,0.404-0.151,0.605c-0.075,0.227-0.176,0.479-0.251,0.756l-0.025,0.178
		l-0.428,0.932h0.327c0.553-0.907,1.006-1.789,1.308-2.672c0.151-0.378,0.276-0.705,0.302-1.008c0.05-0.303,0.075-0.682,0.075-1.16
		c0-0.201-0.05-0.529-0.176-1.008c-0.101-0.328-0.227-0.681-0.377-1.059c-0.302-0.731-0.628-1.311-0.98-1.765
		c-0.126-0.126-0.227-0.228-0.302-0.327c-0.126-0.152-0.251-0.303-0.377-0.43l-1.006-0.957c-0.125-0.127-0.276-0.277-0.377-0.479
		c-0.126-0.202-0.251-0.353-0.327-0.454c-0.251-0.303-0.453-0.604-0.604-0.906c-0.151-0.328-0.251-0.605-0.327-0.883
		c-0.05-0.127-0.126-0.328-0.201-0.631l-0.101-0.303v4.513C64.162,34.733,64.438,34.784,64.715,34.885L64.715,34.885z"/>
	
		<path fill="none" stroke="#000000" stroke-width="0.12" stroke-linecap="round" stroke-linejoin="round" stroke-miterlimit="10" d="
		M75.405,20.32v20.161 M75.525,20.32v20.161 M75.645,20.32v20.161 M75.765,20.32v20.161"/>
	<g>
		<path d="M84.621,11.832c0.336-0.042,0.578-0.169,0.727-0.38c0.148-0.21,0.349-0.75,0.6-1.618l1.33-4.869
			c0.049-0.166,0.088-0.312,0.117-0.437c0.029-0.126,0.043-0.235,0.043-0.329c0-0.183-0.065-0.299-0.195-0.348
			s-0.379-0.08-0.749-0.092V3.42h2.984l0.748,6.166l3.987-6.166h2.775v0.339c-0.297,0.038-0.506,0.098-0.625,0.179
			c-0.187,0.127-0.332,0.374-0.434,0.74l-1.607,5.884c-0.039,0.127-0.071,0.257-0.099,0.389c-0.027,0.132-0.041,0.243-0.041,0.332
			c0,0.217,0.062,0.354,0.188,0.412c0.125,0.057,0.381,0.103,0.768,0.137v0.338h-4.08v-0.338c0.438-0.042,0.738-0.114,0.902-0.214
			s0.296-0.341,0.398-0.725l1.644-6.018l-4.901,7.467h-0.363l-0.88-7.256l-1.317,4.748c-0.068,0.243-0.119,0.444-0.153,0.606
			c-0.06,0.264-0.089,0.474-0.089,0.631c0,0.307,0.122,0.517,0.364,0.632c0.136,0.068,0.363,0.111,0.682,0.128v0.338h-2.724V11.832z
			"/>
		<path d="M96.36,11.832c0.311-0.038,0.54-0.114,0.688-0.229c0.149-0.114,0.272-0.349,0.37-0.704l1.604-5.869
			c0.047-0.167,0.082-0.306,0.105-0.418s0.035-0.212,0.035-0.297c0-0.222-0.062-0.361-0.185-0.418
			c-0.123-0.058-0.38-0.103-0.771-0.137V3.42h3.888v0.339c-0.319,0.042-0.549,0.119-0.692,0.23c-0.143,0.11-0.262,0.347-0.36,0.708
			l-1.61,5.87l-0.102,0.451c-0.009,0.042-0.016,0.086-0.022,0.13s-0.01,0.085-0.01,0.124c0,0.221,0.06,0.36,0.179,0.42
			c0.119,0.059,0.376,0.105,0.771,0.14v0.338H96.36V11.832z"/>
	</g>
	<g>
		<path d="M101.914,12.17l1.141-4.185c0.069-0.245,0.114-0.417,0.135-0.517c0.021-0.099,0.032-0.195,0.032-0.288
			c0-0.14-0.044-0.226-0.131-0.26c-0.088-0.034-0.28-0.059-0.578-0.076V6.499c0.55-0.034,1.019-0.079,1.405-0.134
			c0.249-0.034,0.659-0.106,1.229-0.217l-0.787,2.42l0.044,0.032c0.569-0.864,0.999-1.443,1.288-1.737
			c0.472-0.477,0.969-0.715,1.491-0.715c0.242,0,0.444,0.076,0.605,0.227c0.162,0.151,0.243,0.359,0.243,0.624
			c0,0.2-0.039,0.437-0.115,0.71c-0.042,0.152-0.099,0.341-0.17,0.569c0.544-0.685,0.984-1.166,1.32-1.442
			c0.56-0.459,1.14-0.689,1.74-0.689c0.404,0,0.703,0.096,0.897,0.288c0.193,0.192,0.291,0.465,0.291,0.817
			c0,0.199-0.041,0.465-0.121,0.799c-0.009,0.046-0.053,0.213-0.134,0.5l-0.693,2.075c-0.051,0.116-0.099,0.236-0.144,0.36
			c-0.044,0.125-0.067,0.212-0.067,0.263c0,0.048,0.024,0.085,0.073,0.113s0.095,0.041,0.137,0.041c0.124,0,0.296-0.143,0.517-0.428
			c0.119-0.153,0.249-0.345,0.39-0.575l0.287,0.185c-0.323,0.524-0.597,0.9-0.823,1.13c-0.391,0.396-0.804,0.594-1.237,0.594
			c-0.221,0-0.427-0.06-0.619-0.178c-0.191-0.119-0.287-0.315-0.287-0.589c0-0.226,0.057-0.543,0.172-0.951
			c0.072-0.25,0.168-0.537,0.287-0.862l0.537-1.999c0.009-0.04,0.016-0.081,0.022-0.124c0.006-0.042,0.01-0.084,0.01-0.124
			c0-0.108-0.027-0.2-0.08-0.274c-0.064-0.074-0.157-0.111-0.279-0.111c-0.34,0-0.724,0.228-1.151,0.684
			c-0.427,0.456-0.784,0.926-1.071,1.412c-0.106,0.174-0.211,0.387-0.315,0.639c-0.104,0.251-0.365,1.03-0.783,2.337h-1.568
			l1.157-4.286c0.034-0.1,0.062-0.191,0.083-0.273c0.021-0.082,0.032-0.161,0.032-0.237c0-0.12-0.025-0.196-0.075-0.228
			c-0.05-0.032-0.105-0.048-0.165-0.048c-0.19,0-0.441,0.195-0.753,0.585c-0.312,0.39-0.609,0.896-0.89,1.518
			c-0.15,0.333-0.314,0.797-0.493,1.394c-0.119,0.361-0.275,0.886-0.471,1.575H101.914z"/>
	</g>
	<path d="M88.903,32.971c-0.402,0-0.805,0.076-1.207,0.227c-0.628,0.227-1.031,0.429-1.282,0.631
		c-0.905,0.654-1.383,1.386-1.434,2.218c0,0.655,0.201,1.159,0.579,1.487c0.377,0.354,0.88,0.53,1.458,0.555
		c0.503,0,0.98-0.076,1.433-0.201c0.453-0.127,0.855-0.354,1.257-0.657c0.931-0.655,1.408-1.437,1.434-2.293
		c0-0.631-0.176-1.109-0.553-1.412c-0.428-0.379-0.956-0.555-1.584-0.555C88.953,32.971,88.928,32.971,88.903,32.971L88.903,32.971z
		"/>
	
		<path fill="none" stroke="#000000" stroke-width="0.12" stroke-linecap="round" stroke-linejoin="round" stroke-miterlimit="10" d="
		M90.645,35.441V17.801 M90.765,35.441V17.801 M90.885,35.441V17.801 M91.005,35.441V17.801"/>
	<path d="M92.917,35.022c0.227,0.228,0.478,0.353,0.805,0.353c0.327,0,0.604-0.125,0.83-0.353c0.226-0.228,0.352-0.505,0.352-0.807
		c0-0.277-0.126-0.555-0.352-0.832c-0.227-0.227-0.528-0.353-0.83-0.353c-0.402,0-0.679,0.101-0.855,0.303
		c-0.201,0.277-0.302,0.579-0.302,0.882C92.565,34.543,92.691,34.795,92.917,35.022L92.917,35.022z"/>
	<path d="M113.623,35.49c-0.402,0-0.805,0.075-1.207,0.227c-0.629,0.227-1.031,0.428-1.283,0.63
		c-0.905,0.655-1.383,1.386-1.433,2.218c0,0.656,0.201,1.16,0.578,1.488c0.377,0.353,0.88,0.529,1.458,0.555
		c0.503,0,0.981-0.076,1.434-0.202s0.855-0.353,1.257-0.655c0.93-0.656,1.408-1.438,1.433-2.295c0-0.629-0.176-1.108-0.553-1.41
		c-0.427-0.379-0.956-0.555-1.584-0.555C113.673,35.49,113.648,35.49,113.623,35.49L113.623,35.49z"/>
	
		<path fill="none" stroke="#000000" stroke-width="0.12" stroke-linecap="round" stroke-linejoin="round" stroke-miterlimit="10" d="
		M115.365,37.961V20.32 M115.485,37.961V20.32 M115.605,37.961V20.32 M115.725,37.961V20.32"/>
	<path d="M116.435,24.804c0.101,0.025,0.251,0.151,0.478,0.327c0.227,0.203,0.377,0.328,0.478,0.379
		c0.176,0.101,0.352,0.227,0.478,0.378c0.151,0.151,0.302,0.353,0.478,0.604c0.151,0.228,0.276,0.43,0.377,0.529
		c0.176,0.202,0.352,0.505,0.528,0.883c0.176,0.379,0.302,0.681,0.352,0.883c0.025,0.101,0.075,0.176,0.101,0.252
		c0.05,0.075,0.075,0.125,0.075,0.15c0,0.051,0,0.178,0,0.379v0.529c0.025,0.252,0.025,0.428,0.025,0.555
		c0,0.051,0.025,0.075,0.025,0.125c0,0.025,0,0.076,0,0.152c0,0.025,0,0.075-0.025,0.125c-0.025,0.051-0.025,0.076-0.025,0.102
		c-0.05,0.176-0.101,0.378-0.176,0.555c-0.05,0.201-0.101,0.403-0.151,0.605c-0.076,0.227-0.176,0.479-0.251,0.756l-0.025,0.176
		l-0.427,0.934h0.327c0.553-0.908,1.006-1.791,1.308-2.672c0.151-0.379,0.277-0.707,0.302-1.009c0.05-0.303,0.076-0.681,0.076-1.159
		c0-0.202-0.05-0.529-0.176-1.009c-0.101-0.327-0.226-0.681-0.377-1.059c-0.302-0.731-0.629-1.312-0.981-1.765
		c-0.125-0.126-0.226-0.227-0.302-0.328c-0.125-0.15-0.251-0.303-0.377-0.428l-1.006-0.959c-0.126-0.125-0.277-0.277-0.377-0.479
		c-0.125-0.201-0.251-0.353-0.327-0.453c-0.251-0.303-0.453-0.605-0.604-0.908c-0.151-0.327-0.251-0.604-0.327-0.882
		c-0.05-0.126-0.125-0.327-0.201-0.63l-0.101-0.303v4.512C115.882,24.652,116.158,24.703,116.435,24.804L116.435,24.804z"/>
	<g>
		<path d="M126.718,11.832c0.285-0.039,0.486-0.098,0.605-0.179c0.2-0.132,0.351-0.385,0.453-0.76l1.602-5.864
			c0.047-0.166,0.082-0.305,0.105-0.418s0.035-0.212,0.035-0.297c0-0.221-0.062-0.361-0.185-0.418
			c-0.124-0.058-0.38-0.103-0.771-0.137V3.42h3.79c1.282,0,2.258,0.329,2.927,0.987c0.668,0.658,1.003,1.541,1.003,2.647
			c0,1.333-0.495,2.491-1.484,3.474c-1.101,1.095-2.544,1.642-4.333,1.642h-3.746V11.832z M134.038,4.709
			c-0.34-0.587-0.93-0.88-1.768-0.88c-0.281,0-0.471,0.045-0.571,0.137c-0.1,0.091-0.171,0.213-0.214,0.367l-1.798,6.605
			c-0.017,0.064-0.029,0.121-0.035,0.172s-0.009,0.096-0.009,0.134c0,0.17,0.052,0.293,0.156,0.37
			c0.104,0.077,0.292,0.115,0.564,0.115c1.552,0,2.675-0.8,3.368-2.399c0.421-0.97,0.632-1.995,0.632-3.076
			C134.363,5.607,134.254,5.092,134.038,4.709z"/>
		<path d="M138.597,5.216c1.139-1.338,2.414-2.007,3.825-2.007c0.939,0,1.71,0.283,2.314,0.85c0.604,0.566,0.905,1.333,0.905,2.301
			c0,1.41-0.533,2.75-1.6,4.02c-1.139,1.359-2.448,2.039-3.927,2.039c-0.931,0-1.688-0.284-2.272-0.853s-0.876-1.329-0.876-2.279
			C136.965,7.855,137.509,6.499,138.597,5.216z M138.999,11.179c0.208,0.524,0.586,0.786,1.134,0.786
			c0.514,0,0.982-0.19,1.403-0.572c0.42-0.381,0.856-1.109,1.307-2.183c0.285-0.678,0.508-1.392,0.669-2.141
			c0.161-0.75,0.242-1.357,0.242-1.822c0-0.439-0.108-0.815-0.325-1.128c-0.217-0.313-0.555-0.47-1.014-0.47
			c-1.083,0-1.995,0.965-2.735,2.896c-0.561,1.466-0.841,2.687-0.841,3.663C138.839,10.587,138.893,10.911,138.999,11.179z"/>
	</g>
	<path d="M131.023,38.011c-0.402,0-0.805,0.075-1.207,0.227c-0.629,0.228-1.031,0.429-1.283,0.63
		c-0.905,0.656-1.383,1.387-1.433,2.219c0,0.655,0.201,1.16,0.578,1.487c0.377,0.353,0.88,0.529,1.458,0.554
		c0.503,0,0.981-0.074,1.434-0.201c0.453-0.126,0.855-0.353,1.257-0.655c0.93-0.655,1.408-1.437,1.433-2.294
		c0-0.63-0.176-1.109-0.553-1.412c-0.427-0.377-0.956-0.554-1.584-0.554C131.073,38.011,131.048,38.011,131.023,38.011
		L131.023,38.011z"/>
	
		<path fill="none" stroke="#000000" stroke-width="0.12" stroke-linecap="round" stroke-linejoin="round" stroke-miterlimit="10" d="
		M132.765,40.481v-17.64 M132.885,40.481v-17.64 M133.005,40.481v-17.64 M133.125,40.481v-17.64"/>
	<path d="M135.037,40.062c0.227,0.227,0.478,0.353,0.805,0.353c0.327,0,0.604-0.126,0.83-0.353c0.226-0.228,0.352-0.505,0.352-0.807
		c0-0.277-0.126-0.555-0.352-0.832c-0.227-0.228-0.528-0.353-0.83-0.353c-0.402,0-0.679,0.101-0.855,0.303
		c-0.201,0.277-0.302,0.579-0.302,0.882C134.685,39.583,134.811,39.834,135.037,40.062L135.037,40.062z"/>
	<path d="M155.743,38.011c-0.402,0-0.805,0.075-1.207,0.227c-0.628,0.228-1.031,0.429-1.282,0.63
		c-0.905,0.656-1.383,1.387-1.434,2.219c0,0.655,0.201,1.16,0.579,1.487c0.377,0.353,0.88,0.529,1.458,0.554
		c0.503,0,0.98-0.074,1.433-0.201c0.453-0.126,0.855-0.353,1.257-0.655c0.931-0.655,1.408-1.437,1.434-2.294
		c0-0.63-0.176-1.109-0.553-1.412c-0.428-0.377-0.956-0.554-1.584-0.554C155.793,38.011,155.768,38.011,155.743,38.011
		L155.743,38.011z"/>
	
		<path fill="none" stroke="#000000" stroke-width="0.12" stroke-linecap="round" stroke-linejoin="round" stroke-miterlimit="10" d="
		M157.485,40.481v-17.64 M157.605,40.481v-17.64 M157.725,40.481v-17.64 M157.845,40.481v-17.64"/>
	<path d="M158.555,27.324c0.101,0.025,0.251,0.152,0.478,0.328c0.227,0.201,0.377,0.328,0.478,0.379
		c0.176,0.1,0.352,0.227,0.478,0.377c0.151,0.152,0.302,0.354,0.478,0.605c0.151,0.227,0.276,0.429,0.377,0.529
		c0.176,0.201,0.352,0.504,0.528,0.883c0.176,0.378,0.302,0.68,0.352,0.882c0.025,0.101,0.075,0.177,0.101,0.252
		c0.05,0.075,0.075,0.126,0.075,0.151c0,0.051,0,0.176,0,0.379v0.529c0.025,0.252,0.025,0.428,0.025,0.554
		c0,0.051,0.025,0.075,0.025,0.126c0,0.025,0,0.076,0,0.151c0,0.025,0,0.075-0.025,0.126c-0.025,0.051-0.025,0.076-0.025,0.102
		c-0.05,0.176-0.101,0.377-0.176,0.555c-0.05,0.201-0.101,0.402-0.151,0.604c-0.076,0.227-0.176,0.479-0.251,0.756l-0.025,0.177
		l-0.427,0.933h0.327c0.553-0.907,1.006-1.79,1.308-2.672c0.151-0.378,0.277-0.706,0.302-1.009c0.05-0.303,0.076-0.68,0.076-1.159
		c0-0.202-0.05-0.529-0.176-1.009c-0.101-0.327-0.226-0.68-0.377-1.059c-0.302-0.73-0.629-1.311-0.981-1.764
		c-0.125-0.127-0.226-0.228-0.302-0.328c-0.125-0.151-0.251-0.303-0.377-0.429l-1.006-0.958c-0.126-0.126-0.277-0.277-0.377-0.479
		c-0.125-0.201-0.251-0.354-0.327-0.454c-0.251-0.302-0.453-0.604-0.604-0.907c-0.151-0.328-0.251-0.605-0.327-0.883
		c-0.05-0.125-0.125-0.327-0.201-0.63l-0.101-0.302v4.512C158.002,27.174,158.278,27.225,158.555,27.324L158.555,27.324z"/>
	
		<path fill="none" stroke="#000000" stroke-width="0.12" stroke-linecap="round" stroke-linejoin="round" stroke-miterlimit="10" d="
		M169.245,20.32v20.161 M169.365,20.32v20.161 M169.485,20.32v20.161 M169.605,20.32v20.161"/>
	<g>
		<path d="M178.56,11.832c0.31-0.039,0.539-0.115,0.688-0.23c0.148-0.115,0.271-0.351,0.369-0.708l1.602-5.864
			c0.047-0.166,0.082-0.305,0.105-0.418s0.035-0.212,0.035-0.297c0-0.221-0.062-0.361-0.185-0.418
			c-0.123-0.058-0.38-0.103-0.771-0.137V3.42h4.136v0.339c-0.455,0.046-0.761,0.118-0.918,0.213
			c-0.157,0.096-0.289,0.337-0.395,0.725l-1.699,6.241c-0.017,0.069-0.031,0.133-0.042,0.193s-0.016,0.131-0.016,0.212
			c0,0.146,0.064,0.25,0.191,0.312s0.306,0.093,0.536,0.093c0.897,0,1.672-0.153,2.325-0.46s1.228-0.879,1.726-1.718l0.312,0.058
			l-0.765,2.542h-7.235V11.832z"/>
		<path d="M186.205,11.857c0.242-0.072,0.421-0.151,0.536-0.236c0.17-0.124,0.359-0.354,0.567-0.69l4.844-7.689h0.338l1.25,7.479
			c0.085,0.502,0.187,0.81,0.306,0.923c0.119,0.113,0.38,0.184,0.784,0.214v0.313h-3.959v-0.313c0.374-0.03,0.639-0.09,0.794-0.182
			c0.155-0.091,0.232-0.282,0.232-0.571c0-0.098-0.023-0.333-0.07-0.703c-0.009-0.077-0.051-0.394-0.127-0.952h-2.815l-0.761,1.329
			c-0.051,0.089-0.097,0.187-0.137,0.293s-0.061,0.209-0.061,0.307c0,0.179,0.054,0.294,0.163,0.345
			c0.108,0.051,0.334,0.096,0.679,0.134v0.313h-2.562V11.857z M191.607,8.932l-0.48-3.185l-1.931,3.185H191.607z"/>
	</g>
	<g>
		<path d="M195.859,12.17L197,7.985c0.069-0.245,0.114-0.417,0.135-0.517c0.021-0.099,0.032-0.195,0.032-0.288
			c0-0.14-0.044-0.226-0.131-0.26c-0.088-0.034-0.28-0.059-0.578-0.076V6.499c0.55-0.034,1.019-0.079,1.405-0.134
			c0.249-0.034,0.659-0.106,1.229-0.217l-0.787,2.42L198.35,8.6c0.569-0.864,0.999-1.443,1.288-1.737
			c0.472-0.477,0.969-0.715,1.491-0.715c0.242,0,0.444,0.076,0.605,0.227c0.162,0.151,0.243,0.359,0.243,0.624
			c0,0.2-0.039,0.437-0.115,0.71c-0.042,0.152-0.099,0.341-0.17,0.569c0.544-0.685,0.984-1.166,1.32-1.442
			c0.56-0.459,1.14-0.689,1.74-0.689c0.404,0,0.703,0.096,0.897,0.288c0.193,0.192,0.291,0.465,0.291,0.817
			c0,0.199-0.041,0.465-0.121,0.799c-0.009,0.046-0.053,0.213-0.134,0.5l-0.693,2.075c-0.051,0.116-0.099,0.236-0.144,0.36
			c-0.044,0.125-0.067,0.212-0.067,0.263c0,0.048,0.024,0.085,0.073,0.113s0.095,0.041,0.137,0.041c0.124,0,0.296-0.143,0.517-0.428
			c0.119-0.153,0.249-0.345,0.39-0.575l0.287,0.185c-0.323,0.524-0.597,0.9-0.823,1.13c-0.391,0.396-0.804,0.594-1.237,0.594
			c-0.221,0-0.427-0.06-0.619-0.178c-0.191-0.119-0.287-0.315-0.287-0.589c0-0.226,0.057-0.543,0.172-0.951
			c0.072-0.25,0.168-0.537,0.287-0.862l0.537-1.999c0.009-0.04,0.016-0.081,0.022-0.124c0.006-0.042,0.01-0.084,0.01-0.124
			c0-0.108-0.027-0.2-0.08-0.274c-0.064-0.074-0.157-0.111-0.279-0.111c-0.34,0-0.724,0.228-1.151,0.684
			c-0.427,0.456-0.784,0.926-1.071,1.412c-0.106,0.174-0.211,0.387-0.315,0.639c-0.104,0.251-0.365,1.03-0.783,2.337h-1.568
			l1.157-4.286c0.034-0.1,0.062-0.191,0.083-0.273c0.021-0.082,0.032-0.161,0.032-0.237c0-0.12-0.025-0.196-0.075-0.228
			c-0.05-0.032-0.105-0.048-0.165-0.048c-0.19,0-0.441,0.195-0.753,0.585c-0.312,0.39-0.609,0.896-0.89,1.518
			c-0.15,0.333-0.314,0.797-0.493,1.394c-0.119,0.361-0.275,0.886-0.471,1.575H195.859z"/>
	</g>
	
		<path fill="none" stroke="#000000" stroke-width="0.12" stroke-linecap="round" stroke-linejoin="round" stroke-miterlimit="10" d="
		M178.845,40.481c0,3.601,6.84,6.601,15.36,6.601c8.4,0,15.24-3,15.36-6.601 M178.845,40.481c0,3.721,6.84,6.721,15.36,6.721
		c8.4,0,15.24-3,15.36-6.721 M178.845,40.481c0,3.721,6.84,6.84,15.36,6.84c8.4,0,15.24-3.119,15.36-6.84 M178.845,40.481
		c0,3.84,6.84,6.961,15.36,6.961c8.4,0,15.24-3.121,15.36-6.961 M178.845,40.481c0,3.84,6.84,7.08,15.36,7.08
		c8.4,0,15.24-3.24,15.36-7.08 M178.845,40.481c0,3.961,6.84,7.201,15.36,7.201c8.4,0,15.24-3.24,15.36-7.201 M178.845,40.481
		c0,3.961,6.84,7.32,15.36,7.32c8.4,0,15.24-3.359,15.36-7.32 M178.845,40.481c0,4.08,6.84,7.44,15.36,7.44
		c8.4,0,15.24-3.36,15.36-7.44"/>
	<path d="M182.743,30.451c-0.402,0-0.805,0.075-1.207,0.227c-0.628,0.227-1.031,0.428-1.282,0.63
		c-0.905,0.655-1.383,1.386-1.434,2.218c0,0.656,0.201,1.16,0.579,1.488c0.377,0.353,0.88,0.529,1.458,0.555
		c0.503,0,0.98-0.076,1.433-0.202s0.855-0.353,1.257-0.655c0.931-0.656,1.408-1.438,1.434-2.294c0-0.63-0.176-1.109-0.553-1.411
		c-0.428-0.379-0.956-0.555-1.584-0.555C182.793,30.451,182.768,30.451,182.743,30.451L182.743,30.451z"/>
	
		<path fill="none" stroke="#000000" stroke-width="0.12" stroke-linecap="round" stroke-linejoin="round" stroke-miterlimit="10" d="
		M184.485,32.921v-17.64 M184.605,32.921v-17.64 M184.725,32.921v-17.64 M184.845,32.921v-17.64"/>
	<path d="M186.757,32.502c0.226,0.227,0.478,0.352,0.805,0.352c0.327,0,0.604-0.125,0.83-0.352c0.227-0.228,0.352-0.505,0.352-0.807
		c0-0.277-0.125-0.555-0.352-0.832c-0.226-0.227-0.528-0.354-0.83-0.354c-0.402,0-0.679,0.102-0.855,0.303
		c-0.201,0.277-0.302,0.58-0.302,0.883C186.405,32.022,186.531,32.274,186.757,32.502L186.757,32.502z"/>
	<path d="M207.463,32.97c-0.402,0-0.805,0.075-1.207,0.228c-0.629,0.227-1.031,0.428-1.283,0.629
		c-0.905,0.656-1.383,1.387-1.433,2.219c0,0.655,0.201,1.16,0.578,1.487c0.377,0.353,0.88,0.53,1.458,0.555
		c0.503,0,0.981-0.075,1.434-0.202c0.453-0.125,0.855-0.353,1.257-0.655c0.93-0.656,1.408-1.438,1.433-2.295
		c0-0.63-0.176-1.109-0.553-1.411c-0.427-0.378-0.956-0.555-1.584-0.555C207.513,32.97,207.488,32.97,207.463,32.97L207.463,32.97z"
		/>
	
		<path fill="none" stroke="#000000" stroke-width="0.12" stroke-linecap="round" stroke-linejoin="round" stroke-miterlimit="10" d="
		M209.205,35.441V17.801 M209.325,35.441V17.801 M209.445,35.441V17.801 M209.565,35.441V17.801"/>
	<path d="M210.275,22.285c0.101,0.025,0.251,0.15,0.478,0.328c0.226,0.201,0.377,0.327,0.478,0.377
		c0.176,0.102,0.352,0.228,0.478,0.379c0.151,0.15,0.302,0.353,0.478,0.604c0.151,0.228,0.277,0.429,0.377,0.53
		c0.176,0.201,0.352,0.504,0.528,0.881c0.176,0.379,0.302,0.682,0.352,0.883c0.025,0.102,0.076,0.177,0.101,0.252
		c0.05,0.076,0.076,0.127,0.076,0.151c0,0.05,0,0.177,0,0.378v0.529c0.025,0.252,0.025,0.429,0.025,0.555
		c0,0.051,0.025,0.076,0.025,0.127c0,0.024,0,0.074,0,0.15c0,0.025,0,0.076-0.025,0.127c-0.025,0.05-0.025,0.074-0.025,0.1
		c-0.05,0.177-0.101,0.379-0.176,0.555c-0.05,0.202-0.101,0.404-0.151,0.605c-0.075,0.227-0.176,0.479-0.251,0.756l-0.025,0.177
		l-0.428,0.933h0.327c0.553-0.908,1.006-1.789,1.308-2.672c0.151-0.379,0.276-0.706,0.302-1.008c0.05-0.303,0.075-0.682,0.075-1.16
		c0-0.201-0.05-0.529-0.176-1.008c-0.101-0.328-0.227-0.682-0.377-1.059c-0.302-0.731-0.628-1.312-0.98-1.766
		c-0.126-0.125-0.227-0.227-0.302-0.327c-0.126-0.151-0.251-0.303-0.377-0.429l-1.006-0.957c-0.125-0.127-0.276-0.277-0.377-0.479
		c-0.126-0.202-0.251-0.353-0.327-0.454c-0.251-0.303-0.453-0.605-0.604-0.907c-0.151-0.327-0.251-0.604-0.327-0.882
		c-0.05-0.127-0.126-0.328-0.201-0.631l-0.101-0.303v4.513C209.722,22.134,209.999,22.184,210.275,22.285L210.275,22.285z"/>
	<g>
		<path d="M220.577,11.832c0.311-0.038,0.539-0.114,0.688-0.229c0.148-0.114,0.272-0.349,0.37-0.704l1.603-5.868
			c0.033-0.12,0.06-0.225,0.081-0.314c0.039-0.183,0.058-0.326,0.058-0.428c0-0.208-0.06-0.34-0.179-0.396
			c-0.119-0.055-0.376-0.1-0.771-0.134V3.42h3.59c0.802,0,1.424,0.079,1.865,0.236c0.811,0.29,1.215,0.843,1.215,1.661
			c0,0.272-0.068,0.563-0.204,0.872c-0.136,0.309-0.363,0.589-0.683,0.84c-0.225,0.179-0.488,0.324-0.791,0.435
			c-0.178,0.064-0.457,0.141-0.835,0.23c0.043,0.134,0.071,0.219,0.086,0.252l1.005,2.954c0.137,0.394,0.282,0.644,0.438,0.752
			c0.154,0.107,0.392,0.168,0.711,0.181v0.338h-2.627l-1.408-4.324h-0.367l-0.771,2.721l-0.109,0.451
			c-0.008,0.034-0.015,0.071-0.019,0.111c-0.005,0.04-0.007,0.082-0.007,0.124c0,0.233,0.057,0.379,0.17,0.439
			c0.111,0.059,0.372,0.105,0.78,0.14v0.338h-3.888V11.832z M225.583,7.329c0.404-0.085,0.715-0.251,0.932-0.498
			c0.149-0.17,0.289-0.41,0.418-0.718c0.13-0.309,0.194-0.642,0.194-1c0-0.366-0.091-0.67-0.271-0.91
			c-0.181-0.241-0.488-0.361-0.921-0.361c-0.182,0-0.312,0.039-0.393,0.118c-0.08,0.079-0.148,0.233-0.208,0.463l-0.788,2.995
			C225.008,7.41,225.354,7.38,225.583,7.329z"/>
		<path d="M229.368,11.832c0.311-0.038,0.54-0.114,0.689-0.229c0.148-0.114,0.271-0.349,0.369-0.704l1.604-5.869
			c0.038-0.149,0.07-0.285,0.096-0.406c0.025-0.122,0.038-0.225,0.038-0.31c0-0.222-0.058-0.361-0.175-0.418
			s-0.375-0.103-0.775-0.137V3.42h7.031l-0.555,2.485l-0.35-0.058c-0.01-0.634-0.111-1.083-0.308-1.348
			c-0.332-0.447-1.005-0.67-2.02-0.67c-0.345,0-0.568,0.042-0.669,0.125c-0.1,0.083-0.182,0.239-0.246,0.469l-0.773,2.906
			c0.914-0.021,1.505-0.096,1.775-0.223c0.27-0.128,0.567-0.513,0.895-1.156l0.363,0.045l-0.969,3.576l-0.357-0.063
			c0.018-0.124,0.029-0.231,0.035-0.323c0.007-0.091,0.01-0.167,0.01-0.227c0-0.464-0.128-0.781-0.384-0.952
			c-0.255-0.17-0.755-0.255-1.497-0.255l-0.859,3.193c-0.021,0.077-0.037,0.151-0.047,0.223c-0.012,0.073-0.016,0.13-0.016,0.173
			c0,0.119,0.046,0.217,0.14,0.293s0.289,0.115,0.587,0.115c0.791,0,1.466-0.111,2.023-0.332c0.867-0.341,1.544-0.956,2.029-1.846
			l0.318,0.058L236.6,12.17h-7.232V11.832z"/>
	</g>
	<path d="M226.422,35.49c-0.402,0-0.805,0.075-1.207,0.227c-0.628,0.227-1.03,0.428-1.282,0.63
		c-0.905,0.655-1.383,1.386-1.434,2.218c0,0.656,0.201,1.16,0.579,1.488c0.377,0.353,0.88,0.529,1.458,0.555
		c0.503,0,0.98-0.076,1.434-0.202c0.452-0.126,0.854-0.353,1.257-0.655c0.931-0.656,1.408-1.438,1.434-2.295
		c0-0.629-0.176-1.108-0.553-1.41c-0.428-0.379-0.956-0.555-1.585-0.555C226.473,35.49,226.448,35.49,226.422,35.49L226.422,35.49z"
		/>
	
		<path fill="none" stroke="#000000" stroke-width="0.12" stroke-linecap="round" stroke-linejoin="round" stroke-miterlimit="10" d="
		M228.165,37.961V20.32 M228.285,37.961V20.32 M228.405,37.961V20.32 M228.525,37.961V20.32"/>
	<path d="M230.437,37.543c0.227,0.227,0.478,0.352,0.805,0.352s0.604-0.125,0.83-0.352c0.226-0.228,0.352-0.505,0.352-0.807
		c0-0.277-0.126-0.555-0.352-0.832c-0.227-0.227-0.528-0.354-0.83-0.354c-0.402,0-0.679,0.102-0.855,0.303
		c-0.201,0.277-0.302,0.58-0.302,0.883C230.084,37.063,230.21,37.315,230.437,37.543L230.437,37.543z"/>
	<path d="M251.143,35.49c-0.402,0-0.805,0.076-1.207,0.227c-0.629,0.228-1.031,0.43-1.283,0.631
		c-0.905,0.655-1.383,1.387-1.433,2.219c0,0.654,0.201,1.159,0.578,1.486c0.377,0.354,0.88,0.529,1.458,0.555
		c0.503,0,0.981-0.075,1.434-0.201c0.453-0.127,0.855-0.354,1.258-0.656c0.93-0.654,1.408-1.436,1.433-2.293
		c0-0.631-0.176-1.109-0.553-1.412c-0.428-0.378-0.956-0.555-1.584-0.555C251.193,35.49,251.167,35.49,251.143,35.49L251.143,35.49z
		"/>
	
		<path fill="none" stroke="#000000" stroke-width="0.12" stroke-linecap="round" stroke-linejoin="round" stroke-miterlimit="10" d="
		M252.885,37.961V20.32 M253.004,37.961V20.32 M253.125,37.961V20.32 M253.245,37.961V20.32"/>
	<path d="M253.955,24.804c0.101,0.025,0.252,0.151,0.478,0.327c0.227,0.203,0.378,0.328,0.479,0.379
		c0.176,0.101,0.352,0.227,0.478,0.378c0.15,0.151,0.302,0.353,0.478,0.604c0.151,0.228,0.276,0.43,0.377,0.529
		c0.177,0.202,0.353,0.505,0.528,0.883c0.176,0.379,0.302,0.681,0.353,0.883c0.024,0.101,0.075,0.176,0.101,0.252
		c0.05,0.075,0.075,0.125,0.075,0.15c0,0.051,0,0.178,0,0.379v0.529c0.025,0.252,0.025,0.428,0.025,0.555
		c0,0.051,0.024,0.075,0.024,0.125c0,0.025,0,0.076,0,0.152c0,0.025,0,0.075-0.024,0.125c-0.025,0.051-0.025,0.076-0.025,0.102
		c-0.051,0.176-0.101,0.378-0.176,0.555c-0.051,0.201-0.101,0.403-0.151,0.605c-0.075,0.227-0.176,0.479-0.251,0.756l-0.025,0.176
		l-0.428,0.934h0.327c0.553-0.908,1.006-1.791,1.308-2.672c0.15-0.379,0.276-0.707,0.302-1.009c0.05-0.303,0.075-0.681,0.075-1.159
		c0-0.202-0.05-0.529-0.176-1.009c-0.101-0.327-0.227-0.681-0.377-1.059c-0.302-0.731-0.629-1.312-0.981-1.765
		c-0.125-0.126-0.226-0.227-0.302-0.328c-0.125-0.15-0.251-0.303-0.377-0.428l-1.006-0.959c-0.126-0.125-0.276-0.277-0.377-0.479
		c-0.126-0.201-0.252-0.353-0.327-0.453c-0.251-0.303-0.452-0.605-0.604-0.908c-0.15-0.327-0.251-0.604-0.327-0.882
		c-0.05-0.126-0.125-0.327-0.201-0.63l-0.101-0.303v4.512C253.402,24.652,253.678,24.703,253.955,24.804L253.955,24.804z"/>
	
		<path fill="none" stroke="#000000" stroke-width="0.12" stroke-linecap="round" stroke-linejoin="round" stroke-miterlimit="10" d="
		M264.645,20.32v20.161 M264.765,20.32v20.161 M264.885,20.32v20.161 M265.004,20.32v20.161"/>
	<g>
		<path d="M274.329,12.413l0.471-2.932l0.377,0.026c0.025,0.417,0.061,0.722,0.107,0.913c0.082,0.319,0.229,0.603,0.439,0.85
			c0.195,0.226,0.418,0.397,0.666,0.514c0.25,0.117,0.52,0.175,0.814,0.175c0.521,0,0.928-0.167,1.213-0.501
			c0.287-0.334,0.432-0.723,0.432-1.166c0-0.549-0.533-1.243-1.602-2.082c-1.066-0.877-1.6-1.688-1.6-2.433
			c0-0.703,0.234-1.301,0.705-1.795c0.469-0.494,1.125-0.741,1.967-0.741c0.232,0,0.473,0.023,0.721,0.07
			c0.16,0.03,0.303,0.066,0.426,0.108l0.332,0.109c0.072,0.021,0.146,0.039,0.223,0.054s0.145,0.022,0.205,0.022
			c0.152,0,0.27-0.032,0.35-0.096c0.08-0.064,0.15-0.143,0.211-0.236h0.389l-0.529,2.618l-0.338-0.044l-0.045-0.428
			c-0.055-0.404-0.18-0.751-0.375-1.041c-0.307-0.456-0.752-0.683-1.34-0.683c-0.5,0-0.867,0.183-1.096,0.549
			c-0.152,0.243-0.23,0.504-0.23,0.786c0,0.298,0.08,0.562,0.236,0.792c0.09,0.128,0.223,0.267,0.4,0.416l1.127,0.926
			c0.398,0.328,0.738,0.702,1.018,1.121s0.42,0.897,0.42,1.434c0,0.69-0.271,1.312-0.812,1.868
			c-0.543,0.556-1.287,0.833-2.234,0.833c-0.238,0-0.479-0.022-0.717-0.066c-0.24-0.044-0.479-0.108-0.711-0.192l-0.332-0.12
			c-0.111-0.042-0.188-0.068-0.23-0.079c-0.041-0.01-0.09-0.016-0.146-0.016c-0.145,0-0.246,0.035-0.309,0.104
			c-0.061,0.069-0.131,0.19-0.207,0.362H274.329z"/>
		<path d="M283.561,5.216c1.139-1.338,2.412-2.007,3.824-2.007c0.939,0,1.711,0.283,2.314,0.85c0.604,0.566,0.904,1.333,0.904,2.301
			c0,1.41-0.533,2.75-1.6,4.02c-1.139,1.359-2.447,2.039-3.928,2.039c-0.93,0-1.688-0.284-2.271-0.853s-0.877-1.329-0.877-2.279
			C281.928,7.855,282.471,6.499,283.561,5.216z M283.961,11.179c0.209,0.524,0.586,0.786,1.135,0.786
			c0.514,0,0.982-0.19,1.402-0.572c0.422-0.381,0.857-1.109,1.307-2.183c0.285-0.678,0.508-1.392,0.67-2.141
			c0.162-0.75,0.242-1.357,0.242-1.822c0-0.439-0.109-0.815-0.326-1.128c-0.215-0.313-0.553-0.47-1.012-0.47
			c-1.084,0-1.996,0.965-2.736,2.896c-0.561,1.466-0.84,2.687-0.84,3.663C283.803,10.587,283.856,10.911,283.961,11.179z"/>
	</g>
	<g>
		<path d="M290.747,11.832c0.311-0.039,0.539-0.115,0.688-0.23c0.148-0.115,0.271-0.351,0.369-0.708l1.604-5.864
			c0.045-0.166,0.08-0.305,0.104-0.418s0.035-0.212,0.035-0.297c0-0.221-0.061-0.361-0.184-0.418
			c-0.123-0.058-0.381-0.103-0.771-0.137V3.42h4.137v0.339c-0.455,0.046-0.762,0.118-0.918,0.213
			c-0.158,0.096-0.289,0.337-0.396,0.725l-1.699,6.241c-0.016,0.069-0.029,0.133-0.041,0.193c-0.01,0.06-0.016,0.131-0.016,0.212
			c0,0.146,0.064,0.25,0.191,0.312s0.307,0.093,0.535,0.093c0.898,0,1.674-0.153,2.326-0.46s1.229-0.879,1.725-1.718l0.312,0.058
			l-0.764,2.542h-7.236V11.832z"/>
	</g>
	<path d="M278.142,27.93c-0.402,0-0.805,0.076-1.207,0.227c-0.628,0.227-1.03,0.429-1.282,0.631
		c-0.905,0.654-1.383,1.387-1.434,2.218c0,0.655,0.201,1.159,0.579,1.487c0.377,0.354,0.88,0.529,1.458,0.555
		c0.503,0,0.98-0.076,1.434-0.201c0.452-0.127,0.854-0.354,1.257-0.656c0.931-0.655,1.408-1.437,1.434-2.293
		c0-0.631-0.176-1.109-0.553-1.412c-0.428-0.379-0.956-0.555-1.585-0.555C278.193,27.93,278.167,27.93,278.142,27.93L278.142,27.93z
		"/>
	
		<path fill="none" stroke="#000000" stroke-width="0.12" stroke-linecap="round" stroke-linejoin="round" stroke-miterlimit="10" d="
		M274.125,30.4v17.641 M274.245,30.4v17.641 M274.365,30.4v17.641 M274.485,30.4v17.641 M298.365,32.921V12.762 M298.485,32.921
		V12.762 M298.605,32.921V12.762 M298.724,32.921V12.762 M312.525,35.441v-20.16 M312.645,35.441v-20.16 M312.765,35.441v-20.16
		 M312.884,35.441v-20.16 M298.605,15.281l14.16,2.52 M298.605,15.161l14.16,2.521 M298.605,15.041l14.16,2.52 M298.605,14.921
		l14.16,2.521 M298.605,14.801l14.16,2.52 M298.605,14.682l14.16,2.52 M298.605,14.561l14.16,2.521 M298.605,14.441l14.16,2.52
		 M298.605,14.32l14.16,2.521 M298.605,14.201l14.16,2.52 M298.605,14.081l14.16,2.521 M298.605,13.961l14.16,2.52 M298.605,13.841
		l14.16,2.521 M298.605,13.721l14.16,2.52 M298.605,13.602l14.16,2.52 M298.605,13.48l14.16,2.521 M298.605,13.361l14.16,2.52
		 M298.605,13.24l14.16,2.521 M298.605,13.121l14.16,2.52 M298.605,13.001l14.16,2.521 M298.605,12.881l14.16,2.52"/>
	<path d="M296.502,30.451c-0.402,0-0.805,0.075-1.207,0.227c-0.629,0.227-1.031,0.428-1.282,0.63
		c-0.905,0.655-1.384,1.386-1.434,2.218c0,0.656,0.201,1.16,0.578,1.488c0.377,0.353,0.88,0.529,1.459,0.555
		c0.503,0,0.98-0.076,1.433-0.202c0.453-0.126,0.855-0.353,1.258-0.655c0.931-0.656,1.408-1.438,1.434-2.294
		c0-0.63-0.177-1.109-0.554-1.411c-0.428-0.379-0.955-0.555-1.584-0.555C296.552,30.451,296.528,30.451,296.502,30.451
		L296.502,30.451z"/>
	<path d="M310.663,32.971c-0.402,0-0.805,0.076-1.207,0.227c-0.629,0.227-1.031,0.429-1.282,0.631
		c-0.905,0.654-1.384,1.386-1.434,2.218c0,0.655,0.201,1.159,0.578,1.487c0.377,0.354,0.88,0.53,1.459,0.555
		c0.503,0,0.98-0.076,1.433-0.201c0.453-0.127,0.855-0.354,1.258-0.657c0.931-0.655,1.408-1.437,1.434-2.293
		c0-0.631-0.177-1.109-0.554-1.412c-0.428-0.379-0.955-0.555-1.584-0.555C310.712,32.971,310.688,32.971,310.663,32.971
		L310.663,32.971z"/>
	<g>
		<path d="M319.086,12.413l0.471-2.932l0.377,0.026c0.025,0.417,0.061,0.722,0.107,0.913c0.082,0.319,0.229,0.603,0.439,0.85
			c0.195,0.226,0.418,0.397,0.666,0.514c0.25,0.117,0.52,0.175,0.814,0.175c0.521,0,0.928-0.167,1.213-0.501
			c0.287-0.334,0.432-0.723,0.432-1.166c0-0.549-0.533-1.243-1.602-2.082c-1.066-0.877-1.6-1.688-1.6-2.433
			c0-0.703,0.234-1.301,0.705-1.795c0.469-0.494,1.125-0.741,1.967-0.741c0.232,0,0.473,0.023,0.721,0.07
			c0.16,0.03,0.303,0.066,0.426,0.108l0.332,0.109c0.072,0.021,0.146,0.039,0.223,0.054s0.145,0.022,0.205,0.022
			c0.152,0,0.27-0.032,0.35-0.096c0.08-0.064,0.15-0.143,0.211-0.236h0.389l-0.529,2.618l-0.338-0.044l-0.045-0.428
			c-0.055-0.404-0.18-0.751-0.375-1.041c-0.307-0.456-0.752-0.683-1.34-0.683c-0.5,0-0.867,0.183-1.096,0.549
			c-0.152,0.243-0.23,0.504-0.23,0.786c0,0.298,0.08,0.562,0.236,0.792c0.09,0.128,0.223,0.267,0.4,0.416l1.127,0.926
			c0.398,0.328,0.738,0.702,1.018,1.121s0.42,0.897,0.42,1.434c0,0.69-0.271,1.312-0.812,1.868
			c-0.543,0.556-1.287,0.833-2.234,0.833c-0.238,0-0.479-0.022-0.717-0.066c-0.24-0.044-0.479-0.108-0.711-0.192l-0.332-0.12
			c-0.111-0.042-0.188-0.068-0.23-0.079c-0.041-0.01-0.09-0.016-0.146-0.016c-0.145,0-0.246,0.035-0.309,0.104
			c-0.061,0.069-0.131,0.19-0.207,0.362H319.086z"/>
		<path d="M326.04,11.832c0.309-0.038,0.539-0.114,0.688-0.229s0.271-0.349,0.369-0.704L328.7,5.03
			c0.047-0.167,0.082-0.306,0.105-0.418s0.035-0.212,0.035-0.297c0-0.222-0.061-0.361-0.184-0.418
			c-0.125-0.058-0.381-0.103-0.771-0.137V3.42h3.887v0.339c-0.318,0.042-0.549,0.119-0.691,0.23
			c-0.143,0.11-0.262,0.347-0.359,0.708l-1.611,5.87l-0.102,0.451c-0.008,0.042-0.016,0.086-0.021,0.13s-0.01,0.085-0.01,0.124
			c0,0.221,0.059,0.36,0.178,0.42c0.119,0.059,0.377,0.105,0.771,0.14v0.338h-3.887V11.832z"/>
	</g>
	<path d="M319.605,38.717c0,0.352,0.05,0.68,0.125,0.957c0.076,0.303,0.252,0.58,0.554,0.807c0.302,0.201,0.779,0.303,1.408,0.328
		c0.276,0,0.578-0.025,0.88-0.076c0.302-0.075,0.604-0.201,0.931-0.327c0.604-0.277,1.132-0.681,1.584-1.21
		c0.428-0.504,0.654-1.033,0.679-1.588c0-0.908-0.226-1.562-0.704-1.916c-0.302-0.227-0.754-0.354-1.357-0.354
		c-0.075,0-0.126,0-0.201,0c-0.227,0-0.478,0.025-0.704,0.076c-0.327,0.076-0.629,0.201-0.931,0.328
		c-0.629,0.303-1.156,0.68-1.584,1.159c-0.428,0.504-0.654,1.034-0.679,1.614C319.605,38.59,319.605,38.641,319.605,38.717
		L319.605,38.717z M323.049,36.775c0.428-0.151,0.83-0.227,1.207-0.227c0.025,0,0.076,0,0.101,0c0.101,0,0.201,0.05,0.327,0.176
		c0.075,0.076,0.151,0.177,0.176,0.277c0,0.277-0.15,0.58-0.427,0.909c-0.227,0.252-0.378,0.428-0.453,0.529
		c-0.075,0.05-0.251,0.201-0.553,0.428c-0.227,0.151-0.402,0.277-0.579,0.354c-0.302,0.176-0.503,0.277-0.578,0.303
		c-0.201,0.075-0.428,0.125-0.653,0.15c-0.227,0.025-0.428,0.051-0.579,0.051c-0.15-0.025-0.276-0.102-0.402-0.201
		c-0.101-0.076-0.15-0.202-0.15-0.303c0-0.025,0-0.051,0-0.076c0-0.227,0.075-0.453,0.201-0.68c0.176-0.303,0.452-0.58,0.805-0.833
		C322.094,37.229,322.597,36.926,323.049,36.775L323.049,36.775z"/>
	
		<path fill="none" stroke="#000000" stroke-width="0.12" stroke-linecap="round" stroke-linejoin="round" stroke-miterlimit="10" d="
		M325.245,37.961V20.32 M325.365,37.961V20.32 M325.485,37.961V20.32 M325.605,37.961V20.32 M356.325,20.32v20.161 M356.445,20.32
		v20.161 M356.565,20.32v20.161 M356.685,20.32v20.161"/>
	<g>
		<path d="M365.534,11.832c0.336-0.042,0.578-0.169,0.729-0.38c0.148-0.21,0.348-0.75,0.6-1.618l1.33-4.869
			c0.049-0.166,0.088-0.312,0.117-0.437c0.027-0.126,0.043-0.235,0.043-0.329c0-0.183-0.064-0.299-0.195-0.348
			c-0.129-0.049-0.379-0.08-0.75-0.092V3.42h2.984l0.748,6.166l3.988-6.166h2.775v0.339c-0.299,0.038-0.506,0.098-0.625,0.179
			c-0.188,0.127-0.332,0.374-0.434,0.74l-1.607,5.884c-0.039,0.127-0.072,0.257-0.1,0.389s-0.041,0.243-0.041,0.332
			c0,0.217,0.062,0.354,0.188,0.412c0.125,0.057,0.381,0.103,0.768,0.137v0.338h-4.078v-0.338c0.438-0.042,0.738-0.114,0.902-0.214
			c0.162-0.1,0.295-0.341,0.396-0.725l1.645-6.018l-4.9,7.467h-0.363l-0.881-7.256l-1.316,4.748
			c-0.068,0.243-0.119,0.444-0.152,0.606c-0.061,0.264-0.09,0.474-0.09,0.631c0,0.307,0.121,0.517,0.363,0.632
			c0.137,0.068,0.363,0.111,0.682,0.128v0.338h-2.725V11.832z"/>
		<path d="M377.274,11.832c0.311-0.038,0.539-0.114,0.689-0.229c0.148-0.114,0.271-0.349,0.369-0.704l1.604-5.869
			c0.047-0.167,0.082-0.306,0.105-0.418s0.035-0.212,0.035-0.297c0-0.222-0.062-0.361-0.186-0.418s-0.381-0.103-0.771-0.137V3.42
			h3.889v0.339c-0.318,0.042-0.549,0.119-0.691,0.23c-0.143,0.11-0.264,0.347-0.361,0.708l-1.609,5.87l-0.102,0.451
			c-0.01,0.042-0.016,0.086-0.023,0.13c-0.006,0.044-0.01,0.085-0.01,0.124c0,0.221,0.061,0.36,0.18,0.42
			c0.119,0.059,0.375,0.105,0.771,0.14v0.338h-3.889V11.832z"/>
	</g>
	<g>
		<path d="M382.827,12.17l1.143-4.185c0.068-0.245,0.113-0.417,0.135-0.517c0.021-0.099,0.031-0.195,0.031-0.288
			c0-0.14-0.043-0.226-0.131-0.26c-0.088-0.034-0.279-0.059-0.578-0.076V6.499c0.551-0.034,1.02-0.079,1.404-0.134
			c0.25-0.034,0.66-0.106,1.23-0.217l-0.787,2.42l0.045,0.032c0.568-0.864,0.998-1.443,1.287-1.737
			c0.473-0.477,0.969-0.715,1.492-0.715c0.242,0,0.443,0.076,0.605,0.227s0.242,0.359,0.242,0.624c0,0.2-0.039,0.437-0.115,0.71
			c-0.041,0.152-0.098,0.341-0.17,0.569c0.543-0.685,0.984-1.166,1.32-1.442c0.561-0.459,1.139-0.689,1.74-0.689
			c0.404,0,0.703,0.096,0.896,0.288c0.193,0.192,0.291,0.465,0.291,0.817c0,0.199-0.041,0.465-0.121,0.799
			c-0.008,0.046-0.053,0.213-0.135,0.5l-0.691,2.075c-0.051,0.116-0.1,0.236-0.145,0.36s-0.066,0.212-0.066,0.263
			c0,0.048,0.025,0.085,0.074,0.113s0.094,0.041,0.137,0.041c0.123,0,0.295-0.143,0.518-0.428c0.119-0.153,0.248-0.345,0.389-0.575
			l0.287,0.185c-0.324,0.524-0.598,0.9-0.822,1.13c-0.393,0.396-0.805,0.594-1.238,0.594c-0.221,0-0.428-0.06-0.619-0.178
			c-0.191-0.119-0.287-0.315-0.287-0.589c0-0.226,0.059-0.543,0.174-0.951c0.072-0.25,0.166-0.537,0.285-0.862l0.539-1.999
			c0.008-0.04,0.016-0.081,0.021-0.124c0.006-0.042,0.01-0.084,0.01-0.124c0-0.108-0.027-0.2-0.08-0.274
			c-0.064-0.074-0.156-0.111-0.279-0.111c-0.34,0-0.723,0.228-1.15,0.684s-0.785,0.926-1.07,1.412
			c-0.107,0.174-0.211,0.387-0.314,0.639c-0.104,0.251-0.365,1.03-0.785,2.337h-1.566l1.156-4.286
			c0.033-0.1,0.061-0.191,0.082-0.273s0.033-0.161,0.033-0.237c0-0.12-0.025-0.196-0.076-0.228
			c-0.051-0.032-0.105-0.048-0.164-0.048c-0.189,0-0.441,0.195-0.754,0.585c-0.312,0.39-0.609,0.896-0.889,1.518
			c-0.15,0.333-0.316,0.797-0.494,1.394c-0.117,0.361-0.275,0.886-0.471,1.575H382.827z"/>
	</g>
	<path d="M368.338,39.499c0.101-0.102,0.201-0.201,0.277-0.303c0.176-0.176,0.478-0.303,0.854-0.354
		c0.402,0,0.755,0.076,1.006,0.228c0.075,0.024,0.126,0.075,0.201,0.126s0.176,0.126,0.276,0.227
		c0.177,0.127,0.302,0.252,0.402,0.429c0.101,0.151,0.201,0.303,0.252,0.479c0.05,0.176,0.075,0.353,0.075,0.504
		c0,0.201-0.025,0.403-0.126,0.63c-0.05,0.126-0.15,0.228-0.251,0.353c-0.176,0.177-0.478,0.303-0.88,0.354
		c-0.201,0-0.503-0.051-0.855-0.177c-0.276-0.126-0.528-0.276-0.729-0.454c-0.226-0.075-0.377-0.327-0.503-0.705
		c-0.125-0.252-0.176-0.529-0.176-0.807C368.163,39.7,368.213,39.524,368.338,39.499L368.338,39.499z M366.101,41.338
		c0.125,0.227,0.302,0.453,0.527,0.631c0.479,0.377,1.006,0.629,1.609,0.756c0.327,0.075,0.629,0.15,0.905,0.176
		c0.277,0.025,0.554,0.051,0.881,0.051c0.527,0,1.106-0.076,1.734-0.227c0.629-0.151,1.157-0.404,1.585-0.781
		c0.427-0.379,0.653-0.857,0.653-1.438s-0.227-1.059-0.704-1.437c-0.452-0.378-1.006-0.63-1.635-0.782
		c-0.326-0.074-0.628-0.15-0.905-0.176c-0.276-0.025-0.553-0.051-0.88-0.051c-0.528,0-1.081,0.076-1.71,0.252
		c-0.629,0.152-1.156,0.404-1.584,0.781c-0.428,0.354-0.654,0.832-0.654,1.412C365.924,40.834,365.975,41.112,366.101,41.338
		L366.101,41.338z"/>
	
		<path fill="none" stroke="#000000" stroke-width="0.12" stroke-linecap="round" stroke-linejoin="round" stroke-miterlimit="10" d="
		M430.964,20.32v20.161 M431.084,20.32v20.161 M431.205,20.32v20.161 M431.325,20.32v20.161 M432.405,20.32v20.161 M432.525,20.32
		v20.161 M432.645,20.32v20.161 M432.765,20.32v20.161 M432.884,20.32v20.161 M433.004,20.32v20.161 M433.125,20.32v20.161
		 M433.245,20.32v20.161 M433.365,20.32v20.161 M433.485,20.32v20.161 M433.605,20.32v20.161 M433.724,20.32v20.161 M433.844,20.32
		v20.161 M433.964,20.32v20.161 M434.084,20.32v20.161 M434.205,20.32v20.161 M434.325,20.32v20.161 M434.445,20.32v20.161
		 M434.565,20.32v20.161 M434.685,20.32v20.161 M434.804,20.32v20.161 M434.924,20.32v20.161 M435.044,20.32v20.161 M435.165,20.32
		v20.161 M435.285,20.32v20.161 M435.405,20.32v20.161 M435.525,20.32v20.161 M435.645,20.32v20.161"/>
</g>
</svg>
