<?xml version="1.0" encoding="utf-8"?>
<!-- Generator: Adobe Illustrator 16.0.0, SVG Export Plug-In . SVG Version: 6.00 Build 0)  -->
<!DOCTYPE svg PUBLIC "-//W3C//DTD SVG 1.1//EN" "http://www.w3.org/Graphics/SVG/1.1/DTD/svg11.dtd">
<svg version="1.1" id="Layer_1" xmlns="http://www.w3.org/2000/svg" xmlns:xlink="http://www.w3.org/1999/xlink" x="0px" y="0px"
	 width="416.693px" height="73.701px" viewBox="0 0 416.693 73.701" enable-background="new 0 0 416.693 73.701"
	 xml:space="preserve">
<path fill="none" stroke="#000000" stroke-width="0.12" stroke-linecap="round" stroke-linejoin="round" stroke-miterlimit="10" d="
	M1.79,21.293h412.918 M1.79,21.414h412.918 M1.79,21.533h412.918 M1.79,21.654h412.918 M1.79,26.333h412.918 M1.79,26.453h412.918
	 M1.79,26.574h412.918 M1.79,26.693h412.918 M1.79,31.374h412.918 M1.79,31.494h412.918 M1.79,31.613h412.918 M1.79,31.734h412.918
	 M1.79,36.414h412.918 M1.79,36.533h412.918 M1.79,36.654h412.918 M1.79,36.773h412.918 M1.79,41.452h412.918 M1.79,41.573h412.918
	 M1.79,41.692h412.918 M1.79,41.813h412.918"/>
<g enable-background="new    ">
	<path d="M51.555,68.243c0.492-0.035,0.811-0.109,0.957-0.221c0.146-0.112,0.218-0.401,0.218-0.869v-5.391
		c0-0.445-0.073-0.732-0.218-0.861c-0.146-0.128-0.465-0.204-0.957-0.228v-0.226h3.58v0.226c-0.492,0.023-0.811,0.1-0.957,0.228
		c-0.146,0.129-0.218,0.416-0.218,0.861v5.391c0,0.468,0.073,0.757,0.218,0.869c0.146,0.111,0.465,0.186,0.957,0.221v0.225h-3.58
		V68.243z"/>
	<path d="M55.637,68.302c0.366-0.035,0.614-0.109,0.744-0.222s0.195-0.332,0.195-0.659v-5.782c0-0.261-0.021-0.44-0.065-0.538
		c-0.079-0.166-0.238-0.249-0.478-0.249c-0.055,0-0.115,0.006-0.18,0.018s-0.147,0.03-0.245,0.054v-0.195
		c0.531-0.143,1.171-0.332,1.919-0.568c0.027,0,0.044,0.012,0.05,0.035s0.009,0.075,0.009,0.154v7.096
		c0,0.343,0.059,0.564,0.177,0.666c0.118,0.1,0.362,0.164,0.732,0.191v0.166h-2.859V68.302z"/>
</g>
<g enable-background="new    ">
	<path d="M63.656,66.03c0.204,0.544,0.444,0.979,0.719,1.301c0.48,0.564,1.076,0.847,1.787,0.847c0.385,0,0.719-0.122,1-0.366
		c0.281-0.245,0.421-0.586,0.421-1.024c0-0.395-0.141-0.737-0.424-1.03c-0.185-0.186-0.574-0.463-1.167-0.834l-1.032-0.645
		c-0.311-0.197-0.559-0.396-0.744-0.598c-0.343-0.383-0.514-0.805-0.514-1.268c0-0.611,0.203-1.119,0.608-1.526
		c0.405-0.406,0.943-0.609,1.612-0.609c0.275,0,0.607,0.067,0.995,0.204c0.388,0.137,0.609,0.204,0.665,0.204
		c0.15,0,0.253-0.036,0.31-0.106s0.102-0.172,0.133-0.302h0.248l0.266,2.58h-0.29c-0.197-0.776-0.513-1.319-0.948-1.628
		c-0.436-0.307-0.866-0.461-1.291-0.461c-0.331,0-0.619,0.098-0.865,0.293s-0.369,0.467-0.369,0.813c0,0.312,0.094,0.578,0.283,0.8
		c0.188,0.225,0.481,0.459,0.879,0.703l1.062,0.657c0.665,0.411,1.134,0.787,1.406,1.13c0.269,0.348,0.403,0.758,0.403,1.231
		c0,0.636-0.239,1.166-0.717,1.592c-0.479,0.427-1.09,0.64-1.834,0.64c-0.375,0-0.765-0.071-1.173-0.213
		c-0.407-0.143-0.641-0.213-0.7-0.213c-0.142,0-0.237,0.043-0.287,0.129c-0.049,0.088-0.082,0.18-0.097,0.279h-0.266l-0.36-2.58
		H63.656z"/>
	<path d="M69.84,68.302c0.421-0.039,0.687-0.111,0.797-0.216s0.166-0.388,0.166-0.849v-2.823c0-0.257-0.018-0.435-0.053-0.532
		c-0.059-0.162-0.183-0.243-0.372-0.243c-0.043,0-0.086,0.004-0.127,0.012c-0.042,0.009-0.161,0.04-0.357,0.095v-0.184l0.254-0.082
		c0.689-0.226,1.169-0.395,1.441-0.51c0.11-0.047,0.181-0.07,0.212-0.07c0.008,0.027,0.012,0.057,0.012,0.088v4.25
		c0,0.449,0.054,0.731,0.163,0.846c0.108,0.115,0.354,0.188,0.735,0.219v0.166H69.84V68.302z M70.779,60.389
		c0.118-0.122,0.264-0.183,0.437-0.183c0.169,0,0.314,0.061,0.435,0.18c0.12,0.12,0.18,0.266,0.18,0.439
		c0,0.168-0.06,0.312-0.18,0.433s-0.265,0.179-0.435,0.179c-0.173,0-0.319-0.059-0.437-0.179s-0.177-0.265-0.177-0.433
		C70.601,60.655,70.66,60.511,70.779,60.389z"/>
</g>
<g enable-background="new    ">
	<path d="M81.753,65.847c-0.199-0.305-0.298-0.646-0.298-1.024c0-0.462,0.183-0.899,0.549-1.313
		c0.367-0.414,0.884-0.621,1.554-0.621c0.288,0,0.604,0.067,0.951,0.203c0.346,0.137,0.679,0.205,0.998,0.205
		c0.083,0,0.208-0.004,0.375-0.01s0.289-0.008,0.363-0.008h0.071v0.479h-1.021c0.071,0.166,0.126,0.311,0.165,0.432
		c0.067,0.229,0.101,0.446,0.101,0.651c0,0.45-0.186,0.863-0.558,1.24c-0.372,0.376-0.874,0.565-1.503,0.565
		c-0.099,0-0.276-0.018-0.532-0.054c-0.114,0-0.266,0.097-0.455,0.29s-0.284,0.352-0.284,0.473c0,0.127,0.138,0.22,0.414,0.279
		c0.182,0.039,0.383,0.059,0.604,0.059c1.014,0,1.702,0.058,2.064,0.172c0.596,0.186,0.893,0.584,0.893,1.195
		c0,0.623-0.347,1.121-1.042,1.491c-0.695,0.371-1.397,0.557-2.105,0.557c-0.646,0-1.158-0.132-1.536-0.394
		c-0.378-0.263-0.567-0.537-0.567-0.826c0-0.142,0.05-0.281,0.15-0.417s0.297-0.339,0.591-0.606l0.389-0.35l0.07-0.07
		c-0.18-0.071-0.314-0.141-0.404-0.207c-0.156-0.123-0.235-0.263-0.235-0.42c0-0.146,0.068-0.307,0.204-0.482
		s0.426-0.461,0.871-0.855C82.23,66.36,81.952,66.149,81.753,65.847z M82.379,70.249c0.372,0.127,0.798,0.189,1.279,0.189
		c0.653,0,1.185-0.113,1.595-0.34c0.409-0.228,0.614-0.506,0.614-0.838c0-0.264-0.166-0.439-0.497-0.527
		c-0.206-0.051-0.594-0.08-1.166-0.088c-0.146-0.004-0.3-0.01-0.462-0.016c-0.162-0.006-0.31-0.012-0.444-0.02
		c-0.087-0.004-0.227-0.021-0.42-0.048c-0.193-0.028-0.337-0.052-0.432-0.071c-0.047,0-0.163,0.125-0.345,0.373
		c-0.187,0.252-0.28,0.485-0.28,0.698C81.821,69.894,82.007,70.122,82.379,70.249z M84.254,66.184
		c0.236-0.189,0.354-0.519,0.354-0.988c0-0.375-0.095-0.797-0.286-1.267c-0.191-0.469-0.509-0.704-0.954-0.704
		c-0.386,0-0.652,0.183-0.797,0.55c-0.075,0.193-0.112,0.433-0.112,0.717c0,0.48,0.116,0.913,0.349,1.296
		c0.232,0.382,0.533,0.573,0.904,0.573C83.927,66.36,84.109,66.302,84.254,66.184z"/>
	<path d="M86.901,68.302c0.279-0.035,0.475-0.105,0.587-0.21s0.168-0.338,0.168-0.701v-3.007c0-0.25-0.023-0.426-0.071-0.527
		c-0.075-0.149-0.229-0.224-0.461-0.224c-0.035,0-0.072,0.002-0.109,0.006c-0.037,0.004-0.083,0.01-0.139,0.018v-0.207
		c0.162-0.048,0.543-0.169,1.146-0.366l0.555-0.184c0.027,0,0.044,0.01,0.05,0.029s0.009,0.047,0.009,0.082v0.871
		c0.362-0.34,0.645-0.572,0.849-0.699c0.307-0.193,0.625-0.289,0.955-0.289c0.267,0,0.511,0.076,0.731,0.23
		c0.424,0.3,0.637,0.834,0.637,1.604v2.764c0,0.284,0.057,0.489,0.17,0.615c0.113,0.127,0.303,0.191,0.568,0.195v0.166h-2.522
		v-0.166c0.287-0.039,0.488-0.119,0.603-0.239s0.171-0.382,0.171-0.784v-2.527c0-0.339-0.063-0.62-0.188-0.843
		c-0.125-0.224-0.356-0.335-0.693-0.335c-0.231,0-0.466,0.079-0.705,0.237c-0.133,0.091-0.306,0.241-0.517,0.45v3.313
		c0,0.284,0.063,0.475,0.189,0.571s0.325,0.148,0.597,0.156v0.166h-2.581V68.302z"/>
	<path d="M93.785,63.73c0.498-0.542,1.139-0.813,1.923-0.813c0.78,0,1.425,0.256,1.938,0.77c0.512,0.513,0.768,1.195,0.768,2.047
		c0,0.785-0.248,1.468-0.744,2.048s-1.138,0.87-1.926,0.87c-0.756,0-1.396-0.278-1.919-0.834c-0.524-0.557-0.786-1.256-0.786-2.096
		C93.038,64.937,93.287,64.272,93.785,63.73z M94.728,63.579c-0.395,0.359-0.592,0.979-0.592,1.859c0,0.701,0.159,1.356,0.477,1.964
		c0.317,0.608,0.758,0.911,1.322,0.911c0.442,0,0.782-0.203,1.021-0.609s0.358-0.938,0.358-1.598c0-0.683-0.152-1.326-0.456-1.93
		s-0.744-0.904-1.32-0.904C95.227,63.272,94.957,63.374,94.728,63.579z"/>
</g>
<g enable-background="new    ">
	<path d="M75.231,65.354h2.989v0.758h-2.989V65.354z"/>
	<path d="M109.833,68.272c0.362-0.031,0.603-0.096,0.721-0.192s0.177-0.303,0.177-0.618v-2.67c0-0.39-0.037-0.669-0.109-0.837
		c-0.073-0.167-0.206-0.251-0.399-0.251c-0.039,0-0.091,0.005-0.156,0.015s-0.133,0.022-0.204,0.038v-0.195
		c0.224-0.078,0.454-0.16,0.689-0.242c0.236-0.083,0.398-0.143,0.489-0.178c0.196-0.074,0.398-0.16,0.606-0.254
		c0.027,0,0.044,0.01,0.05,0.029c0.006,0.02,0.009,0.061,0.009,0.124v0.971c0.252-0.351,0.496-0.626,0.731-0.823
		c0.235-0.197,0.479-0.295,0.731-0.295c0.201,0,0.365,0.06,0.492,0.18c0.126,0.121,0.189,0.271,0.189,0.453
		c0,0.162-0.048,0.298-0.145,0.408c-0.096,0.11-0.217,0.166-0.363,0.166c-0.149,0-0.3-0.069-0.452-0.207
		c-0.151-0.139-0.271-0.207-0.357-0.207c-0.138,0-0.307,0.111-0.508,0.334s-0.301,0.453-0.301,0.689v2.669
		c0,0.339,0.079,0.575,0.236,0.707c0.157,0.132,0.419,0.194,0.786,0.187v0.195h-2.912V68.272z"/>
</g>
<g enable-background="new    ">
	<path d="M118.113,63.493c0.417,0.385,0.626,0.931,0.626,1.637h-3.751c0.04,0.914,0.246,1.578,0.62,1.996
		c0.374,0.417,0.817,0.625,1.329,0.625c0.414,0,0.762-0.107,1.045-0.324c0.284-0.217,0.545-0.523,0.786-0.921l0.207,0.071
		c-0.162,0.502-0.464,0.966-0.907,1.393c-0.443,0.427-0.986,0.641-1.627,0.641c-0.74,0-1.312-0.281-1.716-0.841
		c-0.404-0.56-0.605-1.205-0.605-1.935c0-0.793,0.234-1.479,0.703-2.055c0.469-0.576,1.079-0.863,1.831-0.863
		C117.209,62.917,117.696,63.108,118.113,63.493z M115.283,63.946c-0.126,0.213-0.217,0.481-0.271,0.805h2.492
		c-0.043-0.395-0.118-0.688-0.224-0.881c-0.193-0.348-0.516-0.521-0.969-0.521C115.862,63.349,115.52,63.548,115.283,63.946z"/>
</g>
<g enable-background="new    ">
	<path d="M102.825,65.354h2.989v0.758h-2.989V65.354z"/>
	<path d="M136.423,68.272c0.362-0.031,0.603-0.096,0.721-0.192s0.177-0.303,0.177-0.618v-2.67c0-0.39-0.037-0.669-0.109-0.837
		c-0.073-0.167-0.206-0.251-0.399-0.251c-0.039,0-0.091,0.005-0.156,0.015s-0.133,0.022-0.204,0.038v-0.195
		c0.224-0.078,0.454-0.16,0.689-0.242c0.236-0.083,0.398-0.143,0.489-0.178c0.196-0.074,0.398-0.16,0.606-0.254
		c0.027,0,0.044,0.01,0.05,0.029c0.006,0.02,0.009,0.061,0.009,0.124v0.971c0.252-0.351,0.496-0.626,0.731-0.823
		c0.235-0.197,0.479-0.295,0.731-0.295c0.201,0,0.365,0.06,0.492,0.18c0.126,0.121,0.189,0.271,0.189,0.453
		c0,0.162-0.048,0.298-0.145,0.408c-0.096,0.11-0.217,0.166-0.363,0.166c-0.149,0-0.3-0.069-0.452-0.207
		c-0.151-0.139-0.271-0.207-0.357-0.207c-0.138,0-0.307,0.111-0.508,0.334s-0.301,0.453-0.301,0.689v2.669
		c0,0.339,0.079,0.575,0.236,0.707c0.157,0.132,0.419,0.194,0.786,0.187v0.195h-2.912V68.272z"/>
</g>
<g enable-background="new    ">
	<path d="M145.097,63.493c0.417,0.385,0.626,0.931,0.626,1.637h-3.751c0.04,0.914,0.246,1.578,0.62,1.996
		c0.374,0.417,0.817,0.625,1.329,0.625c0.414,0,0.762-0.107,1.045-0.324c0.284-0.217,0.545-0.523,0.786-0.921l0.207,0.071
		c-0.162,0.502-0.464,0.966-0.907,1.393c-0.443,0.427-0.986,0.641-1.627,0.641c-0.74,0-1.312-0.281-1.716-0.841
		c-0.404-0.56-0.605-1.205-0.605-1.935c0-0.793,0.234-1.479,0.703-2.055c0.469-0.576,1.079-0.863,1.831-0.863
		C144.194,62.917,144.68,63.108,145.097,63.493z M142.268,63.946c-0.126,0.213-0.217,0.481-0.271,0.805h2.492
		c-0.043-0.395-0.118-0.688-0.224-0.881c-0.193-0.348-0.516-0.521-0.969-0.521C142.847,63.349,142.505,63.548,142.268,63.946z"/>
</g>
<g enable-background="new    ">
	<path d="M157.956,65.847c-0.199-0.305-0.298-0.646-0.298-1.024c0-0.462,0.183-0.899,0.549-1.313
		c0.367-0.414,0.884-0.621,1.554-0.621c0.288,0,0.604,0.067,0.951,0.203c0.346,0.137,0.679,0.205,0.998,0.205
		c0.083,0,0.208-0.004,0.375-0.01s0.289-0.008,0.363-0.008h0.071v0.479h-1.021c0.071,0.166,0.126,0.311,0.165,0.432
		c0.067,0.229,0.101,0.446,0.101,0.651c0,0.45-0.186,0.863-0.558,1.24c-0.372,0.376-0.874,0.565-1.503,0.565
		c-0.099,0-0.276-0.018-0.532-0.054c-0.114,0-0.266,0.097-0.455,0.29s-0.284,0.352-0.284,0.473c0,0.127,0.138,0.22,0.414,0.279
		c0.182,0.039,0.383,0.059,0.604,0.059c1.014,0,1.702,0.058,2.064,0.172c0.596,0.186,0.893,0.584,0.893,1.195
		c0,0.623-0.347,1.121-1.042,1.491c-0.695,0.371-1.397,0.557-2.105,0.557c-0.646,0-1.158-0.132-1.536-0.394
		c-0.378-0.263-0.567-0.537-0.567-0.826c0-0.142,0.05-0.281,0.15-0.417s0.297-0.339,0.591-0.606l0.389-0.35l0.07-0.07
		c-0.18-0.071-0.314-0.141-0.404-0.207c-0.156-0.123-0.235-0.263-0.235-0.42c0-0.146,0.068-0.307,0.204-0.482
		s0.426-0.461,0.871-0.855C158.433,66.36,158.155,66.149,157.956,65.847z M158.582,70.249c0.372,0.127,0.798,0.189,1.279,0.189
		c0.653,0,1.185-0.113,1.595-0.34c0.409-0.228,0.614-0.506,0.614-0.838c0-0.264-0.166-0.439-0.497-0.527
		c-0.206-0.051-0.594-0.08-1.166-0.088c-0.146-0.004-0.3-0.01-0.462-0.016c-0.162-0.006-0.31-0.012-0.444-0.02
		c-0.087-0.004-0.227-0.021-0.42-0.048c-0.193-0.028-0.337-0.052-0.432-0.071c-0.047,0-0.163,0.125-0.345,0.373
		c-0.187,0.252-0.28,0.485-0.28,0.698C158.024,69.894,158.21,70.122,158.582,70.249z M160.457,66.184
		c0.236-0.189,0.354-0.519,0.354-0.988c0-0.375-0.095-0.797-0.286-1.267c-0.191-0.469-0.509-0.704-0.954-0.704
		c-0.386,0-0.652,0.183-0.797,0.55c-0.075,0.193-0.112,0.433-0.112,0.717c0,0.48,0.116,0.913,0.349,1.296
		c0.232,0.382,0.533,0.573,0.904,0.573C160.131,66.36,160.312,66.302,160.457,66.184z"/>
	<path d="M163.104,68.302c0.279-0.035,0.475-0.105,0.587-0.21s0.168-0.338,0.168-0.701v-3.007c0-0.25-0.023-0.426-0.071-0.527
		c-0.075-0.149-0.229-0.224-0.461-0.224c-0.035,0-0.072,0.002-0.109,0.006c-0.037,0.004-0.083,0.01-0.139,0.018v-0.207
		c0.162-0.048,0.543-0.169,1.146-0.366l0.555-0.184c0.027,0,0.044,0.01,0.05,0.029s0.009,0.047,0.009,0.082v0.871
		c0.362-0.34,0.645-0.572,0.849-0.699c0.307-0.193,0.625-0.289,0.955-0.289c0.267,0,0.511,0.076,0.731,0.23
		c0.424,0.3,0.637,0.834,0.637,1.604v2.764c0,0.284,0.057,0.489,0.17,0.615c0.113,0.127,0.303,0.191,0.568,0.195v0.166h-2.522
		v-0.166c0.287-0.039,0.488-0.119,0.603-0.239s0.171-0.382,0.171-0.784v-2.527c0-0.339-0.063-0.62-0.188-0.843
		c-0.125-0.224-0.356-0.335-0.693-0.335c-0.231,0-0.466,0.079-0.705,0.237c-0.133,0.091-0.306,0.241-0.517,0.45v3.313
		c0,0.284,0.063,0.475,0.189,0.571s0.325,0.148,0.597,0.156v0.166h-2.581V68.302z"/>
	<path d="M170.233,65.858c0.362-0.237,1.085-0.559,2.168-0.965V64.39c0-0.402-0.04-0.682-0.118-0.84
		c-0.134-0.264-0.412-0.396-0.833-0.396c-0.201,0-0.392,0.051-0.573,0.154c-0.181,0.106-0.272,0.252-0.272,0.438
		c0,0.047,0.01,0.127,0.03,0.24c0.02,0.111,0.029,0.184,0.029,0.215c0,0.222-0.073,0.375-0.218,0.463
		c-0.083,0.051-0.181,0.076-0.295,0.076c-0.177,0-0.313-0.059-0.408-0.174c-0.094-0.117-0.142-0.246-0.142-0.389
		c0-0.275,0.17-0.564,0.511-0.867c0.341-0.301,0.84-0.452,1.498-0.452c0.764,0,1.282,0.249,1.553,0.745
		c0.146,0.273,0.219,0.67,0.219,1.189v2.374c0,0.229,0.016,0.387,0.047,0.474c0.051,0.153,0.157,0.23,0.319,0.23
		c0.09,0,0.166-0.014,0.225-0.041s0.161-0.096,0.307-0.201v0.307c-0.126,0.154-0.262,0.281-0.408,0.379
		c-0.221,0.15-0.445,0.225-0.673,0.225c-0.268,0-0.462-0.086-0.582-0.26s-0.186-0.381-0.198-0.621
		c-0.299,0.26-0.555,0.453-0.768,0.58c-0.358,0.213-0.699,0.319-1.022,0.319c-0.339,0-0.632-0.119-0.88-0.358
		c-0.248-0.238-0.372-0.541-0.372-0.908C169.377,66.718,169.662,66.241,170.233,65.858z M172.401,65.189
		c-0.453,0.149-0.827,0.315-1.123,0.497c-0.567,0.352-0.85,0.75-0.85,1.195c0,0.359,0.118,0.623,0.354,0.793
		c0.154,0.11,0.325,0.166,0.514,0.166c0.26,0,0.509-0.073,0.747-0.219c0.238-0.146,0.357-0.332,0.357-0.557V65.189z"/>
</g>
<g enable-background="new    ">
	<path d="M177.012,69.456c-0.288,0.344-0.597,0.59-0.928,0.74l-0.112-0.237c0.378-0.213,0.639-0.444,0.782-0.692
		c0.144-0.248,0.216-0.455,0.216-0.621c0-0.056-0.018-0.091-0.053-0.107c-0.036-0.016-0.073-0.023-0.112-0.023l-0.396,0.042
		c-0.166,0-0.317-0.054-0.455-0.163c-0.138-0.108-0.207-0.266-0.207-0.471c0-0.157,0.057-0.311,0.171-0.461
		c0.114-0.15,0.301-0.225,0.561-0.225c0.248,0,0.47,0.098,0.667,0.293c0.197,0.195,0.295,0.467,0.295,0.812
		C177.443,68.741,177.299,69.112,177.012,69.456z"/>
</g>
<g enable-background="new    ">
	<path d="M149.989,65.354h2.989v0.758h-2.989V65.354z"/>
	<path d="M209.169,66.604h0.195c0.09,0.45,0.211,0.795,0.365,1.036c0.274,0.441,0.678,0.662,1.207,0.662
		c0.295,0,0.527-0.082,0.699-0.245c0.17-0.164,0.256-0.376,0.256-0.636c0-0.166-0.049-0.326-0.147-0.48
		c-0.099-0.153-0.272-0.303-0.521-0.449l-0.66-0.379c-0.484-0.26-0.842-0.522-1.07-0.787c-0.229-0.264-0.342-0.576-0.342-0.936
		c0-0.441,0.157-0.805,0.473-1.088c0.314-0.285,0.71-0.426,1.187-0.426c0.209,0,0.438,0.039,0.688,0.117
		c0.25,0.08,0.391,0.119,0.422,0.119c0.071,0,0.122-0.01,0.154-0.029c0.031-0.021,0.059-0.052,0.082-0.096h0.143l0.041,1.651h-0.184
		c-0.078-0.382-0.186-0.681-0.318-0.894c-0.244-0.395-0.598-0.592-1.058-0.592c-0.276,0-0.492,0.085-0.649,0.254
		c-0.158,0.17-0.236,0.369-0.236,0.599c0,0.362,0.271,0.687,0.814,0.97l0.779,0.421c0.84,0.458,1.259,0.99,1.259,1.598
		c0,0.466-0.174,0.847-0.522,1.142c-0.348,0.297-0.803,0.444-1.364,0.444c-0.235,0-0.503-0.04-0.802-0.118
		c-0.299-0.079-0.477-0.119-0.531-0.119c-0.047,0-0.088,0.018-0.123,0.051c-0.036,0.033-0.063,0.074-0.083,0.121h-0.153V66.604z"/>
</g>
<g enable-background="new    ">
	<path d="M213.471,68.302c0.422-0.039,0.688-0.111,0.797-0.216c0.111-0.104,0.166-0.388,0.166-0.849v-2.823
		c0-0.257-0.018-0.435-0.053-0.532c-0.06-0.162-0.184-0.243-0.373-0.243c-0.043,0-0.086,0.004-0.127,0.012
		c-0.041,0.009-0.16,0.04-0.357,0.095v-0.184l0.254-0.082c0.689-0.226,1.17-0.395,1.441-0.51c0.11-0.047,0.182-0.07,0.213-0.07
		c0.008,0.027,0.012,0.057,0.012,0.088v4.25c0,0.449,0.055,0.731,0.162,0.846c0.109,0.115,0.354,0.188,0.736,0.219v0.166h-2.871
		V68.302z M214.411,60.389c0.117-0.122,0.264-0.183,0.437-0.183c0.169,0,0.314,0.061,0.435,0.18c0.12,0.12,0.18,0.266,0.18,0.439
		c0,0.168-0.06,0.312-0.18,0.433s-0.266,0.179-0.435,0.179c-0.173,0-0.319-0.059-0.437-0.179c-0.119-0.12-0.178-0.265-0.178-0.433
		C214.233,60.655,214.292,60.511,214.411,60.389z"/>
	<path d="M220.641,68.272c0.362-0.031,0.603-0.096,0.721-0.192s0.178-0.303,0.178-0.618v-2.67c0-0.39-0.037-0.669-0.109-0.837
		c-0.074-0.167-0.207-0.251-0.399-0.251c-0.039,0-0.091,0.005-0.156,0.015s-0.133,0.022-0.204,0.038v-0.195
		c0.225-0.078,0.453-0.16,0.689-0.242c0.235-0.083,0.398-0.143,0.488-0.178c0.196-0.074,0.398-0.16,0.606-0.254
		c0.027,0,0.044,0.01,0.05,0.029s0.01,0.061,0.01,0.124v0.971c0.252-0.351,0.496-0.626,0.73-0.823
		c0.235-0.197,0.479-0.295,0.732-0.295c0.201,0,0.365,0.06,0.491,0.18c0.126,0.121,0.189,0.271,0.189,0.453
		c0,0.162-0.048,0.298-0.146,0.408c-0.096,0.11-0.217,0.166-0.363,0.166c-0.148,0-0.3-0.069-0.451-0.207
		c-0.151-0.139-0.271-0.207-0.357-0.207c-0.138,0-0.307,0.111-0.508,0.334s-0.301,0.453-0.301,0.689v2.669
		c0,0.339,0.078,0.575,0.236,0.707c0.156,0.132,0.419,0.194,0.785,0.187v0.195h-2.912V68.272z"/>
</g>
<g enable-background="new    ">
	<path d="M225.346,68.302c0.422-0.039,0.688-0.111,0.797-0.216c0.111-0.104,0.166-0.388,0.166-0.849v-2.823
		c0-0.257-0.018-0.435-0.053-0.532c-0.06-0.162-0.184-0.243-0.373-0.243c-0.043,0-0.086,0.004-0.127,0.012
		c-0.041,0.009-0.16,0.04-0.357,0.095v-0.184l0.254-0.082c0.689-0.226,1.17-0.395,1.441-0.51c0.11-0.047,0.182-0.07,0.213-0.07
		c0.008,0.027,0.012,0.057,0.012,0.088v4.25c0,0.449,0.055,0.731,0.162,0.846c0.109,0.115,0.354,0.188,0.736,0.219v0.166h-2.871
		V68.302z M226.286,60.389c0.117-0.122,0.264-0.183,0.437-0.183c0.169,0,0.314,0.061,0.435,0.18c0.12,0.12,0.18,0.266,0.18,0.439
		c0,0.168-0.06,0.312-0.18,0.433s-0.266,0.179-0.435,0.179c-0.173,0-0.319-0.059-0.437-0.179c-0.119-0.12-0.178-0.265-0.178-0.433
		C226.108,60.655,226.167,60.511,226.286,60.389z"/>
	<path d="M243.058,62.97v0.184c-0.205,0.023-0.35,0.055-0.435,0.095c-0.084,0.04-0.127,0.126-0.127,0.261
		c0,0.062,0.01,0.123,0.027,0.18c0.018,0.058,0.048,0.142,0.091,0.252l1.241,2.974l1.051-2.624c0.051-0.131,0.1-0.267,0.145-0.408
		c0.045-0.143,0.068-0.251,0.068-0.326c0-0.154-0.073-0.264-0.219-0.331c-0.087-0.036-0.205-0.06-0.354-0.071V62.97h1.678v0.184
		c-0.193,0.016-0.332,0.08-0.417,0.192c-0.084,0.112-0.207,0.372-0.369,0.778l-1.707,4.261c-0.031,0.075-0.057,0.126-0.076,0.153
		c-0.02,0.028-0.047,0.042-0.083,0.042c-0.04,0-0.073-0.022-0.101-0.067c-0.027-0.046-0.057-0.102-0.088-0.17l-1.809-4.331
		c-0.145-0.351-0.301-0.59-0.466-0.716c-0.099-0.071-0.242-0.119-0.431-0.143V62.97H243.058z"/>
</g>
<g enable-background="new    ">
	<path d="M251.182,63.493c0.418,0.385,0.627,0.931,0.627,1.637h-3.752c0.04,0.914,0.246,1.578,0.621,1.996
		c0.373,0.417,0.816,0.625,1.328,0.625c0.414,0,0.763-0.107,1.046-0.324c0.284-0.217,0.546-0.523,0.786-0.921l0.207,0.071
		c-0.162,0.502-0.465,0.966-0.907,1.393c-0.443,0.427-0.985,0.641-1.628,0.641c-0.74,0-1.312-0.281-1.715-0.841
		c-0.404-0.56-0.605-1.205-0.605-1.935c0-0.793,0.234-1.479,0.702-2.055c0.469-0.576,1.079-0.863,1.831-0.863
		C250.279,62.917,250.765,63.108,251.182,63.493z M248.353,63.946c-0.126,0.213-0.217,0.481-0.271,0.805h2.492
		c-0.043-0.395-0.118-0.688-0.224-0.881c-0.193-0.348-0.517-0.521-0.969-0.521C248.932,63.349,248.59,63.548,248.353,63.946z"/>
</g>
<g enable-background="new    ">
	<path d="M233.02,65.354h2.988v0.758h-2.988V65.354z"/>
	<path d="M256.2,66.604h0.195c0.09,0.45,0.212,0.795,0.365,1.036c0.275,0.441,0.678,0.662,1.208,0.662
		c0.294,0,0.527-0.082,0.698-0.245c0.171-0.164,0.256-0.376,0.256-0.636c0-0.166-0.049-0.326-0.146-0.48
		c-0.1-0.153-0.272-0.303-0.521-0.449l-0.661-0.379c-0.484-0.26-0.841-0.522-1.069-0.787c-0.229-0.264-0.343-0.576-0.343-0.936
		c0-0.441,0.158-0.805,0.473-1.088c0.314-0.285,0.711-0.426,1.188-0.426c0.209,0,0.438,0.039,0.688,0.117
		c0.25,0.08,0.391,0.119,0.423,0.119c0.071,0,0.122-0.01,0.153-0.029c0.031-0.021,0.059-0.052,0.082-0.096h0.143l0.041,1.651h-0.184
		c-0.078-0.382-0.185-0.681-0.318-0.894c-0.244-0.395-0.597-0.592-1.057-0.592c-0.276,0-0.492,0.085-0.65,0.254
		c-0.157,0.17-0.236,0.369-0.236,0.599c0,0.362,0.271,0.687,0.815,0.97l0.779,0.421c0.839,0.458,1.259,0.99,1.259,1.598
		c0,0.466-0.174,0.847-0.522,1.142c-0.348,0.297-0.803,0.444-1.364,0.444c-0.236,0-0.504-0.04-0.803-0.118
		c-0.299-0.079-0.476-0.119-0.53-0.119c-0.048,0-0.089,0.018-0.124,0.051s-0.062,0.074-0.082,0.121H256.2V66.604z"/>
</g>
<g enable-background="new    ">
	<path d="M264.196,63.011v0.427h-1.205l-0.012,3.409c0,0.299,0.025,0.526,0.076,0.68c0.094,0.272,0.279,0.408,0.555,0.408
		c0.143,0,0.266-0.033,0.369-0.1c0.105-0.067,0.225-0.174,0.357-0.32l0.154,0.131l-0.131,0.178
		c-0.204,0.275-0.421,0.471-0.648,0.586c-0.229,0.113-0.449,0.171-0.662,0.171c-0.465,0-0.779-0.207-0.945-0.621
		c-0.09-0.226-0.136-0.536-0.136-0.935v-3.587h-0.644c-0.02-0.012-0.035-0.023-0.045-0.036c-0.01-0.012-0.015-0.027-0.015-0.047
		c0-0.039,0.009-0.07,0.026-0.092s0.074-0.072,0.169-0.15c0.271-0.225,0.468-0.408,0.587-0.548c0.121-0.14,0.403-0.51,0.848-1.109
		c0.052,0,0.082,0.004,0.092,0.012s0.016,0.038,0.016,0.089v1.455H264.196z"/>
	<path d="M268.708,63.493c0.418,0.385,0.627,0.931,0.627,1.637h-3.752c0.04,0.914,0.246,1.578,0.621,1.996
		c0.373,0.417,0.816,0.625,1.328,0.625c0.414,0,0.763-0.107,1.046-0.324c0.284-0.217,0.546-0.523,0.786-0.921l0.207,0.071
		c-0.162,0.502-0.465,0.966-0.907,1.393c-0.443,0.427-0.985,0.641-1.628,0.641c-0.74,0-1.312-0.281-1.715-0.841
		c-0.404-0.56-0.605-1.205-0.605-1.935c0-0.793,0.234-1.479,0.702-2.055c0.469-0.576,1.079-0.863,1.831-0.863
		C267.804,62.917,268.291,63.108,268.708,63.493z M265.879,63.946c-0.126,0.213-0.217,0.481-0.271,0.805h2.492
		c-0.043-0.395-0.118-0.688-0.224-0.881c-0.193-0.348-0.517-0.521-0.969-0.521C266.458,63.349,266.115,63.548,265.879,63.946z"/>
</g>
<g enable-background="new    ">
	<path d="M252.825,65.354h2.988v0.758h-2.988V65.354z"/>
	<path d="M277.033,63.064c0.157,0.083,0.31,0.198,0.454,0.343v-1.881c0-0.241-0.025-0.406-0.079-0.498
		c-0.054-0.09-0.181-0.136-0.381-0.136c-0.048,0-0.089,0.003-0.124,0.007s-0.114,0.012-0.236,0.023v-0.195l0.484-0.125
		c0.178-0.047,0.354-0.096,0.531-0.147c0.178-0.052,0.333-0.101,0.467-0.147c0.062-0.021,0.168-0.059,0.312-0.113l0.036,0.012
		l-0.012,0.621c-0.004,0.226-0.008,0.457-0.012,0.695c-0.004,0.239-0.006,0.475-0.006,0.708l-0.013,4.835
		c0,0.256,0.032,0.436,0.096,0.538c0.062,0.103,0.23,0.154,0.502,0.154c0.043,0,0.086-0.001,0.129-0.003
		c0.044-0.002,0.088-0.007,0.131-0.016v0.195c-0.023,0.008-0.31,0.107-0.857,0.297l-0.927,0.349l-0.042-0.054v-0.728
		c-0.22,0.241-0.41,0.413-0.572,0.515c-0.287,0.178-0.62,0.267-0.998,0.267c-0.67,0-1.212-0.259-1.627-0.778
		c-0.416-0.519-0.623-1.119-0.623-1.802c0-0.856,0.248-1.591,0.746-2.204s1.107-0.92,1.828-0.92
		C276.529,62.876,276.793,62.938,277.033,63.064z M277.204,67.669c0.189-0.182,0.283-0.354,0.283-0.516v-2.538
		c0-0.513-0.137-0.875-0.41-1.086s-0.54-0.317-0.8-0.317c-0.497,0-0.882,0.221-1.157,0.66c-0.276,0.44-0.414,0.982-0.414,1.625
		c0,0.635,0.146,1.201,0.439,1.698c0.294,0.497,0.732,0.745,1.314,0.745C276.767,67.94,277.015,67.851,277.204,67.669z"/>
</g>
<g enable-background="new    ">
	<path d="M280.323,68.302c0.421-0.039,0.687-0.111,0.797-0.216s0.166-0.388,0.166-0.849v-2.823c0-0.257-0.019-0.435-0.054-0.532
		c-0.06-0.162-0.183-0.243-0.372-0.243c-0.043,0-0.086,0.004-0.127,0.012c-0.041,0.009-0.16,0.04-0.357,0.095v-0.184l0.254-0.082
		c0.689-0.226,1.17-0.395,1.441-0.51c0.109-0.047,0.181-0.07,0.213-0.07c0.008,0.027,0.012,0.057,0.012,0.088v4.25
		c0,0.449,0.054,0.731,0.162,0.846c0.108,0.115,0.354,0.188,0.735,0.219v0.166h-2.87V68.302z M281.261,60.389
		c0.118-0.122,0.265-0.183,0.437-0.183c0.17,0,0.314,0.061,0.436,0.18c0.119,0.12,0.18,0.266,0.18,0.439
		c0,0.168-0.061,0.312-0.18,0.433c-0.121,0.12-0.266,0.179-0.436,0.179c-0.172,0-0.318-0.059-0.437-0.179s-0.177-0.265-0.177-0.433
		C281.085,60.655,281.143,60.511,281.261,60.389z"/>
	<path d="M288.071,66.604h0.195c0.09,0.45,0.212,0.795,0.365,1.036c0.275,0.441,0.678,0.662,1.208,0.662
		c0.294,0,0.527-0.082,0.698-0.245c0.171-0.164,0.256-0.376,0.256-0.636c0-0.166-0.049-0.326-0.146-0.48
		c-0.1-0.153-0.272-0.303-0.521-0.449l-0.661-0.379c-0.484-0.26-0.841-0.522-1.069-0.787c-0.229-0.264-0.343-0.576-0.343-0.936
		c0-0.441,0.158-0.805,0.473-1.088c0.314-0.285,0.711-0.426,1.188-0.426c0.209,0,0.438,0.039,0.688,0.117
		c0.25,0.08,0.391,0.119,0.423,0.119c0.071,0,0.122-0.01,0.153-0.029c0.031-0.021,0.059-0.052,0.082-0.096h0.143l0.041,1.651h-0.184
		c-0.078-0.382-0.185-0.681-0.318-0.894c-0.244-0.395-0.597-0.592-1.057-0.592c-0.276,0-0.492,0.085-0.65,0.254
		c-0.157,0.17-0.236,0.369-0.236,0.599c0,0.362,0.271,0.687,0.815,0.97l0.779,0.421c0.839,0.458,1.259,0.99,1.259,1.598
		c0,0.466-0.174,0.847-0.522,1.142c-0.348,0.297-0.803,0.444-1.364,0.444c-0.236,0-0.504-0.04-0.803-0.118
		c-0.299-0.079-0.476-0.119-0.53-0.119c-0.048,0-0.089,0.018-0.124,0.051s-0.062,0.074-0.082,0.121h-0.154V66.604z"/>
</g>
<g enable-background="new    ">
	<path d="M292.262,70.912c0.367-0.024,0.602-0.103,0.701-0.237c0.1-0.134,0.149-0.345,0.149-0.633V64.36
		c0-0.299-0.036-0.492-0.109-0.576c-0.073-0.086-0.21-0.128-0.411-0.128c-0.043,0-0.083,0.003-0.121,0.007
		c-0.037,0.004-0.091,0.012-0.162,0.023v-0.195l0.562-0.184c0.02-0.004,0.415-0.141,1.187-0.408c0.021,0,0.035,0.008,0.045,0.026
		c0.01,0.018,0.015,0.038,0.015,0.062v0.799c0.261-0.26,0.488-0.453,0.686-0.58c0.354-0.221,0.718-0.33,1.093-0.33
		c0.543,0,1.012,0.23,1.402,0.693c0.393,0.464,0.588,1.098,0.588,1.901c0,0.788-0.234,1.503-0.705,2.146s-1.062,0.964-1.775,0.964
		c-0.221,0-0.412-0.027-0.573-0.083c-0.252-0.082-0.484-0.234-0.696-0.455v1.941c0,0.398,0.064,0.643,0.194,0.733
		s0.413,0.151,0.851,0.183v0.208h-2.918V70.912z M294.593,67.974c0.203,0.133,0.441,0.198,0.719,0.198
		c0.424,0,0.787-0.212,1.088-0.636c0.303-0.424,0.453-1.014,0.453-1.77c0-0.725-0.156-1.268-0.471-1.625
		c-0.312-0.359-0.676-0.539-1.09-0.539c-0.291,0-0.557,0.09-0.797,0.27s-0.359,0.355-0.359,0.529v2.973
		C294.237,67.642,294.389,67.842,294.593,67.974z"/>
	<path d="M298.5,68.302c0.366-0.035,0.614-0.109,0.744-0.222s0.195-0.332,0.195-0.659v-5.782c0-0.261-0.021-0.44-0.065-0.538
		c-0.078-0.166-0.238-0.249-0.479-0.249c-0.055,0-0.115,0.006-0.18,0.018c-0.065,0.012-0.146,0.03-0.245,0.054v-0.195
		c0.531-0.143,1.171-0.332,1.92-0.568c0.027,0,0.044,0.012,0.05,0.035s0.009,0.075,0.009,0.154v7.096
		c0,0.343,0.06,0.564,0.177,0.666c0.118,0.1,0.362,0.164,0.733,0.191v0.166H298.5V68.302z"/>
	<path d="M305.843,63.493c0.417,0.385,0.626,0.931,0.626,1.637h-3.751c0.039,0.914,0.246,1.578,0.62,1.996
		c0.374,0.417,0.817,0.625,1.329,0.625c0.413,0,0.762-0.107,1.046-0.324c0.283-0.217,0.545-0.523,0.785-0.921l0.207,0.071
		c-0.162,0.502-0.464,0.966-0.907,1.393c-0.442,0.427-0.985,0.641-1.627,0.641c-0.74,0-1.312-0.281-1.716-0.841
		s-0.605-1.205-0.605-1.935c0-0.793,0.234-1.479,0.703-2.055s1.079-0.863,1.831-0.863C304.938,62.917,305.425,63.108,305.843,63.493
		z M303.012,63.946c-0.126,0.213-0.216,0.481-0.271,0.805h2.493c-0.044-0.395-0.118-0.688-0.225-0.881
		c-0.193-0.348-0.516-0.521-0.969-0.521C303.592,63.349,303.249,63.548,303.012,63.946z"/>
	<path d="M307.201,68.302c0.279-0.035,0.476-0.105,0.588-0.21s0.168-0.338,0.168-0.701v-3.007c0-0.25-0.023-0.426-0.071-0.527
		c-0.074-0.149-0.228-0.224-0.46-0.224c-0.036,0-0.072,0.002-0.109,0.006c-0.038,0.004-0.084,0.01-0.139,0.018v-0.207
		c0.161-0.048,0.543-0.169,1.146-0.366l0.556-0.184c0.027,0,0.044,0.01,0.05,0.029s0.009,0.047,0.009,0.082v0.871
		c0.361-0.34,0.645-0.572,0.849-0.699c0.307-0.193,0.625-0.289,0.955-0.289c0.268,0,0.512,0.076,0.731,0.23
		c0.425,0.3,0.637,0.834,0.637,1.604v2.764c0,0.284,0.057,0.489,0.17,0.615c0.113,0.127,0.303,0.191,0.568,0.195v0.166h-2.522
		v-0.166c0.288-0.039,0.488-0.119,0.603-0.239s0.172-0.382,0.172-0.784v-2.527c0-0.339-0.062-0.62-0.188-0.843
		c-0.125-0.224-0.356-0.335-0.692-0.335c-0.231,0-0.467,0.079-0.705,0.237c-0.134,0.091-0.306,0.241-0.517,0.45v3.313
		c0,0.284,0.062,0.475,0.188,0.571s0.325,0.148,0.597,0.156v0.166h-2.581V68.302z"/>
</g>
<g enable-background="new    ">
	<path d="M327.407,63.064c0.157,0.083,0.31,0.198,0.455,0.343v-1.881c0-0.241-0.026-0.406-0.08-0.498
		c-0.053-0.09-0.18-0.136-0.381-0.136c-0.047,0-0.089,0.003-0.124,0.007s-0.114,0.012-0.236,0.023v-0.195l0.484-0.125
		c0.177-0.047,0.354-0.096,0.531-0.147c0.178-0.052,0.333-0.101,0.467-0.147c0.063-0.021,0.168-0.059,0.313-0.113l0.035,0.012
		l-0.012,0.621c-0.004,0.226-0.008,0.457-0.012,0.695c-0.004,0.239-0.006,0.475-0.006,0.708l-0.012,4.835
		c0,0.256,0.031,0.436,0.094,0.538c0.063,0.103,0.23,0.154,0.503,0.154c0.043,0,0.086-0.001,0.13-0.003
		c0.043-0.002,0.086-0.007,0.13-0.016v0.195c-0.023,0.008-0.31,0.107-0.856,0.297l-0.928,0.349l-0.041-0.054v-0.728
		c-0.221,0.241-0.412,0.413-0.573,0.515c-0.287,0.178-0.62,0.267-0.998,0.267c-0.67,0-1.212-0.259-1.628-0.778
		c-0.415-0.519-0.623-1.119-0.623-1.802c0-0.856,0.249-1.591,0.748-2.204c0.498-0.613,1.107-0.92,1.828-0.92
		C326.903,62.876,327.167,62.938,327.407,63.064z M327.578,67.669c0.189-0.182,0.284-0.354,0.284-0.516v-2.538
		c0-0.513-0.137-0.875-0.411-1.086c-0.273-0.211-0.54-0.317-0.8-0.317c-0.496,0-0.882,0.221-1.158,0.66
		c-0.275,0.44-0.413,0.982-0.413,1.625c0,0.635,0.146,1.201,0.44,1.698c0.293,0.497,0.73,0.745,1.313,0.745
		C327.141,67.94,327.389,67.851,327.578,67.669z"/>
	<path d="M330.854,63.73c0.498-0.542,1.139-0.813,1.922-0.813c0.78,0,1.426,0.256,1.938,0.77c0.512,0.513,0.769,1.195,0.769,2.047
		c0,0.785-0.248,1.468-0.744,2.048c-0.497,0.58-1.139,0.87-1.926,0.87c-0.756,0-1.396-0.278-1.92-0.834
		c-0.523-0.557-0.785-1.256-0.785-2.096C330.107,64.937,330.356,64.272,330.854,63.73z M331.798,63.579
		c-0.395,0.359-0.592,0.979-0.592,1.859c0,0.701,0.158,1.356,0.476,1.964c0.317,0.608,0.759,0.911,1.323,0.911
		c0.441,0,0.782-0.203,1.021-0.609s0.358-0.938,0.358-1.598c0-0.683-0.152-1.326-0.456-1.93s-0.744-0.904-1.319-0.904
		C332.297,63.272,332.026,63.374,331.798,63.579z"/>
</g>
<g enable-background="new    ">
	<path d="M316.903,65.354h2.988v0.758h-2.988V65.354z"/>
	<path d="M344.5,68.272c0.362-0.031,0.603-0.096,0.721-0.192s0.178-0.303,0.178-0.618v-2.67c0-0.39-0.037-0.669-0.109-0.837
		c-0.073-0.167-0.206-0.251-0.398-0.251c-0.04,0-0.092,0.005-0.157,0.015c-0.064,0.01-0.133,0.022-0.203,0.038v-0.195
		c0.224-0.078,0.453-0.16,0.688-0.242c0.235-0.083,0.398-0.143,0.489-0.178c0.195-0.074,0.397-0.16,0.606-0.254
		c0.027,0,0.044,0.01,0.05,0.029s0.009,0.061,0.009,0.124v0.971c0.253-0.351,0.496-0.626,0.731-0.823
		c0.234-0.197,0.479-0.295,0.731-0.295c0.201,0,0.365,0.06,0.491,0.18c0.127,0.121,0.189,0.271,0.189,0.453
		c0,0.162-0.048,0.298-0.145,0.408s-0.218,0.166-0.363,0.166c-0.149,0-0.3-0.069-0.451-0.207c-0.152-0.139-0.271-0.207-0.357-0.207
		c-0.139,0-0.308,0.111-0.509,0.334c-0.2,0.223-0.301,0.453-0.301,0.689v2.669c0,0.339,0.079,0.575,0.236,0.707
		s0.419,0.194,0.785,0.187v0.195H344.5V68.272z"/>
</g>
<g enable-background="new    ">
	<path d="M353.543,63.493c0.417,0.385,0.626,0.931,0.626,1.637h-3.751c0.039,0.914,0.246,1.578,0.62,1.996
		c0.374,0.417,0.817,0.625,1.329,0.625c0.413,0,0.762-0.107,1.046-0.324c0.283-0.217,0.545-0.523,0.785-0.921l0.207,0.071
		c-0.162,0.502-0.464,0.966-0.907,1.393c-0.442,0.427-0.985,0.641-1.627,0.641c-0.74,0-1.312-0.281-1.716-0.841
		s-0.605-1.205-0.605-1.935c0-0.793,0.234-1.479,0.703-2.055s1.079-0.863,1.831-0.863C352.638,62.917,353.125,63.108,353.543,63.493
		z M350.713,63.946c-0.126,0.213-0.216,0.481-0.271,0.805h2.493c-0.044-0.395-0.118-0.688-0.225-0.881
		c-0.193-0.348-0.516-0.521-0.969-0.521C351.292,63.349,350.949,63.548,350.713,63.946z"/>
	<path d="M356.177,68.411c-0.13-0.132-0.194-0.291-0.194-0.477c0-0.185,0.065-0.343,0.197-0.473
		c0.132-0.131,0.291-0.195,0.476-0.195c0.186,0,0.343,0.064,0.473,0.195c0.13,0.13,0.195,0.288,0.195,0.473
		c0,0.186-0.064,0.345-0.192,0.477c-0.128,0.133-0.286,0.199-0.476,0.199C356.467,68.61,356.306,68.544,356.177,68.411z"/>
</g>
<g enable-background="new    ">
	<path d="M338.989,65.354h2.988v0.758h-2.988V65.354z"/>
</g>
<path d="M15.428,34.358c0.528,0.277,0.956,0.655,1.257,1.134c0.201,0.277,0.353,0.529,0.453,0.807
	c0.076,0.252,0.126,0.555,0.126,0.857c0,0.729-0.2,1.411-0.604,2.017c-0.377,0.604-0.905,1.059-1.534,1.387l-1.509-6.604
	C14.298,33.955,14.901,34.081,15.428,34.358L15.428,34.358z M14.271,26.04c0.277-0.429,0.504-0.856,0.729-1.286
	c0.151-0.353,0.327-0.807,0.503-1.336c0.176-0.529,0.302-1.008,0.377-1.411c0.076-0.378,0.126-0.807,0.126-1.286
	c0-0.377-0.05-0.756-0.126-1.134c-0.075-0.378-0.176-0.832-0.302-1.336c-0.276-0.933-0.628-1.765-1.031-2.471
	c-0.176-0.327-0.377-0.554-0.604-0.681c-0.177-0.075-0.353-0.126-0.528-0.126c-0.377,0.101-0.679,0.253-0.88,0.403
	c-0.251,0.177-0.503,0.454-0.729,0.807c-0.453,0.781-0.805,1.588-1.03,2.471c-0.201,0.907-0.327,1.714-0.327,2.395
	c0,0.681,0.05,1.412,0.15,2.168c0.126,0.756,0.303,1.537,0.503,2.318L8.614,27.88c-0.453,0.454-0.932,1.034-1.458,1.714
	c-0.579,0.706-1.031,1.463-1.358,2.295c-0.352,0.781-0.528,1.613-0.528,2.495l0.076,1.159c0,0.429,0.05,0.832,0.177,1.186
	c0.075,0.277,0.377,0.833,0.904,1.638c0.68,1.032,1.534,1.84,2.615,2.42c1.056,0.604,2.213,0.905,3.445,0.905
	c0.679,0,1.357-0.073,2.037-0.252l0.754,3.228c0.101,0.431,0.176,0.908,0.176,1.463c0,0.429-0.076,0.832-0.201,1.16
	c-0.151,0.326-0.352,0.629-0.629,0.906c-0.503,0.528-1.257,0.831-2.263,0.959c-0.479,0-0.931-0.076-1.309-0.229
	c-0.427-0.15-0.628-0.377-0.653-0.654c0.352,0,0.679-0.075,1.03-0.227c0.353-0.127,0.654-0.328,0.88-0.605
	c0.201-0.303,0.303-0.682,0.303-1.108c0-0.176-0.025-0.328-0.075-0.504c-0.05-0.127-0.126-0.304-0.228-0.453
	c-0.2-0.303-0.452-0.528-0.805-0.707c-0.327-0.176-0.729-0.252-1.157-0.252c-0.377,0.051-0.729,0.178-1.03,0.403
	c-0.177,0.125-0.303,0.277-0.429,0.429c-0.125,0.151-0.251,0.328-0.327,0.528c-0.176,0.38-0.251,0.808-0.251,1.236
	c0.051,0.529,0.276,1.008,0.68,1.437c0.377,0.43,0.854,0.756,1.458,0.983c0.352,0.15,0.653,0.252,0.956,0.277
	c0.327,0.049,0.679,0.074,1.03,0.074c1.183-0.1,2.088-0.479,2.767-1.109c0.653-0.629,0.979-1.436,0.979-2.494
	c0-0.379-0.024-0.707-0.05-0.934l-0.905-4.109c1.082-0.479,1.961-1.133,2.591-1.914c0.628-0.807,0.93-1.74,0.93-2.772
	c0-0.857-0.201-1.664-0.604-2.42c-0.427-0.757-1.006-1.336-1.71-1.791c-0.704-0.453-1.509-0.68-2.414-0.68
	c-0.302,0-0.604,0.025-0.88,0.076l-0.754-3.404C13.14,27.552,13.769,26.821,14.271,26.04L14.271,26.04z M13.594,40.937
	c-0.201,0.025-0.428,0.051-0.679,0.051c-0.83,0-1.609-0.127-2.338-0.354c-0.729-0.227-1.383-0.555-1.961-1.008
	c-0.579-0.428-1.006-0.957-1.309-1.562c-0.276-0.604-0.428-1.286-0.428-2.017c0-0.957,0.228-1.865,0.704-2.747
	c0.453-0.856,1.031-1.639,1.71-2.319c0.327-0.328,0.704-0.681,1.157-1.084c0.428-0.403,0.88-0.807,1.333-1.159l0.679,3.05
	c-0.83,0.277-1.534,0.807-2.137,1.562c-0.629,0.757-0.932,1.538-0.932,2.32c0,0.831,0.277,1.613,0.83,2.292
	c0.528,0.682,1.207,1.16,2.037,1.412c0.201,0,0.303-0.051,0.303-0.176c0-0.127-0.051-0.203-0.151-0.229
	c-1.182-0.504-1.76-1.233-1.76-2.167c0-0.63,0.227-1.185,0.704-1.714c0.452-0.529,0.98-0.883,1.584-1.059l1.458,6.73
	C14.071,40.837,13.82,40.886,13.594,40.937L13.594,40.937z M14.724,20.695c-0.125,0.479-0.326,0.959-0.628,1.438
	c-0.377,0.631-0.754,1.16-1.082,1.562c-0.401,0.504-0.854,0.934-1.308,1.311c-0.251-0.982-0.377-1.84-0.377-2.57
	c0-0.277,0.024-0.555,0.075-0.883c0.076-0.328,0.15-0.68,0.227-1.008c0.201-0.681,0.479-1.311,0.83-1.84
	c0.428-0.58,0.629-0.883,0.654-0.908c0.15-0.176,0.327-0.277,0.503-0.303c0.227,0,0.428,0.102,0.629,0.328
	c0.251,0.328,0.402,0.604,0.478,0.883l0.126,0.453C14.85,19.789,14.801,20.292,14.724,20.695L14.724,20.695z"/>
<path d="M24.375,23.046v-2.723l1.383-0.303v2.723L24.375,23.046z M26.385,22.591V19.87l0.98-0.228v-1.915l-0.98,0.228V14.4h-0.629
	v3.705l-1.383,0.303v-3.479h-0.579l-0.025,3.629l-0.98,0.253v1.915l0.98-0.252v2.723c0,0.177-0.326,0.252-0.98,0.252v1.967
	l0.98-0.227v3.402h0.604v-3.555l1.383-0.327v3.429h0.629v-3.555l0.98-0.227v-1.992L26.385,22.591z"/>
<path d="M28.934,30.606v-2.723l1.384-0.302v2.722L28.934,30.606z M30.946,30.152v-2.723l0.979-0.227v-1.916l-0.979,0.227v-3.554
	h-0.629v3.706l-1.384,0.303V22.49h-0.579l-0.024,3.629l-0.981,0.252v1.916l0.981-0.252v2.723c0,0.176-0.327,0.252-0.981,0.252v1.967
	l0.981-0.228v3.403h0.604v-3.555l1.384-0.328v3.429h0.629v-3.554l0.979-0.228v-1.991L30.946,30.152z"/>
<path d="M42.302,28.689h-0.226c-0.176,0.328-0.302,0.529-0.402,0.631c-0.076,0.101-0.201,0.176-0.352,0.201
	c-0.151,0.051-0.479,0.076-0.956,0.076h-2.013c1.534-1.513,2.54-2.697,3.019-3.555c0.327-0.605,0.503-1.21,0.503-1.814
	c0-0.354-0.101-0.707-0.327-1.084c-0.226-0.379-0.528-0.656-0.905-0.883c-0.377-0.227-0.805-0.328-1.281-0.328
	c-0.654,0-1.232,0.202-1.735,0.605c-0.503,0.429-0.88,1.084-1.131,1.941l0.251,0.101c0.377-0.681,0.93-1.034,1.634-1.034
	c0.428,0,0.805,0.152,1.082,0.454c0.302,0.303,0.453,0.706,0.453,1.21c0,0.656-0.176,1.336-0.528,2.017
	c-0.352,0.681-1.383,2.042-3.042,4.033v0.151h5.457L42.302,28.689z"/>
<path d="M36.342,39.349h3.37v2.092h1.861v-2.092h0.854v-1.412h-0.854v-5.973h-0.83l-4.4,5.973L36.342,39.349L36.342,39.349z
	 M39.712,34.283v3.653h-2.716L39.712,34.283z"/>
<path fill="none" stroke="#000000" stroke-width="0.12" stroke-linecap="round" stroke-linejoin="round" stroke-miterlimit="10" d="
	M57.83,44.214V24.053 M57.95,44.214V24.053 M58.07,44.214V24.053 M58.19,44.214V24.053 M70.67,44.214V24.053 M70.79,44.214V24.053
	 M70.91,44.214V24.053 M71.03,44.214V24.053 M58.07,26.574h12.84 M58.07,26.453h12.84 M58.07,26.333h12.84 M58.07,26.213h12.84
	 M58.07,26.093h12.84 M58.07,25.974h12.84 M58.07,25.853h12.84 M58.07,25.734h12.84 M58.07,25.613h12.84 M58.07,25.494h12.84
	 M58.07,25.374h12.84 M58.07,25.253h12.84 M58.07,25.133h12.84 M58.07,25.013h12.84 M58.07,24.894h12.84 M58.07,24.773h12.84
	 M58.07,24.654h12.84 M58.07,24.533h12.84 M58.07,24.414h12.84 M58.07,24.293h12.84 M58.07,24.173h12.84"/>
<path d="M55.968,41.743c-0.401,0-0.805,0.074-1.207,0.227c-0.628,0.228-1.031,0.428-1.282,0.631
	c-0.904,0.654-1.383,1.385-1.434,2.217c0,0.656,0.201,1.16,0.579,1.488c0.377,0.353,0.88,0.529,1.458,0.555
	c0.503,0,0.979-0.075,1.433-0.202c0.453-0.125,0.855-0.353,1.258-0.654c0.931-0.655,1.407-1.438,1.434-2.295
	c0-0.629-0.176-1.106-0.553-1.41c-0.429-0.379-0.956-0.555-1.584-0.555C56.017,41.743,55.993,41.743,55.968,41.743L55.968,41.743z
	 M68.82,41.743c-0.402,0-0.806,0.074-1.207,0.227c-0.628,0.228-1.031,0.428-1.282,0.631c-0.905,0.654-1.383,1.385-1.434,2.217
	c0,0.656,0.2,1.16,0.578,1.488c0.377,0.353,0.881,0.529,1.458,0.555c0.503,0,0.98-0.075,1.434-0.202
	c0.453-0.125,0.854-0.353,1.257-0.654c0.931-0.655,1.408-1.438,1.434-2.295c0-0.629-0.176-1.106-0.553-1.41
	c-0.428-0.379-0.956-0.555-1.584-0.555C68.871,41.743,68.845,41.743,68.82,41.743L68.82,41.743z"/>
<path fill="none" stroke="#000000" stroke-width="0.12" stroke-linecap="round" stroke-linejoin="round" stroke-miterlimit="10" d="
	M77.15,21.533v20.159 M77.269,21.533v20.159 M77.389,21.533v20.159 M77.51,21.533v20.159"/>
<g enable-background="new    ">
	<path d="M86.366,13.044c0.31-0.038,0.54-0.114,0.688-0.229c0.148-0.114,0.272-0.349,0.37-0.704l1.603-5.868
		c0.033-0.12,0.06-0.225,0.082-0.314c0.038-0.183,0.057-0.326,0.057-0.428c0-0.208-0.06-0.34-0.178-0.396
		c-0.119-0.055-0.376-0.1-0.771-0.134V4.633h3.589c0.802,0,1.423,0.079,1.865,0.236c0.81,0.29,1.215,0.843,1.215,1.661
		c0,0.272-0.068,0.563-0.204,0.872C94.546,7.711,94.319,7.991,94,8.242c-0.226,0.179-0.489,0.324-0.791,0.435
		c-0.179,0.064-0.457,0.141-0.835,0.23c0.043,0.134,0.071,0.219,0.086,0.252l1.005,2.954c0.136,0.394,0.281,0.644,0.437,0.752
		c0.155,0.107,0.392,0.168,0.711,0.181v0.338h-2.626l-1.409-4.324h-0.366l-0.772,2.721l-0.108,0.451
		c-0.009,0.034-0.015,0.071-0.019,0.111c-0.004,0.04-0.006,0.082-0.006,0.124c0,0.233,0.056,0.379,0.169,0.439
		c0.112,0.059,0.373,0.105,0.781,0.14v0.338h-3.888V13.044z M91.372,8.542c0.405-0.085,0.715-0.251,0.932-0.498
		c0.149-0.17,0.288-0.41,0.417-0.718c0.129-0.309,0.194-0.642,0.194-1c0-0.366-0.09-0.67-0.271-0.91
		c-0.181-0.241-0.488-0.361-0.921-0.361c-0.181,0-0.312,0.039-0.392,0.118c-0.08,0.079-0.149,0.233-0.208,0.463l-0.789,2.995
		C90.799,8.623,91.144,8.593,91.372,8.542z"/>
	<path d="M96.932,8.726c0.782-0.919,1.64-1.378,2.575-1.378c0.404,0,0.738,0.1,1.004,0.3s0.398,0.482,0.398,0.848
		c0,0.552-0.31,1.075-0.931,1.568s-1.426,0.808-2.416,0.943c-0.025,0.132-0.044,0.255-0.057,0.371
		c-0.013,0.115-0.02,0.208-0.02,0.281c0,0.269,0.039,0.479,0.115,0.632c0.136,0.286,0.397,0.428,0.784,0.428
		c0.314,0,0.627-0.162,0.937-0.485c0.166-0.17,0.344-0.407,0.536-0.709l0.382,0.224c-0.327,0.549-0.635,0.951-0.924,1.207
		c-0.459,0.409-0.997,0.613-1.613,0.613c-0.459,0-0.891-0.167-1.297-0.5c-0.406-0.334-0.609-0.843-0.609-1.528
		C95.798,10.552,96.176,9.614,96.932,8.726z M99.641,7.932c-0.055-0.104-0.155-0.156-0.299-0.156c-0.306,0-0.607,0.246-0.902,0.739
		c-0.295,0.493-0.558,1.183-0.787,2.071c0.752-0.17,1.286-0.497,1.6-0.981c0.314-0.484,0.472-0.916,0.472-1.293
		C99.724,8.162,99.697,8.036,99.641,7.932z"/>
</g>
<path d="M90.648,31.664c-0.402,0-0.806,0.075-1.207,0.227c-0.63,0.227-1.031,0.428-1.283,0.63c-0.905,0.655-1.383,1.386-1.434,2.218
	c0,0.656,0.201,1.16,0.578,1.488c0.377,0.353,0.88,0.529,1.458,0.555c0.503,0,0.981-0.076,1.435-0.202s0.854-0.353,1.257-0.655
	c0.93-0.656,1.408-1.438,1.433-2.294c0-0.63-0.176-1.109-0.553-1.411c-0.427-0.379-0.956-0.555-1.584-0.555
	C90.698,31.664,90.673,31.664,90.648,31.664L90.648,31.664z"/>
<path fill="none" stroke="#000000" stroke-width="0.12" stroke-linecap="round" stroke-linejoin="round" stroke-miterlimit="10" d="
	M92.389,34.133v-17.64 M92.51,34.133v-17.64 M92.63,34.133v-17.64 M92.75,34.133v-17.64"/>
<path d="M94.662,33.714c0.226,0.227,0.478,0.352,0.805,0.352s0.604-0.125,0.83-0.352c0.228-0.228,0.353-0.505,0.353-0.807
	c0-0.277-0.125-0.555-0.353-0.832c-0.226-0.227-0.528-0.354-0.83-0.354c-0.401,0-0.679,0.102-0.854,0.303
	c-0.201,0.277-0.303,0.58-0.303,0.883C94.309,33.235,94.435,33.487,94.662,33.714L94.662,33.714z"/>
<path d="M115.368,34.182c-0.402,0-0.806,0.075-1.207,0.228c-0.628,0.227-1.031,0.428-1.282,0.629
	c-0.905,0.656-1.383,1.387-1.434,2.219c0,0.656,0.2,1.16,0.579,1.488c0.377,0.353,0.88,0.528,1.458,0.555
	c0.503,0,0.979-0.075,1.433-0.202c0.453-0.125,0.854-0.353,1.257-0.654c0.931-0.656,1.408-1.438,1.435-2.294
	c0-0.63-0.177-1.109-0.554-1.411c-0.428-0.378-0.956-0.555-1.584-0.555C115.418,34.182,115.392,34.182,115.368,34.182
	L115.368,34.182z"/>
<path fill="none" stroke="#000000" stroke-width="0.12" stroke-linecap="round" stroke-linejoin="round" stroke-miterlimit="10" d="
	M117.11,36.654V19.013 M117.229,36.654V19.013 M117.349,36.654V19.013 M117.469,36.654V19.013"/>
<path d="M118.179,23.498c0.102,0.025,0.251,0.15,0.479,0.328c0.226,0.201,0.377,0.327,0.478,0.377
	c0.176,0.102,0.353,0.228,0.479,0.379c0.15,0.15,0.302,0.353,0.478,0.604c0.151,0.228,0.277,0.429,0.377,0.53
	c0.176,0.201,0.353,0.504,0.528,0.881c0.176,0.379,0.302,0.682,0.352,0.883c0.025,0.102,0.076,0.177,0.102,0.252
	c0.05,0.076,0.076,0.127,0.076,0.151c0,0.05,0,0.177,0,0.378v0.529c0.024,0.252,0.024,0.429,0.024,0.555
	c0,0.051,0.025,0.076,0.025,0.127c0,0.024,0,0.074,0,0.15c0,0.025,0,0.076-0.025,0.127c-0.024,0.05-0.024,0.074-0.024,0.1
	c-0.051,0.177-0.102,0.379-0.177,0.555c-0.05,0.202-0.101,0.404-0.15,0.605c-0.075,0.227-0.176,0.479-0.251,0.756l-0.025,0.177
	l-0.428,0.933h0.327c0.553-0.908,1.006-1.789,1.308-2.672c0.151-0.379,0.276-0.706,0.302-1.008c0.051-0.303,0.075-0.682,0.075-1.16
	c0-0.201-0.05-0.529-0.176-1.008c-0.101-0.328-0.228-0.682-0.377-1.059c-0.302-0.731-0.628-1.312-0.98-1.766
	c-0.126-0.125-0.227-0.227-0.302-0.327c-0.126-0.151-0.251-0.303-0.377-0.429l-1.006-0.957c-0.125-0.127-0.276-0.277-0.377-0.479
	c-0.126-0.202-0.251-0.353-0.327-0.454c-0.251-0.303-0.453-0.605-0.604-0.907c-0.151-0.327-0.251-0.604-0.327-0.882
	c-0.051-0.127-0.126-0.328-0.201-0.631l-0.102-0.303v4.513C117.626,23.346,117.903,23.396,118.179,23.498L118.179,23.498z"/>
<path fill="none" stroke="#000000" stroke-width="0.12" stroke-linecap="round" stroke-linejoin="round" stroke-miterlimit="10" d="
	M128.87,21.533v20.159 M128.99,21.533v20.159 M129.11,21.533v20.159 M129.229,21.533v20.159"/>
<g enable-background="new    ">
	<path d="M138.208,10.521c0.314-0.039,0.546-0.117,0.695-0.236c0.148-0.119,0.27-0.353,0.363-0.702l1.603-5.865
		c0.029-0.12,0.055-0.224,0.076-0.313c0.038-0.183,0.057-0.325,0.057-0.428c0-0.208-0.059-0.34-0.178-0.396
		c-0.119-0.055-0.376-0.1-0.771-0.134V2.109h6.941l-0.555,2.485l-0.351-0.058c-0.009-0.626-0.109-1.071-0.301-1.335
		c-0.332-0.456-0.995-0.683-1.988-0.683c-0.294,0-0.496,0.038-0.604,0.115c-0.108,0.077-0.195,0.236-0.259,0.479l-0.772,2.9
		c0.871-0.025,1.437-0.102,1.7-0.23c0.263-0.127,0.556-0.511,0.879-1.149l0.363,0.045l-0.969,3.576l-0.357-0.063
		c0.017-0.128,0.029-0.239,0.035-0.333c0.006-0.093,0.009-0.166,0.009-0.217c0-0.43-0.113-0.739-0.338-0.926
		c-0.226-0.188-0.709-0.281-1.451-0.281l-0.859,3.194c-0.013,0.055-0.023,0.106-0.032,0.153c-0.008,0.047-0.013,0.093-0.013,0.14
		c0,0.255,0.108,0.428,0.325,0.517c0.131,0.055,0.335,0.083,0.612,0.083v0.338h-3.861V10.521z"/>
	<path d="M148.447,6.376c0.79-1.035,1.592-1.552,2.407-1.552c0.331,0,0.575,0.098,0.732,0.294c0.094,0.119,0.176,0.319,0.249,0.601
		l0.221-0.696l1.363-0.096l-0.85,3.059c-0.121,0.434-0.207,0.767-0.258,0.996c-0.115,0.439-0.172,0.752-0.172,0.939
		c0,0.077,0.017,0.13,0.051,0.16c0.034,0.03,0.072,0.045,0.115,0.045c0.077,0,0.151-0.029,0.223-0.086
		c0.072-0.057,0.153-0.139,0.243-0.246c0.042-0.047,0.114-0.135,0.216-0.265s0.187-0.24,0.255-0.329l0.274,0.198
		c-0.353,0.52-0.689,0.926-1.01,1.22c-0.321,0.294-0.645,0.44-0.972,0.44c-0.2,0-0.394-0.074-0.58-0.223
		c-0.187-0.149-0.281-0.368-0.281-0.658c0-0.11,0.055-0.381,0.166-0.811c0.017-0.017,0.001,0.013-0.048,0.089
		s-0.125,0.19-0.227,0.339c-0.229,0.349-0.5,0.645-0.812,0.888c-0.312,0.243-0.66,0.364-1.042,0.364c-0.344,0-0.665-0.13-0.962-0.39
		c-0.297-0.259-0.446-0.7-0.446-1.322C147.3,8.371,147.682,7.385,148.447,6.376z M151.467,5.667
		c-0.081-0.196-0.231-0.294-0.452-0.294c-0.472,0-0.956,0.56-1.452,1.68c-0.437,0.992-0.656,1.752-0.656,2.28
		c0,0.208,0.052,0.39,0.156,0.543s0.241,0.23,0.411,0.23c0.433,0.004,0.923-0.571,1.471-1.725c0.391-0.966,0.586-1.733,0.586-2.299
		C151.53,5.912,151.509,5.773,151.467,5.667z"/>
	<path d="M153.783,7.589h1.245l0.582-2.159h-1.224l0.121-0.684h1.287l0.697-2.586h1.026l-0.697,2.586h1.197l0.692-2.586h1.045
		l-0.692,2.586h1.189l-0.121,0.684h-1.251l-0.578,2.159h1.237l-0.115,0.684h-1.305l-0.692,2.586h-1.045l0.692-2.586h-1.206
		l-0.697,2.586h-1.026l0.697-2.586h-1.182L153.783,7.589z M157.259,7.589l0.578-2.159h-1.199l-0.582,2.159H157.259z"/>
	<path d="M160.451,10.859l1.141-4.185c0.069-0.245,0.114-0.417,0.135-0.517c0.021-0.099,0.032-0.195,0.032-0.288
		c0-0.14-0.044-0.226-0.131-0.26c-0.088-0.034-0.28-0.059-0.578-0.076V5.188c0.55-0.034,1.019-0.079,1.405-0.134
		c0.249-0.034,0.659-0.106,1.229-0.217l-0.787,2.42l0.044,0.032c0.569-0.864,0.999-1.443,1.288-1.737
		c0.472-0.477,0.969-0.715,1.491-0.715c0.242,0,0.444,0.076,0.605,0.227c0.162,0.151,0.242,0.359,0.242,0.624
		c0,0.2-0.038,0.437-0.114,0.71c-0.042,0.152-0.099,0.341-0.17,0.569c0.543-0.685,0.984-1.166,1.32-1.442
		c0.56-0.459,1.14-0.689,1.74-0.689c0.404,0,0.703,0.096,0.896,0.288c0.194,0.192,0.291,0.465,0.291,0.817
		c0,0.199-0.041,0.465-0.121,0.799c-0.009,0.046-0.053,0.213-0.134,0.5l-0.693,2.075c-0.051,0.116-0.099,0.236-0.144,0.36
		c-0.044,0.125-0.067,0.212-0.067,0.263c0,0.048,0.024,0.085,0.073,0.113s0.095,0.041,0.137,0.041c0.124,0,0.296-0.143,0.517-0.428
		c0.119-0.153,0.249-0.345,0.39-0.575l0.287,0.185c-0.323,0.524-0.598,0.9-0.823,1.13c-0.391,0.396-0.804,0.594-1.237,0.594
		c-0.221,0-0.427-0.06-0.619-0.178c-0.191-0.119-0.287-0.315-0.287-0.589c0-0.226,0.057-0.543,0.172-0.951
		c0.072-0.25,0.168-0.537,0.287-0.862l0.537-1.999c0.009-0.04,0.016-0.081,0.022-0.124c0.006-0.042,0.01-0.084,0.01-0.124
		c0-0.108-0.027-0.2-0.08-0.274c-0.063-0.074-0.156-0.111-0.279-0.111c-0.34,0-0.723,0.228-1.151,0.684
		c-0.427,0.456-0.784,0.926-1.071,1.412c-0.106,0.174-0.211,0.387-0.315,0.639c-0.104,0.251-0.365,1.03-0.783,2.337h-1.568
		l1.157-4.286c0.034-0.1,0.062-0.191,0.083-0.273c0.021-0.082,0.032-0.161,0.032-0.237c0-0.12-0.025-0.196-0.075-0.228
		c-0.05-0.032-0.105-0.048-0.165-0.048c-0.19,0-0.441,0.195-0.753,0.585c-0.312,0.39-0.609,0.896-0.89,1.518
		c-0.15,0.333-0.314,0.797-0.493,1.394c-0.119,0.361-0.275,0.886-0.471,1.575H160.451z"/>
</g>
<path d="M142.368,31.664c-0.402,0-0.806,0.075-1.207,0.227c-0.628,0.227-1.031,0.428-1.282,0.63
	c-0.905,0.655-1.383,1.386-1.434,2.218c0,0.656,0.2,1.16,0.579,1.488c0.377,0.353,0.88,0.529,1.458,0.555
	c0.503,0,0.979-0.076,1.433-0.202s0.854-0.353,1.257-0.655c0.931-0.656,1.408-1.438,1.435-2.294c0-0.63-0.177-1.109-0.554-1.411
	c-0.428-0.379-0.956-0.555-1.584-0.555C142.418,31.664,142.392,31.664,142.368,31.664L142.368,31.664z"/>
<path fill="none" stroke="#000000" stroke-width="0.12" stroke-linecap="round" stroke-linejoin="round" stroke-miterlimit="10" d="
	M144.11,34.133v-17.64 M144.229,34.133v-17.64 M144.349,34.133v-17.64 M144.469,34.133v-17.64"/>
<path d="M160.727,31.664c-0.401,0-0.805,0.075-1.207,0.227c-0.628,0.227-1.03,0.428-1.281,0.63
	c-0.905,0.655-1.383,1.386-1.435,2.218c0,0.656,0.201,1.16,0.579,1.488c0.377,0.353,0.88,0.529,1.458,0.555
	c0.503,0,0.98-0.076,1.434-0.202c0.452-0.126,0.854-0.353,1.257-0.655c0.931-0.656,1.408-1.438,1.434-2.294
	c0-0.63-0.176-1.109-0.553-1.411c-0.428-0.379-0.956-0.555-1.584-0.555C160.778,31.664,160.753,31.664,160.727,31.664
	L160.727,31.664z"/>
<path fill="none" stroke="#000000" stroke-width="0.12" stroke-linecap="round" stroke-linejoin="round" stroke-miterlimit="10" d="
	M162.469,34.133v-17.64 M162.59,34.133v-17.64 M162.71,34.133v-17.64 M162.83,34.133v-17.64 M162.95,35.333
	c0,2.641,6.24,4.8,14.04,4.8c7.68,0,13.92-2.159,13.92-4.8 M162.95,35.333c0,2.641,6.24,4.919,14.04,4.919
	c7.68,0,13.92-2.278,13.92-4.919 M162.95,35.333c0,2.759,6.24,5.041,14.04,5.041c7.68,0,13.92-2.281,13.92-5.041 M162.95,35.333
	c0,2.759,6.24,5.16,14.04,5.16c7.68,0,13.92-2.4,13.92-5.16 M162.95,35.333c0,2.88,6.24,5.279,14.04,5.279
	c7.68,0,13.92-2.398,13.92-5.279 M162.95,35.333c0,2.88,6.24,5.4,14.04,5.4c7.68,0,13.92-2.521,13.92-5.4 M162.95,35.333
	c0,3,6.24,5.52,14.04,5.52c7.68,0,13.92-2.521,14.04-5.52 M162.95,35.333c0,3.119,6.24,5.641,14.04,5.641
	c7.68,0,13.92-2.521,14.04-5.641 M181.55,21.533v20.159 M181.67,21.533v20.159 M181.79,21.533v20.159 M181.91,21.533v20.159"/>
<g enable-background="new    ">
	<path d="M190.765,10.521c0.31-0.038,0.54-0.114,0.688-0.229c0.148-0.114,0.272-0.349,0.37-0.704l1.603-5.868
		c0.033-0.12,0.06-0.225,0.082-0.314c0.038-0.183,0.057-0.326,0.057-0.428c0-0.208-0.06-0.34-0.178-0.396
		c-0.119-0.055-0.376-0.1-0.771-0.134V2.109h3.589c0.802,0,1.424,0.079,1.865,0.236c0.81,0.29,1.215,0.843,1.215,1.661
		c0,0.272-0.068,0.563-0.204,0.872c-0.136,0.309-0.363,0.589-0.683,0.84c-0.225,0.179-0.488,0.324-0.791,0.435
		c-0.178,0.064-0.457,0.141-0.835,0.23c0.043,0.134,0.071,0.219,0.086,0.252l1.005,2.954c0.137,0.394,0.281,0.644,0.438,0.752
		c0.154,0.107,0.392,0.168,0.711,0.181v0.338h-2.627l-1.409-4.324h-0.366l-0.772,2.721l-0.108,0.451
		c-0.009,0.034-0.015,0.071-0.019,0.111c-0.004,0.04-0.006,0.082-0.006,0.124c0,0.233,0.056,0.379,0.169,0.439
		c0.112,0.059,0.373,0.105,0.781,0.14v0.338h-3.888V10.521z M195.771,6.018c0.405-0.085,0.715-0.251,0.932-0.498
		c0.149-0.17,0.289-0.41,0.417-0.718c0.129-0.309,0.194-0.642,0.194-1c0-0.366-0.091-0.67-0.271-0.91
		c-0.181-0.241-0.488-0.361-0.921-0.361c-0.181,0-0.312,0.039-0.392,0.118c-0.08,0.079-0.149,0.233-0.208,0.463l-0.789,2.995
		C195.198,6.099,195.543,6.069,195.771,6.018z"/>
	<path d="M201.331,6.202c0.781-0.919,1.639-1.378,2.574-1.378c0.404,0,0.738,0.1,1.004,0.3s0.398,0.482,0.398,0.848
		c0,0.552-0.31,1.075-0.93,1.568c-0.621,0.493-1.426,0.808-2.416,0.943c-0.025,0.132-0.045,0.255-0.058,0.371
		c-0.013,0.115-0.02,0.208-0.02,0.281c0,0.269,0.038,0.479,0.114,0.632c0.137,0.286,0.398,0.428,0.785,0.428
		c0.314,0,0.627-0.162,0.937-0.485c0.166-0.17,0.345-0.407,0.536-0.709l0.382,0.224c-0.327,0.549-0.636,0.951-0.925,1.207
		c-0.459,0.409-0.996,0.613-1.612,0.613c-0.459,0-0.892-0.167-1.297-0.5c-0.406-0.334-0.608-0.843-0.608-1.528
		C200.197,8.029,200.573,7.091,201.331,6.202z M204.04,5.408c-0.056-0.104-0.156-0.156-0.3-0.156c-0.306,0-0.606,0.246-0.902,0.739
		c-0.295,0.493-0.557,1.183-0.787,2.071c0.751-0.17,1.286-0.497,1.6-0.981c0.314-0.484,0.471-0.916,0.471-1.293
		C204.122,5.639,204.094,5.512,204.04,5.408z"/>
</g>
<path d="M195.048,31.664c-0.402,0-0.805,0.075-1.207,0.227c-0.629,0.227-1.031,0.428-1.283,0.63
	c-0.904,0.655-1.383,1.386-1.433,2.218c0,0.656,0.201,1.16,0.578,1.488c0.377,0.353,0.88,0.529,1.458,0.555
	c0.503,0,0.98-0.076,1.434-0.202s0.855-0.353,1.257-0.655c0.931-0.656,1.408-1.438,1.434-2.294c0-0.63-0.176-1.109-0.553-1.411
	c-0.428-0.379-0.956-0.555-1.584-0.555C195.097,31.664,195.073,31.664,195.048,31.664L195.048,31.664z"/>
<path fill="none" stroke="#000000" stroke-width="0.12" stroke-linecap="round" stroke-linejoin="round" stroke-miterlimit="10" d="
	M196.79,34.133v-17.64 M196.91,34.133v-17.64 M197.03,34.133v-17.64 M197.15,34.133v-17.64 M215.267,34.133V13.974 M215.387,34.133
	V13.974 M215.508,34.133V13.974 M215.628,34.133V13.974 M227.508,34.133V13.974 M227.628,34.133V13.974 M227.748,34.133V13.974
	 M227.869,34.133V13.974 M215.508,16.494h12.239 M215.508,16.374h12.239 M215.508,16.253h12.239 M215.508,16.133h12.239
	 M215.508,16.013h12.239 M215.508,15.894h12.239 M215.508,15.773h12.239 M215.508,15.654h12.239 M215.508,15.533h12.239
	 M215.508,15.414h12.239 M215.508,15.293h12.239 M215.508,15.173h12.239 M215.508,15.053h12.239 M215.508,14.933h12.239
	 M215.508,14.814h12.239 M215.508,14.693h12.239 M215.508,14.574h12.239 M215.508,14.453h12.239 M215.508,14.333h12.239
	 M215.508,14.213h12.239 M215.508,14.093h12.239"/>
<path d="M213.406,31.664c-0.402,0-0.806,0.075-1.207,0.227c-0.629,0.227-1.031,0.428-1.282,0.63
	c-0.905,0.655-1.384,1.386-1.434,2.218c0,0.656,0.2,1.16,0.578,1.488c0.378,0.353,0.88,0.529,1.458,0.555
	c0.504,0,0.98-0.076,1.434-0.202s0.854-0.353,1.258-0.655c0.931-0.656,1.408-1.438,1.434-2.294c0-0.63-0.176-1.109-0.553-1.411
	c-0.428-0.379-0.956-0.555-1.585-0.555C213.457,31.664,213.43,31.664,213.406,31.664L213.406,31.664z M225.655,31.664
	c-0.402,0-0.806,0.075-1.207,0.227c-0.629,0.227-1.031,0.428-1.282,0.63c-0.906,0.655-1.383,1.386-1.434,2.218
	c0,0.656,0.2,1.16,0.577,1.488c0.377,0.353,0.882,0.529,1.459,0.555c0.503,0,0.98-0.076,1.435-0.202
	c0.452-0.126,0.854-0.353,1.257-0.655c0.931-0.656,1.408-1.438,1.433-2.294c0-0.63-0.176-1.109-0.553-1.411
	c-0.428-0.379-0.955-0.555-1.584-0.555C225.705,31.664,225.678,31.664,225.655,31.664L225.655,31.664z"/>
<path fill="none" stroke="#000000" stroke-width="0.12" stroke-linecap="round" stroke-linejoin="round" stroke-miterlimit="10" d="
	M233.988,21.533v20.159 M234.108,21.533v20.159 M234.227,21.533v20.159 M234.347,21.533v20.159"/>
<g enable-background="new    ">
	<path d="M243.665,13.625l0.471-2.932l0.377,0.026c0.025,0.417,0.061,0.722,0.107,0.913c0.081,0.319,0.228,0.603,0.44,0.85
		c0.195,0.226,0.417,0.397,0.666,0.514s0.52,0.175,0.812,0.175c0.522,0,0.928-0.167,1.214-0.501
		c0.287-0.334,0.432-0.723,0.432-1.166c0-0.549-0.534-1.243-1.601-2.082c-1.067-0.877-1.601-1.688-1.601-2.433
		c0-0.703,0.235-1.301,0.705-1.795c0.469-0.494,1.125-0.741,1.967-0.741c0.233,0,0.473,0.023,0.72,0.07
		c0.161,0.03,0.304,0.066,0.427,0.108l0.332,0.109c0.072,0.021,0.146,0.039,0.223,0.054c0.077,0.015,0.145,0.022,0.205,0.022
		c0.152,0,0.27-0.032,0.35-0.096c0.081-0.064,0.15-0.143,0.211-0.236h0.389l-0.529,2.618l-0.338-0.044l-0.045-0.428
		c-0.055-0.404-0.18-0.751-0.375-1.041c-0.307-0.456-0.753-0.683-1.34-0.683c-0.501,0-0.866,0.183-1.096,0.549
		c-0.153,0.243-0.229,0.504-0.229,0.786c0,0.298,0.078,0.562,0.235,0.792c0.089,0.128,0.223,0.267,0.4,0.416l1.127,0.926
		c0.398,0.328,0.737,0.702,1.018,1.121c0.279,0.419,0.42,0.897,0.42,1.434c0,0.69-0.271,1.312-0.812,1.868
		c-0.543,0.556-1.287,0.833-2.234,0.833c-0.238,0-0.478-0.022-0.718-0.066c-0.24-0.044-0.478-0.108-0.71-0.192l-0.332-0.12
		c-0.111-0.042-0.188-0.068-0.229-0.079c-0.042-0.01-0.091-0.016-0.147-0.016c-0.144,0-0.247,0.035-0.309,0.104
		s-0.131,0.19-0.207,0.362H243.665z"/>
	<path d="M256.094,7.66c0.612,0.349,0.918,0.943,0.918,1.782c0,0.928-0.353,1.829-1.059,2.701c-0.769,0.95-1.648,1.424-2.639,1.424
		c-0.506,0-0.984-0.157-1.438-0.473c-0.453-0.315-0.679-0.847-0.679-1.597c0-0.932,0.351-1.835,1.052-2.708
		c0.77-0.954,1.655-1.43,2.658-1.43C255.35,7.36,255.747,7.46,256.094,7.66z M252.837,12.795c0.107,0.243,0.307,0.364,0.6,0.364
		c0.544,0,1.033-0.626,1.467-1.877c0.361-1.052,0.541-1.961,0.541-2.727c0-0.205-0.025-0.364-0.076-0.479
		c-0.098-0.213-0.28-0.319-0.549-0.319c-0.624,0-1.148,0.664-1.574,1.992c-0.327,1.009-0.49,1.848-0.49,2.517
		C252.755,12.491,252.782,12.667,252.837,12.795z"/>
</g>
<g enable-background="new    ">
	<path d="M257.954,12.105c0.025-0.115,0.067-0.283,0.127-0.505l1.541-5.638c0.037-0.145,0.065-0.262,0.082-0.352
		c0.018-0.089,0.025-0.167,0.025-0.23c0-0.191-0.062-0.309-0.191-0.351c-0.127-0.043-0.335-0.06-0.624-0.051V4.633
		c0.646-0.063,1.083-0.111,1.312-0.144c0.227-0.032,0.697-0.114,1.408-0.246l-1.889,6.839c-0.094,0.345-0.15,0.564-0.172,0.658
		c-0.076,0.311-0.115,0.518-0.115,0.62c0,0.089,0.023,0.149,0.07,0.179c0.047,0.03,0.09,0.045,0.127,0.045
		c0.129,0,0.291-0.111,0.49-0.332c0.197-0.221,0.374-0.46,0.527-0.715l0.287,0.185c-0.383,0.588-0.693,0.997-0.932,1.227
		c-0.396,0.383-0.817,0.575-1.264,0.575c-0.243,0-0.453-0.082-0.629-0.246c-0.177-0.164-0.266-0.38-0.266-0.648
		C257.87,12.518,257.898,12.343,257.954,12.105z"/>
</g>
<path fill="none" stroke="#000000" stroke-width="0.12" stroke-linecap="round" stroke-linejoin="round" stroke-miterlimit="10" d="
	M243.347,31.613v20.16 M243.468,31.613v20.16 M243.587,31.613v20.16 M243.709,31.613v20.16 M259.908,31.613v20.16 M260.028,31.613
	v20.16 M260.148,31.613v20.16 M260.267,31.613v20.16 M243.587,49.253h16.562 M243.587,49.374h16.562 M243.587,49.493h16.562
	 M243.587,49.612h16.562 M243.587,49.733h16.562 M243.587,49.853h16.562 M243.587,49.974h16.562 M243.587,50.093h16.562
	 M243.587,50.214h16.562 M243.587,50.333h16.562 M243.587,50.452h16.562 M243.587,50.573h16.562 M243.587,50.692h16.562
	 M243.587,50.813h16.562 M243.587,50.933h16.562 M243.587,51.054h16.562 M243.587,51.173h16.562 M243.587,51.294h16.562
	 M243.587,51.413h16.562 M243.587,51.532h16.562 M243.587,51.653h16.562"/>
<path d="M247.486,29.142c-0.402,0-0.806,0.076-1.207,0.227c-0.629,0.227-1.031,0.429-1.283,0.631
	c-0.904,0.654-1.383,1.387-1.433,2.218c0,0.655,0.2,1.159,0.577,1.487c0.378,0.354,0.881,0.529,1.458,0.555
	c0.504,0,0.981-0.076,1.435-0.201c0.453-0.127,0.854-0.354,1.258-0.656c0.93-0.655,1.408-1.437,1.434-2.293
	c0-0.631-0.176-1.109-0.554-1.412c-0.427-0.379-0.956-0.555-1.584-0.555C247.537,29.142,247.51,29.142,247.486,29.142
	L247.486,29.142z M264.06,29.142c-0.401,0-0.805,0.076-1.206,0.227c-0.63,0.227-1.031,0.429-1.282,0.631
	c-0.906,0.654-1.383,1.387-1.435,2.218c0,0.655,0.201,1.159,0.578,1.487c0.377,0.354,0.881,0.529,1.459,0.555
	c0.502,0,0.98-0.076,1.435-0.201c0.451-0.127,0.854-0.354,1.257-0.656c0.931-0.655,1.408-1.437,1.433-2.293
	c0-0.631-0.176-1.109-0.553-1.412c-0.428-0.379-0.955-0.555-1.584-0.555C264.111,29.142,264.085,29.142,264.06,29.142L264.06,29.142
	z"/>
<g enable-background="new    ">
	<path d="M273.566,10.521c0.336-0.042,0.578-0.169,0.728-0.38c0.148-0.21,0.348-0.75,0.6-1.618l1.33-4.869
		c0.049-0.166,0.088-0.312,0.116-0.437c0.028-0.126,0.044-0.235,0.044-0.329c0-0.183-0.065-0.299-0.195-0.348
		s-0.379-0.08-0.749-0.092V2.109h2.984l0.747,6.166l3.988-6.166h2.774v0.339c-0.298,0.038-0.506,0.098-0.624,0.179
		c-0.188,0.127-0.332,0.374-0.434,0.74l-1.607,5.884c-0.039,0.127-0.072,0.257-0.1,0.389s-0.041,0.243-0.041,0.332
		c0,0.217,0.062,0.354,0.188,0.412c0.125,0.057,0.382,0.103,0.769,0.137v0.338h-4.079v-0.338c0.438-0.042,0.738-0.114,0.901-0.214
		s0.296-0.341,0.398-0.725l1.644-6.018l-4.9,7.467h-0.363l-0.881-7.256l-1.316,4.748c-0.068,0.243-0.119,0.444-0.153,0.606
		c-0.06,0.264-0.089,0.474-0.089,0.631c0,0.307,0.121,0.517,0.363,0.632c0.137,0.068,0.363,0.111,0.682,0.128v0.338h-2.724V10.521z"
		/>
	<path d="M285.993,9.601c0.029-0.132,0.074-0.307,0.133-0.523l0.803-2.938c0.009-0.034,0.016-0.068,0.023-0.102
		c0.006-0.034,0.009-0.066,0.009-0.096c0-0.174-0.056-0.283-0.165-0.326c-0.111-0.042-0.312-0.07-0.605-0.083V5.188
		c0.245-0.017,0.601-0.052,1.066-0.105c0.467-0.053,0.797-0.099,0.991-0.137l0.557-0.108l-1.013,3.723
		c-0.086,0.319-0.143,0.541-0.173,0.665c-0.077,0.315-0.114,0.519-0.114,0.613s0.021,0.154,0.063,0.182s0.089,0.042,0.14,0.042
		c0.133,0,0.297-0.113,0.492-0.338c0.196-0.226,0.369-0.462,0.518-0.709l0.287,0.185c-0.426,0.626-0.751,1.047-0.977,1.265
		c-0.37,0.358-0.766,0.537-1.188,0.537c-0.238,0-0.451-0.074-0.641-0.221c-0.189-0.146-0.284-0.371-0.284-0.673
		C285.916,10,285.941,9.831,285.993,9.601z M289.062,2.173c0.17,0.17,0.255,0.377,0.255,0.62s-0.085,0.45-0.255,0.623
		s-0.376,0.259-0.618,0.259s-0.449-0.086-0.621-0.259s-0.259-0.38-0.259-0.623s0.087-0.449,0.259-0.62
		c0.172-0.17,0.379-0.255,0.621-0.255S288.892,2.003,289.062,2.173z"/>
</g>
<g enable-background="new    ">
	<path d="M289.414,10.859l1.142-4.185c0.068-0.245,0.113-0.417,0.135-0.517c0.021-0.099,0.032-0.195,0.032-0.288
		c0-0.14-0.044-0.226-0.132-0.26c-0.088-0.034-0.279-0.059-0.578-0.076V5.188c0.551-0.034,1.02-0.079,1.405-0.134
		c0.249-0.034,0.659-0.106,1.229-0.217l-0.787,2.42l0.045,0.032c0.569-0.864,0.998-1.443,1.287-1.737
		c0.473-0.477,0.969-0.715,1.492-0.715c0.242,0,0.443,0.076,0.605,0.227s0.242,0.359,0.242,0.624c0,0.2-0.039,0.437-0.115,0.71
		c-0.041,0.152-0.098,0.341-0.17,0.569c0.543-0.685,0.984-1.166,1.32-1.442c0.559-0.459,1.139-0.689,1.74-0.689
		c0.404,0,0.703,0.096,0.896,0.288c0.193,0.192,0.291,0.465,0.291,0.817c0,0.199-0.041,0.465-0.121,0.799
		c-0.008,0.046-0.053,0.213-0.135,0.5l-0.691,2.075c-0.051,0.116-0.1,0.236-0.145,0.36s-0.066,0.212-0.066,0.263
		c0,0.048,0.025,0.085,0.074,0.113s0.094,0.041,0.137,0.041c0.123,0,0.295-0.143,0.518-0.428c0.119-0.153,0.248-0.345,0.389-0.575
		l0.287,0.185c-0.324,0.524-0.598,0.9-0.822,1.13C298.526,10.802,298.114,11,297.68,11c-0.221,0-0.428-0.06-0.619-0.178
		c-0.191-0.119-0.287-0.315-0.287-0.589c0-0.226,0.059-0.543,0.174-0.951c0.072-0.25,0.166-0.537,0.285-0.862l0.539-1.999
		c0.008-0.04,0.016-0.081,0.021-0.124c0.006-0.042,0.01-0.084,0.01-0.124c0-0.108-0.027-0.2-0.08-0.274
		c-0.064-0.074-0.156-0.111-0.279-0.111c-0.34,0-0.723,0.228-1.15,0.684s-0.785,0.926-1.07,1.412
		c-0.107,0.174-0.212,0.387-0.315,0.639c-0.104,0.251-0.364,1.03-0.783,2.337h-1.568l1.157-4.286c0.033-0.1,0.062-0.191,0.082-0.273
		c0.021-0.082,0.033-0.161,0.033-0.237c0-0.12-0.025-0.196-0.076-0.228c-0.05-0.032-0.104-0.048-0.164-0.048
		c-0.189,0-0.441,0.195-0.754,0.585c-0.312,0.39-0.609,0.896-0.89,1.518c-0.15,0.333-0.314,0.797-0.493,1.394
		c-0.118,0.361-0.275,0.886-0.471,1.575H289.414z"/>
</g>
<path fill="none" stroke="#000000" stroke-width="0.12" stroke-linecap="round" stroke-linejoin="round" stroke-miterlimit="10" d="
	M281.387,36.654v-20.16 M281.508,36.654v-20.16 M281.628,36.654v-20.16 M281.748,36.654v-20.16 M303.108,31.613v-20.28
	 M303.228,31.613v-20.28 M303.348,31.613v-20.28 M303.468,31.613v-20.28 M281.628,19.013l21.721-5.16 M281.628,18.894l21.721-5.16
	 M281.628,18.773l21.721-5.16 M281.628,18.654l21.721-5.16 M281.628,18.533l21.721-5.159 M281.628,18.414l21.721-5.16
	 M281.628,18.293l21.721-5.16 M281.628,18.173l21.721-5.16 M281.628,18.053l21.721-5.159 M281.628,17.933l21.721-5.16
	 M281.628,17.814l21.721-5.16 M281.628,17.693l21.721-5.16 M281.628,17.574l21.721-5.16 M281.628,17.453l21.721-5.159
	 M281.628,17.333l21.721-5.16 M281.628,17.213l21.721-5.16 M281.628,17.093l21.721-5.16 M281.628,16.974l21.721-5.16
	 M281.628,16.853l21.721-5.16 M281.628,16.734l21.721-5.16 M281.628,16.613l21.721-5.16"/>
<path d="M279.526,34.183c-0.402,0-0.806,0.076-1.207,0.227c-0.629,0.227-1.031,0.429-1.282,0.631
	c-0.905,0.654-1.384,1.386-1.435,2.218c0,0.655,0.201,1.159,0.578,1.487c0.377,0.354,0.88,0.528,1.459,0.555
	c0.503,0,0.98-0.075,1.434-0.2c0.453-0.127,0.854-0.354,1.258-0.656c0.931-0.654,1.408-1.437,1.434-2.292
	c0-0.631-0.177-1.109-0.554-1.412c-0.428-0.379-0.955-0.555-1.584-0.555C279.576,34.183,279.551,34.183,279.526,34.183
	L279.526,34.183z"/>
<path d="M301.246,29.143c-0.401,0-0.805,0.075-1.207,0.228c-0.629,0.227-1.031,0.428-1.282,0.629
	c-0.904,0.656-1.383,1.387-1.434,2.219c0,0.655,0.201,1.16,0.578,1.487c0.378,0.353,0.881,0.529,1.459,0.555
	c0.503,0,0.979-0.075,1.434-0.202c0.452-0.125,0.854-0.353,1.257-0.654c0.932-0.656,1.408-1.438,1.435-2.295
	c0-0.63-0.176-1.109-0.554-1.411c-0.428-0.378-0.955-0.555-1.584-0.555C301.296,29.143,301.271,29.143,301.246,29.143
	L301.246,29.143z"/>
<path fill="none" stroke="#000000" stroke-width="0.12" stroke-linecap="round" stroke-linejoin="round" stroke-miterlimit="10" d="
	M317.268,21.533v20.159 M317.388,21.533v20.159 M317.508,21.533v20.159 M317.628,21.533v20.159"/>
<g enable-background="new    ">
	<path d="M326.584,13.044c0.31-0.039,0.539-0.115,0.688-0.23c0.148-0.115,0.271-0.351,0.369-0.708l1.603-5.864
		c0.046-0.166,0.081-0.305,0.104-0.418s0.035-0.212,0.035-0.297c0-0.221-0.062-0.361-0.185-0.418
		c-0.123-0.058-0.38-0.103-0.771-0.137V4.633h4.137v0.339c-0.455,0.046-0.761,0.118-0.918,0.213
		c-0.157,0.096-0.289,0.337-0.396,0.725l-1.699,6.241c-0.017,0.069-0.03,0.133-0.041,0.193s-0.016,0.131-0.016,0.212
		c0,0.146,0.063,0.25,0.191,0.312c0.127,0.062,0.306,0.093,0.535,0.093c0.897,0,1.673-0.153,2.325-0.46
		c0.653-0.307,1.229-0.879,1.726-1.718l0.312,0.058l-0.765,2.542h-7.235V13.044z"/>
	<path d="M336.119,8.899c0.79-1.035,1.593-1.552,2.407-1.552c0.331,0,0.575,0.098,0.732,0.294c0.094,0.119,0.177,0.319,0.249,0.601
		l0.221-0.696l1.363-0.096l-0.851,3.059c-0.121,0.434-0.207,0.767-0.258,0.996c-0.114,0.439-0.172,0.752-0.172,0.939
		c0,0.077,0.017,0.13,0.051,0.16s0.072,0.045,0.115,0.045c0.076,0,0.15-0.029,0.223-0.086c0.072-0.057,0.153-0.139,0.242-0.246
		c0.043-0.047,0.115-0.135,0.217-0.265c0.103-0.13,0.188-0.24,0.255-0.329l0.274,0.198c-0.353,0.52-0.689,0.926-1.011,1.22
		c-0.32,0.294-0.645,0.44-0.972,0.44c-0.2,0-0.394-0.074-0.58-0.223c-0.188-0.149-0.28-0.368-0.28-0.658
		c0-0.11,0.055-0.381,0.165-0.811c0.018-0.017,0.001,0.013-0.048,0.089s-0.124,0.19-0.226,0.339
		c-0.229,0.349-0.501,0.645-0.813,0.888s-0.659,0.364-1.042,0.364c-0.344,0-0.665-0.13-0.963-0.39
		c-0.297-0.259-0.446-0.7-0.446-1.322C334.972,10.894,335.355,9.908,336.119,8.899z M339.139,8.19
		c-0.081-0.196-0.231-0.294-0.452-0.294c-0.472,0-0.955,0.56-1.452,1.68c-0.438,0.992-0.656,1.752-0.656,2.28
		c0,0.208,0.053,0.39,0.156,0.543c0.104,0.153,0.241,0.23,0.411,0.23c0.433,0.004,0.923-0.571,1.471-1.725
		c0.391-0.966,0.586-1.733,0.586-2.299C339.203,8.435,339.181,8.297,339.139,8.19z"/>
</g>
<g enable-background="new    ">
	<path d="M347.26,4.454h0.835l-1.562,5.69h0.893l-0.343,1.271h-0.89l-0.545,1.967h-1.676l0.544-1.967h-3.209l0.383-1.36
		L347.26,4.454z M344.857,10.145l0.999-3.657l-3.637,3.657H344.857z"/>
</g>
<path d="M330.766,31.664c-0.402,0-0.806,0.075-1.207,0.227c-0.629,0.227-1.031,0.428-1.283,0.63
	c-0.905,0.655-1.383,1.386-1.434,2.218c0,0.656,0.201,1.16,0.578,1.488c0.377,0.353,0.88,0.529,1.458,0.555
	c0.503,0,0.981-0.076,1.435-0.202s0.854-0.353,1.258-0.655c0.93-0.656,1.408-1.438,1.433-2.294c0-0.63-0.176-1.109-0.553-1.411
	c-0.428-0.379-0.956-0.555-1.584-0.555C330.816,31.664,330.791,31.664,330.766,31.664L330.766,31.664z"/>
<path fill="none" stroke="#000000" stroke-width="0.12" stroke-linecap="round" stroke-linejoin="round" stroke-miterlimit="10" d="
	M332.508,34.133v-17.64 M332.628,34.133v-17.64 M332.748,34.133v-17.64 M332.868,34.133v-17.64"/>
<path d="M349.125,31.664c-0.401,0-0.805,0.075-1.207,0.227c-0.628,0.227-1.029,0.428-1.282,0.63
	c-0.904,0.655-1.383,1.386-1.434,2.218c0,0.656,0.201,1.16,0.579,1.488c0.377,0.353,0.88,0.529,1.458,0.555
	c0.503,0,0.98-0.076,1.434-0.202c0.452-0.126,0.854-0.353,1.258-0.655c0.931-0.656,1.407-1.438,1.434-2.294
	c0-0.63-0.176-1.109-0.553-1.411c-0.429-0.379-0.956-0.555-1.585-0.555C349.176,31.664,349.151,31.664,349.125,31.664
	L349.125,31.664z"/>
<path fill="none" stroke="#000000" stroke-width="0.12" stroke-linecap="round" stroke-linejoin="round" stroke-miterlimit="10" d="
	M350.868,34.133v-17.64 M350.988,34.133v-17.64 M351.108,34.133v-17.64 M351.228,34.133v-17.64 M351.348,35.333
	c0,2.641,4.8,4.8,10.8,4.8s10.8-2.159,10.92-4.8 M351.348,35.333c0,2.641,4.8,4.919,10.8,4.919s10.8-2.278,10.92-4.919
	 M351.348,35.333c0,2.759,4.8,5.041,10.8,5.041s10.8-2.281,10.92-5.041 M351.348,35.333c0,2.759,4.8,5.16,10.8,5.16
	s10.8-2.4,10.92-5.16 M351.348,35.333c0,2.88,4.8,5.279,10.8,5.279s10.8-2.398,10.92-5.279 M351.348,35.333c0,2.88,4.8,5.4,10.8,5.4
	s10.8-2.521,10.92-5.4 M351.348,35.333c0,3,4.8,5.52,10.8,5.52s10.8-2.521,10.92-5.52 M351.348,35.333c0,3.119,4.8,5.641,10.8,5.641
	s10.8-2.521,10.92-5.641 M363.588,21.533v20.159 M363.709,21.533v20.159 M363.828,21.533v20.159 M363.948,21.533v20.159"/>
<g enable-background="new    ">
	<path d="M372.904,13.044c0.31-0.039,0.539-0.115,0.688-0.23c0.148-0.115,0.271-0.351,0.369-0.708l1.603-5.864
		c0.046-0.166,0.081-0.305,0.104-0.418s0.035-0.212,0.035-0.297c0-0.221-0.062-0.361-0.185-0.418
		c-0.123-0.058-0.38-0.103-0.771-0.137V4.633h4.137v0.339c-0.455,0.046-0.761,0.118-0.918,0.213
		c-0.157,0.096-0.289,0.337-0.396,0.725l-1.699,6.241c-0.017,0.069-0.03,0.133-0.041,0.193s-0.016,0.131-0.016,0.212
		c0,0.146,0.063,0.25,0.191,0.312c0.127,0.062,0.306,0.093,0.535,0.093c0.897,0,1.673-0.153,2.325-0.46
		c0.653-0.307,1.229-0.879,1.726-1.718l0.312,0.058l-0.765,2.542h-7.235V13.044z"/>
	<path d="M382.439,8.899c0.79-1.035,1.593-1.552,2.407-1.552c0.331,0,0.575,0.098,0.732,0.294c0.094,0.119,0.177,0.319,0.249,0.601
		l0.221-0.696l1.363-0.096l-0.851,3.059c-0.121,0.434-0.207,0.767-0.258,0.996c-0.114,0.439-0.172,0.752-0.172,0.939
		c0,0.077,0.017,0.13,0.051,0.16s0.072,0.045,0.115,0.045c0.076,0,0.15-0.029,0.223-0.086c0.072-0.057,0.153-0.139,0.242-0.246
		c0.043-0.047,0.115-0.135,0.217-0.265c0.103-0.13,0.188-0.24,0.255-0.329l0.274,0.198c-0.353,0.52-0.689,0.926-1.011,1.22
		c-0.32,0.294-0.645,0.44-0.972,0.44c-0.2,0-0.394-0.074-0.58-0.223c-0.188-0.149-0.28-0.368-0.28-0.658
		c0-0.11,0.055-0.381,0.165-0.811c0.018-0.017,0.001,0.013-0.048,0.089s-0.124,0.19-0.226,0.339
		c-0.229,0.349-0.501,0.645-0.813,0.888s-0.659,0.364-1.042,0.364c-0.344,0-0.665-0.13-0.963-0.39
		c-0.297-0.259-0.446-0.7-0.446-1.322C381.293,10.894,381.676,9.908,382.439,8.899z M385.46,8.19
		c-0.081-0.196-0.231-0.294-0.452-0.294c-0.472,0-0.955,0.56-1.452,1.68c-0.438,0.992-0.656,1.752-0.656,2.28
		c0,0.208,0.053,0.39,0.156,0.543c0.104,0.153,0.241,0.23,0.411,0.23c0.433,0.004,0.923-0.571,1.471-1.725
		c0.391-0.966,0.586-1.733,0.586-2.299C385.523,8.435,385.502,8.297,385.46,8.19z"/>
</g>
<path d="M373.188,34.89c0,0.353,0.051,0.68,0.126,0.957c0.075,0.303,0.251,0.58,0.553,0.807c0.302,0.202,0.78,0.303,1.408,0.328
	c0.276,0,0.579-0.025,0.881-0.076c0.302-0.075,0.604-0.201,0.93-0.327c0.604-0.277,1.132-0.681,1.585-1.21
	c0.428-0.504,0.653-1.033,0.68-1.588c0-0.908-0.228-1.562-0.704-1.916c-0.303-0.227-0.755-0.354-1.358-0.354
	c-0.075,0-0.125,0-0.201,0c-0.226,0-0.478,0.025-0.704,0.076c-0.325,0.076-0.628,0.201-0.93,0.328
	c-0.629,0.303-1.157,0.68-1.585,1.159c-0.427,0.504-0.653,1.034-0.679,1.613C373.188,34.763,373.188,34.814,373.188,34.89
	L373.188,34.89z M376.633,32.949c0.429-0.151,0.83-0.227,1.207-0.227c0.025,0,0.075,0,0.102,0c0.101,0,0.201,0.05,0.327,0.176
	c0.074,0.076,0.149,0.177,0.176,0.277c0,0.277-0.151,0.58-0.428,0.908c-0.228,0.252-0.377,0.428-0.452,0.529
	c-0.076,0.05-0.252,0.201-0.554,0.428c-0.228,0.151-0.402,0.277-0.578,0.354c-0.303,0.176-0.503,0.277-0.578,0.303
	c-0.201,0.075-0.429,0.125-0.654,0.15s-0.428,0.051-0.578,0.051c-0.15-0.025-0.275-0.102-0.401-0.201
	c-0.102-0.076-0.151-0.202-0.151-0.303c0-0.025,0-0.051,0-0.076c0-0.227,0.076-0.453,0.201-0.68c0.177-0.303,0.453-0.58,0.805-0.832
	C375.677,33.402,376.18,33.099,376.633,32.949L376.633,32.949z"/>
<path fill="none" stroke="#000000" stroke-width="0.12" stroke-linecap="round" stroke-linejoin="round" stroke-miterlimit="10" d="
	M378.828,34.133v-17.64 M378.948,34.133v-17.64 M379.068,34.133v-17.64 M379.188,34.133v-17.64 M409.908,21.533v20.159
	 M410.028,21.533v20.159 M410.148,21.533v20.159 M410.268,21.533v20.159 M411.348,21.533v20.159 M411.468,21.533v20.159
	 M411.588,21.533v20.159 M411.709,21.533v20.159 M411.828,21.533v20.159 M411.948,21.533v20.159 M412.068,21.533v20.159
	 M412.188,21.533v20.159 M412.308,21.533v20.159 M412.428,21.533v20.159 M412.548,21.533v20.159 M412.668,21.533v20.159
	 M412.788,21.533v20.159 M412.908,21.533v20.159 M413.028,21.533v20.159 M413.148,21.533v20.159 M413.268,21.533v20.159
	 M413.388,21.533v20.159 M413.508,21.533v20.159 M413.628,21.533v20.159 M413.748,21.533v20.159 M413.868,21.533v20.159
	 M413.988,21.533v20.159 M414.108,21.533v20.159 M414.228,21.533v20.159 M414.348,21.533v20.159 M414.468,21.533v20.159
	 M414.588,21.533v20.159"/>
</svg>
